mtllib rpg.mtl
o RPG7_Rocket
v -0.000877 0.027400 -0.067425
v 0.021347 0.019325 -0.067428
v 0.001617 0.061527 0.196875
v 0.001613 0.061042 0.084546
v 0.045123 0.043506 0.196875
v 0.044791 0.043152 0.084549
v 0.063144 -0.000000 0.196875
v 0.062659 -0.000000 0.084545
v 0.045123 -0.043506 0.196875
v 0.044791 -0.043152 0.084549
v 0.001617 -0.061527 0.196875
v 0.001613 -0.061042 0.084546
v -0.041890 -0.043506 0.196875
v -0.041560 -0.043147 0.084526
v -0.059911 0.000000 0.196875
v -0.059422 0.000000 0.084512
v -0.041890 0.043506 0.196875
v -0.041560 0.043147 0.084526
v 0.030482 -0.000000 -0.067439
v 0.021347 -0.019325 -0.067428
v -0.000877 -0.027401 -0.067425
v -0.023105 -0.019329 -0.067454
v -0.032244 0.000000 -0.067476
v -0.023105 0.019329 -0.067454
v -0.000882 0.040195 -0.170917
v -0.033320 0.028360 -0.170939
v -0.046663 0.000000 -0.170963
v -0.033320 -0.028360 -0.170939
v -0.000882 -0.040195 -0.170917
v 0.031556 -0.028360 -0.170939
v 0.044899 -0.000000 -0.170964
v 0.031556 0.028360 -0.170939
v -0.000882 0.026860 -0.170447
v -0.022607 0.018977 -0.170423
v -0.031588 0.000000 -0.170395
v -0.022607 -0.018977 -0.170423
v -0.000882 -0.026861 -0.170447
v 0.020843 -0.018977 -0.170423
v 0.029824 -0.000000 -0.170395
v 0.020843 0.018977 -0.170423
v -0.000882 0.018922 -0.467139
v -0.016261 0.013319 -0.467153
v -0.022539 0.000000 -0.467169
v -0.016261 -0.013319 -0.467153
v -0.000882 -0.018922 -0.467139
v 0.014496 -0.013319 -0.467153
v 0.020774 -0.000000 -0.467169
v 0.014496 0.013319 -0.467153
v 0.001617 0.018998 0.385475
v 0.015050 0.013433 0.385475
v 0.020614 -0.000000 0.385475
v 0.015050 -0.013433 0.385475
v 0.001617 -0.018998 0.385475
v -0.011817 -0.013433 0.385475
v -0.017381 -0.000000 0.385475
v -0.011817 0.013433 0.385475
v 0.001616 0.016074 0.445203
v 0.012983 0.011366 0.445203
v 0.017691 -0.000000 0.445203
v 0.012983 -0.011366 0.445203
v 0.001616 -0.016074 0.445203
v -0.009750 -0.011366 0.445203
v -0.014458 -0.000000 0.445203
v -0.009750 0.011366 0.445203
v 0.001616 0.009781 0.450054
v 0.008533 0.006917 0.450054
v 0.011398 -0.000000 0.450054
v 0.008533 -0.006917 0.450054
v 0.001616 -0.009782 0.450054
v -0.005300 -0.006917 0.450054
v -0.008165 -0.000000 0.450054
v -0.005300 0.006917 0.450054
v 0.001616 0.008501 0.489903
v 0.007627 0.006011 0.489903
v 0.010117 -0.000000 0.489903
v 0.007627 -0.006011 0.489903
v 0.001616 -0.008501 0.489903
v -0.004395 -0.006011 0.489903
v -0.006885 -0.000000 0.489903
v -0.004395 0.006011 0.489903
v 0.029920 -0.026912 -0.155625
v -0.000881 -0.038145 -0.155606
v 0.042588 -0.000000 -0.155647
v -0.031683 0.026912 -0.155629
v -0.000881 0.038144 -0.155606
v -0.031683 -0.026912 -0.155629
v -0.044352 0.000000 -0.155653
v 0.029920 0.026912 -0.155625
v 0.038227 0.014180 -0.170951
v 0.036254 0.013456 -0.155636
v 0.038227 -0.014180 -0.170951
v 0.036254 -0.013456 -0.155636
v 0.015337 0.034277 -0.170928
v 0.014519 0.032528 -0.155615
v -0.017101 0.034277 -0.170928
v -0.016282 0.032528 -0.155617
v 0.015337 -0.034277 -0.170928
v 0.014519 -0.032528 -0.155615
v -0.017101 -0.034277 -0.170928
v -0.016282 -0.032528 -0.155617
v -0.039991 -0.014180 -0.170951
v -0.038017 -0.013456 -0.155641
v -0.039991 0.014180 -0.170951
v -0.038017 0.013456 -0.155641
v -0.020914 0.044728 -0.177233
v -0.037133 0.038810 -0.177238
v -0.050043 0.018909 -0.177185
v -0.056714 0.004729 -0.177191
v -0.050042 -0.018909 -0.177184
v -0.043371 -0.033088 -0.177178
v -0.020914 -0.044728 -0.177232
v -0.004695 -0.050645 -0.177227
v 0.019150 -0.044728 -0.177233
v 0.035369 -0.038810 -0.177238
v 0.048279 -0.018909 -0.177185
v 0.054950 -0.004729 -0.177192
v 0.048279 0.018909 -0.177184
v 0.041607 0.033089 -0.177178
v 0.019150 0.044728 -0.177232
v 0.002931 0.050645 -0.177227
v 0.033733 -0.037362 -0.169767
v 0.052639 -0.004729 -0.169719
v -0.035496 0.037363 -0.169769
v -0.041734 -0.031641 -0.169709
v 0.039971 0.031640 -0.169707
v -0.004694 -0.048595 -0.169757
v 0.002932 0.048595 -0.169757
v -0.054403 0.004729 -0.169722
v 0.018332 0.042978 -0.169762
v 0.046305 0.018185 -0.169712
v 0.018332 -0.042978 -0.169762
v 0.046305 -0.018185 -0.169714
v -0.020095 0.042979 -0.169763
v -0.048068 -0.018185 -0.169715
v -0.020095 -0.042978 -0.169762
v -0.048069 0.018185 -0.169716
vt 0.658413 0.347711
vt 0.651752 0.358461
vt 0.650808 0.347466
vt 0.649520 0.343569
vt 0.507333 0.233461
vt 0.523008 0.137830
vt 0.538425 0.138677
vt 0.528846 0.234768
vt 0.507395 0.287829
vt 0.484857 0.290799
vt 0.484610 0.230930
vt 0.507333 0.233461
vt 0.654928 0.364689
vt 0.670127 0.361789
vt 0.668734 0.374037
vt 0.666227 0.371009
vt 0.591523 0.236547
vt 0.582117 0.140076
vt 0.596993 0.140107
vt 0.614293 0.235701
vt 0.484857 0.290799
vt 0.459125 0.296313
vt 0.459125 0.226576
vt 0.484610 0.230930
vt 0.711145 0.371795
vt 0.718804 0.375487
vt 0.711850 0.377369
vt 0.709748 0.378598
vt 0.528846 0.234768
vt 0.538425 0.138677
vt 0.552550 0.139464
vt 0.549436 0.235570
vt 0.635348 0.302468
vt 0.610225 0.295219
vt 0.614293 0.235701
vt 0.639910 0.233270
vt 0.659062 0.314135
vt 0.648859 0.316458
vt 0.654301 0.308954
vt 0.655703 0.305690
vt 0.614293 0.235701
vt 0.596993 0.140107
vt 0.609724 0.139740
vt 0.639910 0.233270
vt 0.610225 0.295219
vt 0.588051 0.290659
vt 0.591523 0.236547
vt 0.614293 0.235701
vt 0.666602 0.290081
vt 0.668589 0.302336
vt 0.660402 0.300495
vt 0.662252 0.298895
vt 0.484610 0.230930
vt 0.508157 0.136732
vt 0.523008 0.137830
vt 0.507333 0.233461
vt 0.588051 0.290659
vt 0.567715 0.287681
vt 0.570016 0.236274
vt 0.591523 0.236547
vt 0.703758 0.082766
vt 0.703106 0.089877
vt 0.715916 0.091830
vt 0.718400 0.084327
vt 0.710716 0.084973
vt 0.549436 0.235570
vt 0.552550 0.139464
vt 0.566689 0.139751
vt 0.570016 0.236274
vt 0.567715 0.287681
vt 0.547878 0.286178
vt 0.549436 0.235570
vt 0.570016 0.236274
vt 0.459125 0.226576
vt 0.495470 0.135396
vt 0.508157 0.136732
vt 0.484610 0.230930
vt 0.696814 0.372852
vt 0.711145 0.371795
vt 0.709748 0.378598
vt 0.703625 0.380695
vt 0.547878 0.286178
vt 0.527957 0.286291
vt 0.528846 0.234768
vt 0.549436 0.235570
vt 0.737489 0.302728
vt 0.745816 0.301658
vt 0.747014 0.312397
vt 0.738687 0.313464
vt 0.570016 0.236274
vt 0.566689 0.139751
vt 0.582117 0.140076
vt 0.591523 0.236547
vt 0.527957 0.286291
vt 0.507395 0.287829
vt 0.507333 0.233461
vt 0.528846 0.234768
vt 0.588051 0.290659
vt 0.610225 0.295219
vt 0.568684 0.396801
vt 0.560828 0.394397
vt 0.670127 0.361789
vt 0.680500 0.373560
vt 0.674114 0.377523
vt 0.668734 0.374037
vt 0.630856 0.095557
vt 0.648952 0.261981
vt 0.655905 0.261223
vt 0.641358 0.091830
vt 0.678637 0.080445
vt 0.678637 0.088216
vt 0.690352 0.088706
vt 0.690152 0.081269
vt 0.684237 0.082294
vt 0.653516 0.082765
vt 0.654168 0.089877
vt 0.666922 0.088706
vt 0.667122 0.081269
vt 0.660586 0.083592
vt 0.638874 0.084327
vt 0.641358 0.091830
vt 0.654168 0.089877
vt 0.653516 0.082765
vt 0.646558 0.084973
vt 0.718400 0.084327
vt 0.715916 0.091830
vt 0.726417 0.095557
vt 0.731225 0.090485
vt 0.724642 0.087892
vt 0.690152 0.081269
vt 0.690352 0.088706
vt 0.703106 0.089877
vt 0.703758 0.082766
vt 0.696688 0.083592
vt 0.667122 0.081269
vt 0.666922 0.088706
vt 0.678637 0.088216
vt 0.678637 0.080445
vt 0.673037 0.082294
vt 0.626049 0.090485
vt 0.630856 0.095557
vt 0.641358 0.091830
vt 0.638874 0.084327
vt 0.632632 0.087892
vt 0.669638 0.352876
vt 0.668149 0.335437
vt 0.679778 0.323110
vt 0.697978 0.323110
vt 0.711910 0.335634
vt 0.713399 0.353073
vt 0.701770 0.365399
vt 0.683571 0.365399
vt 0.703106 0.089877
vt 0.693519 0.260618
vt 0.701368 0.261223
vt 0.715916 0.091830
vt 0.678637 0.088216
vt 0.678637 0.260110
vt 0.685655 0.260233
vt 0.690352 0.088706
vt 0.654168 0.089877
vt 0.663755 0.260618
vt 0.671619 0.260233
vt 0.666922 0.088706
vt 0.641358 0.091830
vt 0.655905 0.261223
vt 0.663755 0.260618
vt 0.654168 0.089877
vt 0.715916 0.091830
vt 0.701368 0.261223
vt 0.708321 0.261981
vt 0.726417 0.095557
vt 0.690352 0.088706
vt 0.685655 0.260233
vt 0.693519 0.260618
vt 0.703106 0.089877
vt 0.666922 0.088706
vt 0.671619 0.260233
vt 0.678637 0.260110
vt 0.678637 0.088216
vt 0.536441 0.392780
vt 0.544595 0.392440
vt 0.544328 0.424039
vt 0.538834 0.424204
vt 0.567715 0.287681
vt 0.588051 0.290659
vt 0.560828 0.394397
vt 0.552770 0.392951
vt 0.484857 0.290799
vt 0.507395 0.287829
vt 0.528399 0.393961
vt 0.520551 0.395984
vt 0.459125 0.296313
vt 0.484857 0.290799
vt 0.520551 0.395984
vt 0.512904 0.398897
vt 0.547878 0.286178
vt 0.567715 0.287681
vt 0.552770 0.392951
vt 0.544595 0.392440
vt 0.507395 0.287829
vt 0.527957 0.286291
vt 0.536441 0.392780
vt 0.528399 0.393961
vt 0.610225 0.295219
vt 0.635348 0.302468
vt 0.576124 0.400143
vt 0.568684 0.396801
vt 0.527957 0.286291
vt 0.547878 0.286178
vt 0.544595 0.392440
vt 0.536441 0.392780
vt 0.555179 0.425224
vt 0.560498 0.426755
vt 0.558780 0.430850
vt 0.554001 0.429821
vt 0.552770 0.392951
vt 0.560828 0.394397
vt 0.555179 0.425224
vt 0.549784 0.424406
vt 0.568684 0.396801
vt 0.576124 0.400143
vt 0.565768 0.429506
vt 0.560498 0.426755
vt 0.520551 0.395984
vt 0.528399 0.393961
vt 0.533297 0.424912
vt 0.527582 0.426327
vt 0.528399 0.393961
vt 0.536441 0.392780
vt 0.538834 0.424204
vt 0.533297 0.424912
vt 0.544595 0.392440
vt 0.552770 0.392951
vt 0.549784 0.424406
vt 0.544328 0.424039
vt 0.560828 0.394397
vt 0.568684 0.396801
vt 0.560498 0.426755
vt 0.555179 0.425224
vt 0.512904 0.398897
vt 0.520551 0.395984
vt 0.527582 0.426327
vt 0.521966 0.429067
vt 0.533909 0.429855
vt 0.538897 0.429168
vt 0.541003 0.456857
vt 0.537268 0.457259
vt 0.521966 0.429067
vt 0.527582 0.426327
vt 0.529084 0.431141
vt 0.524603 0.432722
vt 0.538834 0.424204
vt 0.544328 0.424039
vt 0.543944 0.428955
vt 0.538897 0.429168
vt 0.549784 0.424406
vt 0.555179 0.425224
vt 0.554001 0.429821
vt 0.549007 0.429213
vt 0.560498 0.426755
vt 0.565768 0.429506
vt 0.562984 0.432528
vt 0.558780 0.430850
vt 0.527582 0.426327
vt 0.533297 0.424912
vt 0.533909 0.429855
vt 0.529084 0.431141
vt 0.533297 0.424912
vt 0.538834 0.424204
vt 0.538897 0.429168
vt 0.533909 0.429855
vt 0.544328 0.424039
vt 0.549784 0.424406
vt 0.549007 0.429213
vt 0.543944 0.428955
vt 0.704564 0.291836
vt 0.711724 0.299495
vt 0.711724 0.310325
vt 0.704564 0.317983
vt 0.694439 0.317983
vt 0.687279 0.310325
vt 0.687279 0.299494
vt 0.694439 0.291836
vt 0.543944 0.428955
vt 0.549007 0.429213
vt 0.548467 0.456635
vt 0.544738 0.456645
vt 0.554001 0.429821
vt 0.558780 0.430850
vt 0.555770 0.457179
vt 0.552147 0.456815
vt 0.524603 0.432722
vt 0.529084 0.431141
vt 0.533554 0.457851
vt 0.529586 0.458669
vt 0.538897 0.429168
vt 0.543944 0.428955
vt 0.544738 0.456645
vt 0.541003 0.456857
vt 0.549007 0.429213
vt 0.554001 0.429821
vt 0.552147 0.456815
vt 0.548467 0.456635
vt 0.558780 0.430850
vt 0.562984 0.432528
vt 0.559619 0.457719
vt 0.555770 0.457179
vt 0.529084 0.431141
vt 0.533909 0.429855
vt 0.537268 0.457259
vt 0.533554 0.457851
vt 0.508157 0.136732
vt 0.503280 0.082658
vt 0.511958 0.082322
vt 0.495470 0.135396
vt 0.487429 0.084615
vt 0.495425 0.083678
vt 0.582117 0.140076
vt 0.588099 0.084250
vt 0.596824 0.085571
vt 0.596993 0.140107
vt 0.605452 0.086568
vt 0.613216 0.088184
vt 0.523008 0.137830
vt 0.520752 0.081671
vt 0.529550 0.081619
vt 0.552550 0.139464
vt 0.554485 0.081286
vt 0.562515 0.082017
vt 0.566689 0.139751
vt 0.570568 0.082390
vt 0.579331 0.083525
vt 0.538425 0.138677
vt 0.538368 0.081156
vt 0.546427 0.081401
vt 0.651752 0.358461
vt 0.658413 0.347711
vt 0.670127 0.361789
vt 0.654928 0.364689
vt 0.648859 0.316458
vt 0.659062 0.314135
vt 0.658505 0.331265
vt 0.647421 0.322224
vt 0.683657 0.383287
vt 0.680500 0.373560
vt 0.696814 0.372852
vt 0.689841 0.384726
vt 0.718804 0.375487
vt 0.711145 0.371795
vt 0.720969 0.359476
vt 0.723369 0.372070
vt 0.671054 0.286944
vt 0.678493 0.290751
vt 0.668589 0.302336
vt 0.666602 0.290081
vt 0.705770 0.279381
vt 0.708981 0.289017
vt 0.692732 0.289711
vt 0.699633 0.277950
vt 0.737489 0.302728
vt 0.731280 0.313356
vt 0.719477 0.300127
vt 0.734207 0.296782
vt 0.740855 0.344408
vt 0.730427 0.346910
vt 0.731092 0.329639
vt 0.742254 0.338616
vt 0.552550 0.139464
vt 0.538425 0.138677
vt 0.546427 0.081401
vt 0.554485 0.081286
vt 0.538425 0.138677
vt 0.523008 0.137830
vt 0.529550 0.081619
vt 0.538368 0.081156
vt 0.523008 0.137830
vt 0.508157 0.136732
vt 0.511958 0.082322
vt 0.520752 0.081671
vt 0.508157 0.136732
vt 0.495470 0.135396
vt 0.495425 0.083678
vt 0.503280 0.082658
vt 0.609724 0.139740
vt 0.596993 0.140107
vt 0.613216 0.088184
vt 0.621124 0.089727
vt 0.596993 0.140107
vt 0.582117 0.140076
vt 0.596824 0.085571
vt 0.605452 0.086568
vt 0.582117 0.140076
vt 0.566689 0.139751
vt 0.579331 0.083525
vt 0.588099 0.084250
vt 0.566689 0.139751
vt 0.552550 0.139464
vt 0.562515 0.082017
vt 0.570568 0.082390
vt 0.747014 0.312397
vt 0.747428 0.317057
vt 0.738654 0.318180
vt 0.738687 0.313464
vt 0.676404 0.278619
vt 0.679302 0.277820
vt 0.680827 0.284795
vt 0.677852 0.285241
vt 0.716278 0.278053
vt 0.719280 0.280025
vt 0.715411 0.286412
vt 0.712605 0.284115
vt 0.742036 0.357371
vt 0.739657 0.360623
vt 0.732737 0.355092
vt 0.735465 0.352120
vt 0.642280 0.348307
vt 0.641978 0.343538
vt 0.650963 0.342652
vt 0.650808 0.347466
vt 0.647908 0.303652
vt 0.650307 0.300489
vt 0.657041 0.306073
vt 0.654301 0.308954
vt 0.673000 0.384537
vt 0.669972 0.382511
vt 0.673943 0.376074
vt 0.676768 0.378429
vt 0.713451 0.384144
vt 0.710487 0.385020
vt 0.708801 0.377885
vt 0.711850 0.377369
vt 0.731280 0.313356
vt 0.737489 0.302728
vt 0.738687 0.313464
vt 0.740013 0.317303
vt 0.699633 0.277950
vt 0.692732 0.289711
vt 0.685978 0.281959
vt 0.689316 0.281826
vt 0.730427 0.346910
vt 0.740855 0.344408
vt 0.735465 0.352120
vt 0.734124 0.355522
vt 0.647421 0.322224
vt 0.658505 0.331265
vt 0.649837 0.336248
vt 0.650376 0.333467
vt 0.718804 0.375487
vt 0.720403 0.382261
vt 0.713451 0.384144
vt 0.711850 0.377369
vt 0.708981 0.289017
vt 0.705770 0.279381
vt 0.712605 0.284115
vt 0.715210 0.284940
vt 0.720969 0.359476
vt 0.730427 0.346910
vt 0.734124 0.355522
vt 0.729466 0.361053
vt 0.683657 0.383287
vt 0.679887 0.389394
vt 0.673000 0.384537
vt 0.676768 0.378429
vt 0.734207 0.296782
vt 0.719477 0.300127
vt 0.720504 0.288156
vt 0.723018 0.291014
vt 0.731092 0.329639
vt 0.731280 0.313356
vt 0.740013 0.317303
vt 0.739735 0.324617
vt 0.648859 0.316458
vt 0.642465 0.311158
vt 0.647908 0.303652
vt 0.654301 0.308954
vt 0.680500 0.373560
vt 0.683657 0.383287
vt 0.676768 0.378429
vt 0.674114 0.377523
vt 0.689841 0.384726
vt 0.696814 0.372852
vt 0.703625 0.380695
vt 0.700254 0.380824
vt 0.719477 0.300127
vt 0.708981 0.289017
vt 0.715210 0.284940
vt 0.720504 0.288156
vt 0.651752 0.358461
vt 0.643225 0.359306
vt 0.642280 0.348307
vt 0.650808 0.347466
vt 0.692732 0.289711
vt 0.678493 0.290751
vt 0.679918 0.284049
vt 0.685978 0.281959
vt 0.740855 0.344408
vt 0.747428 0.349657
vt 0.742036 0.357371
vt 0.735465 0.352120
vt 0.742254 0.338616
vt 0.731092 0.329639
vt 0.739735 0.324617
vt 0.739214 0.327381
vt 0.668589 0.302336
vt 0.659062 0.314135
vt 0.655703 0.305690
vt 0.660402 0.300495
vt 0.705770 0.279381
vt 0.709444 0.273321
vt 0.716278 0.278053
vt 0.712605 0.284115
vt 0.723369 0.372070
vt 0.720969 0.359476
vt 0.729466 0.361053
vt 0.727609 0.362780
vt 0.658505 0.331265
vt 0.658413 0.347711
vt 0.649520 0.343569
vt 0.649837 0.336248
vt 0.671054 0.286944
vt 0.669608 0.280321
vt 0.676404 0.278619
vt 0.677852 0.285241
vt 0.678493 0.290751
vt 0.671054 0.286944
vt 0.677852 0.285241
vt 0.679918 0.284049
vn 0.367565 0.619617 -0.693472
vn 0.954558 0.106662 0.278176
vn 0.889523 0.249397 0.382733
vn 0.698233 0.299966 -0.649953
vn 0.001648 0.994324 -0.106113
vn -0.002014 0.998871 -0.046999
vn -0.685202 0.727500 -0.034303
vn -0.696829 0.710624 -0.097110
vn 0.000000 0.994385 0.105625
vn 0.703146 0.703116 0.105655
vn 0.697897 0.708090 -0.107425
vn 0.001648 0.994324 -0.106113
vn 0.907529 0.331431 0.257851
vn 0.328074 -0.350993 -0.877010
vn 0.700430 -0.279183 -0.656789
vn 0.886319 -0.306223 0.347301
vn 0.001648 -0.994324 -0.106113
vn -0.001953 -0.998871 -0.046999
vn 0.682699 -0.729209 -0.045991
vn 0.697897 -0.708090 -0.107425
vn 0.703146 0.703116 0.105655
vn 0.994385 0.000000 0.105655
vn 0.994385 0.000000 -0.105777
vn 0.697897 0.708090 -0.107425
vn -0.596820 0.319102 -0.736167
vn -0.104007 0.959777 0.260689
vn -0.345164 0.865291 0.363445
vn -0.357799 0.662404 -0.658132
vn -0.696829 0.710624 -0.097110
vn -0.685202 0.727500 -0.034303
vn -0.999695 0.000000 -0.024598
vn -0.995849 0.000000 -0.090823
vn 0.994385 0.000000 0.105655
vn 0.703146 -0.703116 0.105655
vn 0.697897 -0.708090 -0.107425
vn 0.994385 0.000000 -0.105777
vn 0.687429 0.148961 -0.710776
vn 0.723075 -0.635090 0.271615
vn 0.805231 -0.457381 0.377331
vn 0.705924 -0.269448 -0.655019
vn 0.697897 -0.708090 -0.107425
vn 0.682699 -0.729209 -0.045991
vn 0.999115 0.000000 -0.041505
vn 0.994385 0.000000 -0.105777
vn 0.703146 -0.703116 0.105655
vn 0.000000 -0.994385 0.105625
vn 0.001648 -0.994324 -0.106113
vn 0.697897 -0.708090 -0.107425
vn 0.247597 -0.936796 0.247108
vn -0.379589 -0.271310 -0.884457
vn -0.335643 -0.666463 -0.665670
vn -0.404706 -0.855281 0.323466
vn 0.697897 0.708090 -0.107425
vn 0.682699 0.729209 -0.045930
vn -0.002014 0.998871 -0.046999
vn 0.001648 0.994324 -0.106113
vn 0.000000 -0.994385 0.105625
vn -0.703146 -0.703116 0.105655
vn -0.696829 -0.710624 -0.097110
vn 0.001648 -0.994324 -0.106113
vn 0.596820 -0.319010 -0.736198
vn 0.000000 -0.581133 -0.813776
vn 0.381634 -0.416883 -0.824915
vn 0.687429 0.148961 -0.710776
vn -0.379589 -0.271310 -0.884457
vn -0.995849 0.000000 -0.090823
vn -0.999695 0.000000 -0.024598
vn -0.685202 -0.727500 -0.034242
vn -0.696829 -0.710624 -0.097110
vn -0.703146 -0.703116 0.105655
vn -0.994385 0.000000 0.105655
vn -0.995849 0.000000 -0.090823
vn -0.696829 -0.710624 -0.097110
vn 0.994385 0.000000 -0.105777
vn 0.999115 0.000000 -0.041505
vn 0.682699 0.729209 -0.045930
vn 0.697897 0.708090 -0.107425
vn 0.477096 -0.019196 -0.878628
vn -0.596820 0.319102 -0.736167
vn -0.357799 0.662404 -0.658132
vn 0.691275 0.287057 -0.663106
vn -0.994385 0.000000 0.105655
vn -0.703146 0.703116 0.105655
vn -0.696829 0.710624 -0.097110
vn -0.995849 0.000000 -0.090823
vn -0.954527 -0.106693 0.278268
vn -0.834315 0.488662 0.255074
vn -0.308084 0.892453 0.329447
vn -0.889492 -0.249367 0.382824
vn -0.696829 -0.710624 -0.097110
vn -0.685202 -0.727500 -0.034242
vn -0.001953 -0.998871 -0.046999
vn 0.001648 -0.994324 -0.106113
vn -0.703146 0.703116 0.105655
vn 0.000000 0.994385 0.105625
vn 0.001648 0.994324 -0.106113
vn -0.696829 0.710624 -0.097110
vn 0.000000 -0.994385 0.105625
vn 0.703146 -0.703116 0.105655
vn 0.700339 -0.700339 0.137822
vn 0.000000 -0.990448 0.137822
vn 0.328074 -0.350993 -0.877010
vn -0.227119 0.652577 -0.722861
vn 0.222114 0.723991 -0.653035
vn 0.700430 -0.279183 -0.656789
vn 0.544877 0.000000 -0.838496
vn 0.773034 0.000000 -0.634358
vn 0.516556 0.567370 -0.641255
vn 0.381634 0.416883 -0.824915
vn -0.367595 -0.619648 -0.693442
vn -0.544877 0.000000 -0.838496
vn -0.381664 -0.416883 -0.824915
vn 0.227149 -0.652547 -0.722861
vn -0.328135 0.350993 -0.876980
vn -0.596820 0.319102 -0.736167
vn 0.000000 0.581133 -0.813776
vn -0.381664 0.416883 -0.824915
vn -0.687490 -0.148900 -0.710715
vn 0.379620 0.271249 -0.884457
vn -0.227119 0.652577 -0.722861
vn 0.381634 0.416883 -0.824915
vn 0.000000 0.581133 -0.813776
vn -0.596820 0.319102 -0.736167
vn 0.477096 -0.019196 -0.878628
vn 0.687429 0.148961 -0.710776
vn 0.381634 -0.416883 -0.824915
vn 0.544877 0.000000 -0.838496
vn 0.367565 0.619617 -0.693472
vn -0.079592 -0.461440 -0.883572
vn 0.227149 -0.652547 -0.722861
vn -0.381664 -0.416883 -0.824915
vn 0.000000 -0.581133 -0.813776
vn 0.596820 -0.319010 -0.736198
vn -0.477157 0.019135 -0.878597
vn -0.687490 -0.148900 -0.710715
vn -0.381664 0.416883 -0.824915
vn -0.544877 0.000000 -0.838496
vn -0.367595 -0.619648 -0.693442
vn 0.079623 0.461409 -0.883572
vn 0.367565 0.619617 -0.693472
vn 0.544877 0.000000 -0.838496
vn 0.381634 0.416883 -0.824915
vn -0.227119 0.652577 -0.722861
vn 0.328074 -0.350993 -0.877010
vn 0.516556 0.567370 -0.641255
vn 0.773034 0.000000 -0.634358
vn 0.516556 -0.567370 -0.641255
vn 0.000000 -0.762230 -0.647267
vn -0.516556 -0.567370 -0.641255
vn -0.773034 0.000000 -0.634327
vn -0.516556 0.567370 -0.641255
vn 0.000000 0.762230 -0.647267
vn 0.000000 -0.581133 -0.813776
vn 0.000000 -0.762230 -0.647267
vn 0.516556 -0.567370 -0.641255
vn 0.381634 -0.416883 -0.824915
vn -0.544877 0.000000 -0.838496
vn -0.773034 0.000000 -0.634327
vn -0.516556 -0.567370 -0.641255
vn -0.381664 -0.416883 -0.824915
vn 0.000000 0.581133 -0.813776
vn 0.000000 0.762230 -0.647267
vn -0.516556 0.567370 -0.641255
vn -0.381664 0.416883 -0.824915
vn 0.381634 0.416883 -0.824915
vn 0.516556 0.567370 -0.641255
vn 0.000000 0.762230 -0.647267
vn 0.000000 0.581133 -0.813776
vn 0.381634 -0.416883 -0.824915
vn 0.516556 -0.567370 -0.641255
vn 0.773034 0.000000 -0.634358
vn 0.544877 0.000000 -0.838496
vn -0.381664 -0.416883 -0.824915
vn -0.516556 -0.567370 -0.641255
vn 0.000000 -0.762230 -0.647267
vn 0.000000 -0.581133 -0.813776
vn -0.381664 0.416883 -0.824915
vn -0.516556 0.567370 -0.641255
vn -0.773034 0.000000 -0.634327
vn -0.544877 0.000000 -0.838496
vn -0.700339 0.700339 0.137822
vn -0.990448 0.000000 0.137822
vn -0.904904 0.000000 0.425550
vn -0.639851 0.639851 0.425550
vn -0.703146 -0.703116 0.105655
vn 0.000000 -0.994385 0.105625
vn 0.000000 -0.990448 0.137822
vn -0.700339 -0.700339 0.137822
vn 0.703146 0.703116 0.105655
vn 0.000000 0.994385 0.105625
vn 0.000000 0.990448 0.137822
vn 0.700339 0.700339 0.137822
vn 0.994385 0.000000 0.105655
vn 0.703146 0.703116 0.105655
vn 0.700339 0.700339 0.137822
vn 0.990448 0.000000 0.137822
vn -0.994385 0.000000 0.105655
vn -0.703146 -0.703116 0.105655
vn -0.700339 -0.700339 0.137822
vn -0.990448 0.000000 0.137822
vn 0.000000 0.994385 0.105625
vn -0.703146 0.703116 0.105655
vn -0.700339 0.700339 0.137822
vn 0.000000 0.990448 0.137822
vn 0.703146 -0.703116 0.105655
vn 0.994385 0.000000 0.105655
vn 0.990448 0.000000 0.137822
vn 0.700339 -0.700339 0.137822
vn -0.703146 0.703116 0.105655
vn -0.994385 0.000000 0.105655
vn -0.990448 0.000000 0.137822
vn -0.700339 0.700339 0.137822
vn 0.000000 -0.904904 0.425550
vn 0.639851 -0.639851 0.425550
vn 0.610706 -0.610706 0.503983
vn 0.000000 -0.863704 0.503983
vn -0.700339 -0.700339 0.137822
vn 0.000000 -0.990448 0.137822
vn 0.000000 -0.904904 0.425550
vn -0.639851 -0.639851 0.425550
vn 0.700339 -0.700339 0.137822
vn 0.990448 0.000000 0.137822
vn 0.904904 0.000000 0.425550
vn 0.639851 -0.639851 0.425550
vn 0.700339 0.700339 0.137822
vn 0.000000 0.990448 0.137822
vn 0.000000 0.904904 0.425550
vn 0.639851 0.639851 0.425550
vn 0.000000 0.990448 0.137822
vn -0.700339 0.700339 0.137822
vn -0.639851 0.639851 0.425550
vn 0.000000 0.904904 0.425550
vn -0.990448 0.000000 0.137822
vn -0.700339 -0.700339 0.137822
vn -0.639851 -0.639851 0.425550
vn -0.904904 0.000000 0.425550
vn 0.000000 -0.990448 0.137822
vn 0.700339 -0.700339 0.137822
vn 0.639851 -0.639851 0.425550
vn 0.000000 -0.904904 0.425550
vn 0.990448 0.000000 0.137822
vn 0.700339 0.700339 0.137822
vn 0.639851 0.639851 0.425550
vn 0.904904 0.000000 0.425550
vn 0.000000 0.863704 0.503983
vn -0.610706 0.610706 0.503983
vn -0.541978 0.541948 0.642262
vn 0.000000 0.766442 0.642262
vn 0.904904 0.000000 0.425550
vn 0.639851 0.639851 0.425550
vn 0.610706 0.610706 0.503983
vn 0.863704 0.000000 0.503983
vn -0.639851 0.639851 0.425550
vn -0.904904 0.000000 0.425550
vn -0.863704 0.000000 0.503983
vn -0.610706 0.610706 0.503983
vn -0.639851 -0.639851 0.425550
vn 0.000000 -0.904904 0.425550
vn 0.000000 -0.863704 0.503983
vn -0.610706 -0.610706 0.503983
vn 0.639851 -0.639851 0.425550
vn 0.904904 0.000000 0.425550
vn 0.863704 0.000000 0.503983
vn 0.610706 -0.610706 0.503983
vn 0.639851 0.639851 0.425550
vn 0.000000 0.904904 0.425550
vn 0.000000 0.863704 0.503983
vn 0.610706 0.610706 0.503983
vn 0.000000 0.904904 0.425550
vn -0.639851 0.639851 0.425550
vn -0.610706 0.610706 0.503983
vn 0.000000 0.863704 0.503983
vn -0.904904 0.000000 0.425550
vn -0.639851 -0.639851 0.425550
vn -0.610706 -0.610706 0.503983
vn -0.863704 0.000000 0.503983
vn 0.000000 0.766442 0.642262
vn -0.541978 0.541948 0.642262
vn -0.766472 0.000000 0.642262
vn -0.541978 -0.541948 0.642262
vn 0.000000 -0.766442 0.642262
vn 0.541948 -0.541948 0.642262
vn 0.766442 0.000000 0.642262
vn 0.541948 0.541948 0.642262
vn -0.863704 0.000000 0.503983
vn -0.610706 -0.610706 0.503983
vn -0.541978 -0.541948 0.642262
vn -0.766472 0.000000 0.642262
vn 0.000000 -0.863704 0.503983
vn 0.610706 -0.610706 0.503983
vn 0.541948 -0.541948 0.642262
vn 0.000000 -0.766442 0.642262
vn 0.863704 0.000000 0.503983
vn 0.610706 0.610706 0.503983
vn 0.541948 0.541948 0.642262
vn 0.766442 0.000000 0.642262
vn -0.610706 0.610706 0.503983
vn -0.863704 0.000000 0.503983
vn -0.766472 0.000000 0.642262
vn -0.541978 0.541948 0.642262
vn -0.610706 -0.610706 0.503983
vn 0.000000 -0.863704 0.503983
vn 0.000000 -0.766442 0.642262
vn -0.541978 -0.541948 0.642262
vn 0.610706 -0.610706 0.503983
vn 0.863704 0.000000 0.503983
vn 0.766442 0.000000 0.642262
vn 0.541948 -0.541948 0.642262
vn 0.610706 0.610706 0.503983
vn 0.000000 0.863704 0.503983
vn 0.000000 0.766442 0.642262
vn 0.541948 0.541948 0.642262
vn 0.682699 0.729209 -0.045930
vn 0.569048 0.778191 0.265633
vn 0.413251 0.875668 0.249763
vn 0.999115 0.000000 -0.041505
vn 0.954558 0.106662 0.278176
vn 0.907529 0.331431 0.257851
vn -0.001953 -0.998871 -0.046999
vn 0.104007 -0.959777 0.260659
vn 0.247597 -0.936796 0.247108
vn 0.682699 -0.729209 -0.045991
vn 0.723075 -0.635090 0.271615
vn 0.834346 -0.488662 0.255013
vn -0.002014 0.998871 -0.046999
vn -0.104007 0.959777 0.260689
vn -0.247597 0.936796 0.247139
vn -0.999695 0.000000 -0.024598
vn -0.954527 -0.106693 0.278268
vn -0.907529 -0.331431 0.257942
vn -0.685202 -0.727500 -0.034242
vn -0.569018 -0.778191 0.265664
vn -0.413251 -0.875668 0.249794
vn -0.685202 0.727500 -0.034303
vn -0.723075 0.635060 0.271676
vn -0.834315 0.488662 0.255074
vn 0.954558 0.106662 0.278176
vn 0.367565 0.619617 -0.693472
vn 0.328074 -0.350993 -0.877010
vn 0.907529 0.331431 0.257851
vn 0.723075 -0.635090 0.271615
vn 0.687429 0.148961 -0.710776
vn -0.079592 -0.461440 -0.883572
vn 0.834346 -0.488662 0.255013
vn 0.569048 0.778191 0.265633
vn -0.227119 0.652577 -0.722861
vn 0.477096 -0.019196 -0.878628
vn 0.413251 0.875668 0.249763
vn -0.104007 0.959777 0.260689
vn -0.596820 0.319102 -0.736167
vn 0.379620 0.271249 -0.884457
vn -0.247597 0.936796 0.247139
vn 0.104007 -0.959777 0.260659
vn 0.596820 -0.319010 -0.736198
vn -0.379589 -0.271310 -0.884457
vn 0.247597 -0.936796 0.247108
vn -0.569018 -0.778191 0.265664
vn 0.227149 -0.652547 -0.722861
vn -0.477157 0.019135 -0.878597
vn -0.413251 -0.875668 0.249794
vn -0.954527 -0.106693 0.278268
vn -0.367595 -0.619648 -0.693442
vn -0.328135 0.350993 -0.876980
vn -0.907529 -0.331431 0.257942
vn -0.723075 0.635060 0.271676
vn -0.687490 -0.148900 -0.710715
vn 0.079623 0.461409 -0.883572
vn -0.834315 0.488662 0.255074
vn -0.999695 0.000000 -0.024598
vn -0.685202 0.727500 -0.034303
vn -0.834315 0.488662 0.255074
vn -0.954527 -0.106693 0.278268
vn -0.685202 0.727500 -0.034303
vn -0.002014 0.998871 -0.046999
vn -0.247597 0.936796 0.247139
vn -0.723075 0.635060 0.271676
vn -0.002014 0.998871 -0.046999
vn 0.682699 0.729209 -0.045930
vn 0.413251 0.875668 0.249763
vn -0.104007 0.959777 0.260689
vn 0.682699 0.729209 -0.045930
vn 0.999115 0.000000 -0.041505
vn 0.907529 0.331431 0.257851
vn 0.569048 0.778191 0.265633
vn 0.999115 0.000000 -0.041505
vn 0.682699 -0.729209 -0.045991
vn 0.834346 -0.488662 0.255013
vn 0.954558 0.106662 0.278176
vn 0.682699 -0.729209 -0.045991
vn -0.001953 -0.998871 -0.046999
vn 0.247597 -0.936796 0.247108
vn 0.723075 -0.635090 0.271615
vn -0.001953 -0.998871 -0.046999
vn -0.685202 -0.727500 -0.034242
vn -0.413251 -0.875668 0.249794
vn 0.104007 -0.959777 0.260659
vn -0.685202 -0.727500 -0.034242
vn -0.999695 0.000000 -0.024598
vn -0.907529 -0.331431 0.257942
vn -0.569018 -0.778191 0.265664
vn -0.308084 0.892453 0.329447
vn -0.239265 0.712760 -0.659291
vn -0.698264 -0.299966 -0.649922
vn -0.889492 -0.249367 0.382824
vn -0.845820 -0.411389 0.339549
vn -0.691305 -0.287057 -0.663076
vn 0.357768 -0.662435 -0.658132
vn 0.345256 -0.865261 0.363414
vn -0.886288 0.306192 0.347392
vn -0.700491 0.279153 -0.656758
vn -0.222175 -0.723991 -0.653005
vn -0.353648 -0.860317 0.367077
vn 0.404797 0.855251 0.323435
vn 0.335612 0.666494 -0.665670
vn -0.705954 0.269417 -0.654988
vn -0.805139 0.457442 0.377392
vn 0.308176 -0.892453 0.329417
vn 0.239204 -0.712760 -0.659322
vn 0.698233 0.299966 -0.649953
vn 0.889523 0.249397 0.382733
vn -0.404706 -0.855281 0.323466
vn -0.335643 -0.666463 -0.665670
vn 0.705924 -0.269448 -0.655019
vn 0.805231 -0.457381 0.377331
vn 0.886319 -0.306223 0.347301
vn 0.700430 -0.279183 -0.656789
vn 0.222114 0.723991 -0.653035
vn 0.353710 0.860317 0.367016
vn 0.845882 0.411359 0.339457
vn 0.691275 0.287057 -0.663106
vn -0.357799 0.662404 -0.658132
vn -0.345164 0.865291 0.363445
vn -0.367595 -0.619648 -0.693442
vn -0.954527 -0.106693 0.278268
vn -0.889492 -0.249367 0.382824
vn -0.698264 -0.299966 -0.649922
vn -0.413251 -0.875668 0.249794
vn -0.477157 0.019135 -0.878597
vn -0.691305 -0.287057 -0.663076
vn -0.845820 -0.411389 0.339549
vn -0.687490 -0.148900 -0.710715
vn -0.723075 0.635060 0.271676
vn -0.805139 0.457442 0.377392
vn -0.705954 0.269417 -0.654988
vn 0.834346 -0.488662 0.255013
vn -0.079592 -0.461440 -0.883572
vn 0.239204 -0.712760 -0.659322
vn 0.308176 -0.892453 0.329417
vn -0.104007 0.959777 0.260689
vn 0.413251 0.875668 0.249763
vn 0.845882 0.411359 0.339457
vn -0.345164 0.865291 0.363445
vn 0.227149 -0.652547 -0.722861
vn -0.569018 -0.778191 0.265664
vn -0.353648 -0.860317 0.367077
vn -0.222175 -0.723991 -0.653005
vn 0.379620 0.271249 -0.884457
vn -0.687490 -0.148900 -0.710715
vn -0.705954 0.269417 -0.654988
vn 0.335612 0.666494 -0.665670
vn 0.569048 0.778191 0.265633
vn 0.907529 0.331431 0.257851
vn 0.886319 -0.306223 0.347301
vn 0.353710 0.860317 0.367016
vn -0.907529 -0.331431 0.257942
vn -0.328135 0.350993 -0.876980
vn -0.700491 0.279153 -0.656758
vn -0.886288 0.306192 0.347392
vn 0.079623 0.461409 -0.883572
vn -0.367595 -0.619648 -0.693442
vn -0.698264 -0.299966 -0.649922
vn -0.239265 0.712760 -0.659291
vn 0.723075 -0.635090 0.271615
vn 0.247597 -0.936796 0.247108
vn -0.404706 -0.855281 0.323466
vn 0.805231 -0.457381 0.377331
vn -0.227119 0.652577 -0.722861
vn 0.569048 0.778191 0.265633
vn 0.353710 0.860317 0.367016
vn 0.222114 0.723991 -0.653035
vn 0.413251 0.875668 0.249763
vn 0.477096 -0.019196 -0.878628
vn 0.691275 0.287057 -0.663106
vn 0.845882 0.411359 0.339457
vn -0.328135 0.350993 -0.876980
vn 0.227149 -0.652547 -0.722861
vn -0.222175 -0.723991 -0.653005
vn -0.700491 0.279153 -0.656758
vn 0.954558 0.106662 0.278176
vn 0.834346 -0.488662 0.255013
vn 0.308176 -0.892453 0.329417
vn 0.889523 0.249397 0.382733
vn -0.477157 0.019135 -0.878597
vn 0.596820 -0.319010 -0.736198
vn 0.357768 -0.662435 -0.658132
vn -0.691305 -0.287057 -0.663076
vn -0.723075 0.635060 0.271676
vn -0.247597 0.936796 0.247139
vn 0.404797 0.855251 0.323435
vn -0.805139 0.457442 0.377392
vn -0.834315 0.488662 0.255074
vn 0.079623 0.461409 -0.883572
vn -0.239265 0.712760 -0.659291
vn -0.308084 0.892453 0.329447
vn -0.379589 -0.271310 -0.884457
vn 0.687429 0.148961 -0.710776
vn 0.705924 -0.269448 -0.655019
vn -0.335643 -0.666463 -0.665670
vn -0.569018 -0.778191 0.265664
vn -0.907529 -0.331431 0.257942
vn -0.886288 0.306192 0.347392
vn -0.353648 -0.860317 0.367077
vn -0.247597 0.936796 0.247139
vn 0.379620 0.271249 -0.884457
vn 0.335612 0.666494 -0.665670
vn 0.404797 0.855251 0.323435
vn -0.079592 -0.461440 -0.883572
vn 0.367565 0.619617 -0.693472
vn 0.698233 0.299966 -0.649953
vn 0.239204 -0.712760 -0.659322
vn 0.104007 -0.959777 0.260659
vn -0.413251 -0.875668 0.249794
vn -0.845820 -0.411389 0.339549
vn 0.345256 -0.865261 0.363414
vn 0.596820 -0.319010 -0.736198
vn 0.104007 -0.959777 0.260659
vn 0.345256 -0.865261 0.363414
vn 0.357768 -0.662435 -0.658132
usemtl RPG7
f 31/1/1 83/2/2 122/3/3 116/4/4
f 4/5/5 1/6/6 24/7/7 18/8/8
f 3/9/9 5/10/10 6/11/11 4/12/12
f 90/13/13 89/14/14 117/15/15 130/16/16
f 12/17/17 21/18/18 20/19/19 10/20/20
f 5/21/21 7/22/22 8/23/23 6/24/24
f 25/25/25 85/26/26 127/27/27 120/28/28
f 18/29/29 24/30/30 23/31/31 16/32/32
f 7/33/33 9/34/34 10/35/35 8/36/36
f 30/37/37 81/38/38 121/39/39 114/40/40
f 10/41/41 20/42/42 19/43/43 8/44/44
f 9/45/45 11/46/46 12/47/47 10/48/48
f 98/49/49 97/50/50 113/51/51 131/52/52
f 6/53/53 2/54/54 1/55/55 4/56/56
f 11/57/57 13/58/58 14/59/59 12/60/60
f 29/61/61 37/62/62 38/63/63 30/64/64 97/65/65
f 16/66/66 23/67/67 22/68/68 14/69/69
f 13/70/70 15/71/71 16/72/72 14/73/73
f 8/74/74 19/75/75 2/76/76 6/77/77
f 93/78/78 25/79/79 120/80/80 119/81/81
f 15/82/82 17/83/83 18/84/84 16/85/85
f 87/86/86 104/87/87 136/88/88 128/89/89
f 14/90/90 22/91/91 21/92/92 12/93/93
f 17/94/94 3/95/95 4/96/96 18/97/97
f 11/98/98 9/99/99 52/100/100 53/101/101
f 89/102/102 32/103/103 118/104/104 117/105/105
f 39/106/106 47/107/107 48/108/108 40/109/109
f 27/110/110 35/111/111 36/112/112 28/113/113 101/114/114
f 25/115/115 33/116/116 34/117/117 26/118/118 95/119/119
f 32/120/120 40/121/121 33/122/122 25/123/123 93/124/124
f 30/125/125 38/126/126 39/127/127 31/128/128 91/129/129
f 28/130/130 36/131/131 37/132/132 29/133/133 99/134/134
f 26/135/135 34/136/136 35/137/137 27/138/138 103/139/139
f 31/140/140 39/141/141 40/142/142 32/143/143 89/144/144
f 48/145/145 47/146/146 46/147/147 45/148/148 44/149/149 43/150/150 42/151/151 41/152/152
f 37/153/153 45/154/154 46/155/155 38/156/156
f 35/157/157 43/158/158 44/159/159 36/160/160
f 33/161/161 41/162/162 42/163/163 34/164/164
f 40/165/165 48/166/166 41/167/167 33/168/168
f 38/169/169 46/170/170 47/171/171 39/172/172
f 36/173/173 44/174/174 45/175/175 37/176/176
f 34/177/177 42/178/178 43/179/179 35/180/180
f 56/181/181 55/182/182 63/183/183 64/184/184
f 13/185/185 11/186/186 53/187/187 54/188/188
f 5/189/189 3/190/190 49/191/191 50/192/192
f 7/193/193 5/194/194 50/195/195 51/196/196
f 15/197/197 13/198/198 54/199/199 55/200/200
f 3/201/201 17/202/202 56/203/203 49/204/204
f 9/205/205 7/206/206 51/207/207 52/208/208
f 17/209/209 15/210/210 55/211/211 56/212/212
f 61/213/213 60/214/214 68/215/215 69/216/216
f 54/217/217 53/218/218 61/219/219 62/220/220
f 52/221/221 51/222/222 59/223/223 60/224/224
f 50/225/225 49/226/226 57/227/227 58/228/228
f 49/229/229 56/230/230 64/231/231 57/232/232
f 55/233/233 54/234/234 62/235/235 63/236/236
f 53/237/237 52/238/238 60/239/239 61/240/240
f 51/241/241 50/242/242 58/243/243 59/244/244
f 65/245/245 72/246/246 80/247/247 73/248/248
f 59/249/249 58/250/250 66/251/251 67/252/252
f 64/253/253 63/254/254 71/255/255 72/256/256
f 62/257/257 61/258/258 69/259/259 70/260/260
f 60/261/261 59/262/262 67/263/263 68/264/264
f 58/265/265 57/266/266 65/267/267 66/268/268
f 57/269/269 64/270/270 72/271/271 65/272/272
f 63/273/273 62/274/274 70/275/275 71/276/276
f 73/277/277 80/278/278 79/279/279 78/280/280 77/281/281 76/282/282 75/283/283 74/284/284
f 71/285/285 70/286/286 78/287/287 79/288/288
f 69/289/289 68/290/290 76/291/291 77/292/292
f 67/293/293 66/294/294 74/295/295 75/296/296
f 72/297/297 71/298/298 79/299/299 80/300/300
f 70/301/301 69/302/302 77/303/303 78/304/304
f 68/305/305 67/306/306 75/307/307 76/308/308
f 66/309/309 65/310/310 73/311/311 74/312/312
f 2/313/313 88/314/314 94/315/315
f 19/316/316 83/317/317 90/318/318
f 21/319/319 82/320/320 98/321/321
f 20/322/322 81/323/323 92/324/324
f 1/325/325 85/326/326 96/327/327
f 23/328/328 87/329/329 102/330/330
f 22/331/331 86/332/332 100/333/333
f 24/334/334 84/335/335 104/336/336
f 83/337/337 31/338/338 89/339/339 90/340/340
f 81/341/341 30/342/342 91/343/343 92/344/344
f 88/345/345 32/346/346 93/347/347 94/348/348
f 85/349/349 25/350/350 95/351/351 96/352/352
f 82/353/353 29/354/354 97/355/355 98/356/356
f 86/357/357 28/358/358 99/359/359 100/360/360
f 87/361/361 27/362/362 101/363/363 102/364/364
f 84/365/365 26/366/366 103/367/367 104/368/368
f 23/369/369 24/370/370 104/371/371 87/372/372
f 24/373/373 1/374/374 96/375/375 84/376/376
f 1/377/377 2/378/378 94/379/379 85/380/380
f 2/381/381 19/382/382 90/383/383 88/384/384
f 19/385/385 20/386/386 92/387/387 83/388/388
f 20/389/389 21/390/390 98/391/391 81/392/392
f 21/393/393 22/394/394 100/395/395 82/396/396
f 22/397/397 23/398/398 102/399/399 86/400/400
f 136/401/401 107/402/402 108/403/403 128/404/404
f 135/405/405 111/406/406 112/407/407 126/408/408
f 134/409/409 109/410/410 110/411/411 124/412/412
f 133/413/413 105/414/414 106/415/415 123/416/416
f 132/417/417 115/418/418 116/419/419 122/420/420
f 131/421/421 113/422/422 114/423/423 121/424/424
f 130/425/425 117/426/426 118/427/427 125/428/428
f 129/429/429 119/430/430 120/431/431 127/432/432
f 27/433/433 87/434/434 128/435/435 108/436/436
f 100/437/437 99/438/438 111/439/439 135/440/440
f 26/441/441 84/442/442 123/443/443 106/444/444
f 92/445/445 91/446/446 115/447/447 132/448/448
f 85/449/449 94/450/450 129/451/451 127/452/452
f 28/453/453 86/454/454 124/455/455 110/456/456
f 95/457/457 26/458/458 106/459/459 105/460/460
f 88/461/461 90/462/462 130/463/463 125/464/464
f 102/465/465 101/466/466 109/467/467 134/468/468
f 103/469/469 27/470/470 108/471/471 107/472/472
f 81/473/473 98/474/474 131/475/475 121/476/476
f 32/477/477 88/478/478 125/479/479 118/480/480
f 94/481/481 93/482/482 119/483/483 129/484/484
f 101/485/485 28/486/486 110/487/487 109/488/488
f 83/489/489 92/490/490 132/491/491 122/492/492
f 99/493/493 29/494/494 112/495/495 111/496/496
f 84/497/497 96/498/498 133/499/499 123/500/500
f 104/501/501 103/502/502 107/503/503 136/504/504
f 97/505/505 30/506/506 114/507/507 113/508/508
f 86/509/509 102/510/510 134/511/511 124/512/512
f 96/513/513 95/514/514 105/515/515 133/516/516
f 91/517/517 31/518/518 116/519/519 115/520/520
f 82/521/521 100/522/522 135/523/523 126/524/524
f 29/525/525 82/526/526 126/527/527 112/528/528
