mtllib sniper_parts.mtl
o Body
v 1.015111 -0.900607 -0.348522
v 1.015111 -0.900607 0.892616
v 1.015111 0.882069 -0.348522
v 1.015111 0.882069 0.892616
v 2.294519 -0.900607 -0.348522
v 2.294519 -0.900607 0.890981
v 2.294519 0.882069 -0.348522
v 2.294519 0.882069 0.890981
v 2.184095 0.882069 -0.348522
v 2.184095 0.882069 0.890981
v 2.184095 -0.900607 -0.348522
v 2.184095 -0.900607 0.890981
v 1.291609 0.882069 -0.348522
v 1.291609 -0.900607 0.890981
v 1.291609 0.882069 0.890981
v 1.291609 -0.900607 -0.348522
v -1.277070 -0.900607 -0.348522
v -1.277070 -0.900607 1.075963
v -1.277070 0.882069 -0.348522
v -1.277070 0.889158 1.075963
v 2.294519 -0.900607 -1.441461
v 2.294519 0.882069 -1.441461
v 2.184095 0.882069 -1.441461
v 2.184095 -0.900607 -1.441461
v 1.015111 -0.900607 -1.416346
v 1.015111 0.882069 -1.416346
v 1.291609 0.882069 -1.416346
v 1.291609 -0.900607 -1.416346
v 2.294519 -0.900607 -2.274153
v 2.294519 0.882069 -2.274153
v 1.015111 -0.900607 -2.249038
v 1.015111 0.882069 -2.249038
v 2.184095 0.882069 -2.027172
v 2.184095 -0.900607 -2.027172
v 1.291609 0.882069 -2.002057
v 1.291609 -0.900607 -2.002057
v 2.540399 0.882069 0.890981
v 2.540399 0.882069 -0.348522
v 2.540399 -0.900607 -0.348522
v 2.540399 -0.900607 0.890981
v 2.540399 -0.900607 -1.441461
v 2.540399 0.882069 -1.441461
v 2.540399 -0.900607 -2.274153
v 2.540399 0.882069 -2.274153
v -1.277070 0.889158 0.330105
v -1.277070 -0.900607 0.330105
v -5.575776 0.882069 -0.348522
v -5.575776 -0.900607 -0.348522
v -5.575776 0.882069 0.333432
v -5.575776 -0.900607 0.333432
v -0.816923 0.882069 0.892616
v -0.816923 -0.900607 0.892616
v 0.286226 -0.900607 -0.348522
v 0.286226 0.882069 -0.348522
v 0.286226 -0.900607 0.892616
v 0.286226 0.882069 0.892616
v 1.015111 -1.218480 -0.407071
v 1.015111 -1.218480 1.032326
v 1.015111 1.199942 -0.407071
v 1.015111 1.199942 1.032326
v 0.268873 -1.218480 -0.407071
v 0.268873 1.199942 -0.407071
v 0.286226 -1.218480 1.032326
v 0.286226 1.199942 1.032326
v 1.015111 -1.218480 0.537979
v 1.015111 1.199942 0.537979
v 0.268873 -1.218480 0.537979
v 0.268873 1.199942 0.537979
v 1.710147 -1.218480 0.931312
v 1.710147 1.199942 0.931312
v 1.710147 -1.218480 0.537979
v 1.710147 1.199942 0.537979
v -0.012830 1.199942 0.980311
v -0.012830 -1.218480 0.980311
v -0.012830 1.199942 0.537979
v -0.012830 -1.218480 0.537979
v -0.982973 0.673937 -0.348522
v -0.982973 -0.692475 -0.348522
v -0.397522 -0.692475 -0.348522
v -0.397522 0.673937 -0.348522
v -0.511380 0.673937 -2.331081
v -0.511380 -0.692475 -2.331081
v -0.010692 -0.692475 -2.033049
v -0.010692 0.673937 -2.033049
v -0.766031 0.356930 -0.820680
v -0.766031 -0.375468 -0.820680
v -0.766031 0.356930 -0.937773
v -0.766031 -0.375468 -0.937773
v -1.346709 0.356930 -0.820680
v -1.346709 -0.375468 -0.820680
v -1.346709 0.356930 -0.937773
v -1.346709 -0.375468 -0.937773
v -1.395561 0.356930 -0.777046
v -1.395561 -0.375468 -0.777046
v -1.445619 0.356930 -0.849575
v -1.445619 -0.375468 -0.849575
v -1.520419 0.356930 -0.279521
v -1.520419 -0.375468 -0.279521
v -1.583503 0.356930 -0.296554
v -1.583503 -0.375468 -0.296554
v -2.935525 -0.900607 -0.348522
v -2.935525 0.882069 -0.348522
v -2.935525 -0.900607 0.291989
v -2.935525 0.882069 0.291989
v -2.493023 0.882069 -0.348522
v -2.493023 0.889158 0.330105
v -2.493023 -0.900607 -0.348522
v -2.493023 -0.900607 0.330105
v -2.449166 -0.900607 0.777187
v -2.449166 0.889158 0.777187
v -1.560438 -0.900607 0.333566
v -1.560438 -0.900607 0.681049
v -2.409459 -0.900607 0.333566
v -2.409459 -0.900607 0.681049
v -1.560438 -0.445698 0.333566
v -1.560438 -0.445697 0.681049
v -2.409459 -0.445698 0.333566
v -2.409459 -0.445698 0.681049
v -1.372277 0.729999 0.357303
v -2.062721 0.729999 0.357303
v -2.062721 0.729999 0.606850
v -1.372277 0.729999 0.606850
v -2.062721 0.889158 0.606850
v -2.062721 0.889158 0.357303
v -1.372277 0.889158 0.357303
v -1.372277 0.889158 0.606850
v 2.293669 0.797256 -0.359619
v 2.349432 0.797256 -0.359619
v 2.349432 0.797256 -1.425289
v 2.293669 0.797256 -1.425289
v 2.293669 0.797256 -2.237205
v 2.349432 0.797256 -2.237205
v 2.349432 -0.815794 -2.237205
v 2.293669 -0.815794 -2.237205
v 2.293669 -0.815794 0.848958
v 2.349432 -0.815794 0.848958
v 2.349432 0.797256 0.848958
v 2.293669 0.797256 0.848958
v 2.293669 -0.815794 -1.425289
v 2.349432 -0.815794 -1.425289
v 2.349432 -0.815794 -0.359619
v 2.293669 -0.815794 -0.359619
v 2.360371 0.839663 -0.354071
v 2.360371 0.839663 -2.255679
v 2.360371 -0.858200 0.869970
v 2.360371 -0.858200 -1.433375
v 2.360371 0.839663 -1.433375
v 2.360371 -0.858200 -2.255679
v 2.360371 0.839663 0.869970
v 2.360371 -0.858200 -0.354071
vt 0.367930 0.719804
vt 0.369087 0.719804
vt 0.369091 0.720072
vt 0.367930 0.720072
vt 0.364204 0.723683
vt 0.364919 0.723646
vt 0.364923 0.723710
vt 0.364207 0.723747
vt 0.373434 0.222857
vt 0.373434 0.233491
vt 0.372997 0.233757
vt 0.372997 0.222591
vt 0.366028 0.719803
vt 0.366744 0.719840
vt 0.366737 0.720001
vt 0.366020 0.719963
vt 0.366058 0.719221
vt 0.366055 0.719285
vt 0.365424 0.719253
vt 0.365427 0.719189
vt 0.368095 0.724717
vt 0.367935 0.724717
vt 0.367935 0.723556
vt 0.368095 0.723556
vt 0.368675 0.724717
vt 0.368611 0.724717
vt 0.368611 0.723556
vt 0.368675 0.723556
vt 0.369190 0.724717
vt 0.368675 0.724717
vt 0.368675 0.723556
vt 0.369190 0.723556
vt 0.366058 0.719221
vt 0.366774 0.719259
vt 0.366771 0.719323
vt 0.366055 0.719285
vt 0.364177 0.723166
vt 0.364893 0.723129
vt 0.364919 0.723646
vt 0.364204 0.723683
vt 0.364169 0.723006
vt 0.364885 0.722968
vt 0.364893 0.723129
vt 0.364177 0.723166
vt 0.364169 0.723006
vt 0.364177 0.723166
vt 0.363561 0.723198
vt 0.363552 0.723038
vt 0.368611 0.724717
vt 0.368095 0.724717
vt 0.368095 0.723556
vt 0.368611 0.723556
vt 0.366055 0.719285
vt 0.366771 0.719323
vt 0.366744 0.719840
vt 0.366028 0.719803
vt 0.366774 0.721033
vt 0.367930 0.721033
vt 0.367930 0.722565
vt 0.366774 0.722565
vt 0.366774 0.720071
vt 0.366774 0.719164
vt 0.366909 0.719560
vt 0.366909 0.719900
vt 0.364169 0.723006
vt 0.364492 0.721656
vt 0.364885 0.722968
vt 0.366737 0.720001
vt 0.366343 0.721313
vt 0.366020 0.719963
vt 0.369254 0.725320
vt 0.369190 0.725320
vt 0.369190 0.724159
vt 0.369254 0.724159
vt 0.364169 0.724967
vt 0.364169 0.723805
vt 0.364801 0.723805
vt 0.364801 0.724967
vt 0.373434 0.234023
vt 0.373434 0.244657
vt 0.372997 0.244923
vt 0.372997 0.233757
vt 0.364204 0.723683
vt 0.364207 0.723747
vt 0.363576 0.723780
vt 0.363573 0.723716
vt 0.366769 0.724967
vt 0.366609 0.724967
vt 0.366609 0.723805
vt 0.366769 0.723805
vt 0.363071 0.724967
vt 0.363071 0.723805
vt 0.363688 0.723805
vt 0.363688 0.724967
vt 0.365139 0.724967
vt 0.365139 0.723805
vt 0.365755 0.723805
vt 0.365755 0.724967
vt 0.366028 0.719803
vt 0.366020 0.719963
vt 0.365404 0.719931
vt 0.365412 0.719771
vt 0.363688 0.724967
vt 0.363688 0.723805
vt 0.364169 0.723805
vt 0.364169 0.724967
vt 0.372551 0.235568
vt 0.372551 0.229542
vt 0.372997 0.229511
vt 0.372997 0.235613
vt 0.366774 0.724355
vt 0.367513 0.724355
vt 0.367513 0.725516
vt 0.366774 0.725516
vt 0.365755 0.724967
vt 0.365755 0.723805
vt 0.366093 0.723805
vt 0.366093 0.724967
vt 0.364801 0.724967
vt 0.364801 0.723805
vt 0.365139 0.723805
vt 0.365139 0.724967
vt 0.366609 0.723805
vt 0.366609 0.724967
vt 0.366093 0.724967
vt 0.366093 0.723805
vt 0.363576 0.723780
vt 0.363095 0.723805
vt 0.363235 0.723734
vt 0.363573 0.723716
vt 0.363561 0.723198
vt 0.363222 0.723216
vt 0.363071 0.723063
vt 0.363552 0.723038
vt 0.363071 0.723063
vt 0.363222 0.723216
vt 0.363235 0.723734
vt 0.363095 0.723805
vt 0.365424 0.719253
vt 0.365086 0.719235
vt 0.364946 0.719164
vt 0.365427 0.719189
vt 0.365404 0.719931
vt 0.364923 0.719906
vt 0.365074 0.719753
vt 0.365412 0.719771
vt 0.364923 0.719906
vt 0.364946 0.719164
vt 0.365086 0.719235
vt 0.365074 0.719753
vt 0.362670 0.229511
vt 0.362670 0.222591
vt 0.367502 0.222591
vt 0.367502 0.229511
vt 0.362670 0.229511
vt 0.367502 0.229511
vt 0.367502 0.235613
vt 0.362670 0.235613
vt 0.362670 0.235613
vt 0.367502 0.235613
vt 0.367502 0.240262
vt 0.362670 0.240262
vt 0.372551 0.229542
vt 0.372551 0.235568
vt 0.372105 0.235613
vt 0.372105 0.229511
vt 0.372551 0.229542
vt 0.372551 0.222708
vt 0.372997 0.222591
vt 0.372997 0.229511
vt 0.372551 0.240159
vt 0.372551 0.235568
vt 0.372997 0.235613
vt 0.372997 0.240262
vt 0.372551 0.222708
vt 0.372551 0.229542
vt 0.372105 0.229511
vt 0.372105 0.222591
vt 0.372551 0.235568
vt 0.372551 0.240159
vt 0.372105 0.240262
vt 0.372105 0.235613
vt 0.365952 0.721292
vt 0.365998 0.720386
vt 0.366020 0.719963
vt 0.366343 0.721313
vt 0.366682 0.721063
vt 0.366343 0.721313
vt 0.366737 0.720001
vt 0.366715 0.720423
vt 0.364831 0.721906
vt 0.364492 0.721656
vt 0.364923 0.721634
vt 0.364169 0.723006
vt 0.364147 0.722583
vt 0.364100 0.721677
vt 0.364492 0.721656
vt 0.369211 0.721913
vt 0.368817 0.721913
vt 0.368817 0.720751
vt 0.369211 0.720751
vt 0.365902 0.722254
vt 0.366272 0.722273
vt 0.366217 0.723805
vt 0.365823 0.723785
vt 0.364420 0.720696
vt 0.364051 0.720715
vt 0.363972 0.719184
vt 0.364365 0.719164
vt 0.366774 0.722822
vt 0.367930 0.722822
vt 0.367930 0.724355
vt 0.366774 0.724355
vt 0.369087 0.719164
vt 0.367930 0.719804
vt 0.367930 0.719164
vt 0.366682 0.721063
vt 0.366774 0.721335
vt 0.366343 0.721313
vt 0.364831 0.721906
vt 0.364864 0.722546
vt 0.364885 0.722968
vt 0.364492 0.721656
vt 0.369087 0.719164
vt 0.369087 0.719804
vt 0.367930 0.719804
vt 0.375358 0.225288
vt 0.375358 0.232138
vt 0.373486 0.232138
vt 0.373486 0.225288
vt 0.365991 0.232138
vt 0.365991 0.225288
vt 0.367863 0.225288
vt 0.367863 0.232138
vt 0.385537 0.204916
vt 0.385537 0.193376
vt 0.385871 0.191318
vt 0.385871 0.206973
vt 0.366357 0.723612
vt 0.366357 0.720956
vt 0.367643 0.720955
vt 0.367643 0.723612
vt 0.365071 0.723612
vt 0.365071 0.720955
vt 0.366357 0.720956
vt 0.366357 0.723612
vt 0.373486 0.233893
vt 0.374755 0.233893
vt 0.374755 0.235734
vt 0.373486 0.235734
vt 0.371059 0.232138
vt 0.371059 0.225288
vt 0.373486 0.225288
vt 0.373486 0.232138
vt 0.365478 0.233893
vt 0.367905 0.233893
vt 0.367905 0.235734
vt 0.365478 0.235734
vt 0.364209 0.233893
vt 0.365478 0.233893
vt 0.365478 0.235734
vt 0.364209 0.235734
vt 0.364209 0.235734
vt 0.365478 0.235734
vt 0.365478 0.236489
vt 0.364342 0.236489
vt 0.371059 0.233893
vt 0.373486 0.233893
vt 0.373486 0.235734
vt 0.371059 0.235734
vt 0.365478 0.233893
vt 0.364209 0.233893
vt 0.364468 0.232138
vt 0.365478 0.232138
vt 0.365991 0.225288
vt 0.365991 0.232138
vt 0.364209 0.232138
vt 0.364209 0.225288
vt 0.374755 0.233893
vt 0.373486 0.233893
vt 0.373486 0.232138
vt 0.374496 0.232138
vt 0.369923 0.232138
vt 0.369923 0.238989
vt 0.368913 0.238989
vt 0.368913 0.232138
vt 0.375358 0.232138
vt 0.375358 0.225288
vt 0.377143 0.225288
vt 0.377143 0.232138
vt 0.371059 0.232138
vt 0.368632 0.232138
vt 0.368632 0.225288
vt 0.371059 0.225288
vt 0.369923 0.238989
vt 0.369923 0.232138
vt 0.371059 0.232138
vt 0.371059 0.238989
vt 0.373486 0.235734
vt 0.374755 0.235734
vt 0.374622 0.236489
vt 0.373486 0.236489
vt 0.367863 0.232138
vt 0.367863 0.225288
vt 0.368632 0.225288
vt 0.368632 0.232138
vt 0.377910 0.225288
vt 0.377910 0.232138
vt 0.377143 0.232138
vt 0.377143 0.225288
vt 0.373051 0.189112
vt 0.370014 0.189112
vt 0.370014 0.182739
vt 0.373051 0.182739
vt 0.367097 0.717012
vt 0.367097 0.725686
vt 0.362761 0.724054
vt 0.362761 0.720806
vt 0.367930 0.720071
vt 0.366774 0.720071
vt 0.366909 0.719900
vt 0.367795 0.719900
vt 0.366774 0.719164
vt 0.367930 0.719164
vt 0.367795 0.719560
vt 0.366909 0.719560
vt 0.371143 0.194778
vt 0.371143 0.189112
vt 0.372256 0.189112
vt 0.372256 0.194778
vt 0.370014 0.189613
vt 0.371143 0.189112
vt 0.371143 0.196644
vt 0.370041 0.196000
vt 0.374180 0.190271
vt 0.373051 0.189770
vt 0.373078 0.183382
vt 0.374180 0.182739
vt 0.370014 0.190271
vt 0.366977 0.190271
vt 0.366977 0.182739
vt 0.370014 0.182739
vt 0.372256 0.189112
vt 0.372485 0.189112
vt 0.372485 0.192149
vt 0.372256 0.192149
vt 0.373051 0.195051
vt 0.373240 0.195304
vt 0.373254 0.195544
vt 0.373079 0.195539
vt 0.373722 0.193308
vt 0.373910 0.193560
vt 0.373240 0.195304
vt 0.373051 0.195051
vt 0.369473 0.190271
vt 0.369473 0.193307
vt 0.368322 0.193307
vt 0.368322 0.190271
vt 0.369473 0.196892
vt 0.369284 0.197144
vt 0.368614 0.195400
vt 0.368802 0.195148
vt 0.368086 0.193307
vt 0.368086 0.196344
vt 0.366977 0.196344
vt 0.366977 0.193307
vt 0.368816 0.194907
vt 0.368641 0.194913
vt 0.369372 0.193307
vt 0.369473 0.193460
vt 0.374164 0.190271
vt 0.374164 0.193308
vt 0.374064 0.193308
vt 0.374064 0.190271
vt 0.368802 0.195148
vt 0.368614 0.195400
vt 0.368641 0.194913
vt 0.368816 0.194907
vt 0.366977 0.193307
vt 0.366977 0.190271
vt 0.367193 0.190271
vt 0.367193 0.193307
vt 0.367193 0.193307
vt 0.367193 0.190271
vt 0.368322 0.190271
vt 0.368322 0.193307
vt 0.373079 0.195539
vt 0.373254 0.195544
vt 0.373910 0.196991
vt 0.373810 0.197144
vt 0.374064 0.190271
vt 0.374064 0.193308
vt 0.373051 0.193308
vt 0.373051 0.190271
vt 0.366774 0.722565
vt 0.367935 0.722565
vt 0.367930 0.722822
vt 0.366774 0.722822
vt 0.364456 0.720951
vt 0.364064 0.720972
vt 0.364051 0.720715
vt 0.364420 0.720696
vt 0.365915 0.721997
vt 0.366307 0.722018
vt 0.366272 0.722273
vt 0.365902 0.722254
vt 0.366774 0.720776
vt 0.367930 0.720776
vt 0.367930 0.721033
vt 0.366774 0.721033
vt 0.366774 0.720071
vt 0.367930 0.720071
vt 0.367930 0.720776
vt 0.366774 0.720776
vt 0.365952 0.721292
vt 0.366343 0.721313
vt 0.366307 0.722018
vt 0.365915 0.721997
vt 0.364492 0.721656
vt 0.364100 0.721677
vt 0.364064 0.720972
vt 0.364456 0.720951
vt 0.369091 0.720329
vt 0.369091 0.719164
vt 0.369349 0.719164
vt 0.369349 0.720329
vt 0.366307 0.722018
vt 0.366343 0.721313
vt 0.366337 0.721477
vt 0.366311 0.721969
vt 0.368685 0.722313
vt 0.368685 0.721912
vt 0.368789 0.721912
vt 0.368789 0.722313
vt 0.367930 0.720072
vt 0.369091 0.720072
vt 0.369091 0.720751
vt 0.367930 0.720751
vt 0.363367 0.725459
vt 0.363367 0.724967
vt 0.363662 0.724967
vt 0.363662 0.725459
vt 0.366774 0.721335
vt 0.366566 0.722006
vt 0.366512 0.721980
vt 0.366537 0.721488
vt 0.366566 0.722006
vt 0.366307 0.722018
vt 0.366311 0.721969
vt 0.366512 0.721980
vt 0.366343 0.721313
vt 0.366774 0.721335
vt 0.366537 0.721488
vt 0.366337 0.721477
vt 0.364154 0.724967
vt 0.364154 0.725459
vt 0.363953 0.725459
vt 0.363953 0.724967
vt 0.363367 0.724967
vt 0.363367 0.725459
vt 0.363071 0.725459
vt 0.363071 0.724967
vt 0.364154 0.724967
vt 0.364355 0.724967
vt 0.364355 0.725263
vt 0.364154 0.725263
vt 0.369017 0.722209
vt 0.368817 0.722209
vt 0.368817 0.721913
vt 0.369017 0.721913
vt 0.368034 0.722534
vt 0.368034 0.722389
vt 0.368137 0.722389
vt 0.368137 0.722534
vt 0.368034 0.722389
vt 0.368034 0.722534
vt 0.367930 0.722534
vt 0.367930 0.722389
vt 0.134133 0.287618
vt 0.134133 0.287217
vt 0.134277 0.287217
vt 0.134277 0.287618
vt 0.364923 0.721634
vt 0.364492 0.721656
vt 0.364505 0.721600
vt 0.364649 0.721593
vt 0.364492 0.721656
vt 0.364456 0.720951
vt 0.364484 0.721200
vt 0.364505 0.721600
vt 0.364456 0.720951
vt 0.364715 0.720963
vt 0.364628 0.721192
vt 0.364484 0.721200
vt 0.369121 0.721913
vt 0.369121 0.722313
vt 0.369017 0.722313
vt 0.369017 0.721913
vt 0.364715 0.720963
vt 0.364923 0.721634
vt 0.364649 0.721593
vt 0.364628 0.721192
vt 0.368012 0.723611
vt 0.368012 0.725987
vt 0.367797 0.725882
vt 0.367797 0.723565
vt 0.373434 0.227124
vt 0.373434 0.222591
vt 0.373568 0.222591
vt 0.373568 0.227124
vt 0.368012 0.716954
vt 0.368012 0.720491
vt 0.367797 0.720523
vt 0.367797 0.717074
vt 0.373434 0.239821
vt 0.373434 0.233073
vt 0.373568 0.233073
vt 0.373568 0.239821
vt 0.363495 0.725987
vt 0.363495 0.723611
vt 0.363710 0.723565
vt 0.363710 0.725882
vt 0.373568 0.239821
vt 0.373568 0.235288
vt 0.373701 0.235288
vt 0.373701 0.239821
vt 0.363495 0.720491
vt 0.363495 0.716954
vt 0.363710 0.717074
vt 0.363710 0.720523
vt 0.373568 0.229338
vt 0.373568 0.222591
vt 0.373701 0.222591
vt 0.373701 0.229338
vt 0.368012 0.720491
vt 0.368012 0.723611
vt 0.367797 0.723565
vt 0.367797 0.720523
vt 0.373434 0.233073
vt 0.373434 0.227124
vt 0.373568 0.227124
vt 0.373568 0.233073
vt 0.363495 0.723611
vt 0.363495 0.720491
vt 0.363710 0.720523
vt 0.363710 0.723565
vt 0.373568 0.235288
vt 0.373568 0.229338
vt 0.373701 0.229338
vt 0.373701 0.235288
vt 0.368012 0.725987
vt 0.363495 0.725987
vt 0.363710 0.725882
vt 0.367797 0.725882
vt 0.373836 0.222591
vt 0.373836 0.232694
vt 0.373701 0.232694
vt 0.373701 0.222591
vt 0.363495 0.716954
vt 0.368012 0.716954
vt 0.367797 0.717074
vt 0.363710 0.717074
vt 0.373701 0.242798
vt 0.373701 0.232694
vt 0.373836 0.232694
vt 0.373836 0.242798
vt 0.367617 0.235379
vt 0.367617 0.239902
vt 0.367502 0.240001
vt 0.367502 0.235420
vt 0.367617 0.222712
vt 0.367617 0.229444
vt 0.367502 0.229409
vt 0.367502 0.222591
vt 0.371990 0.239902
vt 0.371990 0.235379
vt 0.372105 0.235420
vt 0.372105 0.240001
vt 0.371990 0.229444
vt 0.371990 0.222712
vt 0.372105 0.222591
vt 0.372105 0.229409
vt 0.367617 0.229444
vt 0.367617 0.235379
vt 0.367502 0.235420
vt 0.367502 0.229409
vt 0.371990 0.235379
vt 0.371990 0.229444
vt 0.372105 0.229409
vt 0.372105 0.235420
vt 0.367617 0.239902
vt 0.371990 0.239902
vt 0.372105 0.240001
vt 0.367502 0.240001
vt 0.371990 0.222712
vt 0.367617 0.222712
vt 0.367502 0.222591
vt 0.372105 0.222591
vn 0.370152 0.000000 0.928971
vn 0.370152 0.000000 0.928971
vn 0.370152 0.000000 0.928971
vn 0.370152 0.000000 0.928971
vn 0.000000 1.000000 0.000000
vn 0.000000 1.000000 0.000000
vn 0.000000 1.000000 0.000000
vn 0.000000 1.000000 0.000000
vn -0.115925 0.000000 0.993258
vn -0.115925 0.000000 0.993258
vn -0.115925 0.000000 0.993258
vn -0.115925 0.000000 0.993258
vn 0.000000 -1.000000 0.000000
vn 0.000000 -1.000000 0.000000
vn 0.000000 -1.000000 0.000000
vn 0.000000 -1.000000 0.000000
vn 0.000000 -1.000000 0.000000
vn 0.000000 -1.000000 0.000000
vn 0.000000 -1.000000 0.000000
vn 0.000000 -1.000000 0.000000
vn 0.005912 0.000000 0.999983
vn 0.005912 0.000000 0.999983
vn 0.005912 0.000000 0.999983
vn 0.005912 0.000000 0.999983
vn 0.000000 0.000000 1.000000
vn 0.000000 0.000000 1.000000
vn 0.000000 0.000000 1.000000
vn 0.000000 0.000000 1.000000
vn 0.000000 0.000000 -1.000000
vn 0.000000 0.000000 -1.000000
vn 0.000000 0.000000 -1.000000
vn 0.000000 0.000000 -1.000000
vn 0.000000 -1.000000 0.000000
vn 0.000000 -1.000000 0.000000
vn 0.000000 -1.000000 0.000000
vn 0.000000 -1.000000 0.000000
vn 0.000000 1.000000 0.000000
vn 0.000000 1.000000 0.000000
vn 0.000000 1.000000 0.000000
vn 0.000000 1.000000 0.000000
vn 0.000000 1.000000 0.000000
vn 0.000000 1.000000 0.000000
vn 0.000000 1.000000 0.000000
vn 0.000000 1.000000 0.000000
vn 0.000000 1.000000 0.000000
vn 0.000000 1.000000 0.000000
vn 0.000000 1.000000 0.000000
vn 0.000000 1.000000 0.000000
vn 0.000000 0.000000 1.000000
vn 0.000000 0.000000 1.000000
vn 0.000000 0.000000 1.000000
vn 0.000000 0.000000 1.000000
vn 0.000000 -1.000000 0.000000
vn 0.000000 -1.000000 0.000000
vn 0.000000 -1.000000 0.000000
vn 0.000000 -1.000000 0.000000
vn -0.000000 0.000000 -1.000000
vn -0.000000 0.000000 -1.000000
vn -0.000000 0.000000 -1.000000
vn -0.000000 0.000000 -1.000000
vn -0.000000 -0.000000 -1.000000
vn -0.000000 -0.000000 -1.000000
vn -0.000000 -0.000000 -1.000000
vn -0.000000 -0.000000 -1.000000
vn 0.003092 0.999995 0.000000
vn 0.003092 0.999995 0.000000
vn 0.003092 0.999995 0.000000
vn 0.000000 -1.000000 0.000000
vn 0.000000 -1.000000 0.000000
vn 0.000000 -1.000000 0.000000
vn 0.000000 0.000000 -1.000000
vn 0.000000 0.000000 -1.000000
vn 0.000000 0.000000 -1.000000
vn 0.000000 0.000000 -1.000000
vn -1.000000 0.000000 0.000000
vn -1.000000 0.000000 0.000000
vn -1.000000 0.000000 0.000000
vn -1.000000 0.000000 0.000000
vn -0.102081 0.000000 -0.994776
vn -0.102081 0.000000 -0.994776
vn -0.102081 0.000000 -0.994776
vn -0.102081 0.000000 -0.994776
vn 0.000000 1.000000 0.000000
vn 0.000000 1.000000 0.000000
vn 0.000000 1.000000 0.000000
vn 0.000000 1.000000 0.000000
vn 0.000000 0.000000 -1.000000
vn 0.000000 0.000000 -1.000000
vn 0.000000 0.000000 -1.000000
vn 0.000000 0.000000 -1.000000
vn -1.000000 0.000000 0.000000
vn -1.000000 0.000000 0.000000
vn -1.000000 0.000000 0.000000
vn -1.000000 0.000000 0.000000
vn 1.000000 0.000000 0.000000
vn 1.000000 0.000000 0.000000
vn 1.000000 0.000000 0.000000
vn 1.000000 0.000000 0.000000
vn 0.000000 -1.000000 0.000000
vn 0.000000 -1.000000 0.000000
vn 0.000000 -1.000000 0.000000
vn 0.000000 -1.000000 0.000000
vn -1.000000 0.000000 0.000000
vn -1.000000 0.000000 0.000000
vn -1.000000 0.000000 0.000000
vn -1.000000 0.000000 0.000000
vn -0.229282 0.973360 0.000000
vn -0.229282 0.973360 0.000000
vn -0.229282 0.973360 0.000000
vn -0.229282 0.973360 0.000000
vn -0.019626 0.000000 -0.999807
vn -0.019626 0.000000 -0.999807
vn -0.019626 0.000000 -0.999807
vn -0.019626 0.000000 -0.999807
vn 1.000000 0.000000 0.000000
vn 1.000000 0.000000 0.000000
vn 1.000000 0.000000 0.000000
vn 1.000000 0.000000 0.000000
vn -1.000000 0.000000 0.000000
vn -1.000000 0.000000 0.000000
vn -1.000000 0.000000 0.000000
vn -1.000000 0.000000 0.000000
vn 0.028129 0.000000 0.999604
vn 0.028129 0.000000 0.999604
vn 0.028129 0.000000 0.999604
vn 0.028129 0.000000 0.999604
vn 0.000000 1.000000 0.000000
vn 0.000000 1.000000 0.000000
vn 0.000000 1.000000 0.000000
vn 0.000000 1.000000 0.000000
vn 0.000000 1.000000 0.000000
vn 0.000000 1.000000 0.000000
vn 0.000000 1.000000 0.000000
vn 0.000000 1.000000 0.000000
vn 0.000000 1.000000 -0.000000
vn 0.000000 1.000000 -0.000000
vn 0.000000 1.000000 -0.000000
vn 0.000000 1.000000 -0.000000
vn 0.000000 -1.000000 0.000000
vn 0.000000 -1.000000 0.000000
vn 0.000000 -1.000000 0.000000
vn 0.000000 -1.000000 0.000000
vn 0.000000 -1.000000 0.000000
vn 0.000000 -1.000000 0.000000
vn 0.000000 -1.000000 0.000000
vn 0.000000 -1.000000 0.000000
vn 0.000000 -1.000000 0.000000
vn 0.000000 -1.000000 0.000000
vn 0.000000 -1.000000 0.000000
vn 0.000000 -1.000000 0.000000
vn 1.000000 0.000000 0.000000
vn 1.000000 0.000000 0.000000
vn 1.000000 0.000000 0.000000
vn 1.000000 0.000000 0.000000
vn 1.000000 0.000000 0.000000
vn 1.000000 0.000000 0.000000
vn 1.000000 0.000000 0.000000
vn 1.000000 0.000000 0.000000
vn 1.000000 0.000000 0.000000
vn 1.000000 0.000000 0.000000
vn 1.000000 0.000000 0.000000
vn 1.000000 0.000000 0.000000
vn -0.229282 -0.973360 0.000000
vn -0.229282 -0.973360 0.000000
vn -0.229282 -0.973360 0.000000
vn -0.229282 -0.973360 0.000000
vn -0.229282 0.973360 0.000000
vn -0.229282 0.973360 0.000000
vn -0.229282 0.973360 0.000000
vn -0.229282 0.973360 0.000000
vn -0.229282 0.973360 0.000000
vn -0.229282 0.973360 0.000000
vn -0.229282 0.973360 0.000000
vn -0.229282 0.973360 0.000000
vn -0.229282 -0.973360 0.000000
vn -0.229282 -0.973360 0.000000
vn -0.229282 -0.973360 0.000000
vn -0.229282 -0.973360 0.000000
vn -0.229282 -0.973360 0.000000
vn -0.229282 -0.973360 0.000000
vn -0.229282 -0.973360 0.000000
vn -0.229282 -0.973360 0.000000
vn 0.000000 -1.000000 0.000000
vn 0.000000 -1.000000 0.000000
vn 0.000000 -1.000000 0.000000
vn 0.000000 -1.000000 0.000000
vn 0.000000 -1.000000 -0.000000
vn 0.000000 -1.000000 -0.000000
vn 0.000000 -1.000000 -0.000000
vn 0.000000 -1.000000 -0.000000
vn 0.015402 0.999881 0.000000
vn 0.015402 0.999881 0.000000
vn 0.015402 0.999881 0.000000
vn 0.000000 0.999945 -0.010444
vn 0.000000 0.999945 -0.010444
vn 0.000000 0.999945 -0.010444
vn 0.000000 0.999945 -0.010444
vn -1.000000 0.000000 0.000000
vn -1.000000 0.000000 0.000000
vn -1.000000 0.000000 0.000000
vn -1.000000 0.000000 0.000000
vn 0.000000 -1.000000 0.000000
vn 0.000000 -1.000000 0.000000
vn 0.000000 -1.000000 0.000000
vn 0.000000 -1.000000 0.000000
vn 0.000000 1.000000 0.000000
vn 0.000000 1.000000 0.000000
vn 0.000000 1.000000 0.000000
vn 0.000000 1.000000 0.000000
vn 0.015695 0.000000 0.999877
vn 0.015695 0.000000 0.999877
vn 0.015695 0.000000 0.999877
vn 0.015695 0.000000 0.999877
vn -0.000000 0.000000 1.000000
vn -0.000000 0.000000 1.000000
vn -0.000000 0.000000 1.000000
vn 0.000000 -1.000000 0.000000
vn 0.000000 -1.000000 0.000000
vn 0.000000 -1.000000 0.000000
vn 0.000000 0.999921 0.012600
vn 0.000000 0.999921 0.012600
vn 0.000000 0.999921 0.012600
vn 0.000000 0.999921 0.012600
vn -0.000000 0.000000 1.000000
vn -0.000000 0.000000 1.000000
vn -0.000000 0.000000 1.000000
vn 0.000000 0.000000 -1.000000
vn 0.000000 0.000000 -1.000000
vn 0.000000 0.000000 -1.000000
vn 0.000000 0.000000 -1.000000
vn 0.000000 0.000000 1.000000
vn 0.000000 0.000000 1.000000
vn 0.000000 0.000000 1.000000
vn 0.000000 0.000000 1.000000
vn 1.000000 0.000000 0.000000
vn 1.000000 0.000000 0.000000
vn 1.000000 0.000000 0.000000
vn 1.000000 0.000000 0.000000
vn -0.000000 0.181142 0.983457
vn -0.000000 0.181142 0.983457
vn -0.000000 0.181142 0.983457
vn -0.000000 0.181142 0.983457
vn -0.000000 -0.181142 0.983457
vn -0.000000 -0.181142 0.983457
vn -0.000000 -0.181142 0.983457
vn -0.000000 -0.181142 0.983457
vn 0.000000 -1.000000 0.000000
vn 0.000000 -1.000000 0.000000
vn 0.000000 -1.000000 0.000000
vn 0.000000 -1.000000 0.000000
vn -1.000000 0.000000 0.000000
vn -1.000000 0.000000 0.000000
vn -1.000000 0.000000 0.000000
vn -1.000000 0.000000 0.000000
vn 0.000000 1.000000 0.000000
vn 0.000000 1.000000 0.000000
vn 0.000000 1.000000 0.000000
vn 0.000000 1.000000 0.000000
vn 0.000000 1.000000 0.000000
vn 0.000000 1.000000 0.000000
vn 0.000000 1.000000 0.000000
vn 0.000000 1.000000 0.000000
vn 0.000000 1.000000 0.000000
vn 0.000000 1.000000 0.000000
vn 0.000000 1.000000 0.000000
vn 0.000000 1.000000 0.000000
vn 0.000000 -1.000000 0.000000
vn 0.000000 -1.000000 0.000000
vn 0.000000 -1.000000 0.000000
vn 0.000000 -1.000000 0.000000
vn 0.000000 1.000000 0.000000
vn 0.000000 1.000000 0.000000
vn 0.000000 1.000000 0.000000
vn 0.000000 1.000000 0.000000
vn 0.143825 0.000000 0.989603
vn 0.143825 0.000000 0.989603
vn 0.143825 0.000000 0.989603
vn 0.143825 0.000000 0.989603
vn 0.000000 -1.000000 0.000000
vn 0.000000 -1.000000 0.000000
vn 0.000000 -1.000000 0.000000
vn 0.000000 -1.000000 0.000000
vn 1.000000 0.000000 0.000000
vn 1.000000 0.000000 0.000000
vn 1.000000 0.000000 0.000000
vn 1.000000 0.000000 0.000000
vn 0.000000 0.000000 -1.000000
vn 0.000000 0.000000 -1.000000
vn 0.000000 0.000000 -1.000000
vn 0.000000 0.000000 -1.000000
vn 1.000000 0.000000 0.000000
vn 1.000000 0.000000 0.000000
vn 1.000000 0.000000 0.000000
vn 1.000000 0.000000 0.000000
vn -1.000000 0.000000 0.000000
vn -1.000000 0.000000 0.000000
vn -1.000000 0.000000 0.000000
vn -1.000000 0.000000 0.000000
vn 0.000000 -1.000000 0.000000
vn 0.000000 -1.000000 0.000000
vn 0.000000 -1.000000 0.000000
vn 0.000000 -1.000000 0.000000
vn -0.171358 0.000000 0.985209
vn -0.171358 0.000000 0.985209
vn -0.171358 0.000000 0.985209
vn -0.171358 0.000000 0.985209
vn 0.000000 0.000000 -1.000000
vn 0.000000 0.000000 -1.000000
vn 0.000000 0.000000 -1.000000
vn 0.000000 0.000000 -1.000000
vn 0.974632 0.000000 0.223812
vn 0.974632 0.000000 0.223812
vn 0.974632 0.000000 0.223812
vn 0.974632 0.000000 0.223812
vn -0.000000 0.000000 -1.000000
vn -0.000000 0.000000 -1.000000
vn -0.000000 0.000000 -1.000000
vn -0.000000 0.000000 -1.000000
vn 0.000001 0.000000 -1.000000
vn 0.000001 0.000000 -1.000000
vn 0.000001 0.000000 -1.000000
vn 0.000001 0.000000 -1.000000
vn -0.000000 0.000000 -1.000000
vn -0.000000 0.000000 -1.000000
vn -0.000000 0.000000 -1.000000
vn -0.000000 0.000000 -1.000000
vn 0.511488 0.000000 -0.859290
vn 0.511488 0.000000 -0.859290
vn 0.511488 0.000000 -0.859290
vn 0.511488 0.000000 -0.859290
vn 0.000000 -1.000000 -0.000000
vn 0.000000 -1.000000 -0.000000
vn 0.000000 -1.000000 -0.000000
vn 0.000000 -1.000000 -0.000000
vn -0.000000 1.000000 0.000000
vn -0.000000 1.000000 0.000000
vn -0.000000 1.000000 0.000000
vn -0.000000 1.000000 0.000000
vn -0.972855 0.000000 -0.231414
vn -0.972855 0.000000 -0.231414
vn -0.972855 0.000000 -0.231414
vn -0.972855 0.000000 -0.231414
vn 1.000000 0.000000 0.000000
vn 1.000000 0.000000 0.000000
vn 1.000000 0.000000 0.000000
vn 1.000000 0.000000 0.000000
vn 0.000000 -1.000000 0.000000
vn 0.000000 -1.000000 0.000000
vn 0.000000 -1.000000 0.000000
vn 0.000000 -1.000000 0.000000
vn 0.000000 -1.000000 -0.000000
vn 0.000000 -1.000000 -0.000000
vn 0.000000 -1.000000 -0.000000
vn 0.000000 -1.000000 -0.000000
vn 0.000000 0.000000 1.000000
vn 0.000000 0.000000 1.000000
vn 0.000000 0.000000 1.000000
vn 0.000000 0.000000 1.000000
vn 0.000000 1.000000 0.000000
vn 0.000000 1.000000 0.000000
vn 0.000000 1.000000 0.000000
vn 0.000000 1.000000 0.000000
vn 0.000000 0.000000 -1.000000
vn 0.000000 0.000000 -1.000000
vn 0.000000 0.000000 -1.000000
vn 0.000000 0.000000 -1.000000
vn 0.000000 1.000000 -0.000000
vn 0.000000 1.000000 -0.000000
vn 0.000000 1.000000 -0.000000
vn 0.000000 1.000000 -0.000000
vn 0.666145 0.000000 0.745822
vn 0.666145 0.000000 0.745822
vn 0.666145 0.000000 0.745822
vn 0.666145 0.000000 0.745822
vn 0.000000 1.000000 0.000000
vn 0.000000 1.000000 0.000000
vn 0.000000 1.000000 0.000000
vn 0.000000 1.000000 0.000000
vn -0.665533 0.000000 -0.746368
vn -0.665533 0.000000 -0.746368
vn -0.665533 0.000000 -0.746368
vn -0.665533 0.000000 -0.746368
vn -0.970295 0.000000 -0.241923
vn -0.970295 0.000000 -0.241923
vn -0.970295 0.000000 -0.241923
vn -0.970295 0.000000 -0.241923
vn 0.000000 -1.000000 -0.000000
vn 0.000000 -1.000000 -0.000000
vn 0.000000 -1.000000 -0.000000
vn 0.000000 -1.000000 -0.000000
vn 0.969923 0.000000 0.243410
vn 0.969923 0.000000 0.243410
vn 0.969923 0.000000 0.243410
vn 0.969923 0.000000 0.243410
vn -0.085821 0.000000 0.996311
vn -0.085821 0.000000 0.996311
vn -0.085821 0.000000 0.996311
vn -0.085821 0.000000 0.996311
vn -0.007777 0.999955 -0.005373
vn -0.007777 0.999955 -0.005373
vn -0.007777 0.999955 -0.005373
vn -0.007777 0.999955 -0.005373
vn 0.000000 -1.000000 0.000000
vn 0.000000 -1.000000 0.000000
vn 0.000000 -1.000000 0.000000
vn 0.000000 -1.000000 0.000000
vn 0.000000 0.000000 -1.000000
vn 0.000000 0.000000 -1.000000
vn 0.000000 0.000000 -1.000000
vn 0.000000 0.000000 -1.000000
vn 0.000000 0.000000 -1.000000
vn 0.000000 0.000000 -1.000000
vn 0.000000 0.000000 -1.000000
vn 0.000000 0.000000 -1.000000
vn 0.000000 -1.000000 0.000000
vn 0.000000 -1.000000 0.000000
vn 0.000000 -1.000000 0.000000
vn 0.000000 -1.000000 0.000000
vn 0.000000 0.999945 -0.010444
vn 0.000000 0.999945 -0.010444
vn 0.000000 0.999945 -0.010444
vn 0.000000 0.999945 -0.010444
vn -0.995223 0.000000 0.097627
vn -0.995223 0.000000 0.097627
vn -0.995223 0.000000 0.097627
vn -0.995223 0.000000 0.097627
vn 0.000000 -1.000000 0.000017
vn 0.000000 -1.000000 0.000017
vn 0.000000 -1.000000 0.000017
vn 0.000000 -1.000000 0.000017
vn 0.000000 0.000000 1.000000
vn 0.000000 0.000000 1.000000
vn 0.000000 0.000000 1.000000
vn 0.000000 0.000000 1.000000
vn -0.247009 0.000000 0.969013
vn -0.247009 0.000000 0.969013
vn -0.247009 0.000000 0.969013
vn -0.247009 0.000000 0.969013
vn 0.000000 0.000000 -1.000000
vn 0.000000 0.000000 -1.000000
vn 0.000000 0.000000 -1.000000
vn 0.000000 0.000000 -1.000000
vn 0.000000 -1.000000 -0.000001
vn 0.000000 -1.000000 -0.000001
vn 0.000000 -1.000000 -0.000001
vn 0.000000 -1.000000 -0.000001
vn 0.000000 -1.000000 0.000000
vn 0.000000 -1.000000 0.000000
vn 0.000000 -1.000000 0.000000
vn 0.000000 -1.000000 0.000000
vn -0.000000 -1.000000 0.000000
vn -0.000000 -1.000000 0.000000
vn -0.000000 -1.000000 0.000000
vn -0.000000 -1.000000 0.000000
vn 0.000000 -1.000000 0.000000
vn 0.000000 -1.000000 0.000000
vn 0.000000 -1.000000 0.000000
vn 0.000000 -1.000000 0.000000
vn 0.000000 0.000000 1.000000
vn 0.000000 0.000000 1.000000
vn 0.000000 0.000000 1.000000
vn 0.000000 0.000000 1.000000
vn 1.000000 0.000000 0.000000
vn 1.000000 0.000000 0.000000
vn 1.000000 0.000000 0.000000
vn 1.000000 0.000000 0.000000
vn -1.000000 0.000000 0.000000
vn -1.000000 0.000000 0.000000
vn -1.000000 0.000000 0.000000
vn -1.000000 0.000000 0.000000
vn 1.000000 0.000000 0.000000
vn 1.000000 0.000000 0.000000
vn 1.000000 0.000000 0.000000
vn 1.000000 0.000000 0.000000
vn -1.000000 0.000000 0.000000
vn -1.000000 0.000000 0.000000
vn -1.000000 0.000000 0.000000
vn -1.000000 0.000000 0.000000
vn 0.000000 1.000000 0.000000
vn 0.000000 1.000000 0.000000
vn 0.000000 1.000000 0.000000
vn 0.000000 1.000000 0.000000
vn 0.000000 1.000000 0.000000
vn 0.000000 1.000000 0.000000
vn 0.000000 1.000000 0.000000
vn 0.000000 1.000000 0.000000
vn 0.000000 1.000000 0.000000
vn 0.000000 1.000000 0.000000
vn 0.000000 1.000000 0.000000
vn 0.000000 1.000000 0.000000
vn 0.000000 1.000000 0.000000
vn 0.000000 1.000000 0.000000
vn 0.000000 1.000000 0.000000
vn 0.000000 1.000000 0.000000
vn 0.000000 0.000000 -1.000000
vn 0.000000 0.000000 -1.000000
vn 0.000000 0.000000 -1.000000
vn 0.000000 0.000000 -1.000000
vn 0.000000 1.000000 -0.000000
vn 0.000000 1.000000 -0.000000
vn 0.000000 1.000000 -0.000000
vn 0.000000 1.000000 -0.000000
vn 0.999950 0.010018 0.000000
vn 0.999950 0.010018 0.000000
vn 0.999950 0.010018 0.000000
vn 0.999950 0.010018 0.000000
vn 0.000000 -1.000000 0.000000
vn 0.000000 -1.000000 0.000000
vn 0.000000 -1.000000 0.000000
vn 0.000000 -1.000000 0.000000
vn 0.999950 0.010019 0.000000
vn 0.999950 0.010019 0.000000
vn 0.999950 0.010019 0.000000
vn 0.999950 0.010019 0.000000
vn 0.000000 -1.000000 0.000000
vn 0.000000 -1.000000 0.000000
vn 0.000000 -1.000000 0.000000
vn 0.000000 -1.000000 0.000000
vn 0.999950 -0.010018 0.000000
vn 0.999950 -0.010018 0.000000
vn 0.999950 -0.010018 0.000000
vn 0.999950 -0.010018 0.000000
vn 0.000000 1.000000 0.000000
vn 0.000000 1.000000 0.000000
vn 0.000000 1.000000 0.000000
vn 0.000000 1.000000 0.000000
vn 0.999950 -0.010019 0.000000
vn 0.999950 -0.010019 0.000000
vn 0.999950 -0.010019 0.000000
vn 0.999950 -0.010019 0.000000
vn 0.000000 1.000000 0.000000
vn 0.000000 1.000000 0.000000
vn 0.000000 1.000000 0.000000
vn 0.000000 1.000000 0.000000
vn 0.999950 0.010017 0.000000
vn 0.999950 0.010017 0.000000
vn 0.999950 0.010017 0.000000
vn 0.999950 0.010017 0.000000
vn 0.000000 -1.000000 0.000000
vn 0.000000 -1.000000 0.000000
vn 0.000000 -1.000000 0.000000
vn 0.000000 -1.000000 0.000000
vn 0.999950 -0.010017 0.000000
vn 0.999950 -0.010017 0.000000
vn 0.999950 -0.010017 0.000000
vn 0.999950 -0.010017 0.000000
vn 0.000000 1.000000 0.000000
vn 0.000000 1.000000 0.000000
vn 0.000000 1.000000 0.000000
vn 0.000000 1.000000 0.000000
vn 0.999736 0.000000 0.022992
vn 0.999736 0.000000 0.022992
vn 0.999736 0.000000 0.022992
vn 0.999736 0.000000 0.022992
vn 0.000000 0.000000 -1.000000
vn 0.000000 0.000000 -1.000000
vn 0.000000 0.000000 -1.000000
vn 0.000000 0.000000 -1.000000
vn 0.999796 0.000000 -0.020216
vn 0.999796 0.000000 -0.020216
vn 0.999796 0.000000 -0.020216
vn 0.999796 0.000000 -0.020216
vn 0.000000 0.000000 1.000000
vn 0.000000 0.000000 1.000000
vn 0.000000 0.000000 1.000000
vn 0.000000 0.000000 1.000000
vn -0.968308 -0.249760 0.000000
vn -0.968308 -0.249760 0.000000
vn -0.968308 -0.249760 0.000000
vn -0.968308 -0.249760 0.000000
vn -0.968309 -0.249756 0.000000
vn -0.968309 -0.249756 0.000000
vn -0.968309 -0.249756 0.000000
vn -0.968309 -0.249756 0.000000
vn -0.968308 0.249760 0.000000
vn -0.968308 0.249760 0.000000
vn -0.968308 0.249760 0.000000
vn -0.968308 0.249760 0.000000
vn -0.968309 0.249756 0.000000
vn -0.968309 0.249756 0.000000
vn -0.968309 0.249756 0.000000
vn -0.968309 0.249756 0.000000
vn -0.968309 -0.249757 0.000000
vn -0.968309 -0.249757 0.000000
vn -0.968309 -0.249757 0.000000
vn -0.968309 -0.249757 0.000000
vn -0.968309 0.249757 0.000000
vn -0.968309 0.249757 0.000000
vn -0.968309 0.249757 0.000000
vn -0.968309 0.249757 0.000000
vn -0.860483 0.000000 -0.509479
vn -0.860483 0.000000 -0.509479
vn -0.860483 0.000000 -0.509479
vn -0.860483 0.000000 -0.509479
vn -0.887007 0.000000 0.461757
vn -0.887007 0.000000 0.461757
vn -0.887007 0.000000 0.461757
vn -0.887007 0.000000 0.461757
usemtl SniperPallet
f 52/1/1 51/2/2 20/3/3 18/4/4
f 9/5/5 10/6/6 8/7/7 7/8/8
f 149/9/9 145/10/10 40/11/11 37/12/12
f 16/13/13 14/14/14 2/15/15 1/16/16
f 5/17/17 11/18/18 24/19/19 21/20/20
f 15/21/21 4/22/22 2/23/23 14/24/24
f 8/25/25 10/26/26 12/27/27 6/28/28
f 13/29/29 9/30/30 11/31/31 16/32/32
f 5/33/33 6/34/34 12/35/35 11/36/36
f 13/37/37 15/38/38 10/39/39 9/40/40
f 3/41/41 4/42/42 15/43/43 13/44/44
f 3/45/45 13/46/46 27/47/47 26/48/48
f 10/49/49 15/50/50 14/51/51 12/52/52
f 11/53/53 12/54/54 14/55/55 16/56/56
f 102/57/57 101/58/58 48/59/59 47/60/60
f 19/61/61 54/62/62 80/63/63 77/64/64
f 3/65/65 45/66/66 4/67/67
f 2/68/68 46/69/69 1/70/70
f 23/71/71 22/72/72 21/73/73 24/74/74
f 11/75/75 9/76/76 23/77/77 24/78/78
f 148/79/79 144/80/80 44/81/81 43/82/82
f 9/83/83 7/84/84 22/85/85 23/86/86
f 26/87/87 27/88/88 28/89/89 25/90/90
f 1/91/91 3/92/92 26/93/93 25/94/94
f 13/95/95 16/96/96 28/97/97 27/98/98
f 16/99/99 1/100/100 25/101/101 28/102/102
f 25/103/103 26/104/104 32/105/105 31/106/106
f 147/107/107 143/108/108 38/109/109 42/110/110
f 29/111/111 31/112/112 32/113/113 30/114/114
f 27/115/115 28/116/116 36/117/117 35/118/118
f 24/119/119 23/120/120 33/121/121 34/122/122
f 34/123/123 33/124/124 35/125/125 36/126/126
f 22/127/127 30/128/128 33/129/129 23/130/130
f 27/131/131 35/132/132 32/133/133 26/134/134
f 32/135/135 35/136/136 33/137/137 30/138/138
f 24/139/139 34/140/140 29/141/141 21/142/142
f 25/143/143 31/144/144 36/145/145 28/146/146
f 31/147/147 29/148/148 34/149/149 36/150/150
f 38/151/151 37/152/152 40/153/153 39/154/154
f 38/155/155 39/156/156 41/157/157 42/158/158
f 42/159/159 41/160/160 43/161/161 44/162/162
f 150/163/163 146/164/164 41/165/165 39/166/166
f 143/167/167 149/168/168 37/169/169 38/170/170
f 144/171/171 147/172/172 42/173/173 44/174/174
f 145/175/175 150/176/176 39/177/177 40/178/178
f 146/179/179 148/180/180 43/181/181 41/182/182
f 17/183/183 53/184/184 1/185/185 46/186/186
f 52/187/187 46/188/188 2/189/189 55/190/190
f 51/191/191 45/192/192 20/193/193
f 3/194/194 54/195/195 19/196/196 45/197/197
f 48/198/198 50/199/199 49/200/200 47/201/201
f 101/202/202 103/203/203 50/204/204 48/205/205
f 104/206/206 102/207/207 47/208/208 49/209/209
f 103/210/210 104/211/211 49/212/212 50/213/213
f 56/214/214 52/215/215 55/216/216
f 52/217/217 18/218/218 46/219/219
f 51/220/220 56/221/221 4/222/222 45/223/223
f 56/224/224 51/225/225 52/226/226
f 59/227/227 57/228/228 61/229/229 62/230/230
f 58/231/231 60/232/232 64/233/233 63/234/234
f 3/235/235 1/236/236 57/237/237 59/238/238
f 54/239/239 3/240/240 59/241/241 62/242/242
f 1/243/243 53/244/244 61/245/245 57/246/246
f 65/247/247 58/248/248 63/249/249 67/250/250
f 67/251/251 68/252/252 62/253/253 61/254/254
f 66/255/255 59/256/256 62/257/257 68/258/258
f 60/259/259 66/260/260 68/261/261 64/262/262
f 64/263/263 68/264/264 75/265/265 73/266/266
f 57/267/267 65/268/268 67/269/269 61/270/270
f 66/271/271 60/272/272 70/273/273 72/274/274
f 60/275/275 58/276/276 69/277/277 70/278/278
f 58/279/279 65/280/280 71/281/281 69/282/282
f 71/283/283 72/284/284 70/285/285 69/286/286
f 72/287/287 71/288/288 65/289/289 66/290/290
f 59/291/291 66/292/292 65/293/293 57/294/294
f 74/295/295 73/296/296 75/297/297 76/298/298
f 67/299/299 63/300/300 74/301/301 76/302/302
f 63/303/303 64/304/304 73/305/305 74/306/306
f 68/307/307 67/308/308 76/309/309 75/310/310
f 80/311/311 79/312/312 83/313/313 84/314/314
f 53/315/315 17/316/316 78/317/317 79/318/318
f 17/319/319 19/320/320 77/321/321 78/322/322
f 54/323/323 53/324/324 79/325/325 80/326/326
f 84/327/327 83/328/328 82/329/329 81/330/330
f 79/331/331 78/332/332 82/333/333 83/334/334
f 77/335/335 80/336/336 84/337/337 81/338/338
f 78/339/339 77/340/340 81/341/341 82/342/342
f 86/343/343 88/344/344 87/345/345 85/346/346
f 92/347/347 90/348/348 94/349/349 96/350/350
f 88/351/351 86/352/352 90/353/353 92/354/354
f 86/355/355 85/356/356 89/357/357 90/358/358
f 85/359/359 87/360/360 91/361/361 89/362/362
f 87/363/363 88/364/364 92/365/365 91/366/366
f 93/367/367 95/368/368 99/369/369 97/370/370
f 90/371/371 89/372/372 93/373/373 94/374/374
f 89/375/375 91/376/376 95/377/377 93/378/378
f 91/379/379 92/380/380 96/381/381 95/382/382
f 95/383/383 96/384/384 100/385/385 99/386/386
f 96/387/387 94/388/388 98/389/389 100/390/390
f 94/391/391 93/392/392 97/393/393 98/394/394
f 108/395/395 106/396/396 104/397/397 103/398/398
f 106/399/399 105/400/400 102/401/401 104/402/402
f 107/403/403 108/404/404 103/405/405 101/406/406
f 105/407/407 107/408/408 101/409/409 102/410/410
f 19/411/411 17/412/412 107/413/413 105/414/414
f 17/415/415 46/416/416 108/417/417 107/418/418
f 45/419/419 19/420/420 105/421/421 106/422/422
f 109/423/423 110/424/424 106/425/425 108/426/426
f 108/427/427 46/428/428 111/429/429 113/430/430
f 125/431/431 124/432/432 120/433/433 119/434/434
f 18/435/435 20/436/436 110/437/437 109/438/438
f 112/439/439 114/440/440 118/441/441 116/442/442
f 18/443/443 109/444/444 114/445/445 112/446/446
f 109/447/447 108/448/448 113/449/449 114/450/450
f 46/451/451 18/452/452 112/453/453 111/454/454
f 116/455/455 118/456/456 117/457/457 115/458/458
f 113/459/459 111/460/460 115/461/461 117/462/462
f 114/463/463 113/464/464 117/465/465 118/466/466
f 111/467/467 112/468/468 116/469/469 115/470/470
f 124/471/471 123/472/472 121/473/473 120/474/474
f 126/475/475 125/476/476 119/477/477 122/478/478
f 119/479/479 120/480/480 121/481/481 122/482/482
f 20/483/483 45/484/484 125/485/485 126/486/486
f 45/487/487 106/488/488 124/489/489 125/490/490
f 106/491/491 110/492/492 123/493/493 124/494/494
f 123/495/495 126/496/496 122/497/497 121/498/498
f 110/499/499 20/500/500 126/501/501 123/502/502
f 21/503/503 29/504/504 134/505/505 139/506/506
f 139/507/507 134/508/508 133/509/509 140/510/510
f 6/511/511 5/512/512 142/513/513 135/514/514
f 135/515/515 142/516/516 141/517/517 136/518/518
f 30/519/519 22/520/520 130/521/521 131/522/522
f 131/523/523 130/524/524 129/525/525 132/526/526
f 7/527/527 8/528/528 138/529/529 127/530/530
f 127/531/531 138/532/532 137/533/533 128/534/534
f 5/535/535 21/536/536 139/537/537 142/538/538
f 142/539/539 139/540/540 140/541/541 141/542/542
f 22/543/543 7/544/544 127/545/545 130/546/546
f 130/547/547 127/548/548 128/549/549 129/550/550
f 29/551/551 30/552/552 131/553/553 134/554/554
f 134/555/555 131/556/556 132/557/557 133/558/558
f 8/559/559 6/560/560 135/561/561 138/562/562
f 138/563/563 135/564/564 136/565/565 137/566/566
f 140/567/567 133/568/568 148/569/569 146/570/570
f 136/571/571 141/572/572 150/573/573 145/574/574
f 132/575/575 129/576/576 147/577/577 144/578/578
f 128/579/579 137/580/580 149/581/581 143/582/582
f 141/583/583 140/584/584 146/585/585 150/586/586
f 129/587/587 128/588/588 143/589/589 147/590/590
f 133/591/591 132/592/592 144/593/593 148/594/594
f 137/595/595 136/596/596 145/597/597 149/598/598
