mtllib sniper_parts.mtl
o Scope
v -0.200890 0.795844 0.099853
v -0.200890 -0.802859 0.099853
v -0.676152 0.795844 0.094426
v -0.676152 -0.802859 0.094426
v 0.653906 0.795844 0.099853
v 0.653906 -0.802859 0.099853
v 0.178644 0.795844 0.094426
v 0.178644 -0.802859 0.094426
v -0.295051 -0.359657 0.194020
v -0.295051 0.352642 0.194020
v -0.582874 -0.359657 0.188594
v -0.582874 0.352642 0.188594
v 0.559745 -0.359657 0.194020
v 0.559745 0.352642 0.194020
v 0.271923 -0.359657 0.188594
v 0.271923 0.352642 0.188594
v -0.298500 -0.359657 0.529918
v -0.298500 0.352642 0.529918
v -0.586322 -0.359657 0.524491
v -0.586322 0.352642 0.524491
v 0.556297 -0.359657 0.529918
v 0.556297 0.352642 0.529918
v 0.268475 -0.359657 0.524491
v 0.268475 0.352642 0.524491
v -1.362271 1.497411 0.766709
v -1.362271 1.296900 1.046196
v -1.362271 0.749095 1.250795
v -1.362271 0.000779 1.325683
v -1.362271 -0.747536 1.250795
v -1.362271 -1.295341 1.046196
v -1.362271 -1.495852 0.766709
v -1.362271 -1.295341 0.487222
v -1.362271 -0.747537 0.282624
v -1.362271 0.000779 0.207735
v -1.362271 0.749094 0.282623
v -1.362271 1.296900 0.487222
v -0.866624 1.296900 1.046196
v -0.866624 1.497411 0.766709
v -0.866624 0.749095 1.250794
v -0.866624 0.000779 1.325683
v -0.866624 -0.747536 1.250794
v -0.866624 -1.295341 1.046196
v -0.866624 -1.495852 0.766709
v -0.866624 -1.295341 0.487222
v -0.866624 -0.747537 0.282624
v -0.866624 0.000779 0.207735
v -0.866624 0.749094 0.282624
v -0.866624 1.296900 0.487222
v -0.641860 0.972205 0.976181
v -0.641860 1.122486 0.766709
v -0.641860 0.561632 1.129525
v -0.641860 0.000779 1.185653
v -0.641860 -0.560074 1.129525
v -0.641860 -0.970647 0.976181
v -0.641860 -1.120927 0.766709
v -0.641860 -0.970647 0.557237
v -0.641860 -0.560074 0.403893
v -0.641860 0.000779 0.347765
v -0.641860 0.561632 0.403893
v -0.641860 0.972205 0.557237
v 0.980552 0.972205 0.976181
v 0.980552 1.122486 0.766709
v 0.980552 0.561632 1.129525
v 0.980552 0.000779 1.185653
v 0.980552 -0.560074 1.129525
v 0.980552 -0.970647 0.976181
v 0.980552 -1.120927 0.766709
v 0.980552 -0.970647 0.557237
v 0.980552 -0.560074 0.403893
v 0.980552 0.000779 0.347765
v 0.980552 0.561632 0.403893
v 0.980552 0.972205 0.557237
v 0.980552 0.806033 0.940349
v 0.980552 0.930606 0.766709
v 0.980552 0.465693 1.067462
v 0.980552 0.000779 1.113988
v 0.980552 -0.464134 1.067462
v 0.980552 -0.804474 0.940349
v 0.980552 -0.929047 0.766709
v 0.980552 -0.804474 0.593070
v 0.980552 -0.464134 0.465957
v 0.980552 0.000779 0.419430
v 0.980552 0.465692 0.465956
v 0.980552 0.806032 0.593069
v -0.645530 0.896801 0.959921
v -0.645530 1.035416 0.766709
v -0.645530 0.518098 1.101362
v -0.645530 0.000780 1.153133
v -0.645530 -0.516538 1.101362
v -0.645530 -0.895241 0.959921
v -0.645530 -1.033856 0.766709
v -0.645530 -0.895241 0.573497
v -0.645530 -0.516538 0.432056
v -0.645530 0.000779 0.380285
v -0.645530 0.518097 0.432056
v -0.645530 0.896800 0.573497
v -0.864816 1.237761 1.033443
v -0.864816 1.429122 0.766709
v -0.864816 0.714951 1.228707
v -0.864816 0.000780 1.300178
v -0.864816 -0.713391 1.228707
v -0.864816 -1.236201 1.033444
v -0.864816 -1.427562 0.766709
v -0.864816 -1.236201 0.499975
v -0.864816 -0.713392 0.304712
v -0.864816 0.000779 0.233240
v -0.864816 0.714950 0.304711
v -0.864816 1.237760 0.499974
v -1.362271 1.154760 1.015546
v -1.362271 1.333281 0.766709
v -1.362271 0.667031 1.197707
v -1.362271 0.000780 1.264382
v -1.362271 -0.665471 1.197707
v -1.362271 -1.153200 1.015546
v -1.362271 -1.331721 0.766709
v -1.362271 -1.153200 0.517872
v -1.362271 -0.665471 0.335712
v -1.362271 0.000779 0.269036
v -1.362271 0.667030 0.335711
v -1.362271 1.154759 0.517872
v -0.200507 -0.802859 -0.013188
v -0.200507 0.795844 -0.013188
v -0.675769 -0.802859 -0.018615
v -0.675769 0.795844 -0.018615
v 0.654289 -0.802859 -0.013188
v 0.654289 0.795844 -0.013188
v 0.179027 -0.802859 -0.018615
v 0.179027 0.795844 -0.018615
v 0.002370 0.408568 1.040342
v -0.045513 0.471654 1.040342
v 0.037423 0.236216 1.040342
v 0.050253 0.000779 1.040342
v 0.037423 -0.234658 1.040342
v 0.002370 -0.407010 1.040342
v -0.045513 -0.470095 1.040342
v -0.093396 -0.407010 1.040342
v -0.128449 -0.234658 1.040342
v -0.141279 0.000779 1.040342
v -0.128449 0.236216 1.040342
v -0.093396 0.408568 1.040342
v 0.002370 0.408568 1.289428
v -0.045513 0.471654 1.289428
v 0.037423 0.236216 1.289428
v 0.050253 0.000779 1.289428
v 0.037423 -0.234658 1.289428
v 0.002370 -0.407010 1.289428
v -0.045513 -0.470095 1.289428
v -0.093396 -0.407010 1.289428
v -0.128449 -0.234658 1.289428
v -0.141279 0.000779 1.289428
v -0.128449 0.236216 1.289428
v -0.093396 0.408568 1.289428
v 0.167727 -0.649613 0.626463
v 0.167727 -0.750229 0.766709
v 0.167727 -0.374725 1.009623
v 0.167727 0.000779 1.047202
v 0.167727 0.651171 0.626463
v 0.167727 0.376283 0.523795
v 0.167727 0.651172 0.906955
v 0.167727 0.751788 0.766709
v 0.167727 -0.374725 0.523795
v 0.167727 -0.649613 0.906955
v 0.167727 0.376284 1.009623
v 0.167727 0.000779 0.486216
v 0.169130 -0.428046 1.044116
v 0.169130 0.000779 1.087031
v 0.169130 0.743526 0.606548
v 0.169130 0.429604 0.489302
v 0.169130 0.743526 0.926870
v 0.169130 0.858429 0.766709
v 0.169130 -0.428046 0.489302
v 0.169130 -0.741967 0.606548
v 0.169130 -0.741967 0.926870
v 0.169130 0.429604 1.044116
v 0.169130 0.000779 0.446387
v 0.169130 -0.856871 0.766709
vt 0.092015 0.290833
vt 0.092015 0.221689
vt 0.097055 0.221689
vt 0.097055 0.290833
vt 0.171977 0.311390
vt 0.171977 0.290833
vt 0.177016 0.290873
vt 0.177016 0.311429
vt 0.106322 0.271665
vt 0.106322 0.240857
vt 0.121298 0.240857
vt 0.121298 0.271665
vt 0.159142 0.290940
vt 0.171977 0.290833
vt 0.171977 0.305362
vt 0.159142 0.305469
vt 0.184870 0.290833
vt 0.163680 0.290833
vt 0.167811 0.271665
vt 0.180646 0.271665
vt 0.184870 0.221689
vt 0.184870 0.290833
vt 0.180646 0.271665
vt 0.180646 0.240857
vt 0.184870 0.221689
vt 0.206061 0.221689
vt 0.201836 0.240857
vt 0.189002 0.240857
vt 0.102095 0.290833
vt 0.102095 0.221689
vt 0.106322 0.240857
vt 0.106322 0.271665
vt 0.163680 0.221689
vt 0.184870 0.221689
vt 0.180646 0.240857
vt 0.167811 0.240857
vt 0.092015 0.221689
vt 0.092015 0.290833
vt 0.087788 0.271665
vt 0.087788 0.240857
vt 0.206061 0.290833
vt 0.184870 0.290833
vt 0.189002 0.271665
vt 0.201836 0.271665
vt 0.206061 0.221689
vt 0.206061 0.290833
vt 0.201836 0.271665
vt 0.201836 0.240857
vt 0.115599 0.290833
vt 0.115599 0.321641
vt 0.102764 0.321641
vt 0.102764 0.290833
vt 0.115599 0.321641
vt 0.115599 0.290833
vt 0.128434 0.290833
vt 0.128434 0.321641
vt 0.146308 0.305362
vt 0.133474 0.305469
vt 0.133474 0.290940
vt 0.146308 0.290833
vt 0.087788 0.240857
vt 0.087788 0.271665
vt 0.072811 0.271665
vt 0.072811 0.240857
vt 0.146308 0.320104
vt 0.133474 0.319997
vt 0.133474 0.305469
vt 0.146308 0.305576
vt 0.087788 0.290833
vt 0.087788 0.321641
vt 0.072811 0.321641
vt 0.072811 0.290833
vt 0.159142 0.305469
vt 0.146308 0.305362
vt 0.146308 0.290833
vt 0.159142 0.290940
vt 0.102764 0.290833
vt 0.102764 0.321641
vt 0.087788 0.321641
vt 0.087788 0.290833
vt 0.373316 0.228732
vt 0.373296 0.228548
vt 0.373579 0.227950
vt 0.373634 0.228061
vt 0.368935 0.228014
vt 0.368923 0.228715
vt 0.368643 0.228299
vt 0.368651 0.227774
vt 0.369562 0.225398
vt 0.369548 0.225142
vt 0.370157 0.225142
vt 0.370171 0.225398
vt 0.369572 0.228014
vt 0.369576 0.227057
vt 0.370185 0.227057
vt 0.370181 0.228014
vt 0.369548 0.227057
vt 0.369544 0.228014
vt 0.368935 0.228014
vt 0.368939 0.227057
vt 0.369516 0.225142
vt 0.369532 0.225398
vt 0.368923 0.225398
vt 0.368907 0.225142
vt 0.369576 0.227057
vt 0.369572 0.226099
vt 0.370181 0.226099
vt 0.370185 0.227057
vt 0.369544 0.228014
vt 0.369532 0.228715
vt 0.368923 0.228715
vt 0.368935 0.228014
vt 0.369548 0.228971
vt 0.369562 0.228715
vt 0.370171 0.228715
vt 0.370157 0.228971
vt 0.369532 0.225398
vt 0.369544 0.226099
vt 0.368935 0.226099
vt 0.368923 0.225398
vt 0.369572 0.226099
vt 0.369562 0.225398
vt 0.370171 0.225398
vt 0.370181 0.226099
vt 0.369532 0.228715
vt 0.369516 0.228971
vt 0.368907 0.228971
vt 0.368923 0.228715
vt 0.369562 0.228715
vt 0.369572 0.228014
vt 0.370181 0.228014
vt 0.370171 0.228715
vt 0.369544 0.226099
vt 0.369548 0.227057
vt 0.368939 0.227057
vt 0.368935 0.226099
vt 0.371446 0.227057
vt 0.371444 0.226508
vt 0.372446 0.226339
vt 0.372449 0.227057
vt 0.372440 0.232184
vt 0.372687 0.231827
vt 0.373086 0.231916
vt 0.372901 0.232184
vt 0.368923 0.225398
vt 0.368935 0.226099
vt 0.368651 0.226339
vt 0.368643 0.225814
vt 0.370181 0.226099
vt 0.370171 0.225398
vt 0.370444 0.225814
vt 0.370452 0.226339
vt 0.372687 0.232542
vt 0.372440 0.232184
vt 0.372901 0.232184
vt 0.373086 0.232452
vt 0.370171 0.228715
vt 0.370181 0.228014
vt 0.370452 0.227774
vt 0.370444 0.228299
vt 0.368935 0.226099
vt 0.368939 0.227057
vt 0.368655 0.227057
vt 0.368651 0.226339
vt 0.370553 0.232228
vt 0.370307 0.231871
vt 0.370768 0.231871
vt 0.370953 0.232139
vt 0.370181 0.228014
vt 0.370185 0.227057
vt 0.370454 0.227057
vt 0.370452 0.227774
vt 0.368939 0.227057
vt 0.368935 0.228014
vt 0.368651 0.227774
vt 0.368655 0.227057
vt 0.370307 0.231871
vt 0.370553 0.231513
vt 0.370953 0.231603
vt 0.370768 0.231871
vt 0.370185 0.227057
vt 0.370181 0.226099
vt 0.370452 0.226339
vt 0.370454 0.227057
vt 0.372440 0.230452
vt 0.372440 0.229731
vt 0.372528 0.229846
vt 0.372528 0.230443
vt 0.367650 0.227605
vt 0.367643 0.228007
vt 0.366649 0.228299
vt 0.366658 0.227774
vt 0.371430 0.228154
vt 0.371438 0.228007
vt 0.372438 0.228299
vt 0.372428 0.228492
vt 0.367643 0.226106
vt 0.367650 0.226508
vt 0.366658 0.226339
vt 0.366649 0.225814
vt 0.371444 0.226508
vt 0.371438 0.226106
vt 0.372438 0.225814
vt 0.372446 0.226339
vt 0.367643 0.228007
vt 0.367634 0.228154
vt 0.366637 0.228492
vt 0.366649 0.228299
vt 0.371438 0.228007
vt 0.371444 0.227605
vt 0.372446 0.227774
vt 0.372438 0.228299
vt 0.367650 0.226508
vt 0.367652 0.227057
vt 0.366661 0.227057
vt 0.366658 0.226339
vt 0.371438 0.226106
vt 0.371430 0.225959
vt 0.372428 0.225622
vt 0.372438 0.225814
vt 0.371444 0.227605
vt 0.371446 0.227057
vt 0.372449 0.227057
vt 0.372446 0.227774
vt 0.367652 0.227057
vt 0.367650 0.227605
vt 0.366658 0.227774
vt 0.366661 0.227057
vt 0.367634 0.225959
vt 0.367643 0.226106
vt 0.366649 0.225814
vt 0.366637 0.225622
vt 0.368542 0.229838
vt 0.368535 0.229966
vt 0.367533 0.229652
vt 0.367543 0.229475
vt 0.373466 0.231067
vt 0.373328 0.231609
vt 0.373264 0.231402
vt 0.373378 0.230953
vt 0.373090 0.231827
vt 0.372816 0.231662
vt 0.372839 0.231446
vt 0.373067 0.231583
vt 0.373090 0.229136
vt 0.373328 0.229639
vt 0.373264 0.229769
vt 0.373067 0.229352
vt 0.372440 0.229731
vt 0.372578 0.229189
vt 0.372642 0.229396
vt 0.372528 0.229846
vt 0.373328 0.231609
vt 0.373090 0.231827
vt 0.373067 0.231583
vt 0.373264 0.231402
vt 0.372816 0.231662
vt 0.372578 0.231159
vt 0.372642 0.231029
vt 0.372839 0.231446
vt 0.373328 0.229639
vt 0.373466 0.230346
vt 0.373378 0.230355
vt 0.373264 0.229769
vt 0.372578 0.229189
vt 0.372816 0.228971
vt 0.372839 0.229215
vt 0.372642 0.229396
vt 0.372578 0.231159
vt 0.372440 0.230452
vt 0.372528 0.230443
vt 0.372642 0.231029
vt 0.373466 0.230346
vt 0.373466 0.231067
vt 0.373378 0.230953
vt 0.373378 0.230355
vt 0.372816 0.228971
vt 0.373090 0.229136
vt 0.373067 0.229352
vt 0.372839 0.229215
vt 0.373950 0.229995
vt 0.374121 0.230242
vt 0.373701 0.230336
vt 0.373466 0.229995
vt 0.370544 0.230798
vt 0.370546 0.230318
vt 0.371540 0.230137
vt 0.371537 0.230798
vt 0.368530 0.231279
vt 0.368535 0.231630
vt 0.367533 0.231945
vt 0.367526 0.231460
vt 0.370560 0.231759
vt 0.370552 0.231630
vt 0.371548 0.231945
vt 0.371559 0.232122
vt 0.368535 0.229966
vt 0.368530 0.230318
vt 0.367526 0.230137
vt 0.367533 0.229652
vt 0.370546 0.230318
vt 0.370552 0.229966
vt 0.371548 0.229652
vt 0.371540 0.230137
vt 0.368535 0.231630
vt 0.368542 0.231759
vt 0.367543 0.232122
vt 0.367533 0.231945
vt 0.370552 0.231630
vt 0.370546 0.231279
vt 0.371540 0.231460
vt 0.371548 0.231945
vt 0.368530 0.230318
vt 0.368528 0.230798
vt 0.367523 0.230798
vt 0.367526 0.230137
vt 0.370552 0.229966
vt 0.370560 0.229838
vt 0.371559 0.229475
vt 0.371548 0.229652
vt 0.370546 0.231279
vt 0.370544 0.230798
vt 0.371537 0.230798
vt 0.371540 0.231460
vt 0.368528 0.230798
vt 0.368530 0.231279
vt 0.367526 0.231460
vt 0.367523 0.230798
vt 0.367246 0.230798
vt 0.367250 0.231712
vt 0.366640 0.231651
vt 0.366637 0.230798
vt 0.371537 0.230798
vt 0.371540 0.230137
vt 0.371802 0.229885
vt 0.371798 0.230798
vt 0.367526 0.231460
vt 0.367533 0.231945
vt 0.367260 0.232381
vt 0.367250 0.231712
vt 0.373950 0.229312
vt 0.374121 0.229560
vt 0.373701 0.229654
vt 0.373466 0.229312
vt 0.367533 0.229652
vt 0.367526 0.230137
vt 0.367250 0.229885
vt 0.367260 0.229216
vt 0.371540 0.230137
vt 0.371548 0.229652
vt 0.371813 0.229216
vt 0.371802 0.229885
vt 0.374121 0.229065
vt 0.373950 0.229312
vt 0.373466 0.229312
vt 0.373701 0.228971
vt 0.371548 0.231945
vt 0.371540 0.231460
vt 0.371802 0.231712
vt 0.371813 0.232381
vt 0.367526 0.230137
vt 0.367523 0.230798
vt 0.367246 0.230798
vt 0.367250 0.229885
vt 0.374121 0.229748
vt 0.373950 0.229995
vt 0.373466 0.229995
vt 0.373701 0.229654
vt 0.371540 0.231460
vt 0.371537 0.230798
vt 0.371798 0.230798
vt 0.371802 0.231712
vt 0.367523 0.230798
vt 0.367526 0.231460
vt 0.367250 0.231712
vt 0.367246 0.230798
vt 0.372949 0.228952
vt 0.372970 0.228743
vt 0.373296 0.228548
vt 0.373316 0.228732
vt 0.367273 0.228971
vt 0.367260 0.229216
vt 0.366649 0.229322
vt 0.366662 0.229094
vt 0.371798 0.230798
vt 0.371802 0.229885
vt 0.372415 0.229946
vt 0.372411 0.230798
vt 0.367250 0.231712
vt 0.367260 0.232381
vt 0.366649 0.232275
vt 0.366640 0.231651
vt 0.371829 0.232626
vt 0.371813 0.232381
vt 0.372426 0.232275
vt 0.372440 0.232503
vt 0.367260 0.229216
vt 0.367250 0.229885
vt 0.366640 0.229946
vt 0.366649 0.229322
vt 0.371802 0.229885
vt 0.371813 0.229216
vt 0.372426 0.229322
vt 0.372415 0.229946
vt 0.367260 0.232381
vt 0.367273 0.232626
vt 0.366662 0.232503
vt 0.366649 0.232275
vt 0.371813 0.232381
vt 0.371802 0.231712
vt 0.372415 0.231651
vt 0.372426 0.232275
vt 0.367250 0.229885
vt 0.367246 0.230798
vt 0.366637 0.230798
vt 0.366640 0.229946
vt 0.371813 0.229216
vt 0.371829 0.228971
vt 0.372440 0.229094
vt 0.372426 0.229322
vt 0.371802 0.231712
vt 0.371798 0.230798
vt 0.372411 0.230798
vt 0.372415 0.231651
vt 0.373634 0.228061
vt 0.373579 0.227950
vt 0.373742 0.227110
vt 0.373817 0.227118
vt 0.373817 0.227118
vt 0.373742 0.227110
vt 0.373742 0.226254
vt 0.373817 0.226156
vt 0.373817 0.226156
vt 0.373742 0.226254
vt 0.373579 0.225610
vt 0.373634 0.225433
vt 0.373634 0.225433
vt 0.373579 0.225610
vt 0.373296 0.225351
vt 0.373316 0.225142
vt 0.373316 0.225142
vt 0.373296 0.225351
vt 0.372970 0.225546
vt 0.372949 0.225362
vt 0.372949 0.225362
vt 0.372970 0.225546
vt 0.372687 0.226144
vt 0.372632 0.226033
vt 0.372632 0.226033
vt 0.372687 0.226144
vt 0.372524 0.226984
vt 0.372449 0.226976
vt 0.372449 0.226976
vt 0.372524 0.226984
vt 0.372524 0.227840
vt 0.372449 0.227938
vt 0.372449 0.227938
vt 0.372524 0.227840
vt 0.372687 0.228484
vt 0.372632 0.228661
vt 0.372632 0.228661
vt 0.372687 0.228484
vt 0.372970 0.228743
vt 0.372949 0.228952
vt 0.121298 0.221689
vt 0.142489 0.221689
vt 0.142489 0.290833
vt 0.121298 0.290833
vt 0.163680 0.290833
vt 0.142489 0.290833
vt 0.142489 0.221689
vt 0.163680 0.221689
vt 0.151348 0.305469
vt 0.151348 0.326025
vt 0.146308 0.326065
vt 0.146308 0.305508
vt 0.206061 0.290833
vt 0.206061 0.221689
vt 0.211101 0.221689
vt 0.211101 0.290833
vt 0.156388 0.305469
vt 0.156388 0.326025
vt 0.151348 0.326065
vt 0.151348 0.305508
vt 0.128434 0.359978
vt 0.128434 0.290833
vt 0.133474 0.290833
vt 0.133474 0.359978
vt 0.161427 0.305508
vt 0.161427 0.326065
vt 0.156388 0.326025
vt 0.156388 0.305469
vt 0.102095 0.221689
vt 0.102095 0.290833
vt 0.097055 0.290833
vt 0.097055 0.221689
vt 0.359931 0.200078
vt 0.360191 0.199629
vt 0.360417 0.200117
vt 0.360548 0.201413
vt 0.360548 0.203169
vt 0.360417 0.204915
vt 0.360191 0.206182
vt 0.359931 0.206632
vt 0.359705 0.206143
vt 0.359575 0.204847
vt 0.359575 0.203091
vt 0.359705 0.201346
vt 0.360548 0.205289
vt 0.360548 0.203731
vt 0.361815 0.203731
vt 0.361815 0.205289
vt 0.361815 0.206162
vt 0.361815 0.204878
vt 0.363082 0.204878
vt 0.363082 0.206162
vt 0.360548 0.200817
vt 0.360548 0.200242
vt 0.361815 0.200242
vt 0.361815 0.200817
vt 0.361815 0.201372
vt 0.361815 0.200088
vt 0.363082 0.200088
vt 0.363082 0.201372
vt 0.360548 0.206351
vt 0.360548 0.205289
vt 0.361815 0.205289
vt 0.361815 0.206351
vt 0.361815 0.206632
vt 0.361815 0.206162
vt 0.363082 0.206162
vt 0.363082 0.206632
vt 0.360548 0.202094
vt 0.360548 0.200817
vt 0.361815 0.200817
vt 0.361815 0.202094
vt 0.361815 0.203125
vt 0.361815 0.201372
vt 0.363082 0.201372
vt 0.363082 0.203125
vt 0.360548 0.206632
vt 0.360548 0.206351
vt 0.361815 0.206351
vt 0.361815 0.206632
vt 0.360548 0.203731
vt 0.360548 0.202094
vt 0.361815 0.202094
vt 0.361815 0.203731
vt 0.361815 0.204878
vt 0.361815 0.203125
vt 0.363082 0.203125
vt 0.363082 0.204878
vt 0.361815 0.200088
vt 0.361815 0.199618
vt 0.363082 0.199618
vt 0.363082 0.200088
vt 0.369524 0.230798
vt 0.369526 0.231393
vt 0.368530 0.231279
vt 0.368528 0.230798
vt 0.369544 0.231393
vt 0.369541 0.230798
vt 0.370544 0.230798
vt 0.370546 0.231279
vt 0.369551 0.229768
vt 0.369561 0.229609
vt 0.370560 0.229838
vt 0.370552 0.229966
vt 0.369526 0.230204
vt 0.369524 0.230798
vt 0.368528 0.230798
vt 0.368530 0.230318
vt 0.369551 0.231829
vt 0.369544 0.231393
vt 0.370546 0.231279
vt 0.370552 0.231630
vt 0.369533 0.231829
vt 0.369541 0.231988
vt 0.368542 0.231759
vt 0.368535 0.231630
vt 0.369544 0.230204
vt 0.369551 0.229768
vt 0.370552 0.229966
vt 0.370546 0.230318
vt 0.369533 0.229768
vt 0.369526 0.230204
vt 0.368530 0.230318
vt 0.368535 0.229966
vt 0.369561 0.231988
vt 0.369551 0.231829
vt 0.370552 0.231630
vt 0.370560 0.231759
vt 0.369526 0.231393
vt 0.369533 0.231829
vt 0.368535 0.231630
vt 0.368530 0.231279
vt 0.369541 0.230798
vt 0.369544 0.230204
vt 0.370546 0.230318
vt 0.370544 0.230798
vt 0.369541 0.229609
vt 0.369533 0.229768
vt 0.368535 0.229966
vt 0.368542 0.229838
vt 0.368630 0.225622
vt 0.368643 0.225814
vt 0.367643 0.226106
vt 0.367634 0.225959
vt 0.368655 0.227057
vt 0.368651 0.227774
vt 0.367650 0.227605
vt 0.367652 0.227057
vt 0.370452 0.227774
vt 0.370454 0.227057
vt 0.371446 0.227057
vt 0.371444 0.227605
vt 0.370444 0.225814
vt 0.370434 0.225622
vt 0.371430 0.225959
vt 0.371438 0.226106
vt 0.368651 0.226339
vt 0.368655 0.227057
vt 0.367652 0.227057
vt 0.367650 0.226508
vt 0.370444 0.228299
vt 0.370452 0.227774
vt 0.371444 0.227605
vt 0.371438 0.228007
vt 0.368643 0.228299
vt 0.368630 0.228492
vt 0.367634 0.228154
vt 0.367643 0.228007
vt 0.370452 0.226339
vt 0.370444 0.225814
vt 0.371438 0.226106
vt 0.371444 0.226508
vt 0.368643 0.225814
vt 0.368651 0.226339
vt 0.367650 0.226508
vt 0.367643 0.226106
vt 0.370434 0.228492
vt 0.370444 0.228299
vt 0.371438 0.228007
vt 0.371430 0.228154
vt 0.368651 0.227774
vt 0.368643 0.228299
vt 0.367643 0.228007
vt 0.367650 0.227605
vt 0.370454 0.227057
vt 0.370452 0.226339
vt 0.371444 0.226508
vt 0.371446 0.227057
vn 0.999994 0.000000 0.003386
vn 0.999994 0.000000 0.003386
vn 0.999994 0.000000 0.003386
vn 0.999994 0.000000 0.003386
vn 0.000000 1.000000 0.000000
vn 0.000000 1.000000 0.000000
vn 0.000000 1.000000 0.000000
vn 0.000000 1.000000 0.000000
vn 0.999947 0.000000 0.010266
vn 0.999947 0.000000 0.010266
vn 0.999947 0.000000 0.010266
vn 0.999947 0.000000 0.010266
vn 0.000000 1.000000 0.000000
vn 0.000000 1.000000 0.000000
vn 0.000000 1.000000 0.000000
vn 0.000000 1.000000 0.000000
vn -0.013910 -0.207825 0.978067
vn -0.013910 -0.207825 0.978067
vn -0.013910 -0.207825 0.978067
vn -0.013910 -0.207825 0.978067
vn -0.710453 0.000000 0.703745
vn -0.710453 0.000000 0.703745
vn -0.710453 0.000000 0.703745
vn -0.710453 0.000000 0.703745
vn -0.013910 0.207825 0.978067
vn -0.013910 0.207825 0.978067
vn -0.013910 0.207825 0.978067
vn -0.013910 0.207825 0.978067
vn 0.707131 0.000000 0.707082
vn 0.707131 0.000000 0.707082
vn 0.707131 0.000000 0.707082
vn 0.707131 0.000000 0.707082
vn -0.013910 0.207825 0.978067
vn -0.013910 0.207825 0.978067
vn -0.013910 0.207825 0.978067
vn -0.013910 0.207825 0.978067
vn 0.707131 0.000000 0.707082
vn 0.707131 0.000000 0.707082
vn 0.707131 0.000000 0.707082
vn 0.707131 0.000000 0.707082
vn -0.013910 -0.207825 0.978067
vn -0.013910 -0.207825 0.978067
vn -0.013910 -0.207825 0.978067
vn -0.013910 -0.207825 0.978067
vn -0.710452 0.000000 0.703745
vn -0.710452 0.000000 0.703745
vn -0.710452 0.000000 0.703745
vn -0.710452 0.000000 0.703745
vn -0.018850 0.000000 0.999822
vn -0.018850 0.000000 0.999822
vn -0.018850 0.000000 0.999822
vn -0.018850 0.000000 0.999822
vn -0.018850 0.000000 0.999822
vn -0.018850 0.000000 0.999822
vn -0.018850 0.000000 0.999822
vn -0.018850 0.000000 0.999822
vn 0.000000 1.000000 0.000000
vn 0.000000 1.000000 0.000000
vn 0.000000 1.000000 0.000000
vn 0.000000 1.000000 0.000000
vn 0.999947 0.000000 0.010266
vn 0.999947 0.000000 0.010266
vn 0.999947 0.000000 0.010266
vn 0.999947 0.000000 0.010266
vn 0.000000 -1.000000 0.000000
vn 0.000000 -1.000000 0.000000
vn 0.000000 -1.000000 0.000000
vn 0.000000 -1.000000 0.000000
vn -0.999947 0.000000 -0.010266
vn -0.999947 0.000000 -0.010266
vn -0.999947 0.000000 -0.010266
vn -0.999947 0.000000 -0.010266
vn 0.000000 -1.000000 0.000000
vn 0.000000 -1.000000 0.000000
vn 0.000000 -1.000000 0.000000
vn 0.000000 -1.000000 0.000000
vn -0.999947 0.000000 -0.010266
vn -0.999947 0.000000 -0.010266
vn -0.999947 0.000000 -0.010266
vn -0.999947 0.000000 -0.010266
vn -1.000000 0.000000 0.000000
vn -1.000000 0.000000 0.000000
vn -1.000000 0.000000 0.000000
vn -1.000000 0.000000 0.000000
vn 0.623385 0.273577 -0.732493
vn 0.623385 0.273577 -0.732493
vn 0.623385 0.273577 -0.732493
vn 0.623385 0.273577 -0.732493
vn 0.000000 -0.812526 0.582925
vn 0.000000 -0.812526 0.582925
vn 0.000000 -0.812526 0.582925
vn 0.000000 -0.812526 0.582925
vn 0.000000 0.099578 0.995030
vn 0.000000 0.099578 0.995030
vn 0.000000 0.099578 0.995030
vn 0.000000 0.099578 0.995030
vn 0.000000 0.099578 -0.995030
vn 0.000000 0.099578 -0.995030
vn 0.000000 0.099578 -0.995030
vn 0.000000 0.099578 -0.995030
vn 0.000000 -0.812526 -0.582925
vn 0.000000 -0.812526 -0.582925
vn 0.000000 -0.812526 -0.582925
vn 0.000000 -0.812526 -0.582925
vn 0.000000 -0.099578 0.995030
vn 0.000000 -0.099578 0.995030
vn 0.000000 -0.099578 0.995030
vn 0.000000 -0.099578 0.995030
vn 0.000000 0.349881 -0.936794
vn 0.000000 0.349881 -0.936794
vn 0.000000 0.349881 -0.936794
vn 0.000000 0.349881 -0.936794
vn 0.000000 0.812526 0.582926
vn 0.000000 0.812526 0.582926
vn 0.000000 0.812526 0.582926
vn 0.000000 0.812526 0.582926
vn 0.000000 -0.349881 -0.936794
vn 0.000000 -0.349881 -0.936794
vn 0.000000 -0.349881 -0.936794
vn 0.000000 -0.349881 -0.936794
vn 0.000000 -0.349881 0.936794
vn 0.000000 -0.349881 0.936794
vn 0.000000 -0.349881 0.936794
vn 0.000000 -0.349881 0.936794
vn 0.000000 0.812525 -0.582926
vn 0.000000 0.812525 -0.582926
vn 0.000000 0.812525 -0.582926
vn 0.000000 0.812525 -0.582926
vn 0.000000 0.349881 0.936794
vn 0.000000 0.349881 0.936794
vn 0.000000 0.349881 0.936794
vn 0.000000 0.349881 0.936794
vn 0.000000 -0.099579 -0.995030
vn 0.000000 -0.099579 -0.995030
vn 0.000000 -0.099579 -0.995030
vn 0.000000 -0.099579 -0.995030
vn -0.120063 -0.098858 0.987832
vn -0.120063 -0.098858 0.987832
vn -0.120063 -0.098858 0.987832
vn -0.120063 -0.098858 0.987832
vn 0.804683 0.482400 0.346085
vn 0.804683 0.482400 0.346085
vn 0.804683 0.482400 0.346085
vn 0.804683 0.482400 0.346085
vn 0.623385 -0.273577 -0.732493
vn 0.623385 -0.273577 -0.732493
vn 0.623385 -0.273577 -0.732493
vn 0.623385 -0.273577 -0.732493
vn 0.623385 -0.273577 0.732493
vn 0.623385 -0.273577 0.732493
vn 0.623385 -0.273577 0.732493
vn 0.623385 -0.273577 0.732493
vn 0.804683 0.482400 -0.346086
vn 0.804683 0.482400 -0.346086
vn 0.804683 0.482400 -0.346086
vn 0.804683 0.482400 -0.346086
vn 0.623386 0.273577 0.732493
vn 0.623386 0.273577 0.732493
vn 0.623386 0.273577 0.732493
vn 0.623386 0.273577 0.732493
vn 0.526886 -0.084636 -0.845712
vn 0.526886 -0.084636 -0.845712
vn 0.526886 -0.084636 -0.845712
vn 0.526886 -0.084636 -0.845712
vn 0.804683 -0.482400 0.346085
vn 0.804683 -0.482400 0.346085
vn 0.804683 -0.482400 0.346085
vn 0.804683 -0.482400 0.346085
vn 0.526886 0.084635 0.845712
vn 0.526886 0.084635 0.845712
vn 0.526886 0.084635 0.845712
vn 0.526886 0.084635 0.845712
vn 0.526886 0.084635 -0.845712
vn 0.526886 0.084635 -0.845712
vn 0.526886 0.084635 -0.845712
vn 0.526886 0.084635 -0.845712
vn 0.804683 -0.482400 -0.346085
vn 0.804683 -0.482400 -0.346085
vn 0.804683 -0.482400 -0.346085
vn 0.804683 -0.482400 -0.346085
vn 0.526885 -0.084635 0.845712
vn 0.526885 -0.084635 0.845712
vn 0.526885 -0.084635 0.845712
vn 0.526885 -0.084635 0.845712
vn 1.000000 0.000000 0.000000
vn 1.000000 0.000000 0.000000
vn 1.000000 0.000000 0.000000
vn 1.000000 0.000000 0.000000
vn -0.153687 0.345724 -0.925665
vn -0.153687 0.345724 -0.925665
vn -0.153687 0.345724 -0.925665
vn -0.153687 0.345724 -0.925665
vn -0.255630 0.785529 0.563558
vn -0.255630 0.785529 0.563558
vn -0.255630 0.785529 0.563558
vn -0.255630 0.785529 0.563558
vn -0.153687 -0.345724 -0.925664
vn -0.153687 -0.345724 -0.925664
vn -0.153687 -0.345724 -0.925664
vn -0.153687 -0.345724 -0.925664
vn -0.153688 -0.345724 0.925664
vn -0.153688 -0.345724 0.925664
vn -0.153688 -0.345724 0.925664
vn -0.153688 -0.345724 0.925664
vn -0.255630 0.785528 -0.563559
vn -0.255630 0.785528 -0.563559
vn -0.255630 0.785528 -0.563559
vn -0.255630 0.785528 -0.563559
vn -0.153688 0.345725 0.925664
vn -0.153688 0.345725 0.925664
vn -0.153688 0.345725 0.925664
vn -0.153688 0.345725 0.925664
vn -0.120063 -0.098859 -0.987832
vn -0.120063 -0.098859 -0.987832
vn -0.120063 -0.098859 -0.987832
vn -0.120063 -0.098859 -0.987832
vn -0.255630 -0.785529 0.563557
vn -0.255630 -0.785529 0.563557
vn -0.255630 -0.785529 0.563557
vn -0.255630 -0.785529 0.563557
vn -0.120063 0.098858 0.987832
vn -0.120063 0.098858 0.987832
vn -0.120063 0.098858 0.987832
vn -0.120063 0.098858 0.987832
vn -0.120063 0.098858 -0.987832
vn -0.120063 0.098858 -0.987832
vn -0.120063 0.098858 -0.987832
vn -0.120063 0.098858 -0.987832
vn -0.255630 -0.785530 -0.563557
vn -0.255630 -0.785530 -0.563557
vn -0.255630 -0.785530 -0.563557
vn -0.255630 -0.785530 -0.563557
vn -0.272637 0.781745 0.560842
vn -0.272637 0.781745 0.560842
vn -0.272637 0.781745 0.560842
vn -0.272637 0.781745 0.560842
vn 1.000000 -0.000000 0.000000
vn 1.000000 -0.000000 0.000000
vn 1.000000 -0.000000 0.000000
vn 1.000000 -0.000000 0.000000
vn 1.000000 -0.000000 0.000000
vn 1.000000 -0.000000 0.000000
vn 1.000000 -0.000000 0.000000
vn 1.000000 -0.000000 0.000000
vn 1.000000 0.000000 0.000000
vn 1.000000 0.000000 0.000000
vn 1.000000 0.000000 0.000000
vn 1.000000 0.000000 0.000000
vn 1.000000 0.000000 0.000000
vn 1.000000 0.000000 0.000000
vn 1.000000 0.000000 0.000000
vn 1.000000 0.000000 0.000000
vn 1.000000 0.000000 0.000000
vn 1.000000 0.000000 0.000000
vn 1.000000 0.000000 0.000000
vn 1.000000 0.000000 0.000000
vn 1.000000 -0.000000 0.000000
vn 1.000000 -0.000000 0.000000
vn 1.000000 -0.000000 0.000000
vn 1.000000 -0.000000 0.000000
vn 1.000000 0.000000 0.000000
vn 1.000000 0.000000 0.000000
vn 1.000000 0.000000 0.000000
vn 1.000000 0.000000 0.000000
vn 1.000000 0.000000 0.000000
vn 1.000000 0.000000 0.000000
vn 1.000000 0.000000 0.000000
vn 1.000000 0.000000 0.000000
vn 1.000000 0.000000 0.000000
vn 1.000000 0.000000 0.000000
vn 1.000000 0.000000 0.000000
vn 1.000000 0.000000 0.000000
vn 1.000000 0.000000 0.000000
vn 1.000000 0.000000 0.000000
vn 1.000000 0.000000 0.000000
vn 1.000000 0.000000 0.000000
vn 1.000000 0.000000 0.000000
vn 1.000000 0.000000 0.000000
vn 1.000000 0.000000 0.000000
vn 1.000000 0.000000 0.000000
vn -0.824815 0.459404 0.329588
vn -0.824815 0.459404 0.329588
vn -0.824815 0.459404 0.329588
vn -0.824815 0.459404 0.329588
vn -0.128533 0.098752 -0.986776
vn -0.128533 0.098752 -0.986776
vn -0.128533 0.098752 -0.986776
vn -0.128533 0.098752 -0.986776
vn -0.164418 -0.345119 0.924045
vn -0.164418 -0.345119 0.924045
vn -0.164418 -0.345119 0.924045
vn -0.164418 -0.345119 0.924045
vn -0.272638 -0.781745 -0.560842
vn -0.272638 -0.781745 -0.560842
vn -0.272638 -0.781745 -0.560842
vn -0.272638 -0.781745 -0.560842
vn -0.164418 0.345120 0.924045
vn -0.164418 0.345120 0.924045
vn -0.164418 0.345120 0.924045
vn -0.164418 0.345120 0.924045
vn -0.164418 0.345120 -0.924045
vn -0.164418 0.345120 -0.924045
vn -0.164418 0.345120 -0.924045
vn -0.164418 0.345120 -0.924045
vn -0.272638 -0.781744 0.560843
vn -0.272638 -0.781744 0.560843
vn -0.272638 -0.781744 0.560843
vn -0.272638 -0.781744 0.560843
vn -0.164418 -0.345120 -0.924045
vn -0.164418 -0.345120 -0.924045
vn -0.164418 -0.345120 -0.924045
vn -0.164418 -0.345120 -0.924045
vn -0.128533 0.098753 0.986776
vn -0.128533 0.098753 0.986776
vn -0.128533 0.098753 0.986776
vn -0.128533 0.098753 0.986776
vn -0.272637 0.781745 -0.560842
vn -0.272637 0.781745 -0.560842
vn -0.272637 0.781745 -0.560842
vn -0.272637 0.781745 -0.560842
vn -0.128533 -0.098752 -0.986776
vn -0.128533 -0.098752 -0.986776
vn -0.128533 -0.098752 -0.986776
vn -0.128533 -0.098752 -0.986776
vn -0.128533 -0.098752 0.986776
vn -0.128533 -0.098752 0.986776
vn -0.128533 -0.098752 0.986776
vn -0.128533 -0.098752 0.986776
vn 0.071417 -0.099324 0.992489
vn 0.071417 -0.099324 0.992489
vn 0.071417 -0.099324 0.992489
vn 0.071417 -0.099324 0.992489
vn -0.555024 0.082832 -0.827700
vn -0.555024 0.082832 -0.827700
vn -0.555024 0.082832 -0.827700
vn -0.555024 0.082832 -0.827700
vn -0.651213 -0.265523 0.710928
vn -0.651213 -0.265523 0.710928
vn -0.651213 -0.265523 0.710928
vn -0.651213 -0.265523 0.710928
vn -0.824815 -0.459404 -0.329587
vn -0.824815 -0.459404 -0.329587
vn -0.824815 -0.459404 -0.329587
vn -0.824815 -0.459404 -0.329587
vn -0.651213 0.265523 0.710928
vn -0.651213 0.265523 0.710928
vn -0.651213 0.265523 0.710928
vn -0.651213 0.265523 0.710928
vn -0.651213 0.265523 -0.710928
vn -0.651213 0.265523 -0.710928
vn -0.651213 0.265523 -0.710928
vn -0.651213 0.265523 -0.710928
vn -0.824815 -0.459404 0.329588
vn -0.824815 -0.459404 0.329588
vn -0.824815 -0.459404 0.329588
vn -0.824815 -0.459404 0.329588
vn -0.651213 -0.265523 -0.710928
vn -0.651213 -0.265523 -0.710928
vn -0.651213 -0.265523 -0.710928
vn -0.651213 -0.265523 -0.710928
vn -0.555024 0.082833 0.827700
vn -0.555024 0.082833 0.827700
vn -0.555024 0.082833 0.827700
vn -0.555024 0.082833 0.827700
vn -0.824815 0.459404 -0.329587
vn -0.824815 0.459404 -0.329587
vn -0.824815 0.459404 -0.329587
vn -0.824815 0.459404 -0.329587
vn -0.555024 -0.082832 -0.827700
vn -0.555024 -0.082832 -0.827700
vn -0.555024 -0.082832 -0.827700
vn -0.555024 -0.082832 -0.827700
vn -0.555024 -0.082833 0.827700
vn -0.555024 -0.082833 0.827700
vn -0.555024 -0.082833 0.827700
vn -0.555024 -0.082833 0.827700
vn -1.000000 0.000000 0.000000
vn -1.000000 0.000000 0.000000
vn -1.000000 0.000000 0.000000
vn -1.000000 0.000000 0.000000
vn 0.154660 0.802749 0.575912
vn 0.154660 0.802749 0.575912
vn 0.154660 0.802749 0.575912
vn 0.154660 0.802749 0.575912
vn 0.071417 0.099324 -0.992489
vn 0.071417 0.099324 -0.992489
vn 0.071417 0.099324 -0.992489
vn 0.071417 0.099324 -0.992489
vn 0.091695 -0.348407 0.932848
vn 0.091695 -0.348407 0.932848
vn 0.091695 -0.348407 0.932848
vn 0.091695 -0.348407 0.932848
vn 0.154661 -0.802749 -0.575911
vn 0.154661 -0.802749 -0.575911
vn 0.154661 -0.802749 -0.575911
vn 0.154661 -0.802749 -0.575911
vn 0.091695 0.348407 0.932847
vn 0.091695 0.348407 0.932847
vn 0.091695 0.348407 0.932847
vn 0.091695 0.348407 0.932847
vn 0.091695 0.348408 -0.932847
vn 0.091695 0.348408 -0.932847
vn 0.091695 0.348408 -0.932847
vn 0.091695 0.348408 -0.932847
vn 0.154660 -0.802749 0.575912
vn 0.154660 -0.802749 0.575912
vn 0.154660 -0.802749 0.575912
vn 0.154660 -0.802749 0.575912
vn 0.091695 -0.348408 -0.932847
vn 0.091695 -0.348408 -0.932847
vn 0.091695 -0.348408 -0.932847
vn 0.091695 -0.348408 -0.932847
vn 0.071417 0.099325 0.992489
vn 0.071417 0.099325 0.992489
vn 0.071417 0.099325 0.992489
vn 0.071417 0.099325 0.992489
vn 0.154660 0.802749 -0.575912
vn 0.154660 0.802749 -0.575912
vn 0.154660 0.802749 -0.575912
vn 0.154660 0.802749 -0.575912
vn 0.071417 -0.099324 -0.992489
vn 0.071417 -0.099324 -0.992489
vn 0.071417 -0.099324 -0.992489
vn 0.071417 -0.099324 -0.992489
vn -1.000000 0.000000 0.000000
vn -1.000000 0.000000 0.000000
vn -1.000000 0.000000 0.000000
vn -1.000000 0.000000 0.000000
vn -1.000000 -0.000000 0.000000
vn -1.000000 -0.000000 0.000000
vn -1.000000 -0.000000 0.000000
vn -1.000000 -0.000000 0.000000
vn -1.000000 -0.000000 0.000000
vn -1.000000 -0.000000 0.000000
vn -1.000000 -0.000000 0.000000
vn -1.000000 -0.000000 0.000000
vn -1.000000 0.000000 0.000000
vn -1.000000 0.000000 0.000000
vn -1.000000 0.000000 0.000000
vn -1.000000 0.000000 0.000000
vn -1.000000 0.000000 0.000000
vn -1.000000 0.000000 0.000000
vn -1.000000 0.000000 0.000000
vn -1.000000 0.000000 0.000000
vn -1.000000 0.000000 0.000000
vn -1.000000 0.000000 0.000000
vn -1.000000 0.000000 0.000000
vn -1.000000 0.000000 0.000000
vn -1.000000 0.000000 0.000000
vn -1.000000 0.000000 0.000000
vn -1.000000 0.000000 0.000000
vn -1.000000 0.000000 0.000000
vn -1.000000 0.000000 0.000000
vn -1.000000 0.000000 0.000000
vn -1.000000 0.000000 0.000000
vn -1.000000 0.000000 0.000000
vn -1.000000 -0.000000 0.000000
vn -1.000000 -0.000000 0.000000
vn -1.000000 -0.000000 0.000000
vn -1.000000 -0.000000 0.000000
vn -1.000000 0.000000 0.000000
vn -1.000000 0.000000 0.000000
vn -1.000000 0.000000 0.000000
vn -1.000000 0.000000 0.000000
vn 0.011417 0.000000 -0.999935
vn 0.011417 0.000000 -0.999935
vn 0.011417 0.000000 -0.999935
vn 0.011417 0.000000 -0.999935
vn 0.011417 0.000000 -0.999935
vn 0.011417 0.000000 -0.999935
vn 0.011417 0.000000 -0.999935
vn 0.011417 0.000000 -0.999935
vn 0.000000 -1.000000 -0.000001
vn 0.000000 -1.000000 -0.000001
vn 0.000000 -1.000000 -0.000001
vn 0.000000 -1.000000 -0.000001
vn -0.999994 0.000000 -0.003386
vn -0.999994 0.000000 -0.003386
vn -0.999994 0.000000 -0.003386
vn -0.999994 0.000000 -0.003386
vn 0.000000 -1.000000 0.000001
vn 0.000000 -1.000000 0.000001
vn 0.000000 -1.000000 0.000001
vn 0.000000 -1.000000 0.000001
vn -0.999994 0.000000 -0.003385
vn -0.999994 0.000000 -0.003385
vn -0.999994 0.000000 -0.003385
vn -0.999994 0.000000 -0.003385
vn 0.000000 1.000000 0.000000
vn 0.000000 1.000000 0.000000
vn 0.000000 1.000000 0.000000
vn 0.000000 1.000000 0.000000
vn 0.999994 0.000000 0.003386
vn 0.999994 0.000000 0.003386
vn 0.999994 0.000000 0.003386
vn 0.999994 0.000000 0.003386
vn 0.000000 0.000000 1.000000
vn 0.000000 0.000000 1.000000
vn 0.000000 0.000000 1.000000
vn 0.000000 0.000000 1.000000
vn 0.000000 0.000000 1.000000
vn 0.000000 0.000000 1.000000
vn 0.000000 0.000000 1.000000
vn 0.000000 0.000000 1.000000
vn 0.000000 0.000000 1.000000
vn 0.000000 0.000000 1.000000
vn 0.000000 0.000000 1.000000
vn 0.000000 0.000000 1.000000
vn 0.998518 -0.054414 0.000000
vn 0.998518 -0.054414 0.000000
vn 0.998518 -0.054414 0.000000
vn 0.998518 -0.054414 0.000000
vn -0.979939 0.199299 0.000000
vn -0.979939 0.199299 0.000000
vn -0.979939 0.199299 0.000000
vn -0.979939 0.199299 0.000000
vn 0.796537 0.604590 0.000000
vn 0.796537 0.604590 0.000000
vn 0.796537 0.604590 0.000000
vn 0.796537 0.604590 0.000000
vn -0.979939 -0.199299 0.000000
vn -0.979939 -0.199299 0.000000
vn -0.979939 -0.199299 0.000000
vn -0.979939 -0.199299 0.000000
vn 0.979939 -0.199299 0.000000
vn 0.979939 -0.199299 0.000000
vn 0.979939 -0.199299 0.000000
vn 0.979939 -0.199299 0.000000
vn -0.796538 0.604588 0.000000
vn -0.796538 0.604588 0.000000
vn -0.796538 0.604588 0.000000
vn -0.796538 0.604588 0.000000
vn 0.979939 0.199299 0.000000
vn 0.979939 0.199299 0.000000
vn 0.979939 0.199299 0.000000
vn 0.979939 0.199299 0.000000
vn -0.998518 -0.054415 0.000000
vn -0.998518 -0.054415 0.000000
vn -0.998518 -0.054415 0.000000
vn -0.998518 -0.054415 0.000000
vn 0.796537 -0.604589 0.000000
vn 0.796537 -0.604589 0.000000
vn 0.796537 -0.604589 0.000000
vn 0.796537 -0.604589 0.000000
vn 0.998518 0.054414 0.000000
vn 0.998518 0.054414 0.000000
vn 0.998518 0.054414 0.000000
vn 0.998518 0.054414 0.000000
vn -0.998518 0.054415 0.000000
vn -0.998518 0.054415 0.000000
vn -0.998518 0.054415 0.000000
vn -0.998518 0.054415 0.000000
vn -0.796537 -0.604590 0.000000
vn -0.796537 -0.604590 0.000000
vn -0.796537 -0.604590 0.000000
vn -0.796537 -0.604590 0.000000
vn 0.081486 -0.099247 0.991721
vn 0.081486 -0.099247 0.991721
vn 0.081486 -0.099247 0.991721
vn 0.081486 -0.099247 0.991721
vn 0.081486 -0.099247 -0.991721
vn 0.081486 -0.099247 -0.991721
vn 0.081486 -0.099247 -0.991721
vn 0.081486 -0.099247 -0.991721
vn 0.175964 0.799847 -0.573830
vn 0.175964 0.799847 -0.573830
vn 0.175964 0.799847 -0.573830
vn 0.175964 0.799847 -0.573830
vn 0.081486 0.099248 0.991721
vn 0.081486 0.099248 0.991721
vn 0.081486 0.099248 0.991721
vn 0.081486 0.099248 0.991721
vn 0.104570 -0.347963 -0.931658
vn 0.104570 -0.347963 -0.931658
vn 0.104570 -0.347963 -0.931658
vn 0.104570 -0.347963 -0.931658
vn 0.175963 -0.799847 0.573831
vn 0.175963 -0.799847 0.573831
vn 0.175963 -0.799847 0.573831
vn 0.175963 -0.799847 0.573831
vn 0.104570 0.347963 -0.931658
vn 0.104570 0.347963 -0.931658
vn 0.104570 0.347963 -0.931658
vn 0.104570 0.347963 -0.931658
vn 0.104570 0.347963 0.931658
vn 0.104570 0.347963 0.931658
vn 0.104570 0.347963 0.931658
vn 0.104570 0.347963 0.931658
vn 0.175963 -0.799848 -0.573830
vn 0.175963 -0.799848 -0.573830
vn 0.175963 -0.799848 -0.573830
vn 0.175963 -0.799848 -0.573830
vn 0.104570 -0.347963 0.931658
vn 0.104570 -0.347963 0.931658
vn 0.104570 -0.347963 0.931658
vn 0.104570 -0.347963 0.931658
vn 0.081486 0.099247 -0.991721
vn 0.081486 0.099247 -0.991721
vn 0.081486 0.099247 -0.991721
vn 0.081486 0.099247 -0.991721
vn 0.175964 0.799847 0.573830
vn 0.175964 0.799847 0.573830
vn 0.175964 0.799847 0.573830
vn 0.175964 0.799847 0.573830
vn 0.255757 -0.785502 -0.563538
vn 0.255757 -0.785502 -0.563538
vn 0.255757 -0.785502 -0.563538
vn 0.255757 -0.785502 -0.563538
vn 0.120126 0.098857 -0.987824
vn 0.120126 0.098857 -0.987824
vn 0.120126 0.098857 -0.987824
vn 0.120126 0.098857 -0.987824
vn 0.120126 0.098857 0.987824
vn 0.120126 0.098857 0.987824
vn 0.120126 0.098857 0.987824
vn 0.120126 0.098857 0.987824
vn 0.255757 -0.785502 0.563538
vn 0.255757 -0.785502 0.563538
vn 0.255757 -0.785502 0.563538
vn 0.255757 -0.785502 0.563538
vn 0.120126 -0.098858 -0.987824
vn 0.120126 -0.098858 -0.987824
vn 0.120126 -0.098858 -0.987824
vn 0.120126 -0.098858 -0.987824
vn 0.153767 0.345720 0.925653
vn 0.153767 0.345720 0.925653
vn 0.153767 0.345720 0.925653
vn 0.153767 0.345720 0.925653
vn 0.255757 0.785501 -0.563539
vn 0.255757 0.785501 -0.563539
vn 0.255757 0.785501 -0.563539
vn 0.255757 0.785501 -0.563539
vn 0.153767 -0.345720 0.925653
vn 0.153767 -0.345720 0.925653
vn 0.153767 -0.345720 0.925653
vn 0.153767 -0.345720 0.925653
vn 0.153767 -0.345720 -0.925653
vn 0.153767 -0.345720 -0.925653
vn 0.153767 -0.345720 -0.925653
vn 0.153767 -0.345720 -0.925653
vn 0.255757 0.785502 0.563538
vn 0.255757 0.785502 0.563538
vn 0.255757 0.785502 0.563538
vn 0.255757 0.785502 0.563538
vn 0.153767 0.345720 -0.925653
vn 0.153767 0.345720 -0.925653
vn 0.153767 0.345720 -0.925653
vn 0.153767 0.345720 -0.925653
vn 0.120126 -0.098857 0.987824
vn 0.120126 -0.098857 0.987824
vn 0.120126 -0.098857 0.987824
vn 0.120126 -0.098857 0.987824
usemtl SniperPallet
f 1/1/1 2/2/2 121/3/3 122/4/4
f 3/5/5 1/6/6 122/7/7 124/8/8
f 13/9/9 14/10/10 22/11/11 21/12/12
f 14/13/13 16/14/14 24/15/15 22/16/16
f 4/17/17 2/18/18 9/19/19 11/20/20
f 3/21/21 4/22/22 11/23/23 12/24/24
f 5/25/25 7/26/26 16/27/27 14/28/28
f 6/29/29 5/30/30 14/31/31 13/32/32
f 1/33/33 3/34/34 12/35/35 10/36/36
f 2/37/37 1/38/38 10/39/39 9/40/40
f 8/41/41 6/42/42 13/43/43 15/44/44
f 7/45/45 8/46/46 15/47/47 16/48/48
f 17/49/49 18/50/50 20/51/51 19/52/52
f 21/53/53 22/54/54 24/55/55 23/56/56
f 10/57/57 12/58/58 20/59/59 18/60/60
f 9/61/61 10/62/62 18/63/63 17/64/64
f 15/65/65 13/66/66 21/67/67 23/68/68
f 16/69/69 15/70/70 23/71/71 24/72/72
f 11/73/73 9/74/74 17/75/75 19/76/76
f 12/77/77 11/78/78 19/79/79 20/80/80
f 26/81/81 109/82/82 111/83/83 27/84/84
f 47/85/85 48/86/86 60/87/87 59/88/88
f 30/89/89 31/90/90 43/91/91 42/92/92
f 27/93/93 28/94/94 40/95/95 39/96/96
f 34/97/97 35/98/98 47/99/99 46/100/100
f 31/101/101 32/102/102 44/103/103 43/104/104
f 28/105/105 29/106/106 41/107/107 40/108/108
f 35/109/109 36/110/110 48/111/111 47/112/112
f 25/113/113 26/114/114 37/115/115 38/116/116
f 32/117/117 33/118/118 45/119/119 44/120/120
f 29/121/121 30/122/122 42/123/123 41/124/124
f 36/125/125 25/126/126 38/127/127 48/128/128
f 26/129/129 27/130/130 39/131/131 37/132/132
f 33/133/133 34/134/134 46/135/135 45/136/136
f 166/137/137 165/138/138 65/139/139 64/140/140
f 38/141/141 37/142/142 49/143/143 50/144/144
f 44/145/145 45/146/146 57/147/147 56/148/148
f 41/149/149 42/150/150 54/151/151 53/152/152
f 48/153/153 38/154/154 50/155/155 60/156/156
f 37/157/157 39/158/158 51/159/159 49/160/160
f 45/161/161 46/162/162 58/163/163 57/164/164
f 42/165/165 43/166/166 55/167/167 54/168/168
f 39/169/169 40/170/170 52/171/171 51/172/172
f 46/173/173 47/174/174 59/175/175 58/176/176
f 43/177/177 44/178/178 56/179/179 55/180/180
f 40/181/181 41/182/182 53/183/183 52/184/184
f 64/185/185 65/186/186 77/187/187 76/188/188
f 168/189/189 167/190/190 72/191/191 71/192/192
f 170/193/193 169/194/194 61/195/195 62/196/196
f 172/197/197 171/198/198 69/199/199 68/200/200
f 165/201/201 173/202/202 66/203/203 65/204/204
f 167/205/205 170/206/206 62/207/207 72/208/208
f 169/209/209 174/210/210 63/211/211 61/212/212
f 171/213/213 175/214/214 70/215/215 69/216/216
f 173/217/217 176/218/218 67/219/219 66/220/220
f 174/221/221 166/222/222 64/223/223 63/224/224
f 175/225/225 168/226/226 71/227/227 70/228/228
f 176/229/229 172/230/230 68/231/231 67/232/232
f 154/233/233 153/234/234 92/235/235 91/236/236
f 71/237/237 72/238/238 84/239/239 83/240/240
f 62/241/241 61/242/242 73/243/243 74/244/244
f 68/245/245 69/246/246 81/247/247 80/248/248
f 65/249/249 66/250/250 78/251/251 77/252/252
f 72/253/253 62/254/254 74/255/255 84/256/256
f 61/257/257 63/258/258 75/259/259 73/260/260
f 69/261/261 70/262/262 82/263/263 81/264/264
f 66/265/265 67/266/266 79/267/267 78/268/268
f 63/269/269 64/270/270 76/271/271 75/272/272
f 70/273/273 71/274/274 83/275/275 82/276/276
f 67/277/277 68/278/278 80/279/279 79/280/280
f 91/281/281 92/282/282 104/283/283 103/284/284
f 156/285/285 155/286/286 89/287/287 88/288/288
f 158/289/289 157/290/290 96/291/291 95/292/292
f 160/293/293 159/294/294 85/295/295 86/296/296
f 153/297/297 161/298/298 93/299/299 92/300/300
f 155/301/301 162/302/302 90/303/303 89/304/304
f 157/305/305 160/306/306 86/307/307 96/308/308
f 159/309/309 163/310/310 87/311/311 85/312/312
f 161/313/313 164/314/314 94/315/315 93/316/316
f 162/317/317 154/318/318 91/319/319 90/320/320
f 163/321/321 156/322/322 88/323/323 87/324/324
f 164/325/325 158/326/326 95/327/327 94/328/328
f 106/329/329 107/330/330 119/331/331 118/332/332
f 88/333/333 89/334/334 101/335/335 100/336/336
f 95/337/337 96/338/338 108/339/339 107/340/340
f 86/341/341 85/342/342 97/343/343 98/344/344
f 92/345/345 93/346/346 105/347/347 104/348/348
f 89/349/349 90/350/350 102/351/351 101/352/352
f 96/353/353 86/354/354 98/355/355 108/356/356
f 85/357/357 87/358/358 99/359/359 97/360/360
f 93/361/361 94/362/362 106/363/363 105/364/364
f 90/365/365 91/366/366 103/367/367 102/368/368
f 87/369/369 88/370/370 100/371/371 99/372/372
f 94/373/373 95/374/374 107/375/375 106/376/376
f 25/377/377 110/378/378 109/379/379 26/380/380
f 103/381/381 104/382/382 116/383/383 115/384/384
f 100/385/385 101/386/386 113/387/387 112/388/388
f 107/389/389 108/390/390 120/391/391 119/392/392
f 98/393/393 97/394/394 109/395/395 110/396/396
f 104/397/397 105/398/398 117/399/399 116/400/400
f 101/401/401 102/402/402 114/403/403 113/404/404
f 108/405/405 98/406/406 110/407/407 120/408/408
f 97/409/409 99/410/410 111/411/411 109/412/412
f 105/413/413 106/414/414 118/415/415 117/416/416
f 102/417/417 103/418/418 115/419/419 114/420/420
f 99/421/421 100/422/422 112/423/423 111/424/424
f 27/425/425 111/426/426 112/427/427 28/428/428
f 28/429/429 112/430/430 113/431/431 29/432/432
f 29/433/433 113/434/434 114/435/435 30/436/436
f 30/437/437 114/438/438 115/439/439 31/440/440
f 31/441/441 115/442/442 116/443/443 32/444/444
f 32/445/445 116/446/446 117/447/447 33/448/448
f 33/449/449 117/450/450 118/451/451 34/452/452
f 34/453/453 118/454/454 119/455/455 35/456/456
f 35/457/457 119/458/458 120/459/459 36/460/460
f 36/461/461 120/462/462 110/463/463 25/464/464
f 121/465/465 123/466/466 124/467/467 122/468/468
f 125/469/469 127/470/470 128/471/471 126/472/472
f 6/473/473 8/474/474 127/475/475 125/476/476
f 8/477/477 7/478/478 128/479/479 127/480/480
f 2/481/481 4/482/482 123/483/483 121/484/484
f 4/485/485 3/486/486 124/487/487 123/488/488
f 7/489/489 5/490/490 126/491/491 128/492/492
f 5/493/493 6/494/494 125/495/495 126/496/496
f 141/497/497 142/498/498 152/499/499 151/500/500 150/501/501 149/502/502 148/503/503 147/504/504 146/505/505 145/506/506 144/507/507 143/508/508
f 133/509/509 132/510/510 144/511/511 145/512/512
f 140/513/513 139/514/514 151/515/515 152/516/516
f 129/517/517 130/518/518 142/519/519 141/520/520
f 137/521/521 136/522/522 148/523/523 149/524/524
f 134/525/525 133/526/526 145/527/527 146/528/528
f 130/529/529 140/530/530 152/531/531 142/532/532
f 131/533/533 129/534/534 141/535/535 143/536/536
f 138/537/537 137/538/538 149/539/539 150/540/540
f 135/541/541 134/542/542 146/543/543 147/544/544
f 132/545/545 131/546/546 143/547/547 144/548/548
f 139/549/549 138/550/550 150/551/551 151/552/552
f 136/553/553 135/554/554 147/555/555 148/556/556
f 82/557/557 83/558/558 158/559/559 164/560/560
f 75/561/561 76/562/562 156/563/563 163/564/564
f 78/565/565 79/566/566 154/567/567 162/568/568
f 81/569/569 82/570/570 164/571/571 161/572/572
f 73/573/573 75/574/574 163/575/575 159/576/576
f 84/577/577 74/578/578 160/579/579 157/580/580
f 77/581/581 78/582/582 162/583/583 155/584/584
f 80/585/585 81/586/586 161/587/587 153/588/588
f 74/589/589 73/590/590 159/591/591 160/592/592
f 83/593/593 84/594/594 157/595/595 158/596/596
f 76/597/597 77/598/598 155/599/599 156/600/600
f 79/601/601 80/602/602 153/603/603 154/604/604
f 55/605/605 56/606/606 172/607/607 176/608/608
f 58/609/609 59/610/610 168/611/611 175/612/612
f 51/613/613 52/614/614 166/615/615 174/616/616
f 54/617/617 55/618/618 176/619/619 173/620/620
f 57/621/621 58/622/622 175/623/623 171/624/624
f 49/625/625 51/626/626 174/627/627 169/628/628
f 60/629/629 50/630/630 170/631/631 167/632/632
f 53/633/633 54/634/634 173/635/635 165/636/636
f 56/637/637 57/638/638 171/639/639 172/640/640
f 50/641/641 49/642/642 169/643/643 170/644/644
f 59/645/645 60/646/646 167/647/647 168/648/648
f 52/649/649 53/650/650 165/651/651 166/652/652
