mtllib sniper_parts.mtl
o Upper_Body
v 4.683842 1.131121 0.592190
v 4.683842 -1.131121 0.592190
v 3.016857 1.131121 -0.342888
v 3.016857 -1.131121 -0.342888
v 3.016857 1.131121 0.583575
v 3.016857 -1.131121 0.583575
v 3.016857 0.684828 -0.363408
v 3.016857 -0.684828 -0.363408
v 3.016857 0.684828 0.230655
v 3.016857 -0.684828 0.230655
v 1.503460 0.684828 -0.352066
v 1.503460 -0.684828 -0.352066
v 1.503460 0.684828 0.230655
v 1.503460 -0.684828 0.230655
v 1.503460 1.131121 -0.344045
v 1.503460 -1.131121 -0.344045
v 1.503460 1.131121 0.427953
v 1.503460 -1.131121 0.427953
v -0.402184 1.131121 -0.344045
v -0.402184 -1.131121 -0.344045
v -0.749907 1.131121 0.427953
v -0.749907 -1.131121 0.427953
v -0.460939 0.407705 -0.221229
v -0.460939 -0.407705 -0.221229
v -0.592124 0.407705 0.072553
v -0.592124 -0.407705 0.072553
v -3.054520 0.407705 -0.221229
v -3.054520 -0.407705 -0.221229
v -3.054520 0.407705 0.072553
v -3.054520 -0.407705 0.072553
v -4.342830 0.655557 -0.310527
v -4.342830 -0.655557 -0.310527
v -4.342830 0.655557 0.161851
v -4.342830 -0.655557 0.161851
v -3.054520 -0.655557 0.161851
v -3.054520 0.655557 0.161851
v -3.054520 -0.655557 -0.310527
v -3.054520 0.655557 -0.310527
v 3.497378 -1.131121 -0.281458
v 3.497378 1.131121 -0.281458
v 3.527762 1.131121 0.145506
v 3.527762 -1.131121 0.145506
v 4.683842 -1.131121 0.281487
v 4.683842 1.131121 0.281487
v -4.342830 0.443294 -0.234051
v -4.342830 -0.443293 -0.234051
v -4.342830 0.443294 0.085375
v -4.342830 -0.443293 0.085375
v -3.683103 0.443294 -0.234051
v -3.683103 -0.443293 -0.234051
v -3.683103 0.443294 0.085375
v -3.683103 -0.443293 0.085375
vt 0.135577 0.728723
vt 0.155439 0.728723
vt 0.155879 0.741163
vt 0.143143 0.741163
vt 0.110058 0.728723
vt 0.110058 0.791781
vt 0.073490 0.791781
vt 0.073490 0.728723
vt 0.126669 0.224720
vt 0.124107 0.224720
vt 0.124107 0.211763
vt 0.126620 0.211763
vt 0.155439 0.791781
vt 0.135577 0.791781
vt 0.143143 0.779341
vt 0.155879 0.779341
vt 0.217569 0.665665
vt 0.217569 0.728723
vt 0.217119 0.716283
vt 0.217119 0.678105
vt 0.135577 0.791781
vt 0.135577 0.728723
vt 0.143143 0.741163
vt 0.143143 0.779341
vt 0.168661 0.779341
vt 0.168661 0.741163
vt 0.172989 0.728723
vt 0.172989 0.791781
vt 0.124107 0.211763
vt 0.124107 0.198607
vt 0.130635 0.198607
vt 0.130635 0.211763
vt 0.137163 0.198607
vt 0.137163 0.211763
vt 0.130635 0.211763
vt 0.130635 0.198607
vt 0.129232 0.224720
vt 0.126669 0.224720
vt 0.126718 0.211763
vt 0.129232 0.211763
vt 0.189924 0.784709
vt 0.172989 0.784709
vt 0.172989 0.728723
vt 0.189924 0.737362
vt 0.168661 0.741163
vt 0.155879 0.741163
vt 0.156055 0.728723
vt 0.172989 0.728723
vt 0.155879 0.779341
vt 0.168661 0.779341
vt 0.172989 0.791781
vt 0.156055 0.791781
vt 0.217569 0.716283
vt 0.217569 0.678105
vt 0.217741 0.665665
vt 0.217741 0.728723
vt 0.164586 0.728723
vt 0.164586 0.665665
vt 0.172939 0.685829
vt 0.172939 0.708558
vt 0.164586 0.665665
vt 0.164586 0.728723
vt 0.122921 0.728723
vt 0.122921 0.665665
vt 0.122921 0.665665
vt 0.122921 0.728723
vt 0.073490 0.728723
vt 0.073490 0.665665
vt 0.182753 0.665665
vt 0.199688 0.665665
vt 0.199688 0.713011
vt 0.182753 0.721650
vt 0.350234 0.192535
vt 0.350998 0.193192
vt 0.350998 0.203174
vt 0.350234 0.203174
vt 0.164586 0.665665
vt 0.182753 0.665665
vt 0.179847 0.685829
vt 0.172939 0.685829
vt 0.182753 0.728723
vt 0.164586 0.728723
vt 0.172939 0.708558
vt 0.179847 0.708558
vt 0.182753 0.665665
vt 0.182753 0.728723
vt 0.179847 0.708558
vt 0.179847 0.685829
vt 0.344016 0.207265
vt 0.345245 0.207265
vt 0.345245 0.213715
vt 0.344016 0.213715
vt 0.340408 0.192535
vt 0.342788 0.192535
vt 0.342788 0.203174
vt 0.340408 0.203174
vt 0.346139 0.192535
vt 0.348518 0.192535
vt 0.348518 0.202517
vt 0.346139 0.202517
vt 0.350234 0.207498
vt 0.349470 0.208154
vt 0.349470 0.197515
vt 0.350234 0.197515
vt 0.346139 0.199900
vt 0.346139 0.207265
vt 0.342788 0.207265
vt 0.342788 0.199900
vt 0.346139 0.192535
vt 0.346139 0.199900
vt 0.342788 0.199900
vt 0.342788 0.192535
vt 0.347367 0.209882
vt 0.347367 0.202517
vt 0.347566 0.203710
vt 0.347566 0.208690
vt 0.346371 0.208490
vt 0.347135 0.208490
vt 0.347367 0.209882
vt 0.346139 0.209882
vt 0.347135 0.203910
vt 0.346371 0.203910
vt 0.346139 0.202517
vt 0.347367 0.202517
vt 0.346371 0.203910
vt 0.346371 0.208490
vt 0.346139 0.209882
vt 0.346139 0.202517
vt 0.347135 0.208490
vt 0.347135 0.203910
vt 0.347367 0.202517
vt 0.347367 0.209882
vt 0.342788 0.207265
vt 0.344016 0.207265
vt 0.344016 0.213715
vt 0.342788 0.213715
vt 0.210247 0.770140
vt 0.189924 0.770259
vt 0.191217 0.758313
vt 0.200580 0.757503
vt 0.203432 0.728763
vt 0.210247 0.728723
vt 0.210247 0.770378
vt 0.210247 0.811796
vt 0.203432 0.811756
vt 0.200580 0.783015
vt 0.191217 0.782206
vt 0.189924 0.770259
vt 0.199688 0.665665
vt 0.210304 0.665665
vt 0.210304 0.728723
vt 0.199688 0.728723
vt 0.110058 0.728723
vt 0.135577 0.728723
vt 0.135577 0.791781
vt 0.110058 0.791781
vt 0.210304 0.665665
vt 0.217119 0.665665
vt 0.217119 0.728723
vt 0.210304 0.728723
vt 0.210247 0.791781
vt 0.210247 0.728723
vt 0.219621 0.728723
vt 0.219621 0.791781
vt 0.349427 0.205821
vt 0.348596 0.205821
vt 0.348596 0.202517
vt 0.349427 0.202517
vt 0.347367 0.202517
vt 0.348596 0.202517
vt 0.348397 0.203710
vt 0.347566 0.203710
vt 0.348596 0.209882
vt 0.347367 0.209882
vt 0.347566 0.208690
vt 0.348397 0.208690
vt 0.348596 0.202517
vt 0.348596 0.209882
vt 0.348397 0.208690
vt 0.348397 0.203710
vt 0.349349 0.197515
vt 0.349349 0.202495
vt 0.348518 0.202495
vt 0.348518 0.197515
vt 0.348518 0.197515
vt 0.348518 0.192535
vt 0.350234 0.192535
vt 0.350234 0.197515
vt 0.340408 0.208154
vt 0.340408 0.203174
vt 0.342124 0.203174
vt 0.342124 0.208154
vt 0.349427 0.209124
vt 0.348596 0.209124
vt 0.348596 0.205821
vt 0.349427 0.205821
vn -1.000000 0.000000 0.000000
vn -1.000000 0.000000 0.000000
vn -1.000000 0.000000 0.000000
vn -1.000000 0.000000 0.000000
vn -0.005168 0.000000 0.999987
vn -0.005168 0.000000 0.999987
vn -0.005168 0.000000 0.999987
vn -0.005168 0.000000 0.999987
vn 0.000000 -1.000000 0.000000
vn 0.000000 -1.000000 0.000000
vn 0.000000 -1.000000 0.000000
vn 0.000000 -1.000000 0.000000
vn -1.000000 -0.000000 0.000000
vn -1.000000 -0.000000 0.000000
vn -1.000000 -0.000000 0.000000
vn -1.000000 -0.000000 0.000000
vn 1.000000 0.000000 0.000000
vn 1.000000 0.000000 0.000000
vn 1.000000 0.000000 0.000000
vn 1.000000 0.000000 0.000000
vn -1.000000 0.000000 0.000000
vn -1.000000 0.000000 0.000000
vn -1.000000 0.000000 0.000000
vn -1.000000 0.000000 0.000000
vn 1.000000 0.000000 0.000000
vn 1.000000 0.000000 0.000000
vn 1.000000 0.000000 0.000000
vn 1.000000 0.000000 0.000000
vn -0.007494 0.000000 -0.999972
vn -0.007494 0.000000 -0.999972
vn -0.007494 0.000000 -0.999972
vn -0.007494 0.000000 -0.999972
vn 0.000000 0.000000 1.000000
vn 0.000000 0.000000 1.000000
vn 0.000000 0.000000 1.000000
vn 0.000000 0.000000 1.000000
vn 0.000000 1.000000 0.000000
vn 0.000000 1.000000 0.000000
vn 0.000000 1.000000 0.000000
vn 0.000000 1.000000 0.000000
vn 0.000000 -1.000000 0.000000
vn 0.000000 -1.000000 0.000000
vn 0.000000 -1.000000 0.000000
vn 0.000000 -1.000000 0.000000
vn 1.000000 0.000000 0.000000
vn 1.000000 0.000000 0.000000
vn 1.000000 0.000000 0.000000
vn 1.000000 0.000000 0.000000
vn 1.000000 0.000000 0.000000
vn 1.000000 0.000000 0.000000
vn 1.000000 0.000000 0.000000
vn 1.000000 0.000000 0.000000
vn -1.000000 0.000000 0.000000
vn -1.000000 0.000000 0.000000
vn -1.000000 0.000000 0.000000
vn -1.000000 0.000000 0.000000
vn -0.913976 0.000000 -0.405768
vn -0.913976 0.000000 -0.405768
vn -0.913976 0.000000 -0.405768
vn -0.913976 0.000000 -0.405768
vn 0.000000 0.000000 -1.000000
vn 0.000000 0.000000 -1.000000
vn 0.000000 0.000000 -1.000000
vn 0.000000 0.000000 -1.000000
vn 0.000000 0.000000 1.000000
vn 0.000000 0.000000 1.000000
vn 0.000000 0.000000 1.000000
vn 0.000000 0.000000 1.000000
vn 0.000000 1.000000 0.000000
vn 0.000000 1.000000 0.000000
vn 0.000000 1.000000 0.000000
vn 0.000000 1.000000 0.000000
vn 0.000000 -1.000000 0.000000
vn 0.000000 -1.000000 0.000000
vn 0.000000 -1.000000 0.000000
vn 0.000000 -1.000000 0.000000
vn -0.912138 0.003457 -0.409869
vn -0.912138 0.003457 -0.409869
vn -0.912138 0.003457 -0.409869
vn -0.912138 0.003457 -0.409869
vn -0.912138 -0.003457 -0.409869
vn -0.912138 -0.003457 -0.409869
vn -0.912138 -0.003457 -0.409869
vn -0.912138 -0.003457 -0.409869
vn -0.902087 0.000000 -0.431553
vn -0.902087 0.000000 -0.431553
vn -0.902087 0.000000 -0.431553
vn -0.902087 0.000000 -0.431553
vn 0.000000 -1.000000 0.000000
vn 0.000000 -1.000000 0.000000
vn 0.000000 -1.000000 0.000000
vn 0.000000 -1.000000 0.000000
vn 0.000000 0.000000 -1.000000
vn 0.000000 0.000000 -1.000000
vn 0.000000 0.000000 -1.000000
vn 0.000000 0.000000 -1.000000
vn 0.000000 0.000000 1.000000
vn 0.000000 0.000000 1.000000
vn 0.000000 0.000000 1.000000
vn 0.000000 0.000000 1.000000
vn 0.000000 1.000000 0.000000
vn 0.000000 1.000000 0.000000
vn 0.000000 1.000000 0.000000
vn 0.000000 1.000000 0.000000
vn 0.000000 0.000000 -1.000000
vn 0.000000 0.000000 -1.000000
vn 0.000000 0.000000 -1.000000
vn 0.000000 0.000000 -1.000000
vn 0.000000 0.000000 1.000000
vn 0.000000 0.000000 1.000000
vn 0.000000 0.000000 1.000000
vn 0.000000 0.000000 1.000000
vn -1.000000 0.000000 0.000000
vn -1.000000 0.000000 0.000000
vn -1.000000 0.000000 0.000000
vn -1.000000 0.000000 0.000000
vn 1.000000 0.000000 0.000000
vn 1.000000 0.000000 0.000000
vn 1.000000 0.000000 0.000000
vn 1.000000 0.000000 0.000000
vn 1.000000 0.000000 0.000000
vn 1.000000 0.000000 0.000000
vn 1.000000 0.000000 0.000000
vn 1.000000 0.000000 0.000000
vn 1.000000 0.000000 0.000000
vn 1.000000 0.000000 0.000000
vn 1.000000 0.000000 0.000000
vn 1.000000 0.000000 0.000000
vn 1.000000 0.000000 0.000000
vn 1.000000 0.000000 0.000000
vn 1.000000 0.000000 0.000000
vn 1.000000 0.000000 0.000000
vn 0.000000 1.000000 0.000000
vn 0.000000 1.000000 0.000000
vn 0.000000 1.000000 0.000000
vn 0.000000 1.000000 0.000000
vn 0.000000 -1.000000 -0.000000
vn 0.000000 -1.000000 -0.000000
vn 0.000000 -1.000000 -0.000000
vn 0.000000 -1.000000 -0.000000
vn 0.000000 -1.000000 -0.000000
vn 0.000000 -1.000000 -0.000000
vn -0.000000 1.000000 0.000000
vn -0.000000 1.000000 0.000000
vn -0.000000 1.000000 0.000000
vn -0.000000 1.000000 0.000000
vn -0.000000 1.000000 0.000000
vn -0.000000 1.000000 0.000000
vn 0.126808 0.000000 -0.991927
vn 0.126808 0.000000 -0.991927
vn 0.126808 0.000000 -0.991927
vn 0.126808 0.000000 -0.991927
vn 0.116817 0.000000 -0.993153
vn 0.116817 0.000000 -0.993153
vn 0.116817 0.000000 -0.993153
vn 0.116817 0.000000 -0.993153
vn 1.000000 0.000000 0.000000
vn 1.000000 0.000000 0.000000
vn 1.000000 0.000000 0.000000
vn 1.000000 0.000000 0.000000
vn 0.997478 0.000000 -0.070982
vn 0.997478 0.000000 -0.070982
vn 0.997478 0.000000 -0.070982
vn 0.997478 0.000000 -0.070982
vn 0.000000 1.000000 0.000000
vn 0.000000 1.000000 0.000000
vn 0.000000 1.000000 0.000000
vn 0.000000 1.000000 0.000000
vn -1.000000 0.000001 0.000000
vn -1.000000 0.000001 0.000000
vn -1.000000 0.000001 0.000000
vn -1.000000 0.000001 0.000000
vn -1.000000 -0.000001 0.000000
vn -1.000000 -0.000001 0.000000
vn -1.000000 -0.000001 0.000000
vn -1.000000 -0.000001 0.000000
vn -1.000000 0.000000 0.000000
vn -1.000000 0.000000 0.000000
vn -1.000000 0.000000 0.000000
vn -1.000000 0.000000 0.000000
vn -1.000000 0.000000 0.000000
vn -1.000000 0.000000 0.000000
vn -1.000000 0.000000 0.000000
vn -1.000000 0.000000 0.000000
vn 0.000000 0.000000 1.000000
vn 0.000000 0.000000 1.000000
vn 0.000000 0.000000 1.000000
vn 0.000000 0.000000 1.000000
vn 0.000000 0.000000 -1.000000
vn 0.000000 0.000000 -1.000000
vn 0.000000 0.000000 -1.000000
vn 0.000000 0.000000 -1.000000
vn 0.000000 -1.000000 0.000000
vn 0.000000 -1.000000 0.000000
vn 0.000000 -1.000000 0.000000
vn 0.000000 -1.000000 0.000000
usemtl SniperPallet
f 5/1/1 3/2/2 7/3/3 9/4/4
f 2/5/5 1/6/6 5/7/7 6/8/8
f 8/9/9 10/10/10 14/11/11 12/12/12
f 4/13/13 6/14/14 10/15/15 8/16/16
f 3/17/17 4/18/18 8/19/19 7/20/20
f 6/21/21 5/22/22 9/23/23 10/24/24
f 14/25/25 13/26/26 17/27/27 18/28/28
f 7/29/29 8/30/30 12/31/31 11/32/32
f 10/33/33 9/34/34 13/35/35 14/36/36
f 9/37/37 7/38/38 11/39/39 13/40/40
f 16/41/41 18/42/42 22/43/43 20/44/44
f 13/45/45 11/46/46 15/47/47 17/48/48
f 12/49/49 14/50/50 18/51/51 16/52/52
f 11/53/53 12/54/54 16/55/55 15/56/56
f 22/57/57 21/58/58 25/59/59 26/60/60
f 15/61/61 16/62/62 20/63/63 19/64/64
f 18/65/65 17/66/66 21/67/67 22/68/68
f 17/69/69 15/70/70 19/71/71 21/72/72
f 24/73/73 26/74/74 30/75/75 28/76/76
f 21/77/77 19/78/78 23/79/79 25/80/80
f 20/81/81 22/82/82 26/83/83 24/84/84
f 19/85/85 20/86/86 24/87/87 23/88/88
f 37/89/89 35/90/90 34/91/91 32/92/92
f 23/93/93 24/94/94 28/95/95 27/96/96
f 26/97/97 25/98/98 29/99/99 30/100/100
f 25/101/101 23/102/102 27/103/103 29/104/104
f 38/105/105 37/106/106 32/107/107 31/108/108
f 35/109/109 36/110/110 33/111/111 34/112/112
f 34/113/113 33/114/114 47/115/115 48/116/116
f 29/117/117 27/118/118 38/119/119 36/120/120
f 28/121/121 30/122/122 35/123/123 37/124/124
f 30/125/125 29/126/126 36/127/127 35/128/128
f 27/129/129 28/130/130 37/131/131 38/132/132
f 36/133/133 38/134/134 31/135/135 33/136/136
f 6/137/137 4/138/138 39/139/139 42/140/140 43/141/141 2/142/142
f 5/143/143 1/144/144 44/145/145 41/146/146 40/147/147 3/148/148
f 39/149/149 4/150/150 3/151/151 40/152/152
f 43/153/153 42/154/154 41/155/155 44/156/156
f 2/157/157 43/158/158 44/159/159 1/160/160
f 41/161/161 42/162/162 39/163/163 40/164/164
f 46/165/165 48/166/166 52/167/167 50/168/168
f 33/169/169 31/170/170 45/171/171 47/172/172
f 32/173/173 34/174/174 48/175/175 46/176/176
f 31/177/177 32/178/178 46/179/179 45/180/180
f 49/181/181 50/182/182 52/183/183 51/184/184
f 45/185/185 46/186/186 50/187/187 49/188/188
f 48/189/189 47/190/190 51/191/191 52/192/192
f 47/193/193 45/194/194 49/195/195 51/196/196
