# split from source with materials
mtllib sniper.mtl
o sniper_body
v 0.486427 0.381342 0.044785
v 1.181415 0.322203 -0.044959
v 0.486427 0.381342 -0.044785
v 1.378779 0.381342 0.045011
v 1.181415 0.322203 0.044959
v 1.378779 0.381342 -0.045011
v 1.378779 0.364351 0.045011
v 0.486427 0.364351 0.044785
v 1.378779 0.322203 -0.045011
v 1.378779 0.322203 0.045011
v 0.486427 0.364351 -0.044785
v 1.378779 0.364351 -0.045011
v 0.664395 0.381342 0.044820
v 0.664395 0.322203 -0.044820
v 0.664395 0.381342 -0.044820
v 0.664395 0.364351 0.044820
v 0.486427 0.322203 -0.044785
v 0.664395 0.364351 -0.044820
v 1.181415 0.381342 0.044959
v 0.486427 0.322203 0.044785
v 1.181415 0.381342 -0.044959
v 1.181415 0.364351 0.044959
v 0.664395 0.322203 0.044820
v 1.181415 0.364351 -0.044959
v -0.149293 0.061257 -0.101725
v -0.308199 -0.469616 -0.120536
v -0.308199 -0.469616 0.120536
v -0.149293 0.061257 0.101725
v 0.221197 0.269690 -0.068723
v 0.221197 0.269690 0.068723
v -0.045115 0.118386 -0.082338
v -0.045115 0.118386 0.082338
v 1.059259 0.269690 -0.062990
v 1.059259 0.269690 0.062990
v 1.673010 0.269690 -0.062990
v 2.286761 0.269690 -0.062990
v 1.673010 0.269690 0.062990
v 2.286761 0.269690 0.062990
v -1.853331 -0.355952 0.133495
v -1.853331 -0.355952 -0.133495
v -0.419513 -0.121226 -0.123760
v -0.419513 -0.121226 0.123759
v -0.311949 -0.172055 -0.119222
v -0.311949 -0.172055 0.119222
v -1.646003 -0.334985 0.133495
v -1.646003 -0.334985 -0.133495
v 0.306854 -0.069624 -0.046773
v 0.306854 -0.069624 0.046773
v 0.150807 -0.078211 -0.053783
v 0.150807 -0.078211 0.053783
v 0.248161 -0.236408 0.016051
v 0.266306 -0.222614 0.016020
v 0.255147 -0.119331 -0.045167
v 0.255147 -0.119331 0.045166
v 0.226888 -0.197400 0.016328
v 0.212398 -0.131221 -0.045012
v 0.226888 -0.197400 -0.016328
v 0.212397 -0.131221 0.045012
v 0.243021 -0.153790 -0.028889
v 0.243020 -0.153790 0.028889
v 0.248781 -0.191142 0.016179
v 0.220272 -0.154341 -0.032478
v 0.248782 -0.191142 -0.016179
v 0.220272 -0.154341 0.032477
v 0.266306 -0.222614 -0.016021
v 0.248161 -0.236408 -0.016052
v 0.284813 -0.239406 -0.016001
v 0.284813 -0.239406 0.016000
v 0.277226 -0.260920 -0.016001
v 0.277226 -0.260920 0.016000
v 0.321193 -0.258270 -0.016001
v 0.321193 -0.258270 0.016000
v 0.323272 -0.280981 -0.016001
v 0.323272 -0.280982 0.016000
v 0.546237 -0.258270 -0.016001
v 0.546237 -0.258270 0.016000
v 0.548340 -0.280981 -0.016001
v 0.548340 -0.280982 0.016000
v 0.582442 -0.252291 -0.016001
v 0.582442 -0.252292 0.016000
v 0.595240 -0.271171 -0.016001
v 0.595240 -0.271172 0.016000
v 0.620694 -0.221692 -0.016001
v 0.620694 -0.221693 0.016000
v 0.636700 -0.237941 -0.016001
v 0.636701 -0.237942 0.016000
v 0.636423 -0.194358 -0.016001
v 0.636423 -0.194358 0.016000
v 0.659222 -0.193697 -0.016001
v 0.659223 -0.193697 0.016000
v 0.640576 -0.125146 -0.043130
v 0.640577 -0.125146 0.043130
v 0.663375 -0.125146 -0.042902
v 0.663376 -0.125146 0.042902
v 0.620209 -0.091568 -0.046433
v 0.620209 -0.091568 0.046433
v 0.667229 -0.091568 -0.046433
v 0.667229 -0.091568 0.046433
v 0.598190 -0.069549 -0.046433
v 0.598191 -0.069549 0.046433
v 0.669430 -0.069549 -0.046433
v 0.669431 -0.069549 0.046433
v 0.578374 -0.045329 -0.046433
v 0.578374 -0.045329 0.046433
v 0.669430 -0.045329 -0.046433
v 0.669431 -0.045329 0.046433
v 0.306758 0.269690 -0.063868
v 0.306758 0.269690 0.063868
v 0.306742 0.269690 0.019913
v 0.221174 0.269690 0.021403
v -1.806894 -0.758763 0.041333
v -1.874493 -0.662262 0.133495
v -1.870449 0.138729 0.133495
v -1.800586 0.221215 0.041333
v -1.874493 -0.662262 -0.133495
v -1.806894 -0.758763 -0.041334
v -1.800586 0.221215 -0.041334
v -1.870449 0.138729 -0.133495
v -0.422920 -0.312603 0.123759
v -0.424492 -0.400926 0.038319
v -0.317061 -0.459094 0.120983
v -0.264445 0.152854 0.030312
v -0.313091 0.066872 0.118265
v -0.197881 0.099905 0.107644
v -0.424492 -0.400926 -0.038319
v -0.422919 -0.312603 -0.123760
v -0.317061 -0.459094 -0.120983
v -0.313091 0.066872 -0.118265
v -0.264445 0.152854 -0.030312
v -0.197881 0.099905 -0.107644
v -1.623290 -0.674294 -0.133495
v -1.617273 -0.764186 -0.041334
v -1.658876 0.128706 -0.133495
v -1.661787 0.217724 -0.041333
v -1.623290 -0.674294 0.133495
v -1.617273 -0.764186 0.041333
v -1.658876 0.128706 0.133495
v -1.661787 0.217724 0.041333
v -1.631889 -0.333831 -0.123760
v -1.631889 -0.333831 0.123759
v -1.647034 0.199323 -0.038318
v -1.644241 0.113911 -0.123760
v -1.604324 -0.745644 0.038319
v -1.610097 -0.659393 0.123759
v -1.604324 -0.745644 -0.038319
v -1.610097 -0.659393 -0.123760
v -1.647034 0.199323 0.038318
v -1.644241 0.113911 0.123759
v -0.073858 -0.227370 -0.029225
v -0.103521 -0.171653 -0.086722
v -0.082546 -0.211051 -0.068394
v -0.153743 -0.470945 -0.092221
v -0.113373 -0.470121 -0.034303
v -0.125197 -0.470363 -0.073596
v -0.113373 -0.470121 0.034303
v -0.153743 -0.470945 0.092220
v -0.125198 -0.470363 0.073596
v -0.103521 -0.171653 0.086721
v -0.073858 -0.227370 0.029224
v -0.082546 -0.211051 0.068394
v 0.221291 -0.008702 -0.067614
v 0.221320 -0.080810 -0.013367
v 0.221312 -0.059690 -0.051585
v 0.221320 -0.080810 0.013367
v 0.221321 -0.008710 0.068160
v 0.221321 -0.059692 0.051745
v 0.028321 -0.060306 -0.079069
v 0.053002 -0.120363 -0.024062
v 0.045773 -0.102773 -0.062503
v 0.053002 -0.120363 0.024062
v 0.028321 -0.060306 0.079069
v 0.045773 -0.102773 0.062503
v 1.059259 -0.065114 -0.009082
v 1.059259 0.006997 -0.062990
v 1.059259 -0.043993 -0.047201
v 1.059259 -0.065114 0.009082
v 1.059259 0.006993 0.062990
v 1.059259 -0.043994 0.047200
v 1.673559 0.124170 -0.062990
v 1.665325 0.158762 0.008986
v 1.672251 0.073196 -0.047201
v 2.287750 0.133407 -0.062990
v 2.285899 0.061320 -0.009082
v 2.286441 0.082434 -0.047201
v 2.285899 0.061320 0.009082
v 2.287749 0.133404 0.062990
v 2.286441 0.082433 0.047200
v 1.665325 0.158762 0.058536
v 1.673558 0.124166 0.062990
v 1.665325 0.158762 0.044023
v 2.955469 0.269690 -0.009082
v 2.901587 0.269690 -0.062990
v 2.939687 0.269690 -0.047201
v 2.901587 0.269690 0.062990
v 2.955469 0.269690 0.009082
v 2.939687 0.269690 0.047200
v -0.137461 -0.312000 -0.090800
v -0.099385 -0.333085 -0.032610
v -0.110537 -0.326909 -0.071983
v -0.099385 -0.333085 0.032610
v -0.137462 -0.312000 0.090800
v -0.110538 -0.326909 0.071983
v 0.306833 -0.003564 -0.063523
v 0.306857 -0.075674 -0.009507
v 0.306850 -0.054553 -0.047657
v 0.306856 -0.003567 0.063730
v 0.306857 -0.075674 0.009507
v 0.306857 -0.054554 0.047718
v 2.901587 0.202773 -0.062990
v 2.955469 0.192159 -0.009082
v 2.939687 0.195267 -0.047201
v 2.849916 0.132873 -0.062990
v 2.816043 0.060817 -0.009082
v 2.825964 0.081922 -0.047201
v 2.874666 0.142991 -0.062990
v 2.915210 0.101354 -0.009082
v 2.903335 0.113550 -0.047201
v 2.849907 0.132870 0.062990
v 2.816043 0.060817 0.009082
v 2.825962 0.081920 0.047200
v 2.901587 0.202773 0.062990
v 2.955469 0.192159 0.009082
v 2.939687 0.195267 0.047200
v 2.874666 0.142991 0.062990
v 2.915210 0.101354 0.009082
v 2.903335 0.113550 0.047200
v 0.306833 0.216824 0.064169
v 0.282669 0.192638 0.065794
v 0.306855 0.168451 0.064148
v 0.245508 0.192638 0.068159
v 0.221295 0.216824 0.069485
v 0.221322 0.168453 0.069402
v 0.221269 0.216824 0.021638
v 0.245482 0.192638 0.021231
v 0.282648 0.192638 0.020504
v 0.306814 0.216824 0.020005
v 1.819068 0.054299 0.009082
v 1.819610 0.075412 0.047200
v 1.820918 0.126382 0.062990
v 1.819068 0.054299 -0.009082
v 1.819610 0.075413 -0.047201
v 1.820919 0.126386 -0.062990
v 1.820264 0.269690 0.062990
v 1.820264 0.269690 -0.062990
v 1.335616 0.269690 -0.062990
v 1.335616 0.269690 0.062990
v 1.334761 0.073813 0.047200
v 1.334219 0.052701 0.009082
v 1.336070 0.124788 -0.062990
v 1.336069 0.124784 0.062990
v 1.334761 0.073814 -0.047201
v 1.334219 0.052701 -0.009082
v 1.665690 0.117094 0.058536
v 1.664488 0.070244 -0.042747
v 1.799936 0.072281 -0.042747
v 1.799438 0.052874 -0.007710
v 1.801138 0.119131 0.058536
v 1.799438 0.052874 0.008986
v 1.799936 0.072280 0.044023
v 1.354278 0.070811 0.044023
v 1.353780 0.051405 0.008986
v 1.355481 0.117662 0.058536
v 1.354278 0.070812 -0.042747
v 1.353780 0.051405 -0.007710
v 1.665325 0.158762 -0.042747
v 1.665325 0.158762 -0.007710
v 1.800677 0.158762 -0.042747
v 1.800676 0.158762 -0.007710
v 1.800676 0.158762 0.058536
v 1.800676 0.158762 0.008986
v 1.800676 0.158762 0.044023
v 1.355203 0.158762 0.044023
v 1.355203 0.158762 0.008986
v 1.355203 0.158762 0.058536
v 1.355203 0.158762 -0.042747
v 1.355203 0.158762 -0.007710
v 0.102438 0.291697 -0.063335
v 5.539346 0.291698 -0.066139
v 0.102438 0.246912 -0.044785
v 5.539346 0.244931 -0.046768
v 0.102438 0.228362 0.000000
v 5.539346 0.225559 -0.000000
v 0.102438 0.246912 0.044785
v 5.539346 0.244931 0.046767
v 0.102438 0.291697 0.063335
v 5.539346 0.291698 0.066139
v 0.102438 0.336482 0.044785
v 5.539346 0.338466 0.046767
v 0.102438 0.355032 0.000000
v 5.539346 0.357837 -0.000000
v 0.102438 0.336482 -0.044785
v 5.539346 0.338466 -0.046768
v 0.102438 0.291697 -0.041249
v 0.102438 0.262529 -0.029168
v 0.102438 0.250447 0.000000
v 0.102438 0.262529 0.029168
v 0.102438 0.291697 0.041250
v 0.102438 0.320865 0.029168
v 0.102438 0.332946 0.000000
v 0.102438 0.320865 -0.029168
v 0.072264 0.291697 -0.041249
v 0.072264 0.262529 -0.029168
v 0.072264 0.250447 0.000000
v 0.072264 0.262529 0.029168
v 0.072264 0.291697 0.041250
v 0.072264 0.320865 0.029168
v 0.072264 0.332946 0.000000
v 0.072264 0.320865 -0.029168
v 5.539346 0.256431 -0.035268
v 5.539346 0.291698 -0.049876
v 5.539346 0.241822 -0.000000
v 5.539346 0.256431 0.035267
v 5.539346 0.291698 0.049876
v 5.539346 0.326966 0.035267
v 5.539346 0.341574 -0.000000
v 5.539346 0.326966 -0.035268
v 4.463507 0.256427 -0.035267
v 4.463507 0.291694 -0.049876
v 4.463507 0.241819 0.000000
v 4.463507 0.256427 0.035268
v 4.463507 0.291694 0.049876
v 4.463507 0.326962 0.035268
v 4.463507 0.341570 0.000000
v 4.463507 0.326962 -0.035267
v 0.690517 0.291697 -0.063656
v 0.690517 0.246686 -0.045011
v 0.690517 0.228041 0.000000
v 0.690517 0.246686 0.045011
v 0.690517 0.291697 0.063656
v 0.690517 0.336708 0.045011
v 0.690517 0.355353 0.000000
v 0.690517 0.336708 -0.045011
v 1.159519 0.336836 -0.045139
v 1.159519 0.355533 0.000000
v 1.159519 0.336836 0.045139
v 1.159519 0.291697 0.063836
v 1.159519 0.246558 0.045139
v 1.159519 0.227861 0.000000
v 1.159519 0.246558 -0.045139
v 1.159519 0.291697 -0.063836
v 0.706363 0.291697 0.039003
v 0.706363 0.332402 0.022142
v 0.706363 0.250992 0.022142
v 1.143699 0.250877 0.022257
v 1.143699 0.291697 0.039166
v 1.143699 0.332518 0.022257
v 0.293237 0.291697 -0.077942
v 0.293237 0.236583 -0.055114
v 0.293237 0.213755 0.000000
v 0.293237 0.236583 0.055114
v 0.293237 0.291697 0.077942
v 0.293237 0.346811 0.055114
v 0.293237 0.369639 0.000000
v 0.293237 0.346811 -0.055114
v 0.236220 0.291697 -0.077942
v 0.236220 0.236583 -0.055114
v 0.236220 0.213755 0.000000
v 0.236220 0.236583 0.055114
v 0.236220 0.291697 0.077942
v 0.236220 0.346811 0.055114
v 0.236220 0.369639 0.000000
v 0.236220 0.346811 -0.055114
v 0.277927 0.181969 0.228824
v 0.277927 0.207484 0.239392
v 0.251531 0.181969 0.228824
v 0.251531 0.207484 0.239392
v 0.290838 0.175751 0.243835
v 0.290838 0.201266 0.254404
v 0.238619 0.175750 0.243836
v 0.238619 0.201266 0.254404
v 0.295246 0.167011 0.264934
v 0.295246 0.192527 0.275503
v 0.234212 0.167011 0.264934
v 0.234212 0.192527 0.275503
v 0.287651 0.160026 0.281798
v 0.287651 0.185541 0.292367
v 0.241806 0.160026 0.281798
v 0.241806 0.185541 0.292367
v 0.273016 0.155271 0.293783
v 0.273016 0.180787 0.304352
v 0.256441 0.155271 0.293783
v 0.256441 0.180787 0.304352
v 4.724099 0.338141 -0.046443
v 4.724099 0.357378 -0.000000
v 4.724099 0.338141 0.046443
v 4.724099 0.291698 0.065680
v 4.724099 0.245255 0.046443
v 4.724099 0.226018 -0.000000
v 4.724099 0.245255 -0.046443
v 4.724099 0.291698 -0.065680
v 5.525086 0.229610 -0.062088
v 5.525086 0.291698 -0.087806
v 5.525086 0.203892 -0.000000
v 5.525086 0.229610 0.062088
v 5.525086 0.291698 0.087806
v 5.525086 0.353786 0.062088
v 5.525086 0.379504 -0.000000
v 5.525086 0.353786 -0.062088
v 4.738359 0.291698 -0.087196
v 4.738359 0.353355 -0.061657
v 4.738359 0.378894 -0.000000
v 4.738359 0.353355 0.061657
v 4.738359 0.291698 0.087196
v 4.738359 0.230041 0.061657
v 4.738359 0.204502 -0.000000
v 4.738359 0.230041 -0.061657
v 4.859300 0.353421 -0.061723
v 4.839143 0.353410 -0.061712
v 4.818986 0.353399 -0.061701
v 4.798830 0.353388 -0.061690
v 4.778673 0.353377 -0.061679
v 4.758516 0.353366 -0.061668
v 4.859300 0.378988 -0.000000
v 4.839143 0.378972 -0.000000
v 4.818986 0.378957 -0.000000
v 4.798830 0.378941 -0.000000
v 4.778673 0.378925 -0.000000
v 4.758516 0.378910 -0.000000
v 4.859300 0.353421 0.061723
v 4.839143 0.353410 0.061712
v 4.818986 0.353399 0.061701
v 4.798830 0.353388 0.061690
v 4.778673 0.353377 0.061679
v 4.758516 0.353366 0.061668
v 4.859300 0.291698 0.087290
v 4.839143 0.291698 0.087274
v 4.818986 0.291698 0.087259
v 4.798830 0.291698 0.087243
v 4.778673 0.291698 0.087227
v 4.758516 0.291698 0.087212
v 4.859300 0.229975 0.061723
v 4.839143 0.229986 0.061712
v 4.818986 0.229997 0.061701
v 4.798830 0.230008 0.061690
v 4.778673 0.230019 0.061679
v 4.758516 0.230030 0.061668
v 4.859300 0.204408 -0.000000
v 4.839143 0.204424 -0.000000
v 4.818986 0.204439 -0.000000
v 4.798830 0.204455 -0.000000
v 4.778673 0.204471 -0.000000
v 4.758516 0.204486 -0.000000
v 4.859300 0.229975 -0.061723
v 4.839143 0.229986 -0.061712
v 4.818986 0.229997 -0.061701
v 4.798830 0.230008 -0.061690
v 4.778673 0.230019 -0.061679
v 4.758516 0.230030 -0.061668
v 4.758516 0.291698 -0.087212
v 4.778673 0.291698 -0.087227
v 4.798830 0.291698 -0.087243
v 4.818987 0.291698 -0.087259
v 4.839143 0.291698 -0.087274
v 4.859300 0.291698 -0.087290
v 4.856728 0.350270 -0.058573
v 4.837600 0.350260 -0.058562
v 4.818472 0.350249 -0.058552
v 4.799344 0.350239 -0.058541
v 4.780216 0.350228 -0.058531
v 4.761088 0.350218 -0.058520
v 4.856728 0.374532 -0.000000
v 4.837600 0.374517 -0.000000
v 4.818472 0.374502 -0.000000
v 4.799344 0.374487 -0.000000
v 4.780216 0.374473 -0.000000
v 4.761088 0.374458 -0.000000
v 4.856728 0.350270 0.058572
v 4.837600 0.350260 0.058562
v 4.818472 0.350249 0.058551
v 4.799344 0.350239 0.058541
v 4.780216 0.350228 0.058530
v 4.761088 0.350218 0.058520
v 4.856728 0.291698 0.082834
v 4.837600 0.291698 0.082819
v 4.818472 0.291698 0.082804
v 4.799344 0.291698 0.082789
v 4.780216 0.291698 0.082775
v 4.761088 0.291698 0.082760
v 4.856728 0.233125 0.058572
v 4.837600 0.233136 0.058562
v 4.818472 0.233146 0.058551
v 4.799344 0.233157 0.058541
v 4.780216 0.233167 0.058530
v 4.761088 0.233178 0.058520
v 4.856728 0.208864 -0.000000
v 4.837600 0.208879 -0.000000
v 4.818472 0.208894 -0.000000
v 4.799344 0.208908 -0.000000
v 4.780216 0.208923 -0.000000
v 4.761088 0.208938 -0.000000
v 4.856728 0.233125 -0.058573
v 4.837600 0.233136 -0.058562
v 4.818472 0.233146 -0.058552
v 4.799344 0.233157 -0.058541
v 4.780216 0.233167 -0.058531
v 4.761088 0.233178 -0.058520
v 4.761088 0.291698 -0.082760
v 4.780216 0.291698 -0.082775
v 4.799344 0.291698 -0.082790
v 4.818473 0.291698 -0.082804
v 4.837600 0.291698 -0.082819
v 4.856728 0.291698 -0.082834
v 0.062733 0.291697 -0.024115
v 0.062733 0.274645 -0.017052
v 0.062733 0.267582 0.000000
v 0.062733 0.274645 0.017052
v 0.062733 0.291697 0.024115
v 0.062733 0.308749 0.017052
v 0.062733 0.315812 0.000000
v 0.062733 0.308749 -0.017052
v 0.048436 0.291697 -0.006417
v 0.048436 0.287159 -0.004538
v 0.048436 0.285280 0.000000
v 0.048436 0.287159 0.004538
v 0.048436 0.291697 0.006417
v 0.048436 0.296235 0.004538
v 0.048436 0.298114 0.000000
v 0.048436 0.296235 -0.004538
v 0.407863 -0.037977 -0.006027
v 0.407863 -0.037977 0.015702
v 0.396298 -0.078042 -0.006027
v 0.396298 -0.078042 0.015702
v 0.364483 -0.037977 -0.006027
v 0.364483 -0.037977 0.015702
v 0.358475 -0.078042 -0.006027
v 0.358475 -0.078042 0.015702
v 0.373173 -0.110336 -0.006027
v 0.373173 -0.110336 0.015702
v 0.346325 -0.111006 -0.006027
v 0.346325 -0.111006 0.015702
v 0.364465 -0.155258 -0.006027
v 0.364465 -0.155258 0.015702
v 0.341749 -0.153592 -0.006027
v 0.341749 -0.153592 0.015702
v 0.370412 -0.190898 -0.006027
v 0.370412 -0.190898 0.015702
v 0.357105 -0.208347 -0.006027
v 0.357105 -0.208347 0.015702
v 0.386067 -0.227661 -0.006027
v 0.386067 -0.227661 0.015702
v 0.379634 -0.238912 -0.006027
v 0.379634 -0.238912 0.015702
v 0.210829 0.570835 -0.137474
v 0.210829 0.473627 -0.097208
v 0.210829 0.433361 0.000000
v 0.210829 0.473627 0.097209
v 0.210829 0.570835 0.137474
v 0.210829 0.668044 0.097209
v 0.210829 0.708309 0.000000
v 0.210829 0.668044 -0.097208
v 0.324055 0.570835 -0.081423
v 0.324055 0.513261 -0.057574
v 0.324055 0.489412 0.000000
v 0.324055 0.513261 0.057575
v 0.324055 0.570835 0.081423
v 0.324055 0.628410 0.057575
v 0.324055 0.652258 0.000000
v 0.324055 0.628410 -0.057574
v 0.526398 0.491635 0.000000
v 0.526398 0.514832 -0.056003
v 0.526398 0.626838 -0.056003
v 0.526398 0.650035 0.000000
v 0.526398 0.626838 0.056003
v 0.526398 0.570835 0.079200
v 0.526398 0.514832 0.056003
v 0.526398 0.570835 -0.079200
v 0.639714 0.514832 -0.056003
v 0.639714 0.650035 0.000000
v 0.639714 0.570835 0.079200
v 0.639714 0.570835 -0.079200
v 0.639714 0.491635 0.000000
v 0.639714 0.626838 -0.056003
v 0.639714 0.626838 0.056003
v 0.639714 0.514832 0.056003
v 0.630683 0.472814 0.000000
v 0.535429 0.472814 0.000000
v 0.630563 0.640196 -0.069361
v 0.535549 0.640196 -0.069361
v 0.630563 0.640196 0.069361
v 0.535549 0.640196 0.069361
v 0.630581 0.501506 0.069378
v 0.535531 0.501506 0.069378
v 0.535549 0.570835 0.098091
v 0.535549 0.668926 0.000000
v 0.535549 0.570835 -0.098091
v 0.535531 0.501506 -0.069377
v 0.630581 0.501506 -0.069377
v 0.630563 0.668926 0.000000
v 0.630563 0.570835 0.098091
v 0.630563 0.570835 -0.098091
v 0.615297 0.475637 0.000000
v 0.550815 0.475637 0.000000
v 0.608289 0.487464 0.040898
v 0.557823 0.487464 0.040898
v 0.557823 0.487464 -0.040898
v 0.608289 0.487464 -0.040898
v 0.614070 0.370045 0.000000
v 0.552042 0.370045 0.000000
v 0.612534 0.371581 0.040610
v 0.553577 0.371580 0.040610
v 0.553577 0.371580 -0.040610
v 0.612534 0.371581 -0.040610
v 1.523829 0.570887 -0.170377
v 1.523806 0.450362 -0.120470
v 1.523801 0.400464 -0.000000
v 1.523806 0.450362 0.120469
v 1.523829 0.570887 0.170377
v 1.523894 0.691382 0.120419
v 1.523950 0.741234 -0.000000
v 1.523894 0.691382 -0.120419
v 1.880917 0.555202 -0.158680
v 1.831550 0.438391 -0.112187
v 1.814672 0.395219 -0.000000
v 1.831550 0.438391 0.112186
v 1.880917 0.555202 0.158680
v 1.921839 0.659871 0.112244
v 1.938769 0.703173 -0.000000
v 1.921839 0.659871 -0.112245
v 1.301537 0.570836 -0.081538
v 1.301537 0.513179 -0.057656
v 1.301537 0.489297 -0.000000
v 1.301537 0.513179 0.057656
v 1.301537 0.570836 0.081538
v 1.301537 0.628492 0.057656
v 1.301537 0.652374 -0.000000
v 1.301537 0.628492 -0.057656
v 1.155141 0.491635 -0.000000
v 1.155141 0.514833 -0.056003
v 1.155141 0.626838 -0.056003
v 1.155141 0.650036 -0.000000
v 1.155141 0.626838 0.056003
v 1.155141 0.570836 0.079200
v 1.155141 0.514833 0.056003
v 1.155141 0.570836 -0.079200
v 1.041825 0.514832 -0.056003
v 1.041825 0.650036 0.000000
v 1.041825 0.570835 0.079200
v 1.041825 0.570835 -0.079200
v 1.041825 0.491635 0.000000
v 1.041825 0.626838 -0.056003
v 1.041825 0.626838 0.056003
v 1.041825 0.514832 0.056003
v 1.050856 0.472814 0.000000
v 1.146110 0.472814 -0.000000
v 1.050976 0.640196 -0.069361
v 1.145990 0.640196 -0.069361
v 1.050976 0.640196 0.069361
v 1.145990 0.640196 0.069361
v 1.050958 0.501506 0.069378
v 1.146008 0.501506 0.069378
v 1.145990 0.570836 0.098091
v 1.145990 0.668927 -0.000000
v 1.145990 0.570836 -0.098091
v 1.146008 0.501506 -0.069378
v 1.050958 0.501506 -0.069378
v 1.050976 0.668927 0.000000
v 1.050976 0.570835 0.098091
v 1.050976 0.570835 -0.098091
v 1.066242 0.475637 0.000000
v 1.130724 0.475637 -0.000000
v 1.073250 0.487464 0.040898
v 1.123716 0.487464 0.040898
v 1.123716 0.487464 -0.040898
v 1.073250 0.487464 -0.040898
v 1.067469 0.370045 0.000000
v 1.129497 0.370045 -0.000000
v 1.069005 0.371581 0.040610
v 1.127962 0.371581 0.040610
v 1.127962 0.371581 -0.040610
v 1.069005 0.371581 -0.040610
v 1.878637 0.555914 -0.131286
v 1.836445 0.457099 -0.092737
v 1.822480 0.421554 -0.000000
v 1.836445 0.457099 0.092736
v 1.878637 0.555914 0.131285
v 1.912634 0.642690 0.092891
v 1.926645 0.678525 -0.000000
v 1.912634 0.642690 -0.092892
v 1.847858 0.567969 -0.129221
v 1.806152 0.470672 -0.091211
v 1.792447 0.435563 -0.000000
v 1.806152 0.470672 0.091210
v 1.847858 0.567969 0.129220
v 1.881169 0.653278 0.091400
v 1.894947 0.688561 -0.000000
v 1.881169 0.653278 -0.091400
v -0.136815 0.570835 -0.096836
v -0.136815 0.502362 -0.068473
v -0.136815 0.473999 0.000000
v -0.136815 0.502362 0.068473
v -0.136815 0.570835 0.096836
v -0.136815 0.639308 0.068473
v -0.136815 0.667671 0.000000
v -0.136815 0.639308 -0.068473
v -0.117593 0.570835 -0.094573
v -0.117593 0.503962 -0.066873
v -0.117593 0.476262 0.000000
v -0.117593 0.503962 0.066873
v -0.117593 0.570835 0.094573
v -0.117593 0.637708 0.066873
v -0.117593 0.665408 0.000000
v -0.117593 0.637708 -0.066873
v 1.869558 0.684930 -0.116183
v 1.886702 0.729368 -0.000000
v 1.869558 0.684930 0.116183
v 1.828088 0.576860 0.165653
v 1.777444 0.454286 0.118543
v 1.759729 0.407438 -0.000000
v 1.777444 0.454286 -0.118544
v 1.828088 0.576860 -0.165654
v 1.877020 0.557000 -0.180210
v 1.821911 0.425992 -0.127619
v 1.802752 0.376745 -0.000000
v 1.821912 0.425992 0.127618
v 1.877020 0.557000 0.180210
v 1.923312 0.675654 0.127480
v 1.942539 0.724833 -0.000000
v 1.923312 0.675654 -0.127481
v 1.876183 0.694080 -0.127481
v 1.876183 0.694080 0.127480
v 1.774900 0.444514 0.127634
v 1.774900 0.444514 -0.127634
v 1.895410 0.743259 -0.000000
v 1.829864 0.575565 0.180293
v 1.755622 0.395170 -0.000000
v 1.829864 0.575565 -0.180294
v -0.090504 0.665078 -0.094243
v -0.090504 0.704115 0.000000
v -0.090504 0.665078 0.094243
v -0.090504 0.570835 0.133280
v -0.090504 0.476592 0.094243
v -0.090504 0.437555 0.000000
v -0.090504 0.476592 -0.094243
v -0.090504 0.570835 -0.133280
v -0.134024 0.570835 -0.146471
v -0.134024 0.467264 -0.103571
v -0.134024 0.424364 0.000000
v -0.134024 0.467264 0.103571
v -0.134024 0.570835 0.146471
v -0.134024 0.674406 0.103571
v -0.134024 0.717306 0.000000
v -0.134024 0.674406 -0.103571
v -0.093114 0.674480 -0.103644
v -0.093114 0.674480 0.103645
v -0.093114 0.467191 0.103645
v -0.093114 0.467191 -0.103644
v -0.093114 0.717411 0.000000
v -0.093114 0.570835 0.146576
v -0.093114 0.424260 0.000000
v -0.093114 0.570835 -0.146575
v 0.863686 0.564821 -0.079541
v 0.863686 0.703149 -0.079541
v 0.919930 0.564821 -0.056244
v 0.919930 0.703149 -0.056244
v 0.943227 0.564821 0.000000
v 0.943227 0.703149 0.000000
v 0.919930 0.564821 0.056244
v 0.919930 0.703149 0.056244
v 0.863686 0.564821 0.079542
v 0.863686 0.703149 0.079542
v 0.807441 0.564821 0.056244
v 0.807441 0.703149 0.056244
v 0.784144 0.564821 0.000000
v 0.784144 0.703149 0.000000
v 0.807441 0.564821 -0.056244
v 0.807441 0.703149 -0.056244
v 0.863686 0.621654 -0.107421
v 0.863686 0.621654 0.107421
v 0.906304 0.604002 -0.107421
v 0.906304 0.604001 0.107421
v 0.923957 0.561383 -0.107421
v 0.923957 0.561383 0.107421
v 0.906304 0.518765 -0.107421
v 0.906304 0.518765 0.107421
v 0.863686 0.501112 -0.107421
v 0.863686 0.501112 0.107421
v 0.821068 0.518765 -0.107421
v 0.821068 0.518765 0.107421
v 0.803414 0.561383 -0.107421
v 0.803414 0.561383 0.107421
v 0.821068 0.604001 -0.107421
v 0.821068 0.604001 0.107421
vn -1.000000 0.000000 0.000000
vn 0.000000 0.000000 -1.000000
vn 1.000000 0.000000 0.000000
vn 0.000000 0.000000 1.000000
vn -0.000000 1.000000 0.000000
vn 0.000000 -1.000000 0.000000
vn 0.025100 0.999700 0.000000
vn -0.999400 -0.034600 0.000000
vn 0.780200 0.625500 -0.000000
vn 0.565300 0.037800 0.824000
vn 0.565800 0.015700 0.824400
vn -0.819000 -0.573700 0.000000
vn 0.044200 -0.096200 -0.994400
vn -0.877900 -0.478800 -0.000000
vn 0.873700 0.486500 0.000000
vn 0.132000 -0.451400 0.882500
vn 0.044200 -0.096200 0.994400
vn 0.127100 -0.317700 -0.939600
vn 0.693000 -0.720900 0.000000
vn -0.644700 -0.764400 -0.000000
vn -0.652300 -0.757900 -0.000000
vn 0.005900 -0.002900 -1.000000
vn 0.132000 -0.451400 -0.882500
vn -0.988400 -0.151900 -0.000000
vn 0.943300 -0.332000 0.000000
vn 0.988300 0.152400 0.000000
vn -0.946600 -0.322400 -0.000000
vn 0.127100 -0.317700 0.939600
vn -0.054900 0.998500 -0.000000
vn 0.005900 -0.002900 1.000000
vn -0.399400 -0.916800 -0.000000
vn 0.001400 -0.000100 1.000000
vn 0.672000 0.740600 0.000000
vn 0.001400 -0.000100 -1.000000
vn 0.460300 0.887800 0.000000
vn 0.204700 -0.978800 -0.000000
vn -0.162900 0.986600 0.000000
vn -0.624700 0.780900 0.000000
vn 0.625400 -0.780300 -0.000000
vn 0.010000 -0.365600 0.930700
vn -0.866700 0.498800 0.000000
vn 0.891200 -0.453600 -0.000000
vn 0.003300 -0.100500 -0.994900
vn 0.998200 -0.060500 -0.000000
vn 0.010000 -0.365600 -0.930700
vn -0.998200 0.059900 0.000000
vn -0.707100 -0.707100 0.000000
vn -0.855000 -0.518600 0.000000
vn 0.003300 -0.100500 0.994900
vn 0.993500 -0.114000 -0.000000
vn 0.995000 -0.099500 -0.000000
vn -0.774000 -0.633200 0.000000
vn -0.028100 -0.708400 -0.705200
vn 0.028000 0.726700 0.686400
vn 0.772800 -0.424200 -0.472000
vn 0.028000 0.726700 -0.686400
vn -0.028100 -0.708400 0.705200
vn 0.746500 0.486500 0.453900
vn -0.028600 -0.999600 0.000000
vn -0.763100 0.646300 0.000000
vn -0.997600 0.068900 0.000000
vn 0.772800 -0.424200 0.472000
vn 0.746500 0.486500 -0.453900
vn 0.565300 0.037800 -0.824000
vn 0.819900 -0.572600 0.000000
vn 0.565800 0.015700 -0.824400
vn 0.108800 -0.296700 0.948800
vn 0.072400 -0.997400 0.000000
vn 0.012700 -0.843500 -0.537000
vn -0.107100 -0.291700 0.950500
vn -0.023900 -0.874400 -0.484700
vn 0.029600 -0.874600 -0.484000
vn -0.001500 -0.832300 -0.554400
vn -0.055400 -0.873100 0.484400
vn 0.999900 -0.012000 -0.003800
vn -0.999900 0.010300 0.004300
vn 0.999400 -0.005000 -0.033300
vn -0.999300 0.002200 0.037800
vn 0.999900 -0.013300 0.000000
vn -0.999900 0.010300 -0.004300
vn 0.061000 -0.873500 0.482900
vn 0.008100 -0.539300 0.842100
vn -0.001000 -0.532100 0.846700
vn -0.066100 -0.997800 0.000000
vn -0.999900 0.011700 0.000000
vn 0.999900 -0.012000 0.003800
vn 0.978100 -0.079600 0.192100
vn 0.978100 -0.192100 -0.079600
vn 0.978100 0.192100 -0.079600
vn 0.978100 0.079600 0.192100
vn 0.415900 -0.348000 0.840200
vn 0.415900 -0.840200 -0.348000
vn 0.415900 0.840200 -0.348000
vn 0.415900 0.348000 0.840200
vn 0.415900 -0.840200 0.348000
vn 0.415900 -0.348000 -0.840200
vn 0.415900 0.348000 -0.840200
vn 0.415900 0.840200 0.348000
vn 0.010100 -0.382700 0.923800
vn 0.010100 0.923800 0.382700
vn 0.010100 0.382700 -0.923800
vn 0.010100 -0.382700 -0.923800
vn 0.010100 -0.923800 0.382700
vn 0.010100 0.382700 0.923800
vn 0.010100 0.923800 -0.382700
vn 0.010100 -0.923800 -0.382700
vn -0.000000 0.923900 -0.382700
vn 0.000000 0.382700 0.923900
vn 0.000000 -0.923900 0.382700
vn -0.000000 -0.382700 -0.923900
vn -0.000000 0.382700 -0.923900
vn -0.000000 0.923900 0.382700
vn 0.000000 -0.382700 0.923900
vn -0.893200 0.419300 0.162300
vn 0.981900 -0.170900 -0.082100
vn -0.953900 0.298800 0.026600
vn 0.981900 -0.170900 0.082100
vn -0.932400 0.338100 -0.127500
vn 0.939800 -0.280000 0.195900
vn -0.893200 0.419300 -0.162300
vn 0.874300 -0.445500 0.192400
vn -0.346300 -0.358900 0.866700
vn -0.346400 -0.866700 -0.359000
vn -0.346400 0.866800 -0.358800
vn -0.346300 0.359300 0.866600
vn -0.346400 -0.866700 0.359000
vn -0.346300 -0.358900 -0.866700
vn -0.346300 0.359300 -0.866600
vn -0.346400 0.866800 0.358800
vn 0.957900 -0.285100 -0.034700
vn -0.014800 -0.382600 0.923800
vn -0.014800 0.923800 0.382600
vn -0.014800 0.382600 -0.923800
vn -0.014800 -0.382600 -0.923800
vn -0.014800 -0.923800 0.382600
vn -0.014800 0.382600 0.923800
vn -0.014800 0.923800 -0.382600
vn -0.014800 -0.923800 -0.382600
vn 0.000000 -0.923900 -0.382700
vn -0.278700 -0.881100 0.382000
vn 0.929300 -0.356700 0.096000
vn 0.914400 -0.395600 0.085300
vn 0.896800 -0.441100 -0.034900
vn 0.929300 -0.356700 -0.096000
vn 0.957900 -0.285100 0.034700
vn 0.896800 -0.441100 0.034900
vn 0.914400 -0.395600 -0.085300
vn -0.084000 -0.375900 -0.922900
vn 0.392500 0.837300 -0.380600
vn 0.177400 0.291100 0.940100
vn -0.084000 -0.375900 0.922900
vn -0.278700 -0.881100 -0.382000
vn 0.177400 0.291100 -0.940100
vn 0.392500 0.837300 0.380600
vn -0.108100 -0.380400 0.918500
vn -0.998200 0.056100 -0.023200
vn -0.998200 0.023200 0.056100
vn -0.998200 -0.056100 0.023200
vn -0.998200 0.023200 -0.056100
vn -0.998200 0.056100 0.023200
vn -0.998200 -0.023200 0.056100
vn -0.998200 -0.056100 -0.023200
vn -0.108100 -0.918500 -0.380400
vn -0.108100 0.380400 -0.918500
vn -0.108100 0.918500 0.380400
vn -0.108100 -0.918500 0.380400
vn -0.108100 -0.380400 -0.918500
vn -0.108100 0.918500 -0.380400
vn -0.108100 0.380400 0.918500
vn 0.022100 -0.927300 -0.373700
vn 0.017700 -0.373800 0.927400
vn 0.026200 0.928000 0.371700
vn 0.012900 0.396900 -0.917800
vn 0.017700 -0.373800 -0.927400
vn 0.022100 -0.927300 0.373700
vn 0.012900 0.396900 0.917800
vn 0.026200 0.928000 -0.371700
vn 0.336400 0.860500 -0.382700
vn 0.140600 0.356200 0.923800
vn -0.337400 -0.859900 0.383000
vn -0.126400 -0.323500 -0.937700
vn 0.140600 0.356200 -0.923800
vn 0.336400 0.860500 0.382700
vn -0.126400 -0.323500 0.937700
vn -0.337400 -0.859900 -0.383000
vn 0.939800 -0.280000 -0.195900
vn -0.846900 0.526400 -0.075800
vn 0.874300 -0.445500 -0.192400
vn -0.953900 0.298800 -0.026600
vn 0.836100 -0.542200 -0.083300
vn -0.932400 0.338100 0.127500
vn 0.836100 -0.542200 0.083300
vn -0.846900 0.526400 0.075800
vn -0.012900 -0.923800 -0.382700
vn -0.012900 -0.382700 0.923800
vn -0.012900 0.923800 0.382700
vn -0.012900 0.382700 -0.923800
vn -0.012900 -0.382700 -0.923800
vn -0.012900 -0.923800 0.382700
vn -0.012900 0.382700 0.923800
vn -0.012900 0.923800 -0.382700
vn -0.002400 0.923900 -0.382700
vn -0.002400 0.382700 0.923900
vn -0.002400 -0.923900 0.382700
vn -0.002400 -0.382700 -0.923900
vn -0.002400 0.382700 -0.923900
vn -0.002400 0.923900 0.382700
vn -0.002400 -0.382700 0.923900
vn -0.002400 -0.923900 -0.382700
vn 0.978100 0.192100 0.079600
vn 0.978100 0.079600 -0.192100
vn 0.978100 -0.079600 -0.192100
vn 0.978100 -0.192100 0.079600
vn -0.998200 -0.023200 -0.056100
vn 0.382700 0.000000 -0.923900
vn 0.923900 0.000000 -0.382700
vn 0.923900 -0.000000 0.382700
vn 0.382700 0.000000 0.923900
vn -0.382700 0.000000 0.923900
vn -0.923900 0.000000 0.382700
vn -0.923900 0.000000 -0.382700
vn -0.382700 0.000000 -0.923900
vn 0.382700 0.923900 0.000000
vn 0.923900 0.382700 0.000000
vn 0.923900 -0.382700 -0.000000
vn 0.382700 -0.923900 -0.000000
vn -0.382700 -0.923900 0.000000
vn -0.923900 -0.382700 0.000000
vn -0.923900 0.382700 0.000000
vn -0.382700 0.923900 0.000000
vn -0.000300 0.000000 -1.000000
vn -0.000300 -0.000000 1.000000
vn -0.000200 0.000000 -1.000000
vn -0.000200 0.000000 1.000000
vn -0.000400 0.382700 -0.923900
vn 0.814500 0.222000 0.536000
vn -0.812600 0.538500 0.223100
vn 0.814500 0.536100 -0.222000
vn -0.812600 0.538500 -0.223100
vn 0.814500 -0.536000 -0.222000
vn -0.812600 0.223100 -0.538500
vn -0.812600 -0.223100 -0.538500
vn -0.856700 0.476500 -0.197400
vn -0.000500 0.382700 -0.923900
vn -0.000500 0.923900 -0.382700
vn -0.000500 0.923900 0.382700
vn -0.000500 0.382700 0.923900
vn -0.000500 -0.382700 0.923900
vn -0.000500 -0.923900 0.382700
vn -0.000500 -0.923900 -0.382700
vn -0.000500 -0.382700 -0.923900
vn -0.000300 -0.382700 0.923900
vn -0.000400 -0.382700 -0.923900
vn -0.000400 -0.923900 -0.382700
vn -0.000400 -0.923900 0.382700
vn 0.000200 -0.982700 0.185300
vn 0.820900 -0.218500 0.527600
vn -0.000400 0.923900 0.382700
vn -0.000400 0.923900 -0.382700
vn 0.814500 -0.222000 0.536100
vn -0.000300 0.382700 0.923900
vn 0.000200 0.982700 0.185300
vn -0.821500 0.218200 0.526800
vn 0.820900 0.218500 0.527600
vn -0.821500 -0.218200 0.526800
vn -0.996500 -0.032200 0.077700
vn 0.000000 -0.954000 -0.299900
vn 0.996500 -0.032200 0.077700
vn 0.000000 0.886600 0.462500
vn 0.782900 0.238100 -0.574800
vn -0.782900 0.238100 -0.574800
vn -0.981900 0.072500 -0.175100
vn 0.981900 0.072500 -0.175100
vn -0.000000 0.929500 0.368700
vn 0.923300 -0.147000 0.354900
vn -0.923300 -0.147000 0.354900
vn 0.661000 -0.287200 0.693300
vn 0.000000 -0.929500 -0.368700
vn -0.661000 -0.287200 0.693300
vn -0.000700 -0.382700 -0.923900
vn -0.000700 -0.923900 -0.382700
vn -0.000700 -0.923900 0.382700
vn -0.000700 -0.382700 0.923900
vn -0.000700 0.382700 0.923900
vn -0.000700 0.923900 0.382700
vn -0.000700 0.923900 -0.382700
vn -0.812600 0.223100 0.538500
vn 0.814500 -0.536000 0.222000
vn -0.812600 -0.223100 0.538500
vn 0.814500 0.222000 -0.536000
vn 0.814500 -0.222000 -0.536000
vn -0.812600 -0.538500 0.223100
vn 0.814500 0.536000 0.222000
vn -0.812600 -0.538500 -0.223100
vn 0.992300 0.047400 0.114500
vn -0.992300 0.114400 -0.047400
vn 0.847900 -0.489800 0.202900
vn -0.936300 -0.134400 -0.324600
vn 0.992300 0.114500 -0.047400
vn -0.848100 -0.489500 -0.202800
vn 0.847900 0.202900 0.489800
vn -0.936300 -0.324600 0.134400
vn 0.936400 0.324300 0.134300
vn -0.848100 -0.202800 0.489500
vn 0.847800 0.489900 -0.202900
vn -0.992300 -0.114400 -0.047400
vn 0.936400 0.134300 -0.324300
vn -0.848100 0.489500 0.202800
vn 0.992300 -0.114500 -0.047400
vn -0.992300 -0.047500 0.114500
vn 0.936400 -0.324300 -0.134300
vn -0.936300 0.324600 0.134400
vn -0.848100 0.202800 -0.489500
vn 0.992300 -0.047400 0.114500
vn -0.992300 0.114500 0.047400
vn -0.000700 0.382700 -0.923900
vn 0.847800 -0.489900 -0.202900
vn 0.936400 -0.134300 0.324300
vn -0.936300 0.134400 -0.324600
vn -0.936300 0.324600 -0.134400
vn 0.936400 -0.324300 0.134300
vn 0.847900 -0.202900 -0.489900
vn -0.992300 0.047400 0.114500
vn 0.992300 -0.114500 0.047400
vn -0.848100 0.489500 -0.202800
vn -0.936300 0.134400 0.324600
vn 0.936400 -0.134300 -0.324300
vn -0.992300 -0.114500 0.047400
vn 0.847900 0.202900 -0.489800
vn 0.992300 -0.047500 -0.114500
vn -0.848100 0.202800 0.489500
vn 0.936400 0.324300 -0.134300
vn -0.936300 -0.134400 0.324600
vn -0.992300 -0.047400 -0.114500
vn 0.847900 0.489800 0.202900
vn -0.848100 -0.489500 0.202800
vn 0.992300 0.047400 -0.114500
vn 0.936400 0.134400 0.324300
vn -0.936300 -0.324600 -0.134400
vn 0.847900 -0.202900 0.489800
vn -0.992300 0.047400 -0.114500
vn -0.848100 -0.202800 -0.489500
vn 0.992300 0.114400 0.047400
vn -0.752800 0.608100 -0.251900
vn -0.856700 0.197400 0.476500
vn -0.856700 -0.476500 0.197400
vn -0.856700 -0.197400 -0.476500
vn -0.856700 0.197400 -0.476500
vn -0.856700 0.476500 0.197400
vn -0.856700 -0.197400 0.476500
vn -0.856700 -0.476500 -0.197400
vn -0.752800 0.251900 0.608100
vn -0.752800 -0.608100 0.251900
vn -0.752800 -0.251900 -0.608100
vn -0.752800 0.251900 -0.608100
vn -0.752800 0.608100 0.251900
vn -0.752800 -0.251900 0.608100
vn -0.752800 -0.608100 -0.251900
vn 0.885600 0.429000 0.177700
vn -0.885600 0.177700 -0.429000
vn 0.885800 -0.177400 0.428700
vn -0.885600 0.429000 0.177700
vn 0.886600 -0.427100 -0.177500
vn -0.885800 -0.177400 0.428700
vn 0.885600 0.429000 -0.177700
vn -0.886600 -0.427100 -0.177500
vn -0.000000 -0.382600 0.923900
vn -0.000000 -0.382600 -0.923900
vn 0.017900 -0.938100 0.345900
vn -0.017900 -0.938100 -0.345900
vn -0.885800 -0.177400 -0.428700
vn 0.885600 0.177700 -0.429000
vn -0.886600 -0.427100 0.177500
vn 0.885800 -0.177400 -0.428700
vn -0.885600 0.177700 0.429000
vn 0.886600 -0.427100 0.177500
vn -0.885600 0.429000 -0.177700
vn 0.885600 0.177700 0.429000
vn -0.994700 0.013400 -0.102100
vn 0.994700 0.013400 0.102100
vn -0.000000 -0.896900 0.442200
vn 0.017900 -0.938100 -0.345900
vn -0.000000 -0.896900 -0.442200
vn -0.017900 -0.938100 0.345900
vn 0.000000 -0.999300 0.037800
vn 0.000000 -0.999300 -0.037800
vn 0.000000 -0.002500 1.000000
vn 0.994700 0.013400 -0.102100
vn -0.000000 -0.002500 -1.000000
vn -0.994700 0.013400 0.102100
vn 0.080200 0.001700 -0.996800
vn 0.080200 0.001700 0.996800
vn 0.038000 0.003100 0.999300
vn 0.972100 -0.234700 0.000000
vn 0.120300 -0.009200 -0.992700
vn 0.154100 -0.024000 0.987800
vn 0.170500 0.001200 0.985400
vn 0.018500 0.002800 0.999800
vn 0.014000 -0.999900 0.000000
vn 0.052300 -0.002600 -0.998600
vn -0.494000 0.869500 0.000000
vn -0.480800 0.876800 0.000000
vn 0.059900 -0.998200 -0.000000
vn 0.154100 -0.024000 -0.987800
vn 0.170500 0.001200 -0.985400
vn 0.015000 -0.999900 0.000000
vn 1.000000 0.001800 -0.000500
vn 0.914200 -0.405300 0.000000
vn 0.000900 -0.000600 -1.000000
vn -0.000900 -1.000000 0.000000
vn 0.120300 -0.009200 0.992700
vn -0.004100 -1.000000 -0.000000
vn 0.994800 -0.101500 0.000000
vn 0.038000 0.003100 -0.999300
vn 0.622500 0.782600 0.000000
vn -0.522800 -0.852500 0.000000
vn 0.228800 -0.973500 0.000000
vn 0.050700 0.000200 0.998700
vn 0.054800 -0.000700 -0.998500
vn 0.001300 -0.000300 1.000000
vn 0.057100 -0.005100 0.998400
vn 0.378400 -0.925600 -0.000000
vn -0.681500 -0.502500 0.532000
vn -0.154900 0.747900 0.645500
vn -0.681500 -0.502500 -0.532000
vn -0.154900 0.747900 -0.645500
vn 0.953700 -0.094000 -0.285600
vn 0.550300 -0.047900 -0.833600
vn 0.550300 -0.047900 0.833600
vn 0.953700 -0.094000 0.285700
vn 0.595500 -0.684200 -0.421100
vn 0.272700 -0.266100 -0.924600
vn 0.272700 -0.266100 0.924600
vn 0.595500 -0.684200 0.421100
vn 0.235000 -0.858500 -0.455700
vn 0.135300 -0.303700 -0.943100
vn 0.134300 -0.307400 0.942100
vn 0.234800 -0.859000 0.454900
vn 0.074400 -0.872600 -0.482700
vn 0.062500 -0.297900 -0.952500
vn 0.012600 -0.874900 0.484100
vn 0.005000 -0.297700 0.954600
vn 0.393800 -0.919200 0.000000
vn 0.125800 -0.295000 0.947200
vn -0.000500 -0.295900 -0.955200
vn 0.004500 -0.296000 -0.955200
vn 0.013200 -0.874800 -0.484300
vn 0.930400 -0.215400 -0.296700
vn 0.533300 -0.103800 -0.839500
vn 0.533300 -0.103800 0.839500
vn 0.930400 -0.215400 0.296700
vn 0.012600 -0.874700 -0.484500
vn 0.004800 -0.296400 -0.955000
vn 0.074600 -0.873200 0.481600
vn 0.065200 -0.302400 0.950900
vn 0.350100 -0.156600 -0.923500
vn 0.844700 -0.375100 -0.381700
vn 0.350100 -0.156600 0.923500
vn 0.844700 -0.375100 0.381700
vn 0.144900 -0.354400 -0.923800
vn 0.349600 -0.855200 -0.382500
vn 0.144900 -0.354400 0.923800
vn 0.349600 -0.855200 0.382500
vn -0.000300 -0.295900 0.955200
vn -0.000800 -0.874800 0.484500
vn -0.000300 -0.295900 -0.955200
vn -0.000800 -0.874800 -0.484500
vn 0.923900 0.000000 -0.382500
vn 0.382800 0.000000 -0.923800
vn 0.382800 -0.000000 0.923800
vn 0.923900 -0.000000 0.382500
vn 0.644800 -0.764400 -0.000000
vn 0.067500 -0.000400 0.997700
vn 0.053000 -0.001700 0.998600
vn 0.706700 0.707500 -0.000400
vn -0.707400 0.706800 0.000300
vn -1.000000 -0.001400 0.000400
vn 0.125800 -0.295000 -0.947200
vn 0.004500 -0.296000 0.955200
vn 0.351100 -0.820100 0.451800
vn 0.013200 -0.874800 0.484300
vn 0.351000 -0.820100 -0.451800
vn 0.033600 0.999400 0.000000
vn 0.001600 0.008400 1.000000
vn 0.199500 -0.683000 -0.702700
vn 0.027900 0.707200 0.706400
vn 0.199500 -0.683000 0.702700
vn 0.027900 0.707200 -0.706400
vn 0.280400 -0.959900 0.000000
vn 0.001600 0.008400 -1.000000
vn 0.960800 -0.277300 -0.000000
vn -0.988900 0.148300 0.000000
vn -0.938300 0.345800 0.000000
vn 0.813000 -0.582200 -0.000000
vn 0.981700 -0.190300 -0.000000
vn -0.994300 0.106800 0.000000
vn -0.805000 -0.593300 -0.000000
vn 0.986400 0.164600 -0.000000
vn -0.962900 -0.270000 -0.000000
vn 0.868100 -0.496400 -0.000000
vn 0.920000 0.391800 0.000000
vn 0.925900 -0.377800 0.000000
usemtl Black
f 134//7 117//7 114//7 138//7
f 39//8 113//8 118//8 40//8
f 115//2 40//2 46//2 131//2
f 141//9 134//9 138//9 147//9
f 144//10 140//10 45//10 135//10
f 140//11 148//11 137//11 45//11
f 45//4 137//4 113//4 39//4
f 135//4 45//4 39//4 112//4
f 40//2 118//2 133//2 46//2
f 111//12 112//12 115//12 116//12
f 49//13 47//13 53//13 56//13
f 55//14 57//14 66//14 51//14
f 63//15 61//15 52//15 65//15
f 54//16 58//16 64//16 60//16
f 48//17 50//17 58//17 54//17
f 62//18 59//18 63//18 57//18
f 47//19 48//19 54//19 53//19
f 51//20 66//20 69//20 70//20
f 50//21 49//21 56//21 58//21
f 57//22 63//22 65//22 66//22
f 56//23 53//23 59//23 62//23
f 64//24 62//24 57//24 55//24
f 53//25 54//25 60//25 59//25
f 59//26 60//26 61//26 63//26
f 58//27 56//27 62//27 64//27
f 60//28 64//28 55//28 61//28
f 49//29 50//29 48//29 47//29
f 61//30 55//30 51//30 52//30
f 70//31 69//31 73//31 74//31
f 52//32 51//32 70//32 68//32
f 65//33 52//33 68//33 67//33
f 66//34 65//34 67//34 69//34
f 73//2 71//2 75//2 77//2
f 69//2 67//2 71//2 73//2
f 67//35 68//35 72//35 71//35
f 68//4 70//4 74//4 72//4
f 76//4 78//4 82//4 80//4
f 71//5 72//5 76//5 75//5
f 72//4 74//4 78//4 76//4
f 74//6 73//6 77//6 78//6
f 81//2 79//2 83//2 85//2
f 78//36 77//36 81//36 82//36
f 77//2 75//2 79//2 81//2
f 75//37 76//37 80//37 79//37
f 85//2 83//2 87//2 89//2
f 79//38 80//38 84//38 83//38
f 80//4 82//4 86//4 84//4
f 82//39 81//39 85//39 86//39
f 88//40 90//40 94//40 92//40
f 83//41 84//41 88//41 87//41
f 84//4 86//4 90//4 88//4
f 86//42 85//42 89//42 90//42
f 93//43 91//43 95//43 97//43
f 90//44 89//44 93//44 94//44
f 89//45 87//45 91//45 93//45
f 87//46 88//46 92//46 91//46
f 95//47 96//47 100//47 99//47
f 91//48 92//48 96//48 95//48
f 92//49 94//49 98//49 96//49
f 94//50 93//50 97//50 98//50
f 100//4 102//4 106//4 104//4
f 96//4 98//4 102//4 100//4
f 98//51 97//51 101//51 102//51
f 97//2 95//2 99//2 101//2
f 105//5 103//5 104//5 106//5
f 102//3 101//3 105//3 106//3
f 101//2 99//2 103//2 105//2
f 99//52 100//52 104//52 103//52
f 132//53 116//53 115//53 131//53
f 138//54 114//54 113//54 137//54
f 145//55 132//55 131//55 146//55
f 117//56 134//56 133//56 118//56
f 111//57 136//57 135//57 112//57
f 147//58 138//58 137//58 148//58
f 116//59 132//59 136//59 111//59
f 118//60 113//60 114//60 117//60
f 115//61 112//61 39//61 40//61
f 136//62 143//62 144//62 135//62
f 134//63 141//63 142//63 133//63
f 131//64 46//64 139//64 146//64
f 132//65 145//65 143//65 136//65
f 46//66 133//66 142//66 139//66
f 250//67 247//67 260//67 262//67
f 240//68 237//68 258//68 256//68
f 181//69 241//69 255//69 254//69
f 238//70 239//70 257//70 259//70
f 252//71 251//71 263//71 264//71
f 241//72 240//72 256//72 255//72
f 251//73 181//73 254//73 263//73
f 247//74 248//74 261//74 260//74
f 260//75 261//75 273//75 272//75
f 258//76 259//76 271//76 270//76
f 257//2 253//2 188//2 269//2
f 253//2 262//2 274//2 188//2
f 262//77 260//77 272//77 274//77
f 259//78 257//78 269//78 271//78
f 261//79 264//79 276//79 273//79
f 255//80 256//80 268//80 267//80
f 237//81 238//81 259//81 258//81
f 239//82 189//82 253//82 257//82
f 189//83 250//83 262//83 253//83
f 248//84 252//84 264//84 261//84
f 256//85 258//85 270//85 268//85
f 263//4 254//4 265//4 275//4
f 264//86 263//86 275//86 276//86
f 254//4 255//4 267//4 265//4
f 731//87 730//87 748//87 745//87
f 733//88 732//88 749//88 746//88
f 728//89 727//89 743//89 747//89
f 730//90 729//90 744//90 748//90
f 547//91 546//91 554//91 555//91
f 545//92 544//92 552//92 553//92
f 550//93 549//93 557//93 558//93
f 548//94 547//94 555//94 556//94
f 546//95 545//95 553//95 554//95
f 544//96 543//96 551//96 552//96
f 543//97 550//97 558//97 551//97
f 549//98 548//98 556//98 557//98
f 555//99 554//99 565//99 564//99
f 557//100 556//100 563//100 562//100
f 551//101 558//101 561//101 566//101
f 552//102 551//102 566//102 560//102
f 554//103 553//103 559//103 565//103
f 556//104 555//104 564//104 563//104
f 558//105 557//105 562//105 561//105
f 553//106 552//106 560//106 559//106
f 640//107 572//107 568//107 636//107
f 641//108 573//108 569//108 637//108
f 642//109 574//109 571//109 639//109
f 635//110 567//110 570//110 638//110
f 638//111 570//111 572//111 640//111
f 636//112 568//112 573//112 641//112
f 637//113 569//113 574//113 642//113
f 705//114 706//114 724//114 720//114
f 617//115 618//115 718//115 717//115
f 707//116 708//116 725//116 721//116
f 616//117 617//117 717//117 716//117
f 709//118 710//118 726//118 722//118
f 615//119 616//119 716//119 715//119
f 710//120 703//120 719//120 726//120
f 614//121 615//121 715//121 714//121
f 607//122 623//122 622//122 606//122
f 605//123 621//123 620//123 604//123
f 610//124 626//124 625//124 609//124
f 608//125 624//125 623//125 607//125
f 606//126 622//126 621//126 605//126
f 604//127 620//127 619//127 603//127
f 603//128 619//128 626//128 610//128
f 609//129 625//129 624//129 608//129
f 614//130 613//130 673//130 674//130
f 623//131 632//131 633//131 622//131
f 625//132 630//132 631//132 624//132
f 619//133 634//133 629//133 626//133
f 620//134 628//134 634//134 619//134
f 622//135 633//135 627//135 621//135
f 624//136 631//136 632//136 623//136
f 626//137 629//137 630//137 625//137
f 621//138 627//138 628//138 620//138
f 639//139 571//139 567//139 635//139
f 678//140 677//140 685//140 686//140
f 612//141 611//141 671//141 672//141
f 611//142 618//142 678//142 671//142
f 617//143 616//143 676//143 677//143
f 615//144 614//144 674//144 675//144
f 613//145 612//145 672//145 673//145
f 618//146 617//146 677//146 678//146
f 616//147 615//147 675//147 676//147
f 676//148 675//148 683//148 684//148
f 674//149 673//149 681//149 682//149
f 672//150 671//150 679//150 680//150
f 671//151 678//151 686//151 679//151
f 677//152 676//152 684//152 685//152
f 675//153 674//153 682//153 683//153
f 673//154 672//154 680//154 681//154
f 694//155 687//155 695//155 702//155
f 693//156 741//156 742//156 694//156
f 691//157 739//157 740//157 692//157
f 689//158 737//158 738//158 690//158
f 694//159 742//159 735//159 687//159
f 692//160 740//160 741//160 693//160
f 690//161 738//161 739//161 691//161
f 688//162 736//162 737//162 689//162
f 692//163 693//163 701//163 700//163
f 690//164 691//164 699//164 698//164
f 688//165 689//165 697//165 696//165
f 693//166 694//166 702//166 701//166
f 691//167 692//167 700//167 699//167
f 689//168 690//168 698//168 697//168
f 687//169 688//169 696//169 695//169
f 604//170 709//170 708//170 605//170
f 606//171 707//171 706//171 607//171
f 608//172 705//172 704//172 609//172
f 610//173 703//173 710//173 603//173
f 603//174 710//174 709//174 604//174
f 605//175 708//175 707//175 606//175
f 607//176 706//176 705//176 608//176
f 609//177 704//177 703//177 610//177
f 723//178 717//178 718//178 719//178
f 724//179 715//179 716//179 720//179
f 725//180 713//180 714//180 721//180
f 726//181 711//181 712//181 722//181
f 719//182 718//182 711//182 726//182
f 720//183 716//183 717//183 723//183
f 721//184 714//184 715//184 724//184
f 722//185 712//185 713//185 725//185
f 618//186 611//186 711//186 718//186
f 703//187 704//187 723//187 719//187
f 611//188 612//188 712//188 711//188
f 708//189 709//189 722//189 725//189
f 612//190 613//190 713//190 712//190
f 706//191 707//191 721//191 724//191
f 613//192 614//192 714//192 713//192
f 704//193 705//193 720//193 723//193
f 544//194 545//194 732//194 733//194
f 546//195 547//195 730//195 731//195
f 548//196 549//196 728//196 729//196
f 550//197 543//197 734//197 727//197
f 543//198 544//198 733//198 734//198
f 545//199 546//199 731//199 732//199
f 547//200 548//200 729//200 730//200
f 549//201 550//201 727//201 728//201
f 747//202 743//202 742//202 741//202
f 748//203 744//203 740//203 739//203
f 749//204 745//204 738//204 737//204
f 750//205 746//205 736//205 735//205
f 743//206 750//206 735//206 742//206
f 744//207 747//207 741//207 740//207
f 745//208 748//208 739//208 738//208
f 746//209 749//209 737//209 736//209
f 729//210 728//210 747//210 744//210
f 727//211 734//211 750//211 743//211
f 734//212 733//212 746//212 750//212
f 732//213 731//213 745//213 749//213
f 687//214 735//214 736//214 688//214
f 751//215 752//215 754//215 753//215
f 753//216 754//216 756//216 755//216
f 755//217 756//217 758//217 757//217
f 757//218 758//218 760//218 759//218
f 759//219 760//219 762//219 761//219
f 761//220 762//220 764//220 763//220
f 754//5 752//5 766//5 764//5 762//5 760//5 758//5 756//5
f 763//221 764//221 766//221 765//221
f 765//222 766//222 752//222 751//222
f 751//6 753//6 755//6 757//6 759//6 761//6 763//6 765//6
f 767//223 768//223 770//223 769//223
f 769//224 770//224 772//224 771//224
f 771//225 772//225 774//225 773//225
f 773//226 774//226 776//226 775//226
f 775//227 776//227 778//227 777//227
f 777//228 778//228 780//228 779//228
f 770//4 768//4 782//4 780//4 778//4 776//4 774//4 772//4
f 779//229 780//229 782//229 781//229
f 781//230 782//230 768//230 767//230
f 767//2 769//2 771//2 773//2 775//2 777//2 779//2 781//2
usemtl DarkMetal
f 24//231 12//231 9//231 2//231
f 7//232 22//232 5//232 10//232
f 5//6 2//6 9//6 10//6
f 20//6 17//6 14//6 23//6
f 8//1 1//1 3//1 11//1
f 15//233 18//233 11//233 3//233
f 19//232 22//232 7//232 4//232
f 16//234 8//234 20//234 23//234
f 19//5 21//5 15//5 13//5
f 18//3 16//3 23//3 14//3
f 1//234 8//234 16//234 13//234
f 21//231 24//231 18//231 15//231
f 12//3 6//3 4//3 7//3
f 8//1 11//1 17//1 20//1
f 22//1 24//1 2//1 5//1
f 6//231 12//231 24//231 21//231
f 13//232 16//232 22//232 19//232
f 19//5 4//5 6//5 21//5
f 12//3 7//3 10//3 9//3
f 16//6 18//6 24//6 22//6
f 11//233 18//233 14//233 17//233
f 13//5 15//5 3//5 1//5
f 332//235 333//235 340//235 325//235
f 286//236 288//236 396//236 395//236
f 384//237 385//237 402//237 401//237
f 290//238 292//238 398//238 397//238
f 383//239 384//239 401//239 400//239
f 280//240 282//240 393//240 391//240
f 390//241 383//241 400//241 399//241
f 389//242 390//242 399//242 406//242
f 283//1 285//1 297//1 296//1
f 299//107 300//107 308//107 307//107
f 289//1 291//1 300//1 299//1
f 279//1 281//1 295//1 294//1
f 285//1 287//1 298//1 297//1
f 291//1 277//1 293//1 300//1
f 277//1 279//1 294//1 293//1
f 281//1 283//1 296//1 295//1
f 287//1 289//1 299//1 298//1
f 307//243 308//243 510//243 509//243
f 297//108 298//108 306//108 305//108
f 295//109 296//109 304//109 303//109
f 293//110 294//110 302//110 301//110
f 300//111 293//111 301//111 308//111
f 298//112 299//112 307//112 306//112
f 296//113 297//113 305//113 304//113
f 294//139 295//139 303//139 302//139
f 292//3 290//3 315//3 316//3
f 316//109 315//109 323//109 324//109
f 282//3 280//3 309//3 311//3
f 288//3 286//3 313//3 314//3
f 278//3 292//3 316//3 310//3
f 280//3 278//3 310//3 309//3
f 284//3 282//3 311//3 312//3
f 290//3 288//3 314//3 315//3
f 286//3 284//3 312//3 313//3
f 317//3 318//3 324//3 323//3 322//3 321//3 320//3 319//3
f 314//110 313//110 321//110 322//110
f 312//107 311//107 319//107 320//107
f 309//108 310//108 318//108 317//108
f 310//113 316//113 324//113 318//113
f 315//139 314//139 322//139 323//139
f 313//111 312//111 320//111 321//111
f 311//112 309//112 317//112 319//112
f 291//244 332//244 325//244 277//244
f 289//245 331//245 332//245 291//245
f 287//246 330//246 331//246 289//246
f 285//247 329//247 330//247 287//247
f 283//248 328//248 329//248 285//248
f 281//249 327//249 328//249 283//249
f 279//250 326//250 327//250 281//250
f 277//251 325//251 326//251 279//251
f 343//252 344//252 345//252 341//252
f 325//253 340//253 339//253 326//253
f 326//254 339//254 338//254 327//254
f 327//255 338//255 337//255 328//255
f 335//256 330//256 342//256 346//256
f 329//257 328//257 343//257 341//257
f 330//258 335//258 334//258 331//258
f 331//259 334//259 333//259 332//259
f 284//260 286//260 395//260 394//260
f 341//261 345//261 346//261 342//261
f 328//262 337//262 344//262 343//262
f 336//263 335//263 346//263 345//263
f 330//264 329//264 341//264 342//264
f 337//265 336//265 345//265 344//265
f 353//107 354//107 362//107 361//107
f 351//108 352//108 360//108 359//108
f 349//109 350//109 358//109 357//109
f 347//110 348//110 356//110 355//110
f 354//111 347//111 355//111 362//111
f 352//112 353//112 361//112 360//112
f 359//266 358//266 365//266 366//266
f 348//139 349//139 357//139 356//139
f 355//1 356//1 357//1 358//1 359//1 360//1 361//1 362//1
f 347//3 354//3 353//3 352//3 351//3 350//3 349//3 348//3
f 364//112 366//112 370//112 368//112
f 358//267 350//267 363//267 365//267
f 350//268 351//268 364//268 363//268
f 351//269 359//269 366//269 364//269
f 369//139 367//139 371//139 373//139
f 363//270 364//270 368//270 367//270
f 365//139 363//139 367//139 369//139
f 366//271 365//271 369//271 370//271
f 372//112 374//112 378//112 376//112
f 370//272 369//272 373//272 374//272
f 368//112 370//112 374//112 372//112
f 367//273 368//273 372//273 371//273
f 376//274 378//274 382//274 380//274
f 371//275 372//275 376//275 375//275
f 373//139 371//139 375//139 377//139
f 374//276 373//276 377//276 378//276
f 379//113 380//113 382//113 381//113
f 375//277 376//277 380//277 379//277
f 377//278 375//278 379//278 381//278
f 378//279 377//279 381//279 382//279
f 333//244 383//244 390//244 340//244
f 334//245 384//245 383//245 333//245
f 335//246 385//246 384//246 334//246
f 336//247 386//247 385//247 335//247
f 337//248 387//248 386//248 336//248
f 338//249 388//249 387//249 337//249
f 339//250 389//250 388//250 338//250
f 340//251 390//251 389//251 339//251
f 454//280 392//280 391//280 443//280
f 443//281 391//281 393//281 437//281
f 437//282 393//282 394//282 431//282
f 431//283 394//283 395//283 425//283
f 425//284 395//284 396//284 419//284
f 419//285 396//285 397//285 413//285
f 413//286 397//286 398//286 407//286
f 385//287 386//287 403//287 402//287
f 282//288 284//288 394//288 393//288
f 386//289 387//289 404//289 403//289
f 292//290 278//290 392//290 398//290
f 278//291 280//291 391//291 392//291
f 387//292 388//292 405//292 404//292
f 288//293 290//293 397//293 396//293
f 388//294 389//294 406//294 405//294
f 399//280 449//280 448//280 406//280
f 422//295 428//295 476//295 470//295
f 450//280 451//280 446//280 447//280
f 415//296 409//296 457//296 463//296
f 452//280 453//280 444//280 445//280
f 436//297 442//297 490//297 484//297
f 406//281 448//281 442//281 405//281
f 429//298 423//298 471//298 477//298
f 447//281 446//281 440//281 441//281
f 410//299 416//299 464//299 458//299
f 445//281 444//281 438//281 439//281
f 443//300 437//300 485//300 491//300
f 405//282 442//282 436//282 404//282
f 424//301 430//301 478//301 472//301
f 441//282 440//282 434//282 435//282
f 417//302 411//302 459//302 465//302
f 439//282 438//282 432//282 433//282
f 438//303 444//303 492//303 486//303
f 404//283 436//283 430//283 403//283
f 431//304 425//304 473//304 479//304
f 435//283 434//283 428//283 429//283
f 412//305 418//305 466//305 460//305
f 433//283 432//283 426//283 427//283
f 445//306 439//306 487//306 493//306
f 403//284 430//284 424//284 402//284
f 426//307 432//307 480//307 474//307
f 429//284 428//284 422//284 423//284
f 419//308 413//308 461//308 467//308
f 427//284 426//284 420//284 421//284
f 440//309 446//309 494//309 488//309
f 402//285 424//285 418//285 401//285
f 433//310 427//310 475//310 481//310
f 423//285 422//285 416//285 417//285
f 414//311 420//311 468//311 462//311
f 421//285 420//285 414//285 415//285
f 447//312 441//312 489//312 495//312
f 401//286 418//286 412//286 400//286
f 407//313 454//313 502//313 455//313
f 417//286 416//286 410//286 411//286
f 428//314 434//314 482//314 476//314
f 415//286 414//286 408//286 409//286
f 421//315 415//315 463//315 469//315
f 400//316 412//316 449//316 399//316
f 442//317 448//317 496//317 490//317
f 411//316 410//316 451//316 450//316
f 453//318 408//318 456//318 501//318
f 409//316 408//316 453//316 452//316
f 435//319 429//319 477//319 483//319
f 497//280 498//280 495//280 496//280
f 499//280 500//280 493//280 494//280
f 501//280 502//280 491//280 492//280
f 496//281 495//281 489//281 490//281
f 494//281 493//281 487//281 488//281
f 492//281 491//281 485//281 486//281
f 490//282 489//282 483//282 484//282
f 488//282 487//282 481//282 482//282
f 486//282 485//282 479//282 480//282
f 484//283 483//283 477//283 478//283
f 482//283 481//283 475//283 476//283
f 480//283 479//283 473//283 474//283
f 478//284 477//284 471//284 472//284
f 476//284 475//284 469//284 470//284
f 474//284 473//284 467//284 468//284
f 472//285 471//285 465//285 466//285
f 470//285 469//285 463//285 464//285
f 468//285 467//285 461//285 462//285
f 466//286 465//286 459//286 460//286
f 464//286 463//286 457//286 458//286
f 462//286 461//286 455//286 456//286
f 460//316 459//316 498//316 497//316
f 458//316 457//316 500//316 499//316
f 456//316 455//316 502//316 501//316
f 441//320 435//320 483//320 489//320
f 408//321 414//321 462//321 456//321
f 448//322 449//322 497//322 496//322
f 427//323 421//323 469//323 475//323
f 434//324 440//324 488//324 482//324
f 413//325 407//325 455//325 461//325
f 450//326 447//326 495//326 498//326
f 420//327 426//327 474//327 468//327
f 439//328 433//328 481//328 487//328
f 449//329 412//329 460//329 497//329
f 446//330 451//330 499//330 494//330
f 425//331 419//331 467//331 473//331
f 432//332 438//332 486//332 480//332
f 411//333 450//333 498//333 459//333
f 452//334 445//334 493//334 500//334
f 418//335 424//335 472//335 466//335
f 437//336 431//336 479//336 485//336
f 451//337 410//337 458//337 499//337
f 444//338 453//338 501//338 492//338
f 423//339 417//339 465//339 471//339
f 430//340 436//340 484//340 478//340
f 409//341 452//341 500//341 457//341
f 454//342 443//342 491//342 502//342
f 416//343 422//343 470//343 464//343
f 407//316 398//316 392//316 454//316
f 509//344 510//344 518//344 517//344
f 305//345 306//345 508//345 507//345
f 303//346 304//346 506//346 505//346
f 301//347 302//347 504//347 503//347
f 308//348 301//348 503//348 510//348
f 306//349 307//349 509//349 508//349
f 304//350 305//350 507//350 506//350
f 302//351 303//351 505//351 504//351
f 511//1 512//1 513//1 514//1 515//1 516//1 517//1 518//1
f 507//352 508//352 516//352 515//352
f 505//353 506//353 514//353 513//353
f 503//354 504//354 512//354 511//354
f 510//355 503//355 511//355 518//355
f 508//356 509//356 517//356 516//356
f 506//357 507//357 515//357 514//357
f 504//358 505//358 513//358 512//358
f 573//359 568//359 588//359 579//359
f 566//360 561//360 578//360 585//360
f 574//361 569//361 589//361 581//361
f 562//362 563//362 580//362 584//362
f 567//363 571//363 575//363 587//363
f 564//364 565//364 582//364 583//364
f 568//365 572//365 577//365 588//365
f 559//366 560//366 586//366 576//366
f 583//367 582//367 581//367 589//367
f 584//112 580//112 579//112 588//112
f 585//111 578//111 577//111 590//111
f 586//368 585//368 590//368 587//368
f 575//369 581//369 593//369 591//369
f 580//108 583//108 589//108 579//108
f 578//107 584//107 588//107 577//107
f 576//370 586//370 595//370 592//370
f 560//371 566//371 585//371 586//371
f 572//372 570//372 590//372 577//372
f 565//373 559//373 576//373 582//373
f 570//374 567//374 587//374 590//374
f 563//375 564//375 583//375 580//375
f 571//376 574//376 581//376 575//376
f 561//377 562//377 584//377 578//377
f 569//378 573//378 579//378 589//378
f 592//379 595//379 601//379 598//379
f 591//380 593//380 599//380 597//380
f 581//381 582//381 594//381 593//381
f 587//382 575//382 591//382 596//382
f 586//383 587//383 596//383 595//383
f 582//384 576//384 592//384 594//384
f 600//385 598//385 597//385 599//385
f 598//386 601//386 602//386 597//386
f 593//387 594//387 600//387 599//387
f 596//388 591//388 597//388 602//388
f 595//389 596//389 602//389 601//389
f 594//390 592//390 598//390 600//390
f 641//362 647//362 656//362 636//362
f 634//372 653//372 646//372 629//372
f 642//364 649//364 657//364 637//364
f 630//359 652//359 648//359 631//359
f 635//366 655//366 643//366 639//366
f 632//361 651//361 650//361 633//361
f 636//377 656//377 645//377 640//377
f 627//363 644//363 654//363 628//363
f 651//367 657//367 649//367 650//367
f 652//112 656//112 647//112 648//112
f 653//111 658//111 645//111 646//111
f 654//368 655//368 658//368 653//368
f 643//384 659//384 661//384 649//384
f 648//108 647//108 657//108 651//108
f 646//107 645//107 656//107 652//107
f 644//382 660//382 663//382 654//382
f 628//374 654//374 653//374 634//374
f 640//360 645//360 658//360 638//360
f 633//376 650//376 644//376 627//376
f 638//371 658//371 655//371 635//371
f 631//378 648//378 651//378 632//378
f 639//373 643//373 649//373 642//373
f 629//365 646//365 652//365 630//365
f 637//375 657//375 647//375 641//375
f 660//388 666//388 669//388 663//388
f 659//390 665//390 667//390 661//390
f 649//381 661//381 662//381 650//381
f 655//370 664//370 659//370 643//370
f 654//383 663//383 664//383 655//383
f 650//369 662//369 660//369 644//369
f 668//385 667//385 665//385 666//385
f 666//386 665//386 670//386 669//386
f 661//387 667//387 668//387 662//387
f 664//379 670//379 665//379 659//379
f 663//389 669//389 670//389 664//389
f 662//380 668//380 666//380 660//380
usemtl LightMetal
f 41//391 128//391 130//391 25//391 43//391
f 124//392 123//392 42//392 44//392 28//392
f 42//393 119//393 121//393 27//393 44//393
f 198//394 149//394 159//394 200//394
f 150//395 25//395 31//395 167//395
f 28//396 44//396 201//396 158//396
f 44//397 27//397 156//397 201//397
f 109//398 110//398 233//398 234//398 235//398 236//398
f 207//399 204//399 173//399 176//399
f 161//400 29//400 107//400 203//400
f 235//5 234//5 230//5 228//5
f 31//401 32//401 30//401 110//401 29//401
f 25//402 28//402 32//402 31//402
f 164//403 162//403 204//403 207//403
f 43//404 25//404 150//404 197//404
f 26//405 43//405 197//405 152//405
f 107//5 109//5 108//5 34//5 33//5
f 237//406 240//406 183//406 185//406
f 36//5 38//5 194//5 196//5 195//5 191//5 193//5 192//5
f 110//407 30//407 231//407 233//407
f 38//4 186//4 218//4 224//4 221//4 194//4
f 249//2 245//2 35//2 179//2
f 244//5 243//5 38//5 36//5
f 222//3 210//3 191//3 195//3
f 245//5 246//5 37//5 35//5
f 182//2 36//2 192//2 209//2 215//2 212//2
f 210//408 222//408 225//408 216//408
f 203//409 107//409 33//409 174//409
f 242//2 244//2 36//2 182//2
f 185//410 183//410 213//410 219//410
f 28//411 158//411 171//411 32//411
f 27//412 26//412 152//412 154//412 153//412 155//412 157//412 156//412
f 153//413 198//413 200//413 155//413
f 127//414 126//414 41//414 43//414 26//414
f 130//415 129//415 122//415 124//415 28//415 25//415
f 121//416 120//416 125//416 127//416 26//416 27//416
f 170//417 168//417 162//417 164//417
f 32//418 171//418 165//418 232//418 231//418 30//418
f 29//5 110//5 109//5 107//5
f 167//419 31//419 29//419 161//419
f 246//4 250//4 189//4 37//4
f 108//420 227//420 229//420 206//420 177//420 34//420
f 229//421 228//421 230//421 232//421 165//421 206//421
f 216//422 225//422 219//422 213//422
f 243//4 239//4 186//4 38//4
f 119//423 120//423 121//423
f 122//424 123//424 124//424
f 125//425 126//425 127//425
f 128//426 129//426 130//426
f 198//427 153//427 154//427 199//427
f 199//428 154//428 152//428 197//428
f 201//429 156//429 157//429 202//429
f 202//430 157//430 155//430 200//430
f 168//431 149//431 151//431 169//431
f 169//432 151//432 150//432 167//432
f 171//433 158//433 160//433 172//433
f 172//434 160//434 159//434 170//434
f 162//435 168//435 169//435 163//435
f 163//436 169//436 167//436 161//436
f 165//437 171//437 172//437 166//437
f 166//438 172//438 170//438 164//438
f 204//439 162//439 163//439 205//439
f 205//440 163//440 161//440 203//440
f 207//441 176//441 178//441 208//441
f 208//442 178//442 177//442 206//442
f 176//443 173//443 252//443 248//443
f 250//444 177//444 178//444 247//444
f 249//445 179//445 181//445 251//445
f 242//446 182//446 184//446 241//446
f 241//447 184//447 183//447 240//447
f 149//448 198//448 199//448 151//448
f 151//449 199//449 197//449 150//449
f 158//450 201//450 202//450 160//450
f 160//451 202//451 200//451 159//451
f 173//452 204//452 205//452 175//452
f 175//453 205//453 203//453 174//453
f 164//454 207//454 208//454 166//454
f 166//455 208//455 206//455 165//455
f 215//456 209//456 211//456 217//456
f 217//457 211//457 210//457 216//457
f 221//458 224//458 226//458 223//458
f 223//459 226//459 225//459 222//459
f 212//460 215//460 217//460 214//460
f 214//461 217//461 216//461 213//461
f 224//462 218//462 220//462 226//462
f 226//463 220//463 219//463 225//463
f 218//464 186//464 187//464 220//464
f 220//465 187//465 185//465 219//465
f 182//466 212//466 214//466 184//466
f 184//467 214//467 213//467 183//467
f 191//468 210//468 211//468 193//468
f 193//469 211//469 209//469 192//469
f 194//470 221//470 223//470 196//470
f 196//471 223//471 222//471 195//471
f 159//472 149//472 168//472 170//472
f 227//473 228//473 229//473
f 230//474 231//474 232//474
f 233//475 231//475 230//475 234//475
f 227//476 236//476 235//476 228//476
f 108//477 109//477 236//477 227//477
f 174//478 249//478 251//478 175//478
f 35//5 37//5 243//5 244//5
f 37//4 189//4 239//4 243//4
f 179//446 242//446 241//446 181//446
f 186//479 239//479 238//479 187//479
f 179//2 35//2 244//2 242//2
f 247//480 178//480 176//480 248//480
f 34//4 177//4 250//4 246//4
f 33//5 34//5 246//5 245//5
f 174//2 33//2 245//2 249//2
f 187//481 238//481 237//481 185//481
f 175//482 251//482 252//482 173//482
f 273//6 276//6 266//6 180//6
f 269//6 188//6 190//6 271//6
f 271//6 190//6 180//6 270//6
f 180//6 266//6 268//6 270//6
f 275//6 265//6 266//6 276//6
f 265//6 267//6 268//6 266//6
f 188//6 274//6 272//6 190//6
f 190//6 272//6 273//6 180//6
f 129//483 141//483 147//483 122//483
f 42//4 140//4 144//4 119//4
f 123//484 148//484 140//484 42//484
f 125//485 145//485 146//485 126//485
f 122//486 147//486 148//486 123//486
f 143//487 120//487 119//487 144//487
f 141//488 129//488 128//488 142//488
f 139//2 41//2 126//2 146//2
f 145//489 125//489 120//489 143//489
f 142//490 128//490 41//490 139//490
usemtl Grey
f 524//5 520//5 519//5 523//5
f 525//2 521//2 527//2 529//2
f 523//2 519//2 521//2 525//2
f 519//491 520//491 522//491 521//491
f 520//4 524//4 526//4 522//4
f 526//492 524//492 523//492 525//492
f 528//4 530//4 534//4 532//4
f 522//4 526//4 530//4 528//4
f 526//493 525//493 529//493 530//493
f 521//494 522//494 528//494 527//494
f 532//4 534//4 538//4 536//4
f 527//495 528//495 532//495 531//495
f 530//496 529//496 533//496 534//496
f 529//2 527//2 531//2 533//2
f 538//497 537//497 541//497 542//497
f 531//498 532//498 536//498 535//498
f 534//499 533//499 537//499 538//499
f 533//2 531//2 535//2 537//2
f 542//500 541//500 539//500 540//500
f 537//2 535//2 539//2 541//2
f 536//4 538//4 542//4 540//4
f 535//501 536//501 540//501 539//501
usemtl Glass
f 679//502 686//502 685//502 684//502 683//502 682//502 681//502 680//502
f 695//1 696//1 697//1 698//1 699//1 700//1 701//1 702//1
