mtllib sniper_parts.mtl
o Magazine
v -0.017451 0.282904 0.118627
v -0.017451 0.059146 0.084011
v -0.017451 -0.033537 0.000440
v -0.017451 0.059146 -0.083131
v -0.017451 0.282904 -0.117747
v -0.017451 0.506662 -0.083131
v -0.017451 0.599345 0.000440
v -0.017451 0.506662 0.084011
v 0.474555 0.282904 0.118627
v 0.474555 0.059146 0.084011
v 0.474555 -0.033538 0.000440
v 0.474555 0.059146 -0.083131
v 0.474555 0.282904 -0.117747
v 0.474555 0.506662 -0.083131
v 0.474555 0.599345 0.000440
v 0.474555 0.506662 0.084011
v -0.109138 0.103748 0.067353
v -0.109138 0.282904 0.095069
v -0.109138 0.029539 0.000440
v -0.109138 0.103748 -0.066472
v -0.109138 0.282904 -0.094188
v -0.109138 0.462060 -0.066472
v -0.109138 0.536269 0.000440
v -0.109138 0.462060 0.067353
v -0.210093 0.138824 0.054252
v -0.210093 0.282904 0.076542
v -0.210093 0.079144 0.000440
v -0.210093 0.138824 -0.053372
v -0.210093 0.282904 -0.075661
v -0.210093 0.426983 -0.053372
v -0.210093 0.486663 0.000440
v -0.210093 0.426983 0.054252
v -0.305618 0.255932 0.010514
v -0.305618 0.282904 0.014686
v -0.305618 0.244760 0.000440
v -0.305618 0.255932 -0.009634
v -0.305618 0.282904 -0.013806
v -0.305618 0.309876 -0.009634
v -0.305618 0.321048 0.000440
v -0.305618 0.309876 0.010514
v 0.508097 -4.388462 -0.173245
v 0.508097 -4.388462 0.172348
v -0.340353 -4.388462 -0.173245
v -0.340353 -4.388462 0.169743
v 0.508097 0.764341 -0.173245
v 0.508097 0.764341 0.172348
v -0.340353 0.764340 -0.173245
v -0.340353 0.764340 0.169743
v 0.471429 0.764341 -0.128858
v 0.471429 0.764341 0.127625
v -0.303686 0.764340 -0.128858
v -0.303686 0.764340 0.125691
v 0.471429 0.030746 -0.128858
v 0.471429 0.030746 0.127625
v -0.303686 0.030746 -0.128858
v -0.303686 0.030746 0.125691
vt 0.574161 0.106627
vt 0.557874 0.108067
vt 0.555578 0.074393
vt 0.568619 0.073240
vt 0.715160 0.130878
vt 0.692126 0.130878
vt 0.675839 0.113996
vt 0.675839 0.090122
vt 0.692126 0.073240
vt 0.715160 0.073240
vt 0.731448 0.090122
vt 0.731448 0.113996
vt 0.557874 0.108067
vt 0.574161 0.106627
vt 0.574161 0.284695
vt 0.557874 0.286135
vt 0.518552 0.106627
vt 0.534840 0.108067
vt 0.534840 0.286135
vt 0.518552 0.284695
vt 0.613483 0.106627
vt 0.629771 0.108066
vt 0.629771 0.286135
vt 0.613483 0.284695
vt 0.613483 0.251309
vt 0.590449 0.251309
vt 0.590449 0.073240
vt 0.613483 0.073240
vt 0.534840 0.108067
vt 0.557874 0.108067
vt 0.557874 0.286135
vt 0.534840 0.286135
vt 0.629771 0.108066
vt 0.652805 0.108066
vt 0.652805 0.286135
vt 0.629771 0.286135
vt 0.652805 0.106914
vt 0.675839 0.106914
vt 0.675839 0.284982
vt 0.652805 0.284982
vt 0.590449 0.251309
vt 0.574161 0.252748
vt 0.574161 0.074680
vt 0.590449 0.073240
vt 0.623602 0.281637
vt 0.612452 0.275930
vt 0.616178 0.218373
vt 0.625145 0.222963
vt 0.534840 0.108067
vt 0.518552 0.106627
vt 0.524095 0.073240
vt 0.537135 0.074393
vt 0.629771 0.108066
vt 0.613483 0.106627
vt 0.619025 0.073240
vt 0.632066 0.074393
vt 0.590449 0.251309
vt 0.613483 0.251309
vt 0.611187 0.284982
vt 0.592745 0.284982
vt 0.557874 0.108067
vt 0.534840 0.108067
vt 0.537135 0.074393
vt 0.555578 0.074393
vt 0.652805 0.108066
vt 0.629771 0.108066
vt 0.632066 0.074393
vt 0.650509 0.074393
vt 0.675839 0.106914
vt 0.652805 0.106914
vt 0.655100 0.073240
vt 0.673543 0.073240
vt 0.574161 0.252748
vt 0.590449 0.251309
vt 0.592745 0.284982
vt 0.579704 0.286135
vt 0.604235 0.225381
vt 0.612452 0.233738
vt 0.593875 0.283291
vt 0.592337 0.281727
vt 0.650356 0.279957
vt 0.639370 0.273148
vt 0.644604 0.216037
vt 0.653439 0.221513
vt 0.555530 0.165854
vt 0.571175 0.162021
vt 0.573412 0.220611
vt 0.560830 0.223693
vt 0.639370 0.281637
vt 0.623602 0.281637
vt 0.625145 0.222963
vt 0.637827 0.222963
vt 0.666104 0.281525
vt 0.650356 0.279957
vt 0.653439 0.221513
vt 0.666104 0.222774
vt 0.597079 0.162021
vt 0.612452 0.168846
vt 0.604235 0.225381
vt 0.591871 0.219893
vt 0.544834 0.174227
vt 0.555530 0.165854
vt 0.560830 0.223693
vt 0.552229 0.230427
vt 0.571175 0.162021
vt 0.582604 0.164974
vt 0.582604 0.222986
vt 0.573412 0.220611
vt 0.625000 0.292500
vt 0.669548 0.261746
vt 0.688000 0.187500
vt 0.669548 0.113254
vt 0.625000 0.082500
vt 0.580452 0.113254
vt 0.562000 0.187500
vt 0.580452 0.261746
vt 0.573412 0.220611
vt 0.582604 0.222986
vt 0.573879 0.281920
vt 0.572159 0.281475
vt 0.625145 0.222963
vt 0.616178 0.218373
vt 0.628620 0.162021
vt 0.630299 0.162881
vt 0.582604 0.220487
vt 0.591871 0.219893
vt 0.590022 0.280699
vt 0.588288 0.280811
vt 0.560830 0.223693
vt 0.573412 0.220611
vt 0.572159 0.281475
vt 0.569803 0.282052
vt 0.637827 0.222963
vt 0.625145 0.222963
vt 0.630299 0.162881
vt 0.632673 0.162881
vt 0.666104 0.222774
vt 0.653439 0.221513
vt 0.660165 0.162021
vt 0.662535 0.162257
vt 0.591871 0.219893
vt 0.604235 0.225381
vt 0.592337 0.281727
vt 0.590022 0.280699
vt 0.369028 0.253789
vt 0.370797 0.253789
vt 0.370784 0.265483
vt 0.369028 0.265483
vt 0.367259 0.265483
vt 0.367259 0.253789
vt 0.367486 0.254295
vt 0.367486 0.264978
vt 0.373237 0.253789
vt 0.373237 0.234517
vt 0.379216 0.234517
vt 0.379216 0.253789
vt 0.382741 0.234517
vt 0.382741 0.253789
vt 0.380985 0.253789
vt 0.380985 0.234517
vt 0.367259 0.253789
vt 0.367259 0.234517
vt 0.373237 0.234517
vt 0.373237 0.253789
vt 0.380985 0.234517
vt 0.380985 0.253789
vt 0.379216 0.253789
vt 0.379216 0.234517
vt 0.372200 0.253789
vt 0.372200 0.264472
vt 0.370797 0.264472
vt 0.370797 0.253789
vt 0.367259 0.253789
vt 0.369015 0.253789
vt 0.368789 0.254295
vt 0.367486 0.254295
vt 0.369015 0.253789
vt 0.369028 0.265483
vt 0.368799 0.264978
vt 0.368789 0.254295
vt 0.369028 0.265483
vt 0.367259 0.265483
vt 0.367486 0.264978
vt 0.368799 0.264978
vt 0.377903 0.264472
vt 0.377903 0.253789
vt 0.379206 0.253789
vt 0.379216 0.264472
vt 0.376589 0.253789
vt 0.377903 0.253789
vt 0.377903 0.256533
vt 0.376589 0.256533
vt 0.380619 0.253789
vt 0.380619 0.264472
vt 0.379216 0.264472
vt 0.379216 0.253789
vt 0.375286 0.253789
vt 0.376589 0.253789
vt 0.376589 0.256533
vt 0.375286 0.256533
vn -0.418423 0.608214 -0.674536
vn -0.418423 0.608214 -0.674536
vn -0.418423 0.608214 -0.674536
vn -0.418423 0.608214 -0.674536
vn 1.000000 0.000000 0.000000
vn 1.000000 0.000000 0.000000
vn 1.000000 0.000000 0.000000
vn 1.000000 0.000000 0.000000
vn 1.000000 0.000000 0.000000
vn 1.000000 0.000000 0.000000
vn 1.000000 0.000000 0.000000
vn 1.000000 0.000000 0.000000
vn -0.000000 0.669653 -0.742674
vn -0.000000 0.669653 -0.742674
vn -0.000000 0.669653 -0.742674
vn -0.000000 0.669653 -0.742674
vn -0.000000 -0.152885 -0.988244
vn -0.000000 -0.152885 -0.988244
vn -0.000000 -0.152885 -0.988244
vn -0.000000 -0.152885 -0.988244
vn -0.000000 -0.669653 0.742674
vn -0.000000 -0.669653 0.742674
vn -0.000000 -0.669653 0.742674
vn -0.000000 -0.669653 0.742674
vn -0.000000 0.669653 0.742674
vn -0.000000 0.669653 0.742674
vn -0.000000 0.669653 0.742674
vn -0.000000 0.669653 0.742674
vn 0.000000 0.152885 -0.988244
vn 0.000000 0.152885 -0.988244
vn 0.000000 0.152885 -0.988244
vn 0.000000 0.152885 -0.988244
vn -0.000000 -0.669653 -0.742674
vn -0.000000 -0.669653 -0.742674
vn -0.000000 -0.669653 -0.742674
vn -0.000000 -0.669653 -0.742674
vn 0.000000 -0.152885 0.988244
vn 0.000000 -0.152885 0.988244
vn 0.000000 -0.152885 0.988244
vn 0.000000 -0.152885 0.988244
vn 0.000000 0.152885 0.988244
vn 0.000000 0.152885 0.988244
vn 0.000000 0.152885 0.988244
vn 0.000000 0.152885 0.988244
vn -0.178450 -0.150431 -0.972382
vn -0.178450 -0.150431 -0.972382
vn -0.178450 -0.150431 -0.972382
vn -0.178450 -0.150431 -0.972382
vn -0.246111 -0.148182 -0.957847
vn -0.246111 -0.148182 -0.957847
vn -0.246111 -0.148182 -0.957847
vn -0.246111 -0.148182 -0.957847
vn -0.418424 -0.608214 0.674535
vn -0.418424 -0.608214 0.674535
vn -0.418424 -0.608214 0.674535
vn -0.418424 -0.608214 0.674535
vn -0.418423 0.608214 0.674536
vn -0.418423 0.608214 0.674536
vn -0.418423 0.608214 0.674536
vn -0.418423 0.608214 0.674536
vn -0.246112 0.148183 -0.957847
vn -0.246112 0.148183 -0.957847
vn -0.246112 0.148183 -0.957847
vn -0.246112 0.148183 -0.957847
vn -0.418423 -0.608214 -0.674535
vn -0.418423 -0.608214 -0.674535
vn -0.418423 -0.608214 -0.674535
vn -0.418423 -0.608214 -0.674535
vn -0.246112 -0.148182 0.957847
vn -0.246112 -0.148182 0.957847
vn -0.246112 -0.148182 0.957847
vn -0.246112 -0.148182 0.957847
vn -0.246112 0.148182 0.957847
vn -0.246112 0.148182 0.957847
vn -0.246112 0.148182 0.957847
vn -0.246112 0.148182 0.957847
vn -0.539003 0.128775 0.832402
vn -0.539003 0.128775 0.832402
vn -0.539003 0.128775 0.832402
vn -0.539003 0.128775 0.832402
vn -0.312556 -0.636102 0.705466
vn -0.312556 -0.636102 0.705466
vn -0.312556 -0.636102 0.705466
vn -0.312556 -0.636102 0.705466
vn -0.312557 0.636103 0.705465
vn -0.312557 0.636103 0.705465
vn -0.312557 0.636103 0.705465
vn -0.312557 0.636103 0.705465
vn -0.178449 0.150431 -0.972382
vn -0.178449 0.150431 -0.972382
vn -0.178449 0.150431 -0.972382
vn -0.178449 0.150431 -0.972382
vn -0.312557 -0.636103 -0.705465
vn -0.312557 -0.636103 -0.705465
vn -0.312557 -0.636103 -0.705465
vn -0.312557 -0.636103 -0.705465
vn -0.178449 -0.150431 0.972382
vn -0.178449 -0.150431 0.972382
vn -0.178449 -0.150431 0.972382
vn -0.178449 -0.150431 0.972382
vn -0.178449 0.150431 0.972382
vn -0.178449 0.150431 0.972382
vn -0.178449 0.150431 0.972382
vn -0.178449 0.150431 0.972382
vn -0.312557 0.636103 -0.705465
vn -0.312557 0.636103 -0.705465
vn -0.312557 0.636103 -0.705465
vn -0.312557 0.636103 -0.705465
vn -1.000000 0.000000 0.000000
vn -1.000000 0.000000 0.000000
vn -1.000000 0.000000 0.000000
vn -1.000000 0.000000 0.000000
vn -1.000000 0.000000 0.000000
vn -1.000000 0.000000 0.000000
vn -1.000000 0.000000 0.000000
vn -1.000000 0.000000 0.000000
vn -0.757688 0.437027 -0.484681
vn -0.757688 0.437027 -0.484681
vn -0.757688 0.437027 -0.484681
vn -0.757688 0.437027 -0.484681
vn -0.539003 -0.128776 -0.832402
vn -0.539003 -0.128776 -0.832402
vn -0.539003 -0.128776 -0.832402
vn -0.539003 -0.128776 -0.832402
vn -0.757688 -0.437027 0.484681
vn -0.757688 -0.437027 0.484681
vn -0.757688 -0.437027 0.484681
vn -0.757688 -0.437027 0.484681
vn -0.757688 0.437027 0.484681
vn -0.757688 0.437027 0.484681
vn -0.757688 0.437027 0.484681
vn -0.757688 0.437027 0.484681
vn -0.539003 0.128775 -0.832402
vn -0.539003 0.128775 -0.832402
vn -0.539003 0.128775 -0.832402
vn -0.539003 0.128775 -0.832402
vn -0.757688 -0.437027 -0.484681
vn -0.757688 -0.437027 -0.484681
vn -0.757688 -0.437027 -0.484681
vn -0.757688 -0.437027 -0.484681
vn -0.539003 -0.128775 0.832402
vn -0.539003 -0.128775 0.832402
vn -0.539003 -0.128775 0.832402
vn -0.539003 -0.128775 0.832402
vn 0.000000 -1.000000 -0.000001
vn 0.000000 -1.000000 -0.000001
vn 0.000000 -1.000000 -0.000001
vn 0.000000 -1.000000 -0.000001
vn -0.000000 1.000000 0.000003
vn -0.000000 1.000000 0.000003
vn -0.000000 1.000000 0.000003
vn -0.000000 1.000000 0.000003
vn -0.000000 0.000000 -1.000000
vn -0.000000 0.000000 -1.000000
vn -0.000000 0.000000 -1.000000
vn -0.000000 0.000000 -1.000000
vn -1.000000 -0.000000 0.000000
vn -1.000000 -0.000000 0.000000
vn -1.000000 -0.000000 0.000000
vn -1.000000 -0.000000 0.000000
vn -0.003071 -0.000000 0.999995
vn -0.003071 -0.000000 0.999995
vn -0.003071 -0.000000 0.999995
vn -0.003071 -0.000000 0.999995
vn 1.000000 0.000000 -0.000000
vn 1.000000 0.000000 -0.000000
vn 1.000000 0.000000 -0.000000
vn 1.000000 0.000000 -0.000000
vn 0.002495 -0.000000 -0.999997
vn 0.002495 -0.000000 -0.999997
vn 0.002495 -0.000000 -0.999997
vn 0.002495 -0.000000 -0.999997
vn 0.000002 1.000000 0.000000
vn 0.000002 1.000000 0.000000
vn 0.000002 1.000000 0.000000
vn 0.000002 1.000000 0.000000
vn -0.000000 1.000000 -0.000003
vn -0.000000 1.000000 -0.000003
vn -0.000000 1.000000 -0.000003
vn -0.000000 1.000000 -0.000003
vn -0.000002 1.000000 0.000000
vn -0.000002 1.000000 0.000000
vn -0.000002 1.000000 0.000000
vn -0.000002 1.000000 0.000000
vn -0.000000 1.000000 0.000000
vn -0.000000 1.000000 0.000000
vn -0.000000 1.000000 0.000000
vn -0.000000 1.000000 0.000000
vn -1.000000 0.000000 0.000000
vn -1.000000 0.000000 0.000000
vn -1.000000 0.000000 0.000000
vn -1.000000 0.000000 0.000000
vn 0.000000 0.000000 1.000000
vn 0.000000 0.000000 1.000000
vn 0.000000 0.000000 1.000000
vn 0.000000 0.000000 1.000000
vn 1.000000 0.000000 0.000000
vn 1.000000 0.000000 0.000000
vn 1.000000 0.000000 0.000000
vn 1.000000 0.000000 0.000000
usemtl SniperPallet
f 7/1/1 6/2/2 22/3/3 23/4/4
f 10/5/5 11/6/6 12/7/7 13/8/8 14/9/9 15/10/10 16/11/11 9/12/12
f 6/13/13 7/14/14 15/15/15 14/16/16
f 4/17/17 5/18/18 13/19/19 12/20/20
f 2/21/21 3/22/22 11/23/23 10/24/24
f 7/25/25 8/26/26 16/27/27 15/28/28
f 5/29/29 6/30/30 14/31/31 13/32/32
f 3/33/33 4/34/34 12/35/35 11/36/36
f 1/37/37 2/38/38 10/39/39 9/40/40
f 8/41/41 1/42/42 9/43/43 16/44/44
f 21/45/45 20/46/46 28/47/47 29/48/48
f 5/49/49 4/50/50 20/51/51 21/52/52
f 3/53/53 2/54/54 17/55/55 19/56/56
f 8/57/57 7/58/58 23/59/59 24/60/60
f 6/61/61 5/62/62 21/63/63 22/64/64
f 4/65/65 3/66/66 19/67/67 20/68/68
f 2/69/69 1/70/70 18/71/71 17/72/72
f 1/73/73 8/74/74 24/75/75 18/76/76
f 26/77/77 32/78/78 40/79/79 34/80/80
f 19/81/81 17/82/82 25/83/83 27/84/84
f 24/85/85 23/86/86 31/87/87 32/88/88
f 22/89/89 21/90/90 29/91/91 30/92/92
f 20/93/93 19/94/94 27/95/95 28/96/96
f 17/97/97 18/98/98 26/99/99 25/100/100
f 18/101/101 24/102/102 32/103/103 26/104/104
f 23/105/105 22/106/106 30/107/107 31/108/108
f 33/109/109 34/110/110 40/111/111 39/112/112 38/113/113 37/114/114 36/115/115 35/116/116
f 31/117/117 30/118/118 38/119/119 39/120/120
f 29/121/121 28/122/122 36/123/123 37/124/124
f 27/125/125 25/126/126 33/127/127 35/128/128
f 32/129/129 31/130/130 39/131/131 40/132/132
f 30/133/133 29/134/134 37/135/135 38/136/136
f 28/137/137 27/138/138 35/139/139 36/140/140
f 25/141/141 26/142/142 34/143/143 33/144/144
f 41/145/145 42/146/146 44/147/147 43/148/148
f 45/149/149 47/150/150 51/151/151 49/152/152
f 43/153/153 47/154/154 45/155/155 41/156/156
f 44/157/157 48/158/158 47/159/159 43/160/160
f 42/161/161 46/162/162 48/163/163 44/164/164
f 41/165/165 45/166/166 46/167/167 42/168/168
f 52/169/169 50/170/170 54/171/171 56/172/172
f 47/173/173 48/174/174 52/175/175 51/176/176
f 48/177/177 46/178/178 50/179/179 52/180/180
f 46/181/181 45/182/182 49/183/183 50/184/184
f 53/185/185 55/186/186 56/187/187 54/188/188
f 50/189/189 49/190/190 53/191/191 54/192/192
f 49/193/193 51/194/194 55/195/195 53/196/196
f 51/197/197 52/198/198 56/199/199 55/200/200
