# split from source with materials
mtllib smg.mtl
o smg_mag
v 0.912035 0.271590 -0.068748
v 0.912035 0.271590 0.068747
v 0.668203 0.271590 -0.068748
v 0.668203 0.271590 0.068747
v 0.661979 0.271590 0.050955
v 0.628974 0.271590 0.050955
v 0.628974 0.271590 -0.050956
v 0.661979 0.271590 -0.050956
v 0.661979 -0.694705 -0.050956
v 0.912035 -0.694705 0.068747
v 0.668203 -0.694705 0.068747
v 0.661979 -0.694705 0.050955
v 0.628974 -0.694705 0.050955
v 0.628974 -0.694705 -0.050956
v 0.668203 -0.694705 -0.068748
v 0.912035 -0.694705 -0.068748
v 0.653610 -0.751014 -0.054796
v 0.618118 -0.751014 -0.054796
v 0.618118 -0.751014 0.054796
v 0.922515 -0.700733 0.073929
v 0.922515 -0.751014 0.073929
v 0.653610 -0.751014 0.054796
v 0.660304 -0.751014 0.073929
v 0.660304 -0.751014 -0.073930
v 0.653610 -0.700733 0.054796
v 0.922515 -0.751014 -0.073930
v 0.618118 -0.700733 0.054796
v 0.660304 -0.700733 -0.073930
v 0.653610 -0.700733 -0.054796
v 0.660304 -0.700733 0.073929
v 0.618118 -0.700733 -0.054796
v 0.922515 -0.700733 -0.073930
vn 1.000000 0.000000 0.000000
vn -0.000000 0.000000 1.000000
vn -1.000000 0.000000 0.000000
vn 0.000000 1.000000 0.000000
vn 0.000000 0.000000 -1.000000
vn 0.000000 -1.000000 0.000000
vn -0.943900 0.000000 -0.330200
vn -0.943900 0.000000 0.330200
vn 0.000000 0.651900 -0.758300
vn 0.000000 0.537400 0.843400
vn -0.518600 0.835500 0.181400
vn -0.518600 0.835500 -0.181400
vn -0.485400 0.874300 0.000000
vn 0.000000 0.651900 0.758300
vn 0.000000 0.537400 -0.843400
vn 0.498600 0.866800 0.000000
usemtl DarkMetal
f 16//1 1//1 2//1 10//1
usemtl Black
f 16//16 10//16 20//16 32//16
f 26//1 32//1 20//1 21//1
f 24//6 26//6 21//6 23//6
f 22//6 17//6 24//6 23//6
f 18//6 17//6 22//6 19//6
f 19//3 27//3 31//3 18//3
f 14//15 9//15 29//15 31//15
f 9//12 15//12 28//12 29//12
usemtl DarkMetal
f 13//3 6//3 7//3 14//3
f 12//2 5//2 6//2 13//2
usemtl Black
f 11//11 12//11 25//11 30//11
usemtl DarkMetal
f 5//4 4//4 3//4 8//4
f 11//8 4//8 5//8 12//8
f 7//4 6//4 5//4 8//4
f 14//5 7//5 8//5 9//5
f 9//7 8//7 3//7 15//7
usemtl Black
f 13//13 14//13 31//13 27//13
f 12//10 13//10 27//10 25//10
f 18//5 31//5 29//5 17//5
f 22//2 25//2 27//2 19//2
f 17//7 29//7 28//7 24//7
f 23//8 30//8 25//8 22//8
f 21//2 20//2 30//2 23//2
f 24//5 28//5 32//5 26//5
f 10//14 11//14 30//14 20//14
f 15//9 16//9 32//9 28//9
usemtl DarkMetal
f 15//5 3//5 1//5 16//5
f 10//2 2//2 4//2 11//2
f 3//4 4//4 2//4 1//4
