# split from source with materials
mtllib smg.mtl
o smg_body
v 1.606697 0.706658 0.130978
v 1.606697 0.706658 -0.130978
v 1.817887 0.706658 0.130978
v 1.817887 0.706658 -0.130978
v 1.606697 0.771627 0.130978
v 1.606697 0.771627 -0.130978
v 1.785412 0.771627 -0.130978
v 1.817887 0.739151 -0.130978
v 1.817887 0.739151 0.130978
v 1.785412 0.771627 0.130978
v -0.003455 0.706658 0.130978
v -0.003455 0.706658 -0.130978
v -0.214645 0.706658 0.130978
v -0.214645 0.706658 -0.130978
v -0.003455 0.771627 0.130978
v -0.003455 0.771627 -0.130978
v -0.182170 0.771627 -0.130978
v -0.214645 0.739151 -0.130978
v -0.214645 0.739151 0.130978
v -0.182170 0.771627 0.130978
v -0.337722 0.376192 0.097828
v -0.337722 0.376192 -0.097827
v 1.016467 0.376192 0.097828
v 1.016467 0.376192 -0.097827
v 1.016467 0.344058 -0.097827
v 1.016467 0.344058 0.097828
v 0.204330 0.376192 -0.097827
v 0.204330 0.376192 0.097828
v 0.204330 0.293623 -0.097827
v 0.204330 0.293623 0.097828
v 1.016467 0.197864 0.097828
v 1.016467 0.197864 -0.097827
v 0.549182 0.376192 0.097828
v 0.549182 0.293623 0.097828
v 0.549182 0.376192 -0.097827
v 0.549182 0.293623 -0.097827
v 1.016411 0.053663 0.097828
v 1.016411 0.053663 -0.097827
v 0.551596 -0.028189 0.097828
v 0.551596 -0.028189 -0.097827
v -0.120432 0.376192 -0.097827
v -0.120432 0.376192 0.097828
v 0.143613 -0.465121 0.097828
v 0.143613 -0.465121 -0.097828
v 0.166115 0.093009 0.097828
v 0.166115 0.093009 -0.097827
v 0.146404 -0.398036 0.097828
v 0.146404 -0.398036 -0.097828
v 0.192590 -0.409286 0.092719
v 0.191865 -0.465263 0.092719
v 0.191865 -0.465263 -0.092719
v 0.192590 -0.409286 -0.092719
v -0.120432 0.363765 -0.097827
v -0.050290 0.293623 -0.097827
v -0.050290 0.293623 0.097828
v -0.120432 0.363765 0.097828
v -0.337722 0.326422 -0.097827
v -0.337378 0.298651 -0.060326
v -0.337378 0.298651 0.060326
v -0.337722 0.326422 0.097828
v -0.087633 0.196222 0.097828
v -0.140208 0.202076 0.060326
v -0.150898 -0.468578 0.097828
v -0.201362 -0.463957 0.060326
v -0.140208 0.202076 -0.060326
v -0.087633 0.196222 -0.097827
v -0.201362 -0.463957 -0.060326
v -0.150898 -0.468578 -0.097828
v -0.098268 0.098093 -0.097827
v -0.150685 0.105402 -0.060326
v -0.150685 0.105402 0.060326
v -0.098268 0.098093 0.097828
v -0.143399 -0.398036 -0.097828
v -0.194030 -0.398036 -0.060326
v -0.194030 -0.398036 0.060326
v -0.143399 -0.398036 0.097828
v -0.087633 0.256280 -0.097827
v -0.140208 0.229103 -0.060326
v -0.209756 0.298651 -0.060326
v -0.157775 0.326422 -0.097827
v -0.157775 0.326422 0.097828
v -0.209756 0.298651 0.060326
v -0.140208 0.229103 0.060326
v -0.087633 0.256280 0.097828
v 0.184625 0.143002 0.097828
v 0.261082 0.196222 0.097828
v 0.204330 0.252974 0.097828
v 0.147579 0.196222 0.097828
v 0.261082 0.196222 -0.097827
v 0.184625 0.143002 -0.097827
v 0.147579 0.196222 -0.097827
v 0.204330 0.252974 -0.097827
v 0.496609 0.196222 0.097828
v 0.549832 0.143653 0.097828
v 0.601755 0.196407 0.097828
v 0.549182 0.248796 0.097828
v 0.549832 0.143653 -0.097827
v 0.496609 0.196222 -0.097827
v 0.549182 0.248796 -0.097827
v 0.601755 0.196407 -0.097827
v 0.146403 -0.398036 0.105962
v 0.143613 -0.465121 0.105962
v 0.143613 -0.465121 -0.105962
v 0.146403 -0.398036 -0.105962
v 0.192590 -0.409286 0.105962
v 0.191865 -0.465263 0.105962
v 0.191865 -0.465263 -0.105962
v 0.192590 -0.409286 -0.105962
v -0.143399 -0.398036 -0.105962
v -0.206371 -0.398036 -0.065342
v -0.206371 -0.398036 0.065342
v -0.143399 -0.398036 0.105962
v -0.150898 -0.468578 -0.105962
v -0.213703 -0.462828 -0.065342
v -0.213703 -0.462828 0.065342
v -0.150898 -0.468578 0.105962
v -0.284820 0.401325 0.121857
v -0.284820 0.401325 -0.121857
v -0.284820 0.309693 -0.121857
v -0.284620 0.273518 -0.075143
v -0.284620 0.273518 0.075143
v -0.284820 0.309693 0.121857
v -0.344806 0.401325 -0.121857
v -0.344806 0.401325 0.121857
v -0.344606 0.273518 -0.075143
v -0.344806 0.309693 -0.121857
v -0.344806 0.309693 0.121857
v -0.344606 0.273518 0.075143
v 0.073151 -0.077103 0.060725
v 0.073151 -0.077103 -0.060725
v 0.084641 -0.046071 0.060725
v 0.084641 -0.046071 -0.060725
v 0.619464 -0.013676 0.060725
v 0.619464 -0.013676 -0.060725
v 0.614202 0.014700 0.060725
v 0.614202 0.014700 -0.060725
v 0.508212 -0.032816 -0.060725
v 0.508212 -0.032816 0.060725
v 0.504838 -0.004116 0.060725
v 0.504838 -0.004116 -0.060725
v 0.402451 -0.043856 -0.060725
v 0.393123 -0.046071 -0.060725
v 0.393123 -0.046071 0.060725
v 0.402451 -0.043856 0.060725
v 0.390517 -0.077103 0.060725
v 0.399817 -0.075224 0.060725
v 0.390517 -0.077103 -0.060725
v 0.399817 -0.075224 -0.060725
v 1.444309 0.200735 -0.145639
v 1.444309 0.389182 -0.145639
v 1.584831 0.200735 -0.142537
v 1.584831 0.389182 -0.142537
v 1.652405 0.200735 -0.019291
v 1.652405 0.389182 -0.019291
v 1.579458 0.200735 0.100853
v 1.579458 0.389182 0.100853
v 1.438937 0.200735 0.097751
v 1.438937 0.389182 0.097751
v 1.371362 0.200735 -0.025495
v 1.371362 0.389182 -0.025495
v 1.460440 0.160300 -0.116220
v 1.567418 0.160300 -0.113858
v 1.618862 0.160300 -0.020032
v 1.563328 0.160300 0.071434
v 1.456350 0.160300 0.069072
v 1.404905 0.160300 -0.024754
v 1.454319 0.076060 -0.127382
v 1.574025 0.076060 -0.124740
v 1.631590 0.076060 -0.019751
v 1.569448 0.076060 0.082596
v 1.449743 0.076060 0.079954
v 1.392178 0.076060 -0.025035
v 1.446391 -0.316852 -0.141843
v 1.582584 -0.316852 -0.138837
v 1.648077 -0.316852 -0.019387
v 1.577377 -0.316852 0.097057
v 1.441184 -0.316852 0.094051
v 1.375690 -0.316852 -0.025399
v 1.446391 -0.360761 -0.141843
v 1.582584 -0.360761 -0.138837
v 1.648077 -0.360761 -0.019387
v 1.577377 -0.360761 0.097057
v 1.441184 -0.360761 0.094051
v 1.375690 -0.360761 -0.025399
v 1.442896 -0.277100 0.091231
v 1.443467 -0.263849 0.090291
v 1.446919 -0.303601 -0.140879
v 1.447448 -0.290351 -0.139914
v 1.447977 -0.277100 -0.138950
v 1.448505 -0.263849 -0.137986
v 1.381188 -0.250599 -0.025278
v 1.574733 -0.250599 0.092236
v 1.579730 -0.250599 -0.134137
v 1.449034 -0.250599 -0.137022
v 1.444037 -0.250599 0.089351
v 1.642580 -0.250599 -0.019508
v 1.442325 -0.290351 0.092171
v 1.441754 -0.303601 0.093111
v 1.643679 -0.263849 -0.019484
v 1.644779 -0.277100 -0.019459
v 1.645878 -0.290351 -0.019435
v 1.646978 -0.303601 -0.019411
v 1.376790 -0.303601 -0.025375
v 1.377889 -0.290351 -0.025351
v 1.378989 -0.277100 -0.025326
v 1.380088 -0.263849 -0.025302
v 1.576848 -0.303601 0.096093
v 1.576320 -0.290351 0.095129
v 1.575791 -0.277100 0.094164
v 1.575262 -0.263849 0.093200
v 1.582013 -0.303601 -0.137897
v 1.581442 -0.290351 -0.136957
v 1.580872 -0.277100 -0.136017
v 1.580301 -0.263849 -0.135077
v 1.449044 -0.265470 0.081104
v 1.448520 -0.277640 0.081968
v 1.452701 -0.289811 -0.130334
v 1.452215 -0.301981 -0.131219
v 1.453672 -0.265470 -0.128562
v 1.453187 -0.277640 -0.129448
v 1.634955 -0.289811 -0.019676
v 1.635965 -0.301981 -0.019654
v 1.632935 -0.265470 -0.019721
v 1.633945 -0.277640 -0.019699
v 1.447996 -0.289811 0.082831
v 1.447471 -0.301981 0.083695
v 1.387803 -0.301981 -0.025132
v 1.388813 -0.289811 -0.025110
v 1.389823 -0.277640 -0.025087
v 1.390833 -0.265470 -0.025065
v 1.571552 -0.301981 0.086434
v 1.571067 -0.289811 0.085548
v 1.570581 -0.277640 0.084662
v 1.570095 -0.265470 0.083777
v 1.576296 -0.301981 -0.128481
v 1.575772 -0.289811 -0.127617
v 1.575248 -0.277640 -0.126754
v 1.574723 -0.265470 -0.125890
v 1.858426 0.473424 -0.071452
v 1.927747 0.473424 -0.071452
v 1.858426 0.431426 -0.057806
v 1.927748 0.431426 -0.057806
v 1.858426 0.405470 -0.022080
v 1.927748 0.405470 -0.022080
v 1.858426 0.405470 0.022080
v 1.927748 0.405470 0.022080
v 1.858426 0.431426 0.057806
v 1.927748 0.431426 0.057806
v 1.858426 0.473424 0.071452
v 1.927748 0.473424 0.071452
v 1.858426 0.515423 0.057806
v 1.927748 0.515423 0.057806
v 1.858426 0.541379 0.022080
v 1.927748 0.541379 0.022080
v 1.858426 0.541379 -0.022080
v 1.927747 0.541379 -0.022080
v 1.858426 0.515423 -0.057806
v 1.927747 0.515423 -0.057806
v 1.930424 0.424459 -0.067395
v 1.930424 0.473424 -0.083305
v 1.930424 0.394197 -0.025743
v 1.930424 0.394197 0.025743
v 1.930424 0.424459 0.067395
v 1.930424 0.473424 0.083305
v 1.930424 0.522390 0.067395
v 1.930424 0.552652 0.025743
v 1.930424 0.552652 -0.025743
v 1.930424 0.522390 -0.067395
v 1.969348 0.424459 -0.067395
v 1.969348 0.473424 -0.083305
v 1.969348 0.394197 -0.025743
v 1.969348 0.394197 0.025743
v 1.969348 0.424459 0.067395
v 1.969348 0.473424 0.083305
v 1.969348 0.522390 0.067395
v 1.969348 0.552652 0.025743
v 1.969348 0.552652 -0.025743
v 1.969348 0.522390 -0.067395
v 1.972025 0.431466 -0.057750
v 1.972025 0.473424 -0.071383
v 1.972025 0.405535 -0.022059
v 1.972025 0.405535 0.022059
v 1.972025 0.431466 0.057750
v 1.972025 0.473424 0.071383
v 1.972025 0.515382 0.057750
v 1.972025 0.541314 0.022059
v 1.972025 0.541314 -0.022059
v 1.972025 0.515382 -0.057750
v 2.122204 0.431466 -0.057750
v 2.122204 0.473424 -0.071383
v 2.122204 0.405535 -0.022059
v 2.122204 0.405535 0.022059
v 2.122204 0.431467 0.057750
v 2.122204 0.473424 0.071383
v 2.122204 0.515382 0.057750
v 2.122204 0.541314 0.022059
v 2.122204 0.541314 -0.022059
v 2.122204 0.515382 -0.057750
v 2.122204 0.440436 -0.045405
v 2.122204 0.473424 -0.056123
v 2.122204 0.420048 -0.017343
v 2.122204 0.420048 0.017343
v 2.122204 0.440436 0.045405
v 2.122204 0.473424 0.056123
v 2.122204 0.506413 0.045405
v 2.122204 0.526801 0.017343
v 2.122204 0.526801 -0.017343
v 2.122204 0.506413 -0.045405
v 1.941339 0.440436 -0.045405
v 1.941339 0.473424 -0.056123
v 1.941339 0.420048 -0.017343
v 1.941339 0.420048 0.017343
v 1.941339 0.440436 0.045405
v 1.941339 0.473424 0.056123
v 1.941339 0.506413 0.045405
v 1.941339 0.526801 0.017343
v 1.941339 0.526801 -0.017343
v 1.941339 0.506413 -0.045405
v 0.296949 0.211346 -0.024920
v 0.353285 0.211346 -0.024501
v 0.353285 0.211346 0.026436
v 0.296949 0.211346 0.026855
v 0.292757 0.162052 -0.024994
v 0.336495 0.150358 -0.024891
v 0.336495 0.150358 0.026825
v 0.292757 0.162052 0.026928
v 0.264945 0.211346 -0.024537
v 0.264945 0.211346 0.026471
v 0.263156 0.163794 -0.024696
v 0.262645 0.165631 -0.024676
v 0.262645 0.165631 0.026611
v 0.263156 0.163794 0.026630
v 0.300210 0.099976 0.026801
v 0.310433 0.068378 0.026690
v 0.310433 0.068378 -0.024755
v 0.300210 0.099976 -0.024866
v 0.333577 0.076936 -0.024763
v 0.331173 0.111422 -0.024888
v 0.331173 0.111422 0.026822
v 0.333577 0.076936 0.026698
v 0.332169 0.032529 -0.024584
v 0.326008 0.034771 -0.024634
v 0.343393 0.046414 -0.024520
v 0.341181 0.038514 -0.024510
v 0.341181 0.038514 0.026445
v 0.343393 0.046414 0.026455
v 0.326008 0.034771 0.026569
v 0.332169 0.032529 0.026519
v 1.192845 0.644149 0.142608
v 1.204731 0.653733 0.142608
v 1.283994 0.653733 0.142608
v 1.295880 0.644149 0.142608
v 1.204731 0.622871 0.142608
v 1.192845 0.632455 0.142608
v 1.295880 0.632455 0.142608
v 1.283994 0.622871 0.142608
v 1.204731 0.653733 -0.142753
v 1.192845 0.644149 -0.142753
v 1.295880 0.644149 -0.142753
v 1.283994 0.653733 -0.142753
v 1.192845 0.632455 -0.142753
v 1.204731 0.622871 -0.142753
v 1.283994 0.622871 -0.142753
v 1.295880 0.632455 -0.142753
v 1.347397 0.644149 0.142608
v 1.359283 0.653733 0.142608
v 1.438546 0.653733 0.142608
v 1.450432 0.644149 0.142608
v 1.359283 0.622871 0.142608
v 1.347397 0.632455 0.142608
v 1.450432 0.632455 0.142608
v 1.438546 0.622871 0.142608
v 1.359283 0.653733 -0.142753
v 1.347397 0.644149 -0.142753
v 1.450432 0.644149 -0.142753
v 1.438546 0.653733 -0.142753
v 1.347397 0.632455 -0.142753
v 1.359283 0.622871 -0.142753
v 1.438546 0.622871 -0.142753
v 1.450432 0.632455 -0.142753
v 1.501950 0.644149 0.142608
v 1.513836 0.653733 0.142608
v 1.593098 0.653733 0.142608
v 1.604984 0.644149 0.142608
v 1.513836 0.622871 0.142608
v 1.501950 0.632455 0.142608
v 1.604984 0.632455 0.142608
v 1.593098 0.622871 0.142608
v 1.513836 0.653733 -0.142753
v 1.501950 0.644149 -0.142753
v 1.604984 0.644149 -0.142753
v 1.593098 0.653733 -0.142753
v 1.501950 0.632455 -0.142753
v 1.513836 0.622871 -0.142753
v 1.593098 0.622871 -0.142753
v 1.604984 0.632455 -0.142753
v 1.656502 0.644149 0.142608
v 1.668388 0.653733 0.142608
v 1.747651 0.653733 0.142608
v 1.759537 0.644149 0.142608
v 1.668388 0.622871 0.142608
v 1.656502 0.632455 0.142608
v 1.759537 0.632455 0.142608
v 1.747651 0.622871 0.142608
v 1.668388 0.653733 -0.142753
v 1.656502 0.644149 -0.142753
v 1.759537 0.644149 -0.142753
v 1.747651 0.653733 -0.142753
v 1.656502 0.632455 -0.142753
v 1.668388 0.622871 -0.142753
v 1.747651 0.622871 -0.142753
v 1.759537 0.632455 -0.142753
v -0.355338 0.361535 0.130978
v -0.263806 0.713155 0.159273
v -0.355338 0.361535 -0.130978
v -0.263806 0.713155 -0.159273
v 1.889322 0.361535 0.130978
v 1.824352 0.713155 0.159273
v 1.889322 0.361535 -0.130978
v 1.824352 0.713155 -0.159273
v -0.355338 0.528719 0.130978
v -0.355338 0.528719 -0.130978
v 1.889322 0.528719 -0.130978
v 1.889322 0.528719 0.130978
v -0.263806 0.575392 0.159273
v -0.263806 0.575392 -0.159273
v 1.872880 0.575392 -0.159273
v 1.872880 0.575392 0.159273
v 1.747651 0.622871 0.159273
v 1.759537 0.632455 0.159273
v 1.759537 0.644149 0.159273
v 1.747651 0.653733 0.159273
v 1.668388 0.653733 0.159273
v 1.656502 0.644149 0.159273
v 1.668388 0.622871 0.159273
v 1.656502 0.632455 0.159273
v 1.604984 0.632455 0.159273
v 1.604984 0.644149 0.159273
v 1.513836 0.622871 0.159273
v 1.593098 0.622871 0.159273
v 1.501949 0.632455 0.159273
v 1.513836 0.653733 0.159273
v 1.501949 0.644149 0.159273
v 1.438546 0.653733 0.159273
v 1.450432 0.644149 0.159273
v 1.359283 0.653733 0.159273
v 1.359283 0.622871 0.159273
v 1.347397 0.632455 0.159273
v 1.347397 0.644149 0.159273
v 1.295880 0.632455 0.159273
v 1.295880 0.644149 0.159273
v 1.204731 0.653733 0.159273
v 1.283994 0.653733 0.159273
v 1.204731 0.622871 0.159273
v 1.192845 0.632455 0.159273
v 1.593098 0.653733 0.159273
v 1.450432 0.632455 0.159273
v 1.192845 0.644149 0.159273
v 1.438546 0.622871 0.159273
v 1.283994 0.622871 0.159273
v 1.747651 0.622871 -0.159273
v 1.759537 0.632455 -0.159273
v 1.759537 0.644149 -0.159273
v 1.747651 0.653733 -0.159273
v 1.668388 0.622871 -0.159273
v 1.668388 0.653733 -0.159273
v 1.656502 0.644149 -0.159273
v 1.656502 0.632455 -0.159273
v 1.604984 0.632455 -0.159273
v 1.513836 0.622871 -0.159273
v 1.593098 0.622871 -0.159273
v 1.450432 0.632455 -0.159273
v 1.450432 0.644149 -0.159273
v 1.438546 0.653733 -0.159273
v 1.438546 0.622871 -0.159273
v 1.359283 0.622871 -0.159273
v 1.359283 0.653733 -0.159273
v 1.347397 0.644149 -0.159273
v 1.347397 0.632455 -0.159273
v 1.283994 0.653733 -0.159273
v 1.295880 0.644149 -0.159273
v 1.192845 0.644149 -0.159273
v 1.513836 0.653733 -0.159273
v 1.501950 0.632455 -0.159273
v 1.501950 0.644149 -0.159273
v 1.295880 0.632455 -0.159273
v 1.593098 0.653733 -0.159273
v 1.604984 0.644149 -0.159273
v 1.283994 0.622871 -0.159273
v 1.192845 0.632455 -0.159273
v 1.204731 0.653733 -0.159273
v 1.204731 0.622871 -0.159273
v -0.355338 0.436501 -0.130978
v 1.889322 0.436501 -0.130978
v 1.889322 0.436501 0.130978
v -0.355338 0.436501 0.130978
v -0.053760 0.361535 -0.130978
v -0.053760 0.361535 0.130978
v -0.053760 0.528719 0.130978
v -0.053760 0.528719 -0.130978
v -0.055969 0.575392 0.159273
v -0.055969 0.575392 -0.159273
v -0.053760 0.436501 -0.130978
v -0.053760 0.436501 0.130978
v -0.323837 0.513290 0.021261
v -0.323837 0.513290 -0.021261
v -0.323837 0.451930 -0.021261
v -0.323837 0.451930 0.021261
v -1.745108 0.451930 0.021261
v -1.745108 0.513290 0.021261
v -1.745108 0.513290 -0.021261
v -1.745108 0.451930 -0.021261
v -1.745108 0.437987 0.030923
v -1.745108 0.527233 0.030923
v -1.745108 0.527233 -0.030923
v -1.745108 0.437987 -0.030923
v -1.792335 0.437987 0.030923
v -1.792335 0.527233 0.030923
v -1.792335 0.527233 -0.030923
v -1.792335 0.437987 -0.030923
v -1.792335 0.437987 0.049582
v -1.792335 0.527233 0.049582
v -1.792335 0.527233 -0.049581
v -1.792335 0.437987 -0.049581
v -1.792335 0.068283 0.030923
v -1.792335 0.068283 -0.030923
v -1.792335 0.589190 0.030923
v -1.792335 0.589190 -0.030923
v -1.837881 0.437987 0.049582
v -1.837881 0.437987 -0.049581
v -1.837881 0.527233 0.049582
v -1.837881 0.527233 -0.049581
v -1.837881 0.068283 0.030923
v -1.837881 0.068283 -0.030923
v -1.837881 0.589190 0.030923
v -1.837881 0.589190 -0.030923
v -1.875382 0.434116 0.037109
v -1.875382 0.531105 0.037109
v -1.875382 0.531105 -0.037109
v -1.875382 0.434116 -0.037109
v -1.875382 0.531105 -0.059500
v -1.875382 0.531105 0.059501
v -1.875382 0.434116 0.059501
v -1.875382 0.434116 -0.059500
v -1.836321 0.434116 0.059501
v -1.836321 0.531105 0.059501
v -1.836321 0.531105 -0.059500
v -1.836321 0.054612 0.037109
v -1.836321 0.602786 0.037109
v -1.836321 0.602786 -0.037109
v -1.836321 0.434116 -0.059500
v -1.836321 0.054612 -0.037109
v -1.792335 0.107095 0.049582
v -1.792335 0.068283 0.036568
v -1.792335 0.068283 -0.036568
v -1.792335 0.107095 -0.049581
v -1.792335 0.589190 0.036570
v -1.792335 0.550391 0.049582
v -1.792335 0.550391 -0.049581
v -1.792335 0.589190 -0.036570
v -1.837881 0.068283 0.036568
v -1.837881 0.107095 0.049582
v -1.837881 0.068283 -0.036568
v -1.837881 0.107095 -0.049581
v -1.837881 0.550391 0.049582
v -1.837881 0.589190 0.036570
v -1.837881 0.589190 -0.036570
v -1.837881 0.550391 -0.049581
v -1.875382 0.563987 -0.059500
v -1.875382 0.563987 0.059501
v -1.836321 0.093424 0.059501
v -1.836321 0.054612 0.046487
v -1.875382 0.093424 0.059501
v -1.836321 0.602786 0.046489
v -1.836321 0.563987 0.059501
v -1.836321 0.563987 -0.059500
v -1.836321 0.602786 -0.046489
v -1.875382 0.093424 -0.059500
v -1.836321 0.054612 -0.046487
v -1.836321 0.093424 -0.059500
v -1.875382 0.564598 -0.059295
v -1.875382 0.564121 0.037109
v -1.875382 0.564493 -0.037109
v -1.875382 0.093428 -0.037109
v -1.875382 0.093424 0.037109
v 1.896745 0.562526 0.145057
v 1.896745 0.562526 -0.145056
v 1.056740 0.562526 0.145057
v 1.056740 0.562526 -0.145056
v 1.896745 0.365099 0.145057
v 1.870867 0.328388 0.116654
v 1.870867 0.328388 -0.116654
v 1.896745 0.365099 -0.145056
v 1.056740 0.365099 -0.145056
v 1.092794 0.328388 -0.116654
v 1.092794 0.328388 0.116654
v 1.056740 0.365099 0.145057
v 1.457209 0.562526 -0.145056
v 1.496276 0.562526 -0.145056
v 1.496276 0.562526 0.145057
v 1.457209 0.562526 0.145057
v 1.495545 0.328388 -0.116654
v 1.459359 0.328388 -0.116654
v 1.457209 0.365099 -0.145056
v 1.496276 0.365099 -0.145056
v 1.496276 0.365099 0.145057
v 1.457209 0.365099 0.145057
v 1.459359 0.328388 0.116654
v 1.495545 0.328388 0.116654
v -0.002284 0.370154 0.128717
v -0.002284 0.370154 -0.129202
v 0.050341 0.370154 0.128717
v 0.050341 0.370154 -0.129202
v -0.002284 0.286033 0.128717
v -0.002284 0.258252 0.094954
v -0.002284 0.258252 -0.094954
v -0.002284 0.286033 -0.129202
v 0.050341 0.258252 0.094954
v 0.050341 0.286033 0.128717
v 0.050341 0.286033 -0.129202
v 0.050341 0.258252 -0.094954
v 0.139804 0.370154 0.128717
v 0.139804 0.370154 -0.129202
v 0.192429 0.370154 0.128717
v 0.192429 0.370154 -0.129202
v 0.139804 0.286033 0.128717
v 0.139804 0.258252 0.094954
v 0.139804 0.258252 -0.094954
v 0.139804 0.286033 -0.129202
v 0.192429 0.258252 0.094954
v 0.192429 0.286033 0.128717
v 0.192429 0.286033 -0.129202
v 0.192429 0.258252 -0.094954
v 0.281891 0.370154 0.128717
v 0.281891 0.370154 -0.129202
v 0.334516 0.370154 0.128717
v 0.334516 0.370154 -0.129202
v 0.281891 0.286033 0.128717
v 0.281891 0.258252 0.094954
v 0.281891 0.258252 -0.094954
v 0.281891 0.286033 -0.129202
v 0.334516 0.258252 0.094954
v 0.334516 0.286033 0.128717
v 0.334516 0.286033 -0.129202
v 0.334516 0.258252 -0.094954
v 0.423979 0.370154 0.128717
v 0.423979 0.370154 -0.129202
v 0.476604 0.370154 0.128717
v 0.476604 0.370154 -0.129202
v 0.423979 0.286033 0.128717
v 0.423979 0.258252 0.094954
v 0.423979 0.258252 -0.094954
v 0.423979 0.286033 -0.129202
v 0.476604 0.258252 0.094954
v 0.476604 0.286033 0.128717
v 0.476604 0.286033 -0.129202
v 0.476604 0.258252 -0.094954
v 0.566066 0.370154 0.128717
v 0.566066 0.370154 -0.129202
v 0.618691 0.370154 0.128717
v 0.618691 0.370154 -0.129202
v 0.566066 0.286033 0.128717
v 0.566066 0.258252 0.094954
v 0.566066 0.258252 -0.094954
v 0.566066 0.286033 -0.129202
v 0.618691 0.258252 0.094954
v 0.618691 0.286033 0.128717
v 0.618691 0.286033 -0.129202
v 0.618691 0.258252 -0.094954
v 1.101561 0.574832 -0.153787
v 1.142979 0.574832 -0.153787
v 1.142979 0.574832 0.153787
v 1.101561 0.574832 0.153787
v 1.142205 0.326602 -0.123674
v 1.103841 0.326602 -0.123674
v 1.101561 0.365523 -0.153787
v 1.142979 0.365523 -0.153787
v 1.142979 0.365523 0.153787
v 1.101561 0.365523 0.153787
v 1.103841 0.326602 0.123675
v 1.142205 0.326602 0.123675
v 1.205106 0.574832 -0.153787
v 1.246523 0.574832 -0.153787
v 1.246523 0.574832 0.153787
v 1.205106 0.574832 0.153787
v 1.245749 0.326602 -0.123674
v 1.207385 0.326602 -0.123674
v 1.205106 0.365523 -0.153787
v 1.246523 0.365523 -0.153787
v 1.246523 0.365523 0.153787
v 1.205106 0.365523 0.153787
v 1.207385 0.326602 0.123675
v 1.245749 0.326602 0.123675
v 1.308650 0.574832 -0.153787
v 1.350067 0.574832 -0.153787
v 1.350067 0.574832 0.153787
v 1.308650 0.574832 0.153787
v 1.349293 0.326602 -0.123674
v 1.310929 0.326602 -0.123674
v 1.308650 0.365523 -0.153787
v 1.350067 0.365523 -0.153787
v 1.350067 0.365523 0.153787
v 1.308650 0.365523 0.153787
v 1.310929 0.326602 0.123675
v 1.349293 0.326602 0.123675
v 1.412194 0.574832 -0.153787
v 1.453612 0.574832 -0.153787
v 1.453612 0.574832 0.153787
v 1.412194 0.574832 0.153787
v 1.452837 0.326602 -0.123674
v 1.414473 0.326602 -0.123674
v 1.412194 0.365523 -0.153787
v 1.453612 0.365523 -0.153787
v 1.453612 0.365523 0.153787
v 1.412194 0.365523 0.153787
v 1.414473 0.326602 0.123675
v 1.452837 0.326602 0.123675
v 1.515738 0.574832 -0.153787
v 1.557156 0.574832 -0.153787
v 1.557156 0.574832 0.153787
v 1.515738 0.574832 0.153787
v 1.556382 0.326602 -0.123674
v 1.518018 0.326602 -0.123674
v 1.515738 0.365523 -0.153787
v 1.557156 0.365523 -0.153787
v 1.557156 0.365523 0.153787
v 1.515738 0.365523 0.153787
v 1.518018 0.326602 0.123675
v 1.556382 0.326602 0.123675
v 1.619282 0.574832 -0.153787
v 1.660700 0.574832 -0.153787
v 1.660700 0.574832 0.153787
v 1.619282 0.574832 0.153787
v 1.659926 0.326602 -0.123674
v 1.621562 0.326602 -0.123674
v 1.619282 0.365523 -0.153787
v 1.660700 0.365523 -0.153787
v 1.660700 0.365523 0.153787
v 1.619282 0.365523 0.153787
v 1.621562 0.326602 0.123675
v 1.659926 0.326602 0.123675
v 1.722826 0.574832 -0.153787
v 1.764244 0.574832 -0.153787
v 1.764244 0.574832 0.153787
v 1.722826 0.574832 0.153787
v 1.763470 0.326602 -0.123674
v 1.725106 0.326602 -0.123674
v 1.722826 0.365523 -0.153787
v 1.764244 0.365523 -0.153787
v 1.764244 0.365523 0.153787
v 1.722826 0.365523 0.153787
v 1.725106 0.326602 0.123675
v 1.763470 0.326602 0.123675
v 1.826371 0.574832 -0.153787
v 1.867788 0.574832 -0.153787
v 1.867788 0.574832 0.153787
v 1.826371 0.574832 0.153787
v 1.867014 0.326602 -0.123674
v 1.828650 0.326602 -0.123674
v 1.826371 0.365523 -0.153787
v 1.867788 0.365523 -0.153787
v 1.867788 0.365523 0.153787
v 1.826371 0.365523 0.153787
v 1.828650 0.326602 0.123675
v 1.867014 0.326602 0.123675
v 1.101561 0.574832 -0.121841
v 1.142979 0.574832 -0.121841
v 1.142979 0.574832 0.121841
v 1.101561 0.574832 0.121841
v 1.142205 0.349862 -0.103508
v 1.103841 0.349847 -0.103487
v 1.101561 0.376903 -0.123090
v 1.142979 0.376983 -0.123109
v 1.142979 0.376983 0.123109
v 1.101561 0.376903 0.123090
v 1.103841 0.349847 0.103487
v 1.142205 0.349862 0.103508
v 1.205106 0.574832 -0.121841
v 1.246523 0.574832 -0.121841
v 1.246523 0.574832 0.121841
v 1.205106 0.574832 0.121841
v 1.245749 0.349862 -0.103508
v 1.207385 0.349847 -0.103487
v 1.205106 0.376903 -0.123090
v 1.246523 0.376983 -0.123109
v 1.246523 0.376983 0.123109
v 1.205106 0.376903 0.123090
v 1.207385 0.349847 0.103487
v 1.245749 0.349862 0.103508
v 1.308650 0.574832 -0.121841
v 1.350067 0.574832 -0.121841
v 1.350067 0.574832 0.121841
v 1.308650 0.574832 0.121841
v 1.349293 0.349862 -0.103508
v 1.310929 0.349847 -0.103487
v 1.308650 0.376903 -0.123090
v 1.350067 0.376983 -0.123109
v 1.350067 0.376983 0.123109
v 1.308650 0.376903 0.123090
v 1.310929 0.349847 0.103487
v 1.349293 0.349862 0.103508
v 1.412194 0.574832 -0.121841
v 1.453612 0.574832 -0.121841
v 1.453612 0.574832 0.121841
v 1.412194 0.574832 0.121841
v 1.452837 0.349862 -0.103508
v 1.414473 0.349847 -0.103487
v 1.412194 0.376903 -0.123090
v 1.453612 0.376983 -0.123109
v 1.453612 0.376983 0.123109
v 1.412194 0.376903 0.123090
v 1.414473 0.349847 0.103487
v 1.452837 0.349862 0.103508
v 1.515738 0.574832 -0.121841
v 1.557156 0.574832 -0.121841
v 1.557156 0.574832 0.121841
v 1.515738 0.574832 0.121841
v 1.556382 0.349862 -0.103508
v 1.518018 0.349847 -0.103487
v 1.515738 0.376903 -0.123090
v 1.557156 0.376983 -0.123109
v 1.557156 0.376983 0.123109
v 1.515738 0.376903 0.123090
v 1.518018 0.349847 0.103487
v 1.556382 0.349862 0.103508
v 1.619282 0.574832 -0.121841
v 1.660700 0.574832 -0.121841
v 1.660700 0.574832 0.121841
v 1.619282 0.574832 0.121841
v 1.659926 0.349862 -0.103508
v 1.621562 0.349847 -0.103487
v 1.619282 0.376903 -0.123090
v 1.660700 0.376983 -0.123109
v 1.660700 0.376983 0.123109
v 1.619282 0.376903 0.123090
v 1.621562 0.349847 0.103487
v 1.659926 0.349862 0.103508
v 1.722826 0.574832 -0.121841
v 1.764244 0.574832 -0.121841
v 1.764244 0.574832 0.121841
v 1.722826 0.574832 0.121841
v 1.763470 0.349862 -0.103508
v 1.725106 0.349847 -0.103487
v 1.722826 0.376903 -0.123090
v 1.764244 0.376983 -0.123109
v 1.764244 0.376983 0.123109
v 1.722826 0.376903 0.123090
v 1.725106 0.349847 0.103487
v 1.763470 0.349862 0.103508
v 1.826371 0.574832 -0.121841
v 1.867788 0.574832 -0.121841
v 1.867788 0.574832 0.121841
v 1.826371 0.574832 0.121841
v 1.867014 0.349862 -0.103508
v 1.828650 0.349847 -0.103487
v 1.826371 0.376903 -0.123090
v 1.867788 0.376983 -0.123109
v 1.867788 0.376983 0.123109
v 1.826371 0.376903 0.123090
v 1.828650 0.349847 0.103487
v 1.867014 0.349862 0.103508
vn 1.000000 0.000000 0.000000
vn -0.000000 0.000000 1.000000
vn -1.000000 0.000000 0.000000
vn 0.000000 1.000000 0.000000
vn 0.707100 0.707100 0.000000
vn 0.000000 0.000000 -1.000000
vn -0.707100 0.707100 0.000000
vn 0.999900 -0.012900 0.000000
vn -0.002900 -1.000000 -0.000000
vn -0.091200 -0.995800 0.000000
vn 0.173400 -0.984800 0.000000
vn 0.236700 0.971600 0.000000
vn 0.011700 -0.999900 0.000000
vn -0.993700 0.112400 -0.000000
vn -0.539700 0.059100 -0.839800
vn -0.539700 0.059100 0.839800
vn -0.091100 -0.995800 -0.000000
vn 1.000000 0.005500 0.000000
vn -1.000000 -0.005500 0.000000
vn 0.000000 -0.790600 -0.612300
vn 0.000000 -0.790600 0.612300
vn 0.000000 -1.000000 0.000000
vn 0.022100 0.000000 -0.999800
vn 0.876800 0.000000 -0.480800
vn 0.854800 0.000000 0.519000
vn -0.022100 0.000000 0.999800
vn -0.876800 0.000000 0.480800
vn -0.854800 0.000000 -0.519000
vn 0.712100 -0.583600 -0.390400
vn -0.869400 0.129800 0.476700
vn -0.712100 -0.583600 0.390400
vn 0.017900 -0.583500 -0.811900
vn 0.694100 -0.583500 0.421500
vn -0.694100 -0.583500 -0.421500
vn -0.017900 -0.583500 0.811900
vn 0.022000 0.071700 -0.997200
vn 0.847600 0.129800 0.514600
vn 0.021900 0.129800 -0.991300
vn -0.847600 0.129800 -0.514600
vn -0.021900 0.129800 0.991300
vn 0.869400 0.129800 -0.476700
vn -0.852600 0.071700 -0.517700
vn -0.022000 0.071700 0.997200
vn 0.874600 0.071700 -0.479500
vn -0.874600 0.071700 0.479500
vn 0.852600 0.071700 0.517700
vn 0.003800 -0.985200 -0.171500
vn 0.048700 -0.998400 0.029600
vn 0.143100 0.985900 0.086900
vn -0.854400 0.029100 -0.518800
vn -0.022100 0.029100 0.999300
vn 0.876500 0.029100 -0.480600
vn -0.876500 0.029100 0.480600
vn 0.854400 0.029100 0.518800
vn 0.022100 0.029100 -0.999300
vn -0.050000 -0.998400 0.027400
vn 0.049100 0.998300 0.029800
vn -0.048700 -0.998400 -0.029600
vn -0.050400 0.998300 0.027600
vn -0.146600 -0.985200 -0.089000
vn -0.049100 0.998300 -0.029800
vn 0.150400 -0.985200 -0.082500
vn -0.003700 0.985900 0.167400
vn 0.146600 -0.985200 0.089000
vn 0.146800 0.985900 -0.080500
vn -0.150400 -0.985200 0.082500
vn -0.143100 0.985900 -0.086900
vn -0.001300 0.998300 0.057400
vn -0.003800 -0.985200 0.171500
vn 0.050400 0.998300 -0.027600
vn -0.001300 -0.998400 0.057000
vn 0.001300 0.998300 -0.057400
vn 0.050000 -0.998400 -0.027400
vn 0.003700 0.985900 -0.167400
vn 0.001300 -0.998400 -0.057000
vn -0.146800 0.985900 0.080500
vn -0.000000 -0.309000 -0.951100
vn 0.000000 -0.809000 -0.587800
vn 0.000000 -0.809000 0.587800
vn 0.000000 -0.309000 0.951100
vn 0.000000 0.309000 0.951100
vn -0.000000 0.809000 0.587800
vn -0.973000 -0.071400 0.219700
vn -0.000000 0.809000 -0.587800
vn -0.000000 0.309000 -0.951100
vn -0.973000 -0.186900 0.135800
vn -0.973000 -0.071400 -0.219700
vn -0.973000 -0.231000 0.000000
vn -0.973000 -0.186900 -0.135800
vn -0.973000 0.071400 -0.219700
vn -0.973000 0.186900 -0.135800
vn -0.973000 0.231000 0.000000
vn -0.973000 0.186900 0.135800
vn -0.973000 0.071400 0.219700
vn 0.973200 0.071000 0.218500
vn 0.973200 -0.229800 0.000000
vn 0.973200 0.071000 -0.218500
vn 0.973200 0.185900 0.135000
vn 0.973300 -0.185900 0.135000
vn 0.973200 -0.071000 -0.218500
vn 0.973200 0.229800 0.000000
vn 0.973200 -0.071000 0.218500
vn 0.973300 -0.185900 -0.135000
vn 0.973200 0.185900 -0.135000
vn -0.627700 -0.778500 -0.000000
vn 0.627700 -0.778500 0.000000
vn 0.627700 0.778500 0.000000
vn -0.627700 0.778500 0.000000
vn 0.943200 0.332200 0.000000
vn 0.000000 -0.518400 0.855100
vn 0.943200 0.332300 0.000000
vn 0.000000 -0.518400 -0.855100
vn -0.454300 0.890900 0.000000
vn 0.993500 -0.113900 0.000000
vn 0.993600 0.113300 0.000000
vn 0.987900 0.000000 0.155300
vn 0.993500 -0.114000 0.000000
vn 0.987900 0.000000 -0.155300
vn 0.993600 0.113400 -0.000000
vn -0.703900 0.710300 0.003000
vn -0.704900 -0.709300 0.000100
vn -0.701800 0.712400 0.001800
vn -0.699800 0.714400 0.002400
vn -0.704800 -0.709400 0.000000
vn -0.000000 -0.317900 -0.948100
vn 0.993600 -0.035900 0.107000
vn 0.993600 -0.035900 -0.107000
vn 0.993600 0.035800 0.106800
vn 0.993600 0.035800 -0.106800
vn 0.000000 -0.317900 0.948100
vn 0.000000 0.318000 0.948100
vn 0.000000 0.318000 -0.948100
vn -0.704900 -0.709300 -0.000000
vn -0.999900 -0.010300 0.000000
vn 1.000000 -0.000400 0.000000
vn -0.994200 0.107700 -0.000000
vn 0.999200 -0.040100 0.000000
vn -0.996300 0.085800 -0.000000
vn -0.707100 -0.707100 -0.000000
vn -0.575000 0.062300 -0.815800
vn -0.575000 0.062300 0.815800
vn -0.585300 0.051800 -0.809200
vn -0.585300 0.051800 0.809200
vn -0.391600 -0.391600 -0.832700
vn -0.391600 -0.391600 0.832700
vn 0.000000 -0.803600 -0.595100
vn -0.580700 -0.000000 -0.814100
vn 0.000000 -0.803600 0.595100
vn -0.580700 0.000000 0.814100
vn -0.999900 -0.012400 0.000000
vn 0.571300 -0.820700 0.000000
vn 0.937800 -0.347200 0.000000
vn -0.702700 -0.711500 0.000000
vn 0.169600 -0.985500 0.000000
vn -0.169600 0.985500 0.000000
vn -0.361800 0.932200 0.000000
vn 0.364300 -0.931300 -0.000000
vn -0.231000 0.973000 0.000000
vn 0.198000 -0.980200 -0.000000
vn 0.000000 -0.611900 0.790900
vn 0.000000 -0.611900 -0.790900
vn 0.999800 -0.015500 -0.010600
vn -0.998500 -0.045600 -0.031000
vn 0.999800 -0.015500 0.010600
vn -0.998500 -0.045600 0.031000
vn 0.001100 -0.001300 -1.000000
vn -0.011100 0.003100 0.999900
vn 0.005600 0.003100 -1.000000
vn 0.005600 0.003100 1.000000
vn -0.907300 -0.420500 0.000000
vn 0.990800 -0.135400 0.000000
vn -0.992900 -0.119200 -0.000000
vn 0.005000 -0.003700 1.000000
vn 0.952000 0.306200 0.000000
vn 0.553200 -0.833000 0.000000
vn 0.001100 -0.001300 1.000000
vn 0.964100 -0.265400 0.000000
vn -0.011100 0.003100 -0.999900
vn -0.998700 0.050300 -0.000000
vn -0.963500 -0.267700 -0.000000
vn -0.058700 -0.998300 0.000000
vn 0.997600 0.069500 0.000000
vn 0.000700 -0.003400 1.000000
vn 0.000700 -0.003400 -1.000000
vn -0.951400 -0.307800 -0.000000
vn 0.963000 -0.269700 0.000000
vn -0.342000 -0.939700 0.000000
vn 0.005000 -0.003700 -1.000000
vn 0.817300 -0.576100 0.000000
vn -0.713500 -0.700700 0.000000
vn 0.000000 -0.776600 -0.630000
vn 0.000000 -0.772200 0.635400
usemtl DarkMetal
f 351//2 350//2 349//2 354//2 353//2 356//2 355//2 352//2
f 353//107 354//107 455//107 454//107
f 425//2 455//2 458//2 452//2 453//2 451//2 450//2 448//2 449//2 446//2 444//2 445//2 457//2 441//2 443//2 442//2 456//2 438//2 437//2 436//2 434//2 433//2 432//2 431//2 418//2 414//2
f 401//107 402//107 436//107 435//107
f 399//2 398//2 397//2 402//2 401//2 404//2 403//2 400//2
f 430//108 403//108 404//108 429//108
f 429//4 404//4 401//4 435//4
f 397//106 398//106 433//106 434//106
f 399//105 400//105 431//105 432//105
f 385//107 386//107 441//107 439//107
f 440//4 388//4 385//4 439//4
f 383//2 382//2 381//2 386//2 385//2 388//2 387//2 384//2
f 381//106 382//106 442//106 443//106
f 383//105 384//105 438//105 456//105
f 369//107 370//107 448//107 447//107
f 459//4 372//4 369//4 447//4
f 367//2 366//2 365//2 370//2 369//2 372//2 371//2 368//2
f 365//106 366//106 446//106 449//106
f 367//105 368//105 445//105 444//105
f 425//113 426//113 422//113 421//113
f 420//6 462//6 463//6 464//6 466//6 467//6 468//6 469//6 488//6 487//6 483//6 485//6 484//6 472//6 473//6 474//6 477//6 478//6 479//6 486//6 481//6 480//6 491//6 482//6 426//6 416//6
f 411//108 412//108 462//108 461//108
f 407//6 412//6 411//6 410//6 409//6 406//6 405//6 408//6
f 411//4 461//4 465//4 410//4
f 407//3 463//3 462//3 412//3
f 409//1 468//1 467//1 406//1
f 389//22 483//22 487//22 392//22
f 391//6 396//6 395//6 394//6 393//6 390//6 389//6 392//6
f 395//4 471//4 470//4 394//4
f 395//108 396//108 469//108 471//108
f 391//3 488//3 469//3 396//3
f 393//1 484//1 485//1 390//1
f 373//22 477//22 474//22 376//22
f 375//6 380//6 379//6 378//6 377//6 374//6 373//6 376//6
f 379//4 475//4 476//4 378//4
f 379//108 380//108 472//108 475//108
f 375//3 473//3 472//3 380//3
f 377//1 479//1 478//1 374//1
f 357//22 491//22 480//22 360//22
f 359//6 364//6 363//6 362//6 361//6 358//6 357//6 360//6
f 363//4 489//4 492//4 362//4
f 490//107 361//107 362//107 492//107
f 363//108 364//108 486//108 489//108
f 359//3 481//3 486//3 364//3
f 361//1 490//1 482//1 358//1
f 488//105 391//105 392//105 487//105
f 479//107 377//107 378//107 476//107
f 463//105 407//105 408//105 464//105
f 484//107 393//107 394//107 470//107
f 473//105 375//105 376//105 474//105
f 468//107 409//107 410//107 465//107
f 483//106 389//106 390//106 485//106
f 481//105 359//105 360//105 480//105
f 491//106 357//106 358//106 482//106
f 477//106 373//106 374//106 478//106
f 466//106 405//106 406//106 467//106
f 405//22 466//22 464//22 408//22
f 421//3 422//3 493//3 496//3
f 415//6 493//6 503//6 497//6
f 415//22 497//22 498//22 413//22
f 417//2 495//2 504//2 498//2
f 495//2 424//2 499//2 504//2
f 424//110 428//110 501//110 499//110
f 423//111 427//111 428//111 424//111
f 500//112 502//112 427//112 423//112
f 419//1 494//1 495//1 417//1
f 494//1 423//1 424//1 495//1
f 497//6 503//6 494//6 419//6
f 503//6 500//6 423//6 494//6
f 497//22 419//22 417//22 498//22
f 498//2 504//2 496//2 413//2
f 413//3 496//3 493//3 415//3
f 493//6 422//6 500//6 503//6
f 422//112 426//112 502//112 500//112
f 504//2 499//2 421//2 496//2
f 426//6 482//6 490//6 492//6 489//6 486//6 479//6 476//6 475//6 472//6 484//6 470//6 471//6 469//6 468//6 465//6 461//6 462//6 420//6 427//6 502//6
f 426//3 425//3 414//3 416//3
f 433//22 398//22 399//22 432//22
f 445//3 368//3 371//3 457//3
f 436//1 402//1 397//1 434//1
f 457//108 371//108 372//108 459//108
f 438//3 384//3 387//3 437//3
f 442//22 382//22 383//22 456//22
f 431//3 400//3 403//3 430//3
f 448//1 370//1 365//1 449//1
f 437//108 387//108 388//108 440//108
f 446//22 366//22 367//22 444//22
f 441//1 386//1 381//1 443//1
f 499//110 501//110 425//110 421//110
f 420//4 416//4 414//4 418//4
f 427//109 420//109 418//109 428//109
f 428//2 418//2 431//2 430//2 429//2 435//2 436//2 437//2 440//2 439//2 441//2 457//2 459//2 447//2 448//2 450//2 460//2 454//2 455//2 425//2 501//2
f 349//106 350//106 452//106 458//106
f 351//105 352//105 451//105 453//105
f 455//1 354//1 349//1 458//1
f 452//22 350//22 351//22 453//22
f 451//3 352//3 355//3 450//3
f 450//108 355//108 356//108 460//108
f 460//4 356//4 353//4 454//4
f 149//23 150//23 152//23 151//23
f 159//34 149//34 161//34 166//34
f 157//31 159//31 166//31 165//31
f 155//35 157//35 165//35 164//35
f 153//33 155//33 164//33 163//33
f 162//41 163//41 169//41 168//41
f 168//52 169//52 196//52 193//52
f 194//36 193//36 214//36 190//36
f 172//50 167//50 194//50 191//50
f 195//45 191//45 206//45 186//45
f 210//69 186//69 215//69 234//69
f 234//43 215//43 216//43 233//43
f 209//61 200//61 224//61 233//61
f 238//44 223//44 224//44 237//44
f 213//68 189//68 220//68 237//68
f 230//42 219//42 220//42 229//42
f 189//36 213//36 212//36 188//36
f 212//56 201//56 221//56 236//56
f 236//44 221//44 222//44 235//44
f 202//65 211//65 235//65 222//65
f 187//36 211//36 174//36 173//36
f 187//67 203//67 227//67 218//67
f 228//42 217//42 218//42 227//42
f 197//73 204//73 228//73 225//73
f 232//43 225//43 226//43 231//43
f 198//63 207//63 231//63 226//63
f 207//43 198//43 177//43 176//43
f 176//26 177//26 183//26 182//26
f 179//22 180//22 181//22 182//22 183//22 184//22
f 175//25 176//25 182//25 181//25
f 177//27 178//27 184//27 183//27
f 208//75 197//75 225//75 232//75
f 185//45 205//45 204//45 197//45
f 225//45 228//45 227//45 226//45
f 198//45 203//45 178//45 177//45
f 203//76 198//76 226//76 227//76
f 174//24 175//24 181//24 180//24
f 178//28 173//28 179//28 184//28
f 173//23 174//23 180//23 179//23
f 203//42 187//42 173//42 178//42
f 202//46 207//46 176//46 175//46
f 211//44 202//44 175//44 174//44
f 207//49 202//49 222//49 231//49
f 211//74 187//74 218//74 235//74
f 221//46 232//46 231//46 222//46
f 217//36 236//36 235//36 218//36
f 201//58 208//58 232//58 221//58
f 204//48 188//48 217//48 228//48
f 188//71 212//71 236//71 217//71
f 205//42 189//42 188//42 204//42
f 189//57 205//57 229//57 220//57
f 219//36 238//36 237//36 220//36
f 200//46 209//46 208//46 201//46
f 209//43 185//43 197//43 208//43
f 213//44 200//44 201//44 212//44
f 200//59 213//59 237//59 224//59
f 185//72 209//72 233//72 216//72
f 205//70 185//70 216//70 229//70
f 215//45 230//45 229//45 216//45
f 223//46 234//46 233//46 224//46
f 199//64 210//64 234//64 223//64
f 186//66 206//66 230//66 215//66
f 170//51 171//51 195//51 192//51
f 192//43 195//43 186//43 210//43
f 171//53 172//53 191//53 195//53
f 190//47 214//47 238//47 219//47
f 191//42 194//42 190//42 206//42
f 214//62 199//62 223//62 238//62
f 206//60 190//60 219//60 230//60
f 196//46 192//46 210//46 199//46
f 193//44 196//44 199//44 214//44
f 167//55 168//55 193//55 194//55
f 169//54 170//54 192//54 196//54
f 153//25 154//25 156//25 155//25
f 163//37 164//37 170//37 169//37
f 155//26 156//26 158//26 157//26
f 164//40 165//40 171//40 170//40
f 165//30 166//30 172//30 171//30
f 157//27 158//27 160//27 159//27
f 166//39 161//39 167//39 172//39
f 161//38 162//38 168//38 167//38
f 149//32 151//32 162//32 161//32
f 151//29 153//29 163//29 162//29
f 159//28 160//28 150//28 149//28
f 151//24 152//24 154//24 153//24
f 52//8 51//8 107//8 108//8
f 103//6 104//6 108//6 107//6
f 109//6 104//6 103//6 113//6
f 114//15 110//15 109//15 113//15
f 111//14 110//14 114//14 115//14
f 116//16 112//16 111//16 115//16
f 101//2 112//2 116//2 102//2
f 101//2 102//2 106//2 105//2
f 50//8 49//8 105//8 106//8
f 49//12 47//12 101//12 105//12
usemtl Metal
f 46//137 45//137 47//137 48//137
f 90//152 85//152 45//152 46//152
f 89//151 86//151 85//151 90//151
f 34//2 30//2 87//2 86//2 93//2 96//2
f 28//2 42//2 56//2 55//2 30//2
f 42//2 21//2 60//2 81//2 56//2
f 60//150 57//150 58//150 59//150
f 58//22 79//22 82//22 59//22
f 78//144 79//144 80//144 77//144
f 77//6 54//6 29//6 92//6 91//6 66//6
f 41//6 27//6 29//6 54//6 53//6
f 27//6 35//6 36//6 29//6
f 36//6 25//6 32//6 100//6 99//6
f 24//1 23//1 26//1 25//1
f 97//6 100//6 32//6 38//6 40//6
usemtl DarkMetal
f 40//11 38//11 37//11 39//11
usemtl Metal
f 31//2 95//2 94//2 39//2 37//2
f 94//134 97//134 40//134 39//134
f 32//135 31//135 37//135 38//135
f 25//1 26//1 31//1 32//1
f 97//6 98//6 99//6 100//6
f 35//6 24//6 25//6 36//6
f 70//140 65//140 66//140 69//140
f 62//136 65//136 70//136 71//136
f 61//149 84//149 83//149 62//149
f 76//143 72//143 71//143 75//143
f 72//141 61//141 62//141 71//141
f 74//142 70//142 69//142 73//142
f 71//138 70//138 74//138 75//138
f 65//147 78//147 77//147 66//147
f 77//6 80//6 53//6 54//6
f 83//3 78//3 65//3 62//3
f 78//139 83//139 82//139 79//139
f 79//146 58//146 57//146 80//146
f 22//6 41//6 53//6 80//6 57//6
f 81//148 60//148 59//148 82//148
f 21//3 22//3 57//3 60//3
f 82//145 83//145 84//145 81//145
f 81//2 84//2 55//2 56//2
f 26//2 34//2 96//2 95//2 31//2
f 97//153 94//153 93//153 98//153
f 93//2 94//2 95//2 96//2
f 23//2 33//2 34//2 26//2
f 30//2 55//2 84//2 61//2 88//2 87//2
f 33//2 28//2 30//2 34//2
f 89//22 98//22 93//22 86//22
f 29//6 36//6 99//6 98//6 89//6 92//6
f 89//6 90//6 91//6 92//6
f 85//2 86//2 87//2 88//2
f 66//6 91//6 90//6 46//6 69//6
f 69//6 46//6 48//6 73//6
f 85//2 88//2 61//2 72//2 45//2
f 45//2 72//2 76//2 47//2
usemtl DarkMetal
f 43//9 50//9 106//9 102//9
f 63//13 68//13 44//13 43//13
f 67//10 68//10 63//10 64//10
f 47//4 76//4 112//4 101//4
f 63//13 43//13 102//13 116//13
f 64//10 63//10 116//10 115//10
f 76//4 75//4 111//4 112//4
f 75//4 74//4 110//4 111//4
f 67//17 64//17 115//17 114//17
f 74//4 73//4 109//4 110//4
f 68//10 67//10 114//10 113//10
f 73//4 48//4 104//4 109//4
f 44//13 68//13 113//13 103//13
f 48//12 47//12 49//12 52//12
f 52//8 49//8 50//8 51//8
f 43//9 44//9 51//9 50//9
f 48//12 52//12 108//12 104//12
f 51//9 44//9 103//9 107//9
f 505//1 508//1 507//1 506//1
f 508//2 505//2 510//2 509//2
f 509//1 510//1 514//1 513//1
f 513//2 514//2 518//2 517//2
f 522//1 518//1 527//1 557//1 558//1
f 527//4 535//4 566//4 557//4
f 575//127 565//127 566//127 574//127
f 542//2 546//2 575//2 570//2
f 529//118 531//118 546//118 545//118
f 521//2 529//2 562//2 553//2
f 553//130 562//130 561//130 554//130
f 533//22 525//22 554//22 561//22
f 534//115 533//115 548//115 552//115
f 573//124 585//124 548//124 572//124
f 543//3 537//3 585//3 573//3
f 538//3 539//3 540//3 537//3
f 539//3 538//3 582//3 583//3
f 581//123 583//123 550//123 577//123
f 568//126 576//126 577//126 567//126
f 547//6 541//6 569//6 576//6
f 532//116 530//116 551//116 547//116
f 530//116 564//116 580//116 551//116
f 580//128 564//128 563//128 579//128
f 564//125 556//125 555//125 563//125
f 524//1 520//1 526//1 555//1 556//1
f 519//1 520//1 524//1 523//1
f 519//1 523//1 559//1 560//1 528//1
f 515//6 516//6 520//6 519//6
f 511//1 512//1 516//1 515//1
f 578//125 580//125 579//125
f 530//6 524//6 556//6 564//6
f 544//6 551//6 580//6 578//6
f 523//6 524//6 530//6 532//6
f 547//6 551//6 544//6 541//6
f 568//116 532//116 547//116 576//116
f 536//4 528//4 560//4 567//4
f 523//6 532//6 568//6 559//6
f 559//132 568//132 567//132 560//132
f 536//114 567//114 577//114 550//114
f 576//132 569//132 581//132 577//132
f 583//122 582//122 549//122 550//122
f 541//3 539//3 583//3 581//3 569//3
f 540//3 539//3 541//3 544//3
f 540//3 544//3 578//3 584//3
f 537//3 540//3 584//3 585//3
f 571//130 573//130 572//130
f 526//22 534//22 563//22 555//22
f 584//121 578//121 579//121 552//121
f 563//115 534//115 552//115 579//115
f 585//133 584//133 552//133 548//133
f 526//22 525//22 533//22 534//22
f 533//119 561//119 572//119 548//119
f 562//129 571//129 572//129 561//129
f 545//2 543//2 573//2 571//2
f 562//118 529//118 545//118 571//118
f 538//3 542//3 570//3 582//3
f 538//3 537//3 543//3 542//3
f 545//2 546//2 542//2 543//2
f 531//118 565//118 575//118 546//118
f 582//120 570//120 574//120 549//120
f 574//131 570//131 575//131
f 566//117 535//117 549//117 574//117
f 535//117 536//117 550//117 549//117
f 521//2 522//2 531//2 529//2
f 557//131 566//131 565//131 558//131
f 527//4 528//4 536//4 535//4
f 531//2 522//2 558//2 565//2
f 518//1 519//1 528//1 527//1
f 517//1 518//1 522//1 521//1
f 517//1 521//1 553//1 554//1 525//1
f 520//1 517//1 525//1 526//1
f 516//22 513//22 517//22 520//22
f 514//4 515//4 519//4 518//4
f 512//1 509//1 513//1 516//1
f 510//1 511//1 515//1 514//1
f 507//22 508//22 509//22 512//22
f 506//6 507//6 512//6 511//6
f 505//4 506//4 511//4 510//4
f 239//77 240//77 242//77 241//77
f 242//87 240//87 260//87 259//87
f 261//78 259//78 269//78 271//78
f 271//103 269//103 279//103 281//103
f 279//77 280//77 290//77 289//77
f 280//85 288//85 298//85 290//85
f 278//104 277//104 287//104 288//104
f 277//101 276//101 286//101 287//101
f 286//82 285//82 295//82 296//82
f 295//1 294//1 304//1 305//1
f 305//77 304//77 314//77 315//77
f 309//1 310//1 318//1 317//1 316//1 315//1 314//1 313//1 312//1 311//1
f 300//80 308//80 318//80 310//80
f 302//4 301//4 311//4 312//4
f 292//1 291//1 301//1 302//1
f 283//79 282//79 292//79 293//79
f 274//102 273//102 283//102 284//102
f 264//80 263//80 273//80 274//80
f 248//86 246//86 262//86 263//86
f 247//80 248//80 250//80 249//80
f 249//81 250//81 252//81 251//81
f 251//82 252//82 254//82 253//82
f 253//4 254//4 256//4 255//4
f 255//84 256//84 258//84 257//84
f 258//91 256//91 267//91 268//91
f 256//92 254//92 266//92 267//92
f 254//93 252//93 265//93 266//93
f 245//79 246//79 248//79 247//79
f 243//22 244//22 246//22 245//22
f 250//83 248//83 263//83 264//83
f 252//94 250//94 264//94 265//94
f 263//79 262//79 272//79 273//79
f 265//81 264//81 274//81 275//81
f 273//99 272//99 282//99 283//99
f 293//1 292//1 302//1 303//1
f 308//79 307//79 317//79 318//79
f 301//82 299//82 309//82 311//82
f 307//22 306//22 316//22 317//22
f 299//81 300//81 310//81 309//81
f 303//84 302//84 312//84 313//84
f 304//85 303//85 313//85 314//85
f 294//1 293//1 303//1 304//1
f 306//78 305//78 315//78 316//78
f 284//80 283//80 293//80 294//80
f 297//1 296//1 306//1 307//1
f 275//95 274//95 284//95 285//95
f 296//1 295//1 305//1 306//1
f 285//81 284//81 294//81 295//81
f 276//98 275//98 285//98 286//98
f 266//82 265//82 275//82 276//82
f 267//4 266//4 276//4 277//4
f 268//84 267//84 277//84 278//84
f 287//4 286//4 296//4 297//4
f 298//1 297//1 307//1 308//1
f 288//84 287//84 297//84 298//84
f 290//1 298//1 308//1 300//1
f 270//97 278//97 288//97 280//97
f 291//1 289//1 299//1 301//1
f 289//1 290//1 300//1 299//1
f 282//22 281//22 291//22 292//22
f 281//78 279//78 289//78 291//78
f 269//100 270//100 280//100 279//100
f 272//96 271//96 281//96 282//96
f 262//22 261//22 271//22 272//22
f 246//88 244//88 261//88 262//88
f 259//77 260//77 270//77 269//77
f 260//85 268//85 278//85 270//85
f 257//85 258//85 240//85 239//85
f 241//78 242//78 244//78 243//78
f 240//90 258//90 268//90 260//90
f 244//89 242//89 259//89 261//89
usemtl Black
f 320//4 319//4 322//4 321//4
f 322//4 319//4 327//4 328//4
f 327//179 330//179 331//179 328//179
f 329//180 332//180 331//180 330//180
f 323//181 326//181 332//181 329//181
f 326//176 333//176 339//176 325//176
f 333//185 336//185 335//185 334//185
f 336//184 338//184 337//184 335//184
f 340//174 346//174 343//174 337//174
f 345//186 344//186 343//186 346//186
f 344//175 345//175 348//175 341//175
f 341//187 348//187 347//187 342//187
f 334//173 347//173 348//173 345//173 346//173 340//173
f 335//170 342//170 347//170 334//170
f 337//188 343//188 344//188 341//188 342//188 335//188
f 339//183 333//183 334//183 340//183
f 338//182 339//182 340//182 337//182
f 325//171 339//171 338//171 324//171
f 323//172 336//172 333//172 326//172
f 324//166 338//166 336//166 323//166
f 319//178 323//178 329//178 330//178 327//178
f 321//177 325//177 324//177 320//177
f 322//169 326//169 325//169 321//169
f 320//168 324//168 323//168 319//168
f 326//167 322//167 328//167 331//167 332//167
f 607//2 601//2 588//2 597//2
f 606//2 600//2 601//2 607//2
f 590//2 586//2 600//2 606//2
f 590//1 593//1 587//1 586//1
f 592//161 602//161 605//161 593//161
f 604//6 598//6 599//6 605//6
f 594//6 589//6 598//6 604//6
f 603//161 595//161 594//161 604//161
f 595//22 603//22 608//22 596//22
f 602//161 603//161 604//161 605//161
f 603//22 602//22 609//22 608//22
f 602//22 592//22 591//22 609//22
f 605//6 599//6 587//6 593//6
f 592//189 593//189 590//189 591//189
f 590//160 606//160 609//160 591//160
f 599//4 600//4 586//4 587//4
f 598//4 601//4 600//4 599//4
f 589//4 588//4 601//4 598//4
f 606//160 607//160 608//160 609//160
f 597//190 594//190 595//190 596//190
f 607//160 597//160 596//160 608//160
f 594//3 597//3 588//3 589//3
usemtl Metal
f 675//22 674//22 681//22 680//22
f 676//165 675//165 771//165 772//165
f 670//3 676//3 772//3 766//3
f 671//4 670//4 766//4 767//4
f 677//1 671//1 767//1 773//1
f 676//6 670//6 671//6 677//6
f 674//164 677//164 773//164 770//164
f 680//163 679//163 775//163 776//163
f 678//2 672//2 673//2 679//2
f 673//4 672//4 768//4 769//4
f 672//1 678//1 774//1 768//1
f 679//3 673//3 769//3 775//3
f 678//162 681//162 777//162 774//162
f 681//1 674//1 770//1 777//1
f 675//3 680//3 776//3 771//3
f 674//161 675//161 676//161 677//161
f 678//160 679//160 680//160 681//160
f 687//22 686//22 693//22 692//22
f 686//161 687//161 688//161 689//161
f 688//6 682//6 683//6 689//6
f 683//4 682//4 778//4 779//4
f 689//1 683//1 779//1 785//1
f 682//3 688//3 784//3 778//3
f 690//160 691//160 692//160 693//160
f 690//2 684//2 685//2 691//2
f 685//4 684//4 780//4 781//4
f 691//3 685//3 781//3 787//3
f 684//1 690//1 786//1 780//1
f 688//165 687//165 783//165 784//165
f 686//164 689//164 785//164 782//164
f 692//163 691//163 787//163 788//163
f 690//162 693//162 789//162 786//162
f 693//1 686//1 782//1 789//1
f 687//3 692//3 788//3 783//3
f 699//22 698//22 705//22 704//22
f 698//161 699//161 700//161 701//161
f 700//6 694//6 695//6 701//6
f 695//4 694//4 790//4 791//4
f 701//1 695//1 791//1 797//1
f 694//3 700//3 796//3 790//3
f 702//160 703//160 704//160 705//160
f 702//2 696//2 697//2 703//2
f 697//4 696//4 792//4 793//4
f 703//3 697//3 793//3 799//3
f 696//1 702//1 798//1 792//1
f 700//165 699//165 795//165 796//165
f 698//164 701//164 797//164 794//164
f 704//163 703//163 799//163 800//163
f 702//162 705//162 801//162 798//162
f 705//1 698//1 794//1 801//1
f 699//3 704//3 800//3 795//3
f 711//22 710//22 717//22 716//22
f 710//161 711//161 712//161 713//161
f 713//1 707//1 803//1 809//1
f 707//4 706//4 802//4 803//4
f 706//3 712//3 808//3 802//3
f 712//6 706//6 707//6 713//6
f 714//160 715//160 716//160 717//160
f 715//3 709//3 805//3 811//3
f 709//4 708//4 804//4 805//4
f 708//1 714//1 810//1 804//1
f 714//2 708//2 709//2 715//2
f 717//1 710//1 806//1 813//1
f 711//3 716//3 812//3 807//3
f 716//163 715//163 811//163 812//163
f 714//162 717//162 813//162 810//162
f 712//165 711//165 807//165 808//165
f 710//164 713//164 809//164 806//164
f 723//22 722//22 729//22 728//22
f 724//165 723//165 819//165 820//165
f 718//3 724//3 820//3 814//3
f 719//4 718//4 814//4 815//4
f 725//1 719//1 815//1 821//1
f 724//6 718//6 719//6 725//6
f 722//164 725//164 821//164 818//164
f 728//163 727//163 823//163 824//163
f 727//3 721//3 817//3 823//3
f 721//4 720//4 816//4 817//4
f 720//1 726//1 822//1 816//1
f 726//2 720//2 721//2 727//2
f 726//162 729//162 825//162 822//162
f 729//1 722//1 818//1 825//1
f 723//3 728//3 824//3 819//3
f 722//161 723//161 724//161 725//161
f 726//160 727//160 728//160 729//160
f 735//22 734//22 741//22 740//22
f 736//165 735//165 831//165 832//165
f 730//3 736//3 832//3 826//3
f 731//4 730//4 826//4 827//4
f 737//1 731//1 827//1 833//1
f 736//6 730//6 731//6 737//6
f 734//164 737//164 833//164 830//164
f 740//163 739//163 835//163 836//163
f 739//3 733//3 829//3 835//3
f 733//4 732//4 828//4 829//4
f 732//1 738//1 834//1 828//1
f 738//2 732//2 733//2 739//2
f 738//162 741//162 837//162 834//162
f 741//1 734//1 830//1 837//1
f 735//3 740//3 836//3 831//3
f 734//161 735//161 736//161 737//161
f 738//160 739//160 740//160 741//160
f 747//22 746//22 753//22 752//22
f 746//161 747//161 748//161 749//161
f 748//6 742//6 743//6 749//6
f 743//4 742//4 838//4 839//4
f 749//1 743//1 839//1 845//1
f 742//3 748//3 844//3 838//3
f 750//160 751//160 752//160 753//160
f 750//2 744//2 745//2 751//2
f 745//4 744//4 840//4 841//4
f 751//3 745//3 841//3 847//3
f 744//1 750//1 846//1 840//1
f 748//165 747//165 843//165 844//165
f 746//164 749//164 845//164 842//164
f 752//163 751//163 847//163 848//163
f 750//162 753//162 849//162 846//162
f 753//1 746//1 842//1 849//1
f 747//3 752//3 848//3 843//3
f 759//22 758//22 765//22 764//22
f 758//161 759//161 760//161 761//161
f 761//1 755//1 851//1 857//1
f 755//4 754//4 850//4 851//4
f 760//6 754//6 755//6 761//6
f 754//3 760//3 856//3 850//3
f 762//160 763//160 764//160 765//160
f 762//2 756//2 757//2 763//2
f 757//4 756//4 852//4 853//4
f 763//3 757//3 853//3 859//3
f 756//1 762//1 858//1 852//1
f 760//165 759//165 855//165 856//165
f 758//164 761//164 857//164 854//164
f 764//163 763//163 859//163 860//163
f 762//162 765//162 861//162 858//162
f 765//1 758//1 854//1 861//1
f 759//3 764//3 860//3 855//3
f 138//154 137//154 134//154 133//154
f 139//2 138//2 133//2 135//2
f 144//156 139//156 140//156 141//156
f 141//6 148//6 147//6 142//6
f 148//159 146//159 145//159 147//159
f 129//2 145//2 143//2 131//2
f 131//4 143//4 142//4 132//4
f 130//22 147//22 145//22 129//22
f 132//6 142//6 147//6 130//6
f 146//2 144//2 143//2 145//2
f 144//158 141//158 142//158 143//158
f 140//155 139//155 135//155 136//155
f 141//6 140//6 137//6 148//6
f 146//2 138//2 139//2 144//2
f 148//157 137//157 138//157 146//157
f 137//6 140//6 136//6 134//6
usemtl DarkMetal
f 117//1 122//1 119//1 118//1
f 118//6 119//6 126//6 123//6
f 127//19 126//19 125//19 128//19
f 120//22 121//22 128//22 125//22
f 124//3 123//3 126//3 127//3
f 121//21 122//21 127//21 128//21
f 122//2 117//2 124//2 127//2
f 119//20 120//20 125//20 126//20
f 122//18 121//18 120//18 119//18
usemtl Grey
f 614//2 619//2 612//2 610//2
f 614//192 615//192 618//192 619//192
f 616//22 621//22 618//22 615//22
f 616//191 617//191 620//191 621//191
f 611//6 613//6 620//6 617//6
f 611//3 617//3 616//3 615//3 614//3 610//3
f 613//1 612//1 619//1 618//1 621//1 620//1
f 626//2 631//2 624//2 622//2
f 626//192 627//192 630//192 631//192
f 628//22 633//22 630//22 627//22
f 628//191 629//191 632//191 633//191
f 623//6 625//6 632//6 629//6
f 623//3 629//3 628//3 627//3 626//3 622//3
f 625//1 624//1 631//1 630//1 633//1 632//1
f 638//2 643//2 636//2 634//2
f 637//1 636//1 643//1 642//1 645//1 644//1
f 640//22 645//22 642//22 639//22
f 640//191 641//191 644//191 645//191
f 635//6 637//6 644//6 641//6
f 638//192 639//192 642//192 643//192
f 635//3 641//3 640//3 639//3 638//3 634//3
f 650//2 655//2 648//2 646//2
f 647//3 653//3 652//3 651//3 650//3 646//3
f 652//22 657//22 654//22 651//22
f 652//191 653//191 656//191 657//191
f 647//6 649//6 656//6 653//6
f 649//1 648//1 655//1 654//1 657//1 656//1
f 650//192 651//192 654//192 655//192
f 662//2 667//2 660//2 658//2
f 659//3 665//3 664//3 663//3 662//3 658//3
f 664//22 669//22 666//22 663//22
f 664//191 665//191 668//191 669//191
f 659//6 661//6 668//6 665//6
f 661//1 660//1 667//1 666//1 669//1 668//1
f 662//192 663//192 666//192 667//192
usemtl DarkMetal
f 3//1 4//1 8//1 9//1
f 4//6 2//6 6//6 7//6 8//6
f 7//4 6//4 5//4 10//4
f 2//3 1//3 5//3 6//3
f 7//5 10//5 9//5 8//5
f 1//2 3//2 9//2 10//2 5//2
f 13//3 19//3 18//3 14//3
f 11//2 15//2 20//2 19//2 13//2
f 17//4 20//4 15//4 16//4
f 12//1 16//1 15//1 11//1
f 14//6 18//6 17//6 16//6 12//6
f 17//7 18//7 19//7 20//7
