# split from source with materials
mtllib sniper.mtl
o island_8
v 0.293237 0.291697 -0.077942
v 0.293237 0.236583 -0.055114
v 0.293237 0.213755 0.000000
v 0.293237 0.236583 0.055114
v 0.293237 0.291697 0.077942
v 0.293237 0.346811 0.055114
v 0.293237 0.369639 0.000000
v 0.293237 0.346811 -0.055114
v 0.236220 0.291697 -0.077942
v 0.236220 0.236583 -0.055114
v 0.236220 0.213755 0.000000
v 0.236220 0.236583 0.055114
v 0.236220 0.291697 0.077942
v 0.236220 0.346811 0.055114
v 0.236220 0.369639 0.000000
v 0.236220 0.346811 -0.055114
v 0.277927 0.181969 0.228824
v 0.277927 0.207484 0.239392
v 0.251531 0.181969 0.228824
v 0.251531 0.207484 0.239392
v 0.290838 0.175751 0.243835
v 0.290838 0.201266 0.254404
v 0.238619 0.175750 0.243836
v 0.238619 0.201266 0.254404
v 0.295246 0.167011 0.264934
v 0.295246 0.192527 0.275503
v 0.234212 0.167011 0.264934
v 0.234212 0.192527 0.275503
v 0.287651 0.160026 0.281798
v 0.287651 0.185541 0.292367
v 0.241806 0.160026 0.281798
v 0.241806 0.185541 0.292367
v 0.273016 0.155271 0.293783
v 0.273016 0.180787 0.304352
v 0.256441 0.155271 0.293783
v 0.256441 0.180787 0.304352
vn -1.000000 0.000000 0.000000
vn 1.000000 0.000000 0.000000
vn -0.000000 0.923900 -0.382700
vn 0.000000 0.382700 0.923900
vn 0.000000 -0.923900 0.382700
vn -0.000000 -0.382700 -0.923900
vn -0.000000 0.382700 -0.923900
vn -0.000000 0.923900 0.382700
vn 0.000000 -0.382700 0.923900
vn 0.000000 -0.923900 -0.382700
vn -0.996500 -0.032200 0.077700
vn 0.000000 -0.954000 -0.299900
vn 0.996500 -0.032200 0.077700
vn 0.000000 0.886600 0.462500
vn 0.782900 0.238100 -0.574800
vn -0.782900 0.238100 -0.574800
vn -0.981900 0.072500 -0.175100
vn 0.981900 0.072500 -0.175100
vn -0.000000 0.929500 0.368700
vn 0.923300 -0.147000 0.354900
vn -0.923300 -0.147000 0.354900
vn 0.661000 -0.287200 0.693300
vn 0.000000 -0.929500 -0.368700
vn -0.661000 -0.287200 0.693300
usemtl DarkMetal
f 7//3 8//3 16//3 15//3
f 6//8 7//8 15//8 14//8
f 5//4 6//4 14//4 13//4
f 5//14 13//14 20//14 18//14
f 20//16 19//16 23//16 24//16
f 22//8 24//8 28//8 26//8
f 28//21 27//21 31//21 32//21
f 32//24 31//24 35//24 36//24
f 33//9 34//9 36//9 35//9
f 29//22 30//22 34//22 33//22
f 31//23 29//23 33//23 35//23
f 27//10 25//10 29//10 31//10
f 30//19 32//19 36//19 34//19
f 25//20 26//20 30//20 29//20
f 21//18 22//18 26//18 25//18
f 26//8 28//8 32//8 30//8
f 24//17 23//17 27//17 28//17
f 19//10 17//10 21//10 23//10
f 23//10 21//10 25//10 27//10
f 12//12 4//12 17//12 19//12
f 3//5 4//5 12//5 11//5
f 2//10 3//10 11//10 10//10
f 1//6 2//6 10//6 9//6
f 17//15 18//15 22//15 21//15
f 18//8 20//8 24//8 22//8
f 4//13 5//13 18//13 17//13
f 13//11 12//11 19//11 20//11
f 8//7 1//7 9//7 16//7
f 1//2 8//2 7//2 6//2 5//2 4//2 3//2 2//2
f 9//1 10//1 11//1 12//1 13//1 14//1 15//1 16//1
