# split from source with materials
mtllib sniper.mtl
o island_3
v 0.210829 0.570835 -0.137474
v 0.210829 0.473627 -0.097208
v 0.210829 0.433361 0.000000
v 0.210829 0.473627 0.097209
v 0.210829 0.570835 0.137474
v 0.210829 0.668044 0.097209
v 0.210829 0.708309 0.000000
v 0.210829 0.668044 -0.097208
v 0.324055 0.570835 -0.081423
v 0.324055 0.513261 -0.057574
v 0.324055 0.489412 0.000000
v 0.324055 0.513261 0.057575
v 0.324055 0.570835 0.081423
v 0.324055 0.628410 0.057575
v 0.324055 0.652258 0.000000
v 0.324055 0.628410 -0.057574
v 0.526398 0.491635 0.000000
v 0.526398 0.514832 -0.056003
v 0.526398 0.626838 -0.056003
v 0.526398 0.650035 0.000000
v 0.526398 0.626838 0.056003
v 0.526398 0.570835 0.079200
v 0.526398 0.514832 0.056003
v 0.526398 0.570835 -0.079200
v 0.639714 0.514832 -0.056003
v 0.639714 0.650035 0.000000
v 0.639714 0.570835 0.079200
v 0.639714 0.570835 -0.079200
v 0.639714 0.491635 0.000000
v 0.639714 0.626838 -0.056003
v 0.639714 0.626838 0.056003
v 0.639714 0.514832 0.056003
v 0.630683 0.472814 0.000000
v 0.535429 0.472814 0.000000
v 0.630563 0.640196 -0.069361
v 0.535549 0.640196 -0.069361
v 0.630563 0.640196 0.069361
v 0.535549 0.640196 0.069361
v 0.630581 0.501506 0.069378
v 0.535531 0.501506 0.069378
v 0.535549 0.570835 0.098091
v 0.535549 0.668926 0.000000
v 0.535549 0.570835 -0.098091
v 0.535531 0.501506 -0.069377
v 0.630581 0.501506 -0.069377
v 0.630563 0.668926 0.000000
v 0.630563 0.570835 0.098091
v 0.630563 0.570835 -0.098091
v 0.615297 0.475637 0.000000
v 0.550815 0.475637 0.000000
v 0.608289 0.487464 0.040898
v 0.557823 0.487464 0.040898
v 0.557823 0.487464 -0.040898
v 0.608289 0.487464 -0.040898
v 0.614070 0.370045 0.000000
v 0.552042 0.370045 0.000000
v 0.612534 0.371581 0.040610
v 0.553577 0.371580 0.040610
v 0.553577 0.371580 -0.040610
v 0.612534 0.371581 -0.040610
v 1.523829 0.570887 -0.170377
v 1.523806 0.450362 -0.120470
v 1.523801 0.400464 -0.000000
v 1.523806 0.450362 0.120469
v 1.523829 0.570887 0.170377
v 1.523894 0.691382 0.120419
v 1.523950 0.741234 -0.000000
v 1.523894 0.691382 -0.120419
v 1.880917 0.555202 -0.158680
v 1.831550 0.438391 -0.112187
v 1.814672 0.395219 -0.000000
v 1.831550 0.438391 0.112186
v 1.880917 0.555202 0.158680
v 1.921839 0.659871 0.112244
v 1.938769 0.703173 -0.000000
v 1.921839 0.659871 -0.112245
v 1.301537 0.570836 -0.081538
v 1.301537 0.513179 -0.057656
v 1.301537 0.489297 -0.000000
v 1.301537 0.513179 0.057656
v 1.301537 0.570836 0.081538
v 1.301537 0.628492 0.057656
v 1.301537 0.652374 -0.000000
v 1.301537 0.628492 -0.057656
v 1.155141 0.491635 -0.000000
v 1.155141 0.514833 -0.056003
v 1.155141 0.626838 -0.056003
v 1.155141 0.650036 -0.000000
v 1.155141 0.626838 0.056003
v 1.155141 0.570836 0.079200
v 1.155141 0.514833 0.056003
v 1.155141 0.570836 -0.079200
v 1.041825 0.514832 -0.056003
v 1.041825 0.650036 0.000000
v 1.041825 0.570835 0.079200
v 1.041825 0.570835 -0.079200
v 1.041825 0.491635 0.000000
v 1.041825 0.626838 -0.056003
v 1.041825 0.626838 0.056003
v 1.041825 0.514832 0.056003
v 1.050856 0.472814 0.000000
v 1.146110 0.472814 -0.000000
v 1.050976 0.640196 -0.069361
v 1.145990 0.640196 -0.069361
v 1.050976 0.640196 0.069361
v 1.145990 0.640196 0.069361
v 1.050958 0.501506 0.069378
v 1.146008 0.501506 0.069378
v 1.145990 0.570836 0.098091
v 1.145990 0.668927 -0.000000
v 1.145990 0.570836 -0.098091
v 1.146008 0.501506 -0.069378
v 1.050958 0.501506 -0.069378
v 1.050976 0.668927 0.000000
v 1.050976 0.570835 0.098091
v 1.050976 0.570835 -0.098091
v 1.066242 0.475637 0.000000
v 1.130724 0.475637 -0.000000
v 1.073250 0.487464 0.040898
v 1.123716 0.487464 0.040898
v 1.123716 0.487464 -0.040898
v 1.073250 0.487464 -0.040898
v 1.067469 0.370045 0.000000
v 1.129497 0.370045 -0.000000
v 1.069005 0.371581 0.040610
v 1.127962 0.371581 0.040610
v 1.127962 0.371581 -0.040610
v 1.069005 0.371581 -0.040610
v 1.878637 0.555914 -0.131286
v 1.836445 0.457099 -0.092737
v 1.822480 0.421554 -0.000000
v 1.836445 0.457099 0.092736
v 1.878637 0.555914 0.131285
v 1.912634 0.642690 0.092891
v 1.926645 0.678525 -0.000000
v 1.912634 0.642690 -0.092892
v 1.847858 0.567969 -0.129221
v 1.806152 0.470672 -0.091211
v 1.792447 0.435563 -0.000000
v 1.806152 0.470672 0.091210
v 1.847858 0.567969 0.129220
v 1.881169 0.653278 0.091400
v 1.894947 0.688561 -0.000000
v 1.881169 0.653278 -0.091400
v -0.136815 0.570835 -0.096836
v -0.136815 0.502362 -0.068473
v -0.136815 0.473999 0.000000
v -0.136815 0.502362 0.068473
v -0.136815 0.570835 0.096836
v -0.136815 0.639308 0.068473
v -0.136815 0.667671 0.000000
v -0.136815 0.639308 -0.068473
v -0.117593 0.570835 -0.094573
v -0.117593 0.503962 -0.066873
v -0.117593 0.476262 0.000000
v -0.117593 0.503962 0.066873
v -0.117593 0.570835 0.094573
v -0.117593 0.637708 0.066873
v -0.117593 0.665408 0.000000
v -0.117593 0.637708 -0.066873
v 1.869558 0.684930 -0.116183
v 1.886702 0.729368 -0.000000
v 1.869558 0.684930 0.116183
v 1.828088 0.576860 0.165653
v 1.777444 0.454286 0.118543
v 1.759729 0.407438 -0.000000
v 1.777444 0.454286 -0.118544
v 1.828088 0.576860 -0.165654
v 1.877020 0.557000 -0.180210
v 1.821911 0.425992 -0.127619
v 1.802752 0.376745 -0.000000
v 1.821912 0.425992 0.127618
v 1.877020 0.557000 0.180210
v 1.923312 0.675654 0.127480
v 1.942539 0.724833 -0.000000
v 1.923312 0.675654 -0.127481
v 1.876183 0.694080 -0.127481
v 1.876183 0.694080 0.127480
v 1.774900 0.444514 0.127634
v 1.774900 0.444514 -0.127634
v 1.895410 0.743259 -0.000000
v 1.829864 0.575565 0.180293
v 1.755622 0.395170 -0.000000
v 1.829864 0.575565 -0.180294
v -0.090504 0.665078 -0.094243
v -0.090504 0.704115 0.000000
v -0.090504 0.665078 0.094243
v -0.090504 0.570835 0.133280
v -0.090504 0.476592 0.094243
v -0.090504 0.437555 0.000000
v -0.090504 0.476592 -0.094243
v -0.090504 0.570835 -0.133280
v -0.134024 0.570835 -0.146471
v -0.134024 0.467264 -0.103571
v -0.134024 0.424364 0.000000
v -0.134024 0.467264 0.103571
v -0.134024 0.570835 0.146471
v -0.134024 0.674406 0.103571
v -0.134024 0.717306 0.000000
v -0.134024 0.674406 -0.103571
v -0.093114 0.674480 -0.103644
v -0.093114 0.674480 0.103645
v -0.093114 0.467191 0.103645
v -0.093114 0.467191 -0.103644
v -0.093114 0.717411 0.000000
v -0.093114 0.570835 0.146576
v -0.093114 0.424260 0.000000
v -0.093114 0.570835 -0.146575
vn -1.000000 0.000000 0.000000
vn 0.978100 -0.079600 0.192100
vn 0.978100 -0.192100 -0.079600
vn 0.978100 0.192100 -0.079600
vn 0.978100 0.079600 0.192100
vn 0.415900 -0.348000 0.840200
vn 0.415900 -0.840200 -0.348000
vn 0.415900 0.840200 -0.348000
vn 0.415900 0.348000 0.840200
vn 0.415900 -0.840200 0.348000
vn 0.415900 -0.348000 -0.840200
vn 0.415900 0.348000 -0.840200
vn 0.415900 0.840200 0.348000
vn 0.010100 -0.382700 0.923800
vn 0.010100 0.923800 0.382700
vn 0.010100 0.382700 -0.923800
vn 0.010100 -0.382700 -0.923800
vn 0.010100 -0.923800 0.382700
vn 0.010100 0.382700 0.923800
vn 0.010100 0.923800 -0.382700
vn 0.010100 -0.923800 -0.382700
vn -0.000000 0.923900 -0.382700
vn 0.000000 0.382700 0.923900
vn 0.000000 -0.923900 0.382700
vn -0.000000 -0.382700 -0.923900
vn -0.000000 0.382700 -0.923900
vn -0.000000 0.923900 0.382700
vn 0.000000 -0.382700 0.923900
vn -0.893200 0.419300 0.162300
vn 0.981900 -0.170900 -0.082100
vn -0.953900 0.298800 0.026600
vn 0.981900 -0.170900 0.082100
vn -0.932400 0.338100 -0.127500
vn 0.939800 -0.280000 0.195900
vn -0.893200 0.419300 -0.162300
vn 0.874300 -0.445500 0.192400
vn -0.346300 -0.358900 0.866700
vn -0.346400 -0.866700 -0.359000
vn -0.346400 0.866800 -0.358800
vn -0.346300 0.359300 0.866600
vn -0.346400 -0.866700 0.359000
vn -0.346300 -0.358900 -0.866700
vn -0.346300 0.359300 -0.866600
vn -0.346400 0.866800 0.358800
vn 0.957900 -0.285100 -0.034700
vn -0.014800 -0.382600 0.923800
vn -0.014800 0.923800 0.382600
vn -0.014800 0.382600 -0.923800
vn -0.014800 -0.382600 -0.923800
vn -0.014800 -0.923800 0.382600
vn -0.014800 0.382600 0.923800
vn -0.014800 0.923800 -0.382600
vn -0.014800 -0.923800 -0.382600
vn 0.000000 -0.923900 -0.382700
vn -0.278700 -0.881100 0.382000
vn 0.929300 -0.356700 0.096000
vn 0.914400 -0.395600 0.085300
vn 0.896800 -0.441100 -0.034900
vn 0.929300 -0.356700 -0.096000
vn 0.957900 -0.285100 0.034700
vn 0.896800 -0.441100 0.034900
vn 0.914400 -0.395600 -0.085300
vn -0.084000 -0.375900 -0.922900
vn 0.392500 0.837300 -0.380600
vn 0.177400 0.291100 0.940100
vn -0.084000 -0.375900 0.922900
vn -0.278700 -0.881100 -0.382000
vn 0.177400 0.291100 -0.940100
vn 0.392500 0.837300 0.380600
vn -0.108100 -0.380400 0.918500
vn -0.998200 0.056100 -0.023200
vn -0.998200 0.023200 0.056100
vn -0.998200 -0.056100 0.023200
vn -0.998200 0.023200 -0.056100
vn -0.998200 0.056100 0.023200
vn -0.998200 -0.023200 0.056100
vn -0.998200 -0.056100 -0.023200
vn -0.108100 -0.918500 -0.380400
vn -0.108100 0.380400 -0.918500
vn -0.108100 0.918500 0.380400
vn -0.108100 -0.918500 0.380400
vn -0.108100 -0.380400 -0.918500
vn -0.108100 0.918500 -0.380400
vn -0.108100 0.380400 0.918500
vn 0.022100 -0.927300 -0.373700
vn 0.017700 -0.373800 0.927400
vn 0.026200 0.928000 0.371700
vn 0.012900 0.396900 -0.917800
vn 0.017700 -0.373800 -0.927400
vn 0.022100 -0.927300 0.373700
vn 0.012900 0.396900 0.917800
vn 0.026200 0.928000 -0.371700
vn 0.336400 0.860500 -0.382700
vn 0.140600 0.356200 0.923800
vn -0.337400 -0.859900 0.383000
vn -0.126400 -0.323500 -0.937700
vn 0.140600 0.356200 -0.923800
vn 0.336400 0.860500 0.382700
vn -0.126400 -0.323500 0.937700
vn -0.337400 -0.859900 -0.383000
vn 0.939800 -0.280000 -0.195900
vn -0.846900 0.526400 -0.075800
vn 0.874300 -0.445500 -0.192400
vn -0.953900 0.298800 -0.026600
vn 0.836100 -0.542200 -0.083300
vn -0.932400 0.338100 0.127500
vn 0.836100 -0.542200 0.083300
vn -0.846900 0.526400 0.075800
vn -0.012900 -0.923800 -0.382700
vn -0.012900 -0.382700 0.923800
vn -0.012900 0.923800 0.382700
vn -0.012900 0.382700 -0.923800
vn -0.012900 -0.382700 -0.923800
vn -0.012900 -0.923800 0.382700
vn -0.012900 0.382700 0.923800
vn -0.012900 0.923800 -0.382700
vn -0.002400 0.923900 -0.382700
vn -0.002400 0.382700 0.923900
vn -0.002400 -0.923900 0.382700
vn -0.002400 -0.382700 -0.923900
vn -0.002400 0.382700 -0.923900
vn -0.002400 0.923900 0.382700
vn -0.002400 -0.382700 0.923900
vn -0.002400 -0.923900 -0.382700
vn 0.978100 0.192100 0.079600
vn 0.978100 0.079600 -0.192100
vn 0.978100 -0.079600 -0.192100
vn 0.978100 -0.192100 0.079600
vn -0.998200 -0.023200 -0.056100
vn 0.885600 0.429000 0.177700
vn -0.885600 0.177700 -0.429000
vn 0.885800 -0.177400 0.428700
vn -0.885600 0.429000 0.177700
vn 0.886600 -0.427100 -0.177500
vn -0.885800 -0.177400 0.428700
vn 0.885600 0.429000 -0.177700
vn -0.886600 -0.427100 -0.177500
vn -0.000000 -0.382600 0.923900
vn -0.000000 -0.382600 -0.923900
vn 0.017900 -0.938100 0.345900
vn -0.017900 -0.938100 -0.345900
vn -0.885800 -0.177400 -0.428700
vn 0.885600 0.177700 -0.429000
vn -0.886600 -0.427100 0.177500
vn 0.885800 -0.177400 -0.428700
vn -0.885600 0.177700 0.429000
vn 0.886600 -0.427100 0.177500
vn -0.885600 0.429000 -0.177700
vn 0.885600 0.177700 0.429000
vn -0.994700 0.013400 -0.102100
vn 0.994700 0.013400 0.102100
vn -0.000000 -0.896900 0.442200
vn 0.017900 -0.938100 -0.345900
vn -0.000000 -0.896900 -0.442200
vn -0.017900 -0.938100 0.345900
vn 0.000000 -0.999300 0.037800
vn 0.000000 -0.999300 -0.037800
vn 0.000000 -0.002500 1.000000
vn 0.994700 0.013400 -0.102100
vn -0.000000 -0.002500 -1.000000
vn -0.994700 0.013400 0.102100
vn 0.925900 -0.377800 0.000000
usemtl Black
f 189//2 188//2 206//2 203//2
f 4//110 5//110 188//110 189//110
f 4//10 3//10 11//10 12//10
f 2//109 3//109 190//109 191//109
f 1//113 2//113 191//113 192//113
f 8//112 1//112 192//112 185//112
f 8//8 7//8 15//8 16//8
f 6//111 7//111 186//111 187//111
f 187//125 186//125 205//125 202//125
f 202//122 205//122 199//122 198//122
f 150//75 198//75 199//75 151//75
f 151//81 152//81 160//81 159//81
f 152//74 200//74 193//74 145//74
f 145//129 193//129 194//129 146//129
f 146//80 147//80 155//80 154//80
f 147//73 195//73 196//73 148//73
f 148//79 149//79 157//79 156//79
f 148//76 196//76 197//76 149//76
f 147//83 148//83 156//83 155//83
f 146//77 194//77 195//77 147//77
f 204//124 207//124 195//124 194//124
f 201//121 208//121 193//121 200//121
f 208//120 204//120 194//120 193//120
f 145//84 146//84 154//84 153//84
f 152//70 145//70 153//70 160//70
usemtl Glass
f 153//1 154//1 155//1 156//1 157//1 158//1 159//1 160//1
usemtl Black
f 150//78 151//78 159//78 158//78
f 149//82 150//82 158//82 157//82
f 149//72 197//72 198//72 150//72
f 151//71 199//71 200//71 152//71
f 205//117 201//117 200//117 199//117
f 7//13 6//13 14//13 15//13
f 14//19 13//19 22//19 21//19
usemtl DarkMetal
f 21//146 22//146 41//146 38//146
f 38//23 41//23 47//23 37//23
f 27//149 31//149 37//149 47//149
usemtl Black
f 95//28 27//28 32//28 100//28
usemtl DarkMetal
f 95//146 115//146 105//146 99//146
f 106//23 105//23 115//23 109//23
f 89//149 106//149 109//149 90//149
usemtl Black
f 83//47 88//47 89//47 82//47
f 67//44 83//44 82//44 66//44
f 67//92 162//92 161//92 68//92
f 162//108 163//108 178//108 181//108
f 178//98 174//98 175//98 181//98
f 73//34 74//34 174//34 173//34
f 72//36 73//36 173//36 172//36
f 72//45 71//45 131//45 132//45
f 70//105 71//105 171//105 170//105
f 69//103 70//103 170//103 169//103
f 76//101 69//101 169//101 176//101
f 76//61 75//61 135//61 136//61
f 135//67 134//67 142//67 143//67
f 134//63 133//63 141//63 142//63
usemtl Glass
f 137//162 144//162 143//162 142//162 141//162 140//162 139//162 138//162
usemtl Black
f 130//65 129//65 137//65 138//65
f 129//66 136//66 144//66 137//66
f 136//55 135//55 143//55 144//55
f 177//97 176//97 169//97 184//97
f 167//33 168//33 184//33 180//33
f 166//104 167//104 180//104 183//104
f 165//31 166//31 183//31 179//31
f 164//106 165//106 179//106 182//106
f 64//86 165//86 164//86 65//86
f 64//41 80//41 79//41 63//41
f 63//38 79//38 78//38 62//38
f 78//49 86//49 92//49 77//49
f 77//48 92//48 87//48 84//48
usemtl DarkMetal
f 86//145 112//145 111//145 92//145
f 102//153 118//153 121//153 112//153
f 118//159 124//159 127//159 121//159
f 124//157 123//157 128//157 127//157
f 117//161 123//161 125//161 119//161
f 113//141 122//141 117//141 101//141
f 96//142 116//142 113//142 93//142
f 98//131 103//131 116//131 96//131
f 104//22 103//22 114//22 110//22
f 94//148 114//148 103//148 98//148
usemtl Black
f 98//22 30//22 26//22 94//22
usemtl DarkMetal
f 30//143 28//143 48//143 35//143
f 28//145 25//145 45//145 48//145
f 44//154 45//154 54//154 53//154
f 50//150 53//150 59//150 56//150
f 56//157 59//157 60//157 55//157
f 49//151 51//151 57//151 55//151
f 39//152 40//152 52//152 51//152
f 23//144 17//144 34//144 40//144
f 33//140 39//140 51//140 49//140
f 51//158 52//158 58//158 57//158
f 58//156 56//156 55//156 57//156
f 40//155 34//155 50//155 52//155
f 52//161 50//161 56//161 58//161
f 18//142 24//142 43//142 44//142
usemtl Black
f 10//17 9//17 24//17 18//17
usemtl DarkMetal
f 24//131 19//131 36//131 43//131
f 19//148 20//148 42//148 36//148
f 34//141 44//141 53//141 50//141
f 17//137 18//137 44//137 34//137
f 53//160 54//160 60//160 59//160
f 54//159 49//159 55//159 60//159
f 45//153 33//153 49//153 54//153
f 25//134 29//134 33//134 45//134
f 36//22 42//22 46//22 35//22
f 44//139 43//139 48//139 45//139
f 43//26 36//26 35//26 48//26
f 26//136 30//136 35//136 46//136
usemtl Black
f 96//26 28//26 30//26 98//26
f 93//25 25//25 28//25 96//25
f 97//54 29//54 25//54 93//54
usemtl DarkMetal
f 93//137 113//137 101//137 97//137
f 107//152 119//152 120//152 108//152
f 101//155 117//155 119//155 107//155
f 119//158 125//158 126//158 120//158
f 122//150 128//150 123//150 117//150
f 126//156 125//156 123//156 124//156
f 91//147 108//147 102//147 85//147
f 120//151 126//151 124//151 118//151
f 121//160 127//160 128//160 122//160
f 108//140 120//140 118//140 102//140
f 112//139 113//139 116//139 111//139
f 111//26 116//26 103//26 104//26
f 112//154 121//154 122//154 113//154
f 85//134 102//134 112//134 86//134
f 92//143 111//143 104//143 87//143
usemtl Black
f 62//42 78//42 77//42 61//42
f 79//53 85//53 86//53 78//53
f 80//50 91//50 85//50 79//50
f 65//37 81//37 80//37 64//37
f 63//90 166//90 165//90 64//90
f 61//89 168//89 167//89 62//89
f 62//85 167//85 166//85 63//85
f 69//57 76//57 136//57 129//57
f 180//100 170//100 171//100 183//100
f 184//96 169//96 170//96 180//96
f 70//56 69//56 129//56 130//56
f 133//68 132//68 140//68 141//68
f 131//69 130//69 138//69 139//69
f 132//64 131//64 139//64 140//64
f 71//60 70//60 130//60 131//60
f 71//107 72//107 172//107 171//107
f 183//95 171//95 172//95 179//95
f 179//99 172//99 173//99 182//99
f 74//62 73//62 133//62 134//62
f 73//59 72//59 132//59 133//59
f 75//58 74//58 134//58 135//58
f 74//32 75//32 175//32 174//32
f 75//30 76//30 176//30 175//30
f 181//93 175//93 176//93 177//93
f 182//94 173//94 174//94 178//94
f 163//29 164//29 182//29 178//29
f 61//43 77//43 84//43 68//43
f 161//102 162//102 181//102 177//102
f 168//35 161//35 177//35 184//35
f 68//88 161//88 168//88 61//88
f 65//91 164//91 163//91 66//91
f 66//87 163//87 162//87 67//87
usemtl DarkMetal
f 87//136 104//136 110//136 88//136
usemtl Black
f 66//40 82//40 81//40 65//40
f 68//39 84//39 83//39 67//39
f 84//52 87//52 88//52 83//52
f 81//46 90//46 91//46 80//46
f 82//51 89//51 90//51 81//51
usemtl DarkMetal
f 90//132 109//132 108//132 91//132
f 88//130 110//130 106//130 89//130
f 110//27 114//27 105//27 106//27
f 109//138 115//138 107//138 108//138
f 99//133 105//133 114//133 94//133
f 97//144 101//144 107//144 100//144
f 29//147 32//147 39//147 33//147
usemtl Black
f 100//24 32//24 29//24 97//24
usemtl DarkMetal
f 100//135 107//135 115//135 95//135
usemtl Black
f 94//27 26//27 31//27 99//27
f 99//23 31//23 27//23 95//23
usemtl DarkMetal
f 32//132 27//132 47//132 39//132
f 31//130 26//130 46//130 37//130
f 42//27 38//27 37//27 46//27
f 41//138 40//138 39//138 47//138
f 22//135 23//135 40//135 41//135
f 20//133 21//133 38//133 42//133
usemtl Black
f 15//15 14//15 21//15 20//15
f 9//16 16//16 19//16 24//16
f 16//20 15//20 20//20 19//20
f 186//4 185//4 201//4 205//4
f 7//116 8//116 185//116 186//116
f 1//12 8//12 16//12 9//12
f 185//126 192//126 208//126 201//126
f 2//11 1//11 9//11 10//11
f 191//3 190//3 207//3 204//3
f 192//127 191//127 204//127 208//127
f 3//7 2//7 10//7 11//7
f 13//14 12//14 23//14 22//14
f 11//21 10//21 18//21 17//21
f 12//18 11//18 17//18 23//18
f 6//9 5//9 13//9 14//9
f 5//6 4//6 12//6 13//6
f 188//5 187//5 202//5 206//5
f 190//128 189//128 203//128 207//128
f 203//123 206//123 197//123 196//123
f 207//119 203//119 196//119 195//119
f 206//118 202//118 198//118 197//118
f 5//115 6//115 187//115 188//115
f 3//114 4//114 189//114 190//114
