# split from source with materials
mtllib sniper.mtl
o island_4
v 0.863686 0.564821 -0.079541
v 0.863686 0.703149 -0.079541
v 0.919930 0.564821 -0.056244
v 0.919930 0.703149 -0.056244
v 0.943227 0.564821 0.000000
v 0.943227 0.703149 0.000000
v 0.919930 0.564821 0.056244
v 0.919930 0.703149 0.056244
v 0.863686 0.564821 0.079542
v 0.863686 0.703149 0.079542
v 0.807441 0.564821 0.056244
v 0.807441 0.703149 0.056244
v 0.784144 0.564821 0.000000
v 0.784144 0.703149 0.000000
v 0.807441 0.564821 -0.056244
v 0.807441 0.703149 -0.056244
vn -0.000000 1.000000 0.000000
vn 0.000000 -1.000000 0.000000
vn 0.382700 0.000000 -0.923900
vn 0.923900 0.000000 -0.382700
vn 0.923900 -0.000000 0.382700
vn 0.382700 0.000000 0.923900
vn -0.382700 0.000000 0.923900
vn -0.923900 0.000000 0.382700
vn -0.923900 0.000000 -0.382700
vn -0.382700 0.000000 -0.923900
usemtl Black
f 1//3 2//3 4//3 3//3
f 3//4 4//4 6//4 5//4
f 5//5 6//5 8//5 7//5
f 7//6 8//6 10//6 9//6
f 9//7 10//7 12//7 11//7
f 11//8 12//8 14//8 13//8
f 13//9 14//9 16//9 15//9
f 4//1 2//1 16//1 14//1 12//1 10//1 8//1 6//1
f 1//2 3//2 5//2 7//2 9//2 11//2 13//2 15//2
f 15//10 16//10 2//10 1//10
