# split from source with materials
mtllib sniper.mtl
o island_0
v 1.363356 -0.084309 0.054962
v 1.363357 0.118135 0.054962
v 1.363356 -0.084309 -0.054963
v 1.363357 0.118135 -0.054963
v 1.790424 -0.084309 0.054962
v 1.790424 0.118135 0.054962
v 1.790424 -0.084309 -0.054963
v 1.790424 0.118135 -0.054963
v 1.347600 -0.084309 -0.059018
v 1.347600 -0.084309 0.059018
v 1.806180 -0.084309 -0.059018
v 1.806180 -0.084309 0.059018
v 1.347600 -0.156833 -0.059018
v 1.347600 -0.156833 0.059018
v 1.806180 -0.156833 -0.059018
v 1.806180 -0.156833 0.059018
v 1.729414 -0.084309 -0.054963
v 1.668404 -0.084309 -0.054963
v 1.607395 -0.084309 -0.054963
v 1.546385 -0.084309 -0.054963
v 1.485376 -0.084309 -0.054963
v 1.424366 -0.084309 -0.054963
v 1.424366 0.118135 -0.054963
v 1.485376 0.118135 -0.054963
v 1.546385 0.118135 -0.054963
v 1.607395 0.118135 -0.054963
v 1.668404 0.118135 -0.054963
v 1.729414 0.118135 -0.054963
v 1.424366 -0.084309 0.054962
v 1.485376 -0.084309 0.054962
v 1.546385 -0.084309 0.054962
v 1.607395 -0.084309 0.054962
v 1.668404 -0.084309 0.054962
v 1.729414 -0.084309 0.054962
v 1.729414 0.118135 0.054962
v 1.668404 0.118135 0.054962
v 1.607395 0.118135 0.054962
v 1.546385 0.118135 0.054962
v 1.485376 0.118135 0.054962
v 1.424366 0.118135 0.054962
v 1.740669 -0.084309 -0.059018
v 1.675157 -0.084309 -0.059018
v 1.609646 -0.084309 -0.059018
v 1.544134 -0.084309 -0.059018
v 1.478623 -0.084309 -0.059018
v 1.413111 -0.084309 -0.059018
v 1.413111 -0.084309 0.059018
v 1.478623 -0.084309 0.059018
v 1.544134 -0.084309 0.059018
v 1.609646 -0.084309 0.059018
v 1.675157 -0.084309 0.059018
v 1.740669 -0.084309 0.059018
v 1.740669 -0.156833 -0.059018
v 1.675157 -0.156833 -0.059018
v 1.609646 -0.156833 -0.059018
v 1.544134 -0.156833 -0.059018
v 1.478623 -0.156833 -0.059018
v 1.413111 -0.156833 -0.059018
v 1.413111 -0.156833 0.059018
v 1.478623 -0.156833 0.059018
v 1.544134 -0.156833 0.059018
v 1.609646 -0.156833 0.059018
v 1.675157 -0.156833 0.059018
v 1.740669 -0.156833 0.059018
v 1.363357 -0.023086 0.054962
v 1.363357 -0.023086 -0.054963
v 1.790424 -0.023085 -0.054963
v 1.790424 -0.023085 0.054962
v 1.729414 -0.023085 0.054962
v 1.668404 -0.023085 0.054962
v 1.607395 -0.023086 0.054962
v 1.546385 -0.023086 0.054962
v 1.485376 -0.023086 0.054962
v 1.424366 -0.023086 0.054962
v 1.424366 -0.023086 -0.054963
v 1.485376 -0.023086 -0.054963
v 1.546385 -0.023086 -0.054963
v 1.607395 -0.023086 -0.054963
v 1.668404 -0.023085 -0.054963
v 1.729414 -0.023085 -0.054963
v 1.435523 0.106608 -0.045426
v 1.492069 0.106608 -0.045426
v 1.548617 0.106608 -0.045426
v 1.605163 0.106608 -0.045426
v 1.661711 0.106608 -0.045426
v 1.718257 0.106608 -0.045426
v 1.718257 0.106608 0.045426
v 1.661711 0.106608 0.045426
v 1.605163 0.106608 0.045426
v 1.548617 0.106608 0.045426
v 1.492069 0.106608 0.045426
v 1.435523 0.106608 0.045426
v 1.718257 -0.011558 0.045426
v 1.661711 -0.011558 0.045426
v 1.605163 -0.011558 0.045426
v 1.548617 -0.011558 0.045426
v 1.492069 -0.011558 0.045426
v 1.435522 -0.011558 0.045426
v 1.435522 -0.011558 -0.045426
v 1.492069 -0.011558 -0.045426
v 1.548617 -0.011558 -0.045426
v 1.605163 -0.011558 -0.045426
v 1.661711 -0.011558 -0.045426
v 1.718257 -0.011558 -0.045426
vn -1.000000 0.000000 0.000000
vn 0.000000 0.000000 -1.000000
vn 1.000000 0.000000 0.000000
vn 0.000000 0.000000 1.000000
vn -0.000000 1.000000 0.000000
vn 0.000000 -1.000000 0.000000
vn -0.973700 0.000000 -0.227800
vn -0.000000 0.637400 -0.770500
vn 0.818500 0.000000 -0.574500
vn 0.973700 0.000000 -0.227800
vn -0.649800 0.000000 0.760100
vn -0.000000 0.637400 0.770500
vn -0.818500 0.000000 0.574500
vn 0.718600 0.695400 0.000000
vn -0.718600 0.695500 0.000000
vn -0.973700 0.000000 0.227800
vn 0.818500 0.000000 0.574500
vn 0.864800 -0.502200 0.000000
vn 0.973700 0.000000 0.227800
vn -0.649800 0.000000 -0.760100
vn -0.981800 0.190000 0.000000
vn -0.818500 0.000000 -0.574500
vn 0.981800 0.190000 0.000000
vn 0.649800 0.000000 0.760100
vn -0.864800 -0.502200 0.000000
vn 0.649800 0.000000 -0.760100
usemtl Black
f 65//1 2//1 4//1 66//1
f 66//2 4//2 23//2 75//2
f 23//14 40//14 92//14 81//14
f 99//2 81//2 82//2 100//2
f 24//13 76//13 100//13 82//13
f 76//2 24//2 25//2 77//2
f 78//8 77//8 101//8 102//8
f 19//2 78//2 79//2 18//2
f 18//2 79//2 80//2 17//2
f 28//20 80//20 104//20 86//20
f 35//15 28//15 86//15 87//15
f 69//11 35//11 87//11 93//11
f 70//12 69//12 93//12 94//12
f 70//4 36//4 37//4 71//4
f 37//21 26//21 84//21 89//21
f 95//4 89//4 90//4 96//4
f 38//19 72//19 96//19 90//19
f 72//4 38//4 39//4 73//4
f 73//22 39//22 91//22 97//22
f 74//12 73//12 97//12 98//12
f 30//4 73//4 74//4 29//4
f 30//5 29//5 47//5 48//5
f 49//4 48//4 60//4 61//4
f 32//5 31//5 49//5 50//5
f 33//5 32//5 50//5 51//5
f 34//5 33//5 51//5 52//5
f 5//5 34//5 52//5 12//5
f 11//3 12//3 16//3 15//3
f 41//2 11//2 15//2 53//2
f 54//6 53//6 64//6 63//6
f 55//6 54//6 63//6 62//6
f 44//2 43//2 55//2 56//2
f 45//2 44//2 56//2 57//2
f 46//2 45//2 57//2 58//2
f 13//6 58//6 59//6 14//6
f 10//1 9//1 13//1 14//1
f 1//5 3//5 9//5 10//5
f 9//2 46//2 58//2 13//2
f 3//5 22//5 46//5 9//5
f 22//5 21//5 45//5 46//5
f 21//5 20//5 44//5 45//5
f 43//2 42//2 54//2 55//2
f 42//2 41//2 53//2 54//2
f 53//6 15//6 16//6 64//6
f 7//3 67//3 68//3 5//3
f 67//3 8//3 6//3 68//3
f 7//5 5//5 12//5 11//5
f 12//4 52//4 64//4 16//4
f 52//4 51//4 63//4 64//4
f 51//4 50//4 62//4 63//4
f 56//6 55//6 62//6 61//6
f 57//6 56//6 61//6 60//6
f 58//6 57//6 60//6 59//6
f 50//4 49//4 61//4 62//4
f 48//4 47//4 59//4 60//4
f 47//4 10//4 14//4 59//4
f 31//5 30//5 48//5 49//5
f 29//5 1//5 10//5 47//5
f 31//4 72//4 73//4 30//4
f 84//5 83//5 90//5 89//5
f 27//18 36//18 88//18 85//18
f 71//16 37//16 89//16 95//16
f 27//5 26//5 37//5 36//5
f 32//4 71//4 72//4 31//4
f 72//12 71//12 95//12 96//12
f 36//9 70//9 94//9 88//9
f 33//4 70//4 71//4 32//4
f 5//4 68//4 69//4 34//4
f 34//4 69//4 70//4 33//4
f 68//4 6//4 35//4 69//4
f 93//4 87//4 88//4 94//4
f 103//2 85//2 86//2 104//2
f 86//5 85//5 88//5 87//5
f 8//5 28//5 35//5 6//5
f 17//2 80//2 67//2 7//2
f 17//5 7//5 11//5 41//5
f 80//2 28//2 8//2 67//2
f 79//17 27//17 85//17 103//17
f 18//5 17//5 41//5 42//5
f 19//5 18//5 42//5 43//5
f 20//5 19//5 43//5 44//5
f 80//8 79//8 103//8 104//8
f 78//2 26//2 27//2 79//2
f 101//2 83//2 84//2 102//2
f 26//7 78//7 102//7 84//7
f 77//10 25//10 83//10 101//10
f 25//23 38//23 90//23 83//23
f 20//2 77//2 78//2 19//2
f 25//5 24//5 39//5 38//5
f 21//2 76//2 77//2 20//2
f 39//25 24//25 82//25 91//25
f 97//4 91//4 92//4 98//4
f 82//5 81//5 92//5 91//5
f 40//24 74//24 98//24 92//24
f 76//8 75//8 99//8 100//8
f 75//26 23//26 81//26 99//26
f 22//2 75//2 76//2 21//2
f 1//1 65//1 66//1 3//1
f 29//4 74//4 65//4 1//4
f 23//5 4//5 2//5 40//5
f 3//2 66//2 75//2 22//2
f 74//4 40//4 2//4 65//4
