# split from source with materials
mtllib sniper.mtl
o island_5
v 0.863686 0.621654 -0.107421
v 0.863686 0.621654 0.107421
v 0.906304 0.604002 -0.107421
v 0.906304 0.604001 0.107421
v 0.923957 0.561383 -0.107421
v 0.923957 0.561383 0.107421
v 0.906304 0.518765 -0.107421
v 0.906304 0.518765 0.107421
v 0.863686 0.501112 -0.107421
v 0.863686 0.501112 0.107421
v 0.821068 0.518765 -0.107421
v 0.821068 0.518765 0.107421
v 0.803414 0.561383 -0.107421
v 0.803414 0.561383 0.107421
v 0.821068 0.604001 -0.107421
v 0.821068 0.604001 0.107421
vn 0.000000 0.000000 -1.000000
vn 0.000000 0.000000 1.000000
vn 0.382700 0.923900 0.000000
vn 0.923900 0.382700 0.000000
vn 0.923900 -0.382700 -0.000000
vn 0.382700 -0.923900 -0.000000
vn -0.382700 -0.923900 0.000000
vn -0.923900 -0.382700 0.000000
vn -0.923900 0.382700 0.000000
vn -0.382700 0.923900 0.000000
usemtl Black
f 1//3 2//3 4//3 3//3
f 1//1 3//1 5//1 7//1 9//1 11//1 13//1 15//1
f 11//8 12//8 14//8 13//8
f 9//7 10//7 12//7 11//7
f 7//6 8//6 10//6 9//6
f 5//5 6//5 8//5 7//5
f 13//9 14//9 16//9 15//9
f 15//10 16//10 2//10 1//10
f 3//4 4//4 6//4 5//4
f 4//2 2//2 16//2 14//2 12//2 10//2 8//2 6//2
