# split from source with materials
mtllib sniper.mtl
o island_1
v -0.149293 0.061257 -0.101725
v -0.308199 -0.469616 -0.120536
v -0.308199 -0.469616 0.120536
v -0.149293 0.061257 0.101725
v 0.221197 0.269690 -0.068723
v 0.221197 0.269690 0.068723
v -0.045115 0.118386 -0.082338
v -0.045115 0.118386 0.082338
v 1.059259 0.269690 -0.062990
v 1.059259 0.269690 0.062990
v 1.673010 0.269690 -0.062990
v 2.286761 0.269690 -0.062990
v 1.673010 0.269690 0.062990
v 2.286761 0.269690 0.062990
v -1.853331 -0.355952 0.133495
v -1.853331 -0.355952 -0.133495
v -0.419513 -0.121226 -0.123760
v -0.419513 -0.121226 0.123759
v -0.311949 -0.172055 -0.119222
v -0.311949 -0.172055 0.119222
v -1.646003 -0.334985 0.133495
v -1.646003 -0.334985 -0.133495
v 0.306758 0.269690 -0.063868
v 0.306758 0.269690 0.063868
v 0.306742 0.269690 0.019913
v 0.221174 0.269690 0.021403
v -1.806894 -0.758763 0.041333
v -1.874493 -0.662262 0.133495
v -1.870449 0.138729 0.133495
v -1.800586 0.221215 0.041333
v -1.874493 -0.662262 -0.133495
v -1.806894 -0.758763 -0.041334
v -1.800586 0.221215 -0.041334
v -1.870449 0.138729 -0.133495
v -0.422920 -0.312603 0.123759
v -0.424492 -0.400926 0.038319
v -0.317061 -0.459094 0.120983
v -0.264445 0.152854 0.030312
v -0.313091 0.066872 0.118265
v -0.197881 0.099905 0.107644
v -0.424492 -0.400926 -0.038319
v -0.422919 -0.312603 -0.123760
v -0.317061 -0.459094 -0.120983
v -0.313091 0.066872 -0.118265
v -0.264445 0.152854 -0.030312
v -0.197881 0.099905 -0.107644
v -1.623290 -0.674294 -0.133495
v -1.617273 -0.764186 -0.041334
v -1.658876 0.128706 -0.133495
v -1.661787 0.217724 -0.041333
v -1.623290 -0.674294 0.133495
v -1.617273 -0.764186 0.041333
v -1.658876 0.128706 0.133495
v -1.661787 0.217724 0.041333
v -1.631889 -0.333831 -0.123760
v -1.631889 -0.333831 0.123759
v -1.647034 0.199323 -0.038318
v -1.644241 0.113911 -0.123760
v -1.604324 -0.745644 0.038319
v -1.610097 -0.659393 0.123759
v -1.604324 -0.745644 -0.038319
v -1.610097 -0.659393 -0.123760
v -1.647034 0.199323 0.038318
v -1.644241 0.113911 0.123759
v -0.073858 -0.227370 -0.029225
v -0.103521 -0.171653 -0.086722
v -0.082546 -0.211051 -0.068394
v -0.153743 -0.470945 -0.092221
v -0.113373 -0.470121 -0.034303
v -0.125197 -0.470363 -0.073596
v -0.113373 -0.470121 0.034303
v -0.153743 -0.470945 0.092220
v -0.125198 -0.470363 0.073596
v -0.103521 -0.171653 0.086721
v -0.073858 -0.227370 0.029224
v -0.082546 -0.211051 0.068394
v 0.221291 -0.008702 -0.067614
v 0.221320 -0.080810 -0.013367
v 0.221312 -0.059690 -0.051585
v 0.221320 -0.080810 0.013367
v 0.221321 -0.008710 0.068160
v 0.221321 -0.059692 0.051745
v 0.028321 -0.060306 -0.079069
v 0.053002 -0.120363 -0.024062
v 0.045773 -0.102773 -0.062503
v 0.053002 -0.120363 0.024062
v 0.028321 -0.060306 0.079069
v 0.045773 -0.102773 0.062503
v 1.059259 -0.065114 -0.009082
v 1.059259 0.006997 -0.062990
v 1.059259 -0.043993 -0.047201
v 1.059259 -0.065114 0.009082
v 1.059259 0.006993 0.062990
v 1.059259 -0.043994 0.047200
v 1.673559 0.124170 -0.062990
v 1.665325 0.158762 0.008986
v 1.672251 0.073196 -0.047201
v 2.287750 0.133407 -0.062990
v 2.285899 0.061320 -0.009082
v 2.286441 0.082434 -0.047201
v 2.285899 0.061320 0.009082
v 2.287749 0.133404 0.062990
v 2.286441 0.082433 0.047200
v 1.665325 0.158762 0.058536
v 1.673558 0.124166 0.062990
v 1.665325 0.158762 0.044023
v 2.955469 0.269690 -0.009082
v 2.901587 0.269690 -0.062990
v 2.939687 0.269690 -0.047201
v 2.901587 0.269690 0.062990
v 2.955469 0.269690 0.009082
v 2.939687 0.269690 0.047200
v -0.137461 -0.312000 -0.090800
v -0.099385 -0.333085 -0.032610
v -0.110537 -0.326909 -0.071983
v -0.099385 -0.333085 0.032610
v -0.137462 -0.312000 0.090800
v -0.110538 -0.326909 0.071983
v 0.306833 -0.003564 -0.063523
v 0.306857 -0.075674 -0.009507
v 0.306850 -0.054553 -0.047657
v 0.306856 -0.003567 0.063730
v 0.306857 -0.075674 0.009507
v 0.306857 -0.054554 0.047718
v 2.901587 0.202773 -0.062990
v 2.955469 0.192159 -0.009082
v 2.939687 0.195267 -0.047201
v 2.849916 0.132873 -0.062990
v 2.816043 0.060817 -0.009082
v 2.825964 0.081922 -0.047201
v 2.874666 0.142991 -0.062990
v 2.915210 0.101354 -0.009082
v 2.903335 0.113550 -0.047201
v 2.849907 0.132870 0.062990
v 2.816043 0.060817 0.009082
v 2.825962 0.081920 0.047200
v 2.901587 0.202773 0.062990
v 2.955469 0.192159 0.009082
v 2.939687 0.195267 0.047200
v 2.874666 0.142991 0.062990
v 2.915210 0.101354 0.009082
v 2.903335 0.113550 0.047200
v 0.306833 0.216824 0.064169
v 0.282669 0.192638 0.065794
v 0.306855 0.168451 0.064148
v 0.245508 0.192638 0.068159
v 0.221295 0.216824 0.069485
v 0.221322 0.168453 0.069402
v 0.221269 0.216824 0.021638
v 0.245482 0.192638 0.021231
v 0.282648 0.192638 0.020504
v 0.306814 0.216824 0.020005
v 1.819068 0.054299 0.009082
v 1.819610 0.075412 0.047200
v 1.820918 0.126382 0.062990
v 1.819068 0.054299 -0.009082
v 1.819610 0.075413 -0.047201
v 1.820919 0.126386 -0.062990
v 1.820264 0.269690 0.062990
v 1.820264 0.269690 -0.062990
v 1.335616 0.269690 -0.062990
v 1.335616 0.269690 0.062990
v 1.334761 0.073813 0.047200
v 1.334219 0.052701 0.009082
v 1.336070 0.124788 -0.062990
v 1.336069 0.124784 0.062990
v 1.334761 0.073814 -0.047201
v 1.334219 0.052701 -0.009082
v 1.665690 0.117094 0.058536
v 1.664488 0.070244 -0.042747
v 1.799936 0.072281 -0.042747
v 1.799438 0.052874 -0.007710
v 1.801138 0.119131 0.058536
v 1.799438 0.052874 0.008986
v 1.799936 0.072280 0.044023
v 1.354278 0.070811 0.044023
v 1.353780 0.051405 0.008986
v 1.355481 0.117662 0.058536
v 1.354278 0.070812 -0.042747
v 1.353780 0.051405 -0.007710
v 1.665325 0.158762 -0.042747
v 1.665325 0.158762 -0.007710
v 1.800677 0.158762 -0.042747
v 1.800676 0.158762 -0.007710
v 1.800676 0.158762 0.058536
v 1.800676 0.158762 0.008986
v 1.800676 0.158762 0.044023
v 1.355203 0.158762 0.044023
v 1.355203 0.158762 0.008986
v 1.355203 0.158762 0.058536
v 1.355203 0.158762 -0.042747
v 1.355203 0.158762 -0.007710
vn 0.000000 0.000000 -1.000000
vn 1.000000 0.000000 0.000000
vn 0.000000 0.000000 1.000000
vn -0.000000 1.000000 0.000000
vn 0.000000 -1.000000 0.000000
vn 0.025100 0.999700 0.000000
vn -0.999400 -0.034600 0.000000
vn 0.780200 0.625500 -0.000000
vn 0.565300 0.037800 0.824000
vn 0.565800 0.015700 0.824400
vn -0.819000 -0.573700 0.000000
vn -0.028100 -0.708400 -0.705200
vn 0.028000 0.726700 0.686400
vn 0.772800 -0.424200 -0.472000
vn 0.028000 0.726700 -0.686400
vn -0.028100 -0.708400 0.705200
vn 0.746500 0.486500 0.453900
vn -0.028600 -0.999600 0.000000
vn -0.763100 0.646300 0.000000
vn -0.997600 0.068900 0.000000
vn 0.772800 -0.424200 0.472000
vn 0.746500 0.486500 -0.453900
vn 0.565300 0.037800 -0.824000
vn 0.819900 -0.572600 0.000000
vn 0.565800 0.015700 -0.824400
vn 0.108800 -0.296700 0.948800
vn 0.072400 -0.997400 0.000000
vn 0.012700 -0.843500 -0.537000
vn -0.107100 -0.291700 0.950500
vn -0.023900 -0.874400 -0.484700
vn 0.029600 -0.874600 -0.484000
vn -0.001500 -0.832300 -0.554400
vn -0.055400 -0.873100 0.484400
vn 0.999900 -0.012000 -0.003800
vn -0.999900 0.010300 0.004300
vn 0.999400 -0.005000 -0.033300
vn -0.999300 0.002200 0.037800
vn 0.999900 -0.013300 0.000000
vn -0.999900 0.010300 -0.004300
vn 0.061000 -0.873500 0.482900
vn 0.008100 -0.539300 0.842100
vn -0.001000 -0.532100 0.846700
vn -0.066100 -0.997800 0.000000
vn -0.999900 0.011700 0.000000
vn 0.999900 -0.012000 0.003800
vn 0.080200 0.001700 -0.996800
vn 0.080200 0.001700 0.996800
vn 0.038000 0.003100 0.999300
vn 0.972100 -0.234700 0.000000
vn 0.120300 -0.009200 -0.992700
vn 0.154100 -0.024000 0.987800
vn 0.170500 0.001200 0.985400
vn 0.018500 0.002800 0.999800
vn 0.014000 -0.999900 0.000000
vn 0.052300 -0.002600 -0.998600
vn -0.494000 0.869500 0.000000
vn -0.480800 0.876800 0.000000
vn 0.059900 -0.998200 -0.000000
vn 0.154100 -0.024000 -0.987800
vn 0.170500 0.001200 -0.985400
vn 0.015000 -0.999900 0.000000
vn 1.000000 0.001800 -0.000500
vn 0.914200 -0.405300 0.000000
vn 0.000900 -0.000600 -1.000000
vn -0.000900 -1.000000 0.000000
vn 0.120300 -0.009200 0.992700
vn -0.004100 -1.000000 -0.000000
vn 0.994800 -0.101500 0.000000
vn 0.038000 0.003100 -0.999300
vn 0.622500 0.782600 0.000000
vn -0.522800 -0.852500 0.000000
vn 0.228800 -0.973500 0.000000
vn 0.050700 0.000200 0.998700
vn 0.054800 -0.000700 -0.998500
vn 0.001300 -0.000300 1.000000
vn 0.057100 -0.005100 0.998400
vn 0.378400 -0.925600 -0.000000
vn -0.681500 -0.502500 0.532000
vn -0.154900 0.747900 0.645500
vn -0.681500 -0.502500 -0.532000
vn -0.154900 0.747900 -0.645500
vn 0.953700 -0.094000 -0.285600
vn 0.550300 -0.047900 -0.833600
vn 0.550300 -0.047900 0.833600
vn 0.953700 -0.094000 0.285700
vn 0.595500 -0.684200 -0.421100
vn 0.272700 -0.266100 -0.924600
vn 0.272700 -0.266100 0.924600
vn 0.595500 -0.684200 0.421100
vn 0.235000 -0.858500 -0.455700
vn 0.135300 -0.303700 -0.943100
vn 0.134300 -0.307400 0.942100
vn 0.234800 -0.859000 0.454900
vn 0.074400 -0.872600 -0.482700
vn 0.062500 -0.297900 -0.952500
vn 0.012600 -0.874900 0.484100
vn 0.005000 -0.297700 0.954600
vn 0.393800 -0.919200 0.000000
vn 0.125800 -0.295000 0.947200
vn -0.000500 -0.295900 -0.955200
vn 0.004500 -0.296000 -0.955200
vn 0.013200 -0.874800 -0.484300
vn 0.930400 -0.215400 -0.296700
vn 0.533300 -0.103800 -0.839500
vn 0.533300 -0.103800 0.839500
vn 0.930400 -0.215400 0.296700
vn 0.012600 -0.874700 -0.484500
vn 0.004800 -0.296400 -0.955000
vn 0.074600 -0.873200 0.481600
vn 0.065200 -0.302400 0.950900
vn 0.350100 -0.156600 -0.923500
vn 0.844700 -0.375100 -0.381700
vn 0.350100 -0.156600 0.923500
vn 0.844700 -0.375100 0.381700
vn 0.144900 -0.354400 -0.923800
vn 0.349600 -0.855200 -0.382500
vn 0.144900 -0.354400 0.923800
vn 0.349600 -0.855200 0.382500
vn -0.000300 -0.295900 0.955200
vn -0.000800 -0.874800 0.484500
vn -0.000300 -0.295900 -0.955200
vn -0.000800 -0.874800 -0.484500
vn 0.923900 0.000000 -0.382500
vn 0.382800 0.000000 -0.923800
vn 0.382800 -0.000000 0.923800
vn 0.923900 -0.000000 0.382500
vn 0.644800 -0.764400 -0.000000
vn 0.067500 -0.000400 0.997700
vn 0.053000 -0.001700 0.998600
vn 0.706700 0.707500 -0.000400
vn -0.707400 0.706800 0.000300
vn -1.000000 -0.001400 0.000400
vn 0.125800 -0.295000 -0.947200
vn 0.004500 -0.296000 0.955200
vn 0.351100 -0.820100 0.451800
vn 0.013200 -0.874800 0.484300
vn 0.351000 -0.820100 -0.451800
vn 0.033600 0.999400 0.000000
vn 0.001600 0.008400 1.000000
vn 0.199500 -0.683000 -0.702700
vn 0.027900 0.707200 0.706400
vn 0.199500 -0.683000 0.702700
vn 0.027900 0.707200 -0.706400
vn 0.280400 -0.959900 0.000000
vn 0.001600 0.008400 -1.000000
usemtl Black
f 50//6 33//6 30//6 54//6
f 50//22 57//22 58//22 49//22
f 22//25 49//25 58//25 55//25
f 47//23 22//23 55//23 62//23
f 61//14 48//14 47//14 62//14
f 48//24 61//24 59//24 52//24
f 52//21 59//21 60//21 51//21
f 51//3 21//3 15//3 28//3
f 31//20 28//20 15//20 16//20
f 27//11 28//11 31//11 32//11
f 21//3 53//3 29//3 15//3
f 56//10 64//10 53//10 21//10
usemtl LightMetal
f 38//141 63//141 64//141 39//141
f 38//79 39//79 40//79
f 40//47 39//47 18//47 20//47 4//47
f 1//57 4//57 8//57 7//57
f 19//59 1//59 66//59 113//59
f 85//87 67//87 66//87 83//87
f 84//86 65//86 67//86 85//86
f 86//72 84//72 78//72 80//72
f 80//58 78//58 120//58 123//58
f 89//107 120//107 121//107 91//107
f 91//137 167//137 168//137 89//137
usemtl Black
f 167//32 97//32 170//32 179//32
f 97//28 157//28 171//28 170//28
f 157//31 156//31 172//31 171//31
f 156//27 153//27 174//27 172//27
usemtl LightMetal
f 103//136 154//136 153//136 101//136
f 136//120 103//120 101//120 135//120
f 142//118 136//118 135//118 141//118
f 139//114 142//114 141//114 138//114
f 138//2 126//2 107//2 111//2
f 12//4 14//4 110//4 112//4 111//4 107//4 109//4 108//4
f 160//4 159//4 14//4 12//4
f 95//1 11//1 160//1 158//1
f 165//1 161//1 11//1 95//1
f 90//1 9//1 161//1 165//1
f 23//4 25//4 24//4 10//4 9//4
f 10//3 93//3 166//3 162//3
usemtl Black
f 166//26 163//26 176//26 178//26
f 163//33 164//33 177//33 176//33
f 177//38 180//38 192//38 189//38
usemtl LightMetal
f 189//5 192//5 182//5 96//5
f 181//5 183//5 184//5 182//5
f 96//5 182//5 184//5 186//5
f 187//5 106//5 96//5 186//5
f 104//5 190//5 188//5 106//5
usemtl Black
f 173//1 169//1 104//1 185//1
f 155//41 105//41 169//41 173//41
usemtl LightMetal
f 185//5 104//5 106//5 187//5
usemtl Black
f 175//37 173//37 185//37 187//37
usemtl LightMetal
f 106//5 188//5 189//5 96//5
f 191//5 181//5 182//5 192//5
f 163//135 94//135 92//135 164//135
usemtl Black
f 178//36 176//36 188//36 190//36
f 169//1 178//1 190//1 104//1
f 176//34 177//34 189//34 188//34
usemtl LightMetal
f 162//3 166//3 105//3 13//3
usemtl Black
f 105//42 166//42 178//42 169//42
usemtl LightMetal
f 166//99 93//99 94//99 163//99
f 124//97 94//97 93//97 122//97
f 145//76 144//76 146//76 148//76 81//76 122//76
f 151//4 150//4 146//4 144//4
f 143//131 152//131 151//131 144//131
f 149//130 147//130 146//130 150//130
f 26//62 6//62 147//62 149//62
f 146//129 147//129 148//129
f 143//128 144//128 145//128
f 81//92 87//92 88//92 82//92
f 87//88 74//88 76//88 88//88
f 76//106 118//106 116//106 75//106
f 118//85 73//85 71//85 116//85
f 3//67 2//67 68//67 70//67 69//67 71//67 73//67 72//67
f 114//82 69//82 70//82 115//82
f 37//71 36//71 41//71 43//71 2//71 3//71
f 41//80 42//80 43//80
f 35//78 36//78 37//78
f 117//84 72//84 73//84 118//84
f 69//68 114//68 116//68 71//68
f 74//105 117//105 118//105 76//105
f 82//110 124//110 122//110 81//110
f 24//75 143//75 145//75 122//75 93//75 10//75
f 77//55 5//55 23//55 119//55
f 25//53 26//53 149//53 150//53 151//53 152//53
f 5//4 26//4 25//4 23//4
f 24//132 25//132 152//132 143//132
f 119//64 23//64 9//64 90//64
f 9//4 10//4 162//4 161//4
f 161//4 162//4 13//4 11//4
f 13//3 105//3 155//3 159//3
f 11//4 13//4 159//4 160//4
f 14//3 102//3 134//3 140//3 137//3 110//3
f 159//3 155//3 102//3 14//3
f 158//1 160//1 12//1 98//1
f 98//121 128//121 130//121 100//121
f 130//116 133//116 132//116 129//116
f 131//111 125//111 127//111 133//111
f 128//115 131//115 133//115 130//115
f 100//122 130//122 129//122 99//122
f 109//124 127//124 125//124 108//124
f 98//1 12//1 108//1 125//1 131//1 128//1
f 133//112 127//112 126//112 132//112
f 107//123 126//123 127//123 109//123
f 112//126 139//126 138//126 111//126
f 110//125 137//125 139//125 112//125
f 137//113 140//113 142//113 139//113
f 126//63 138//63 141//63 132//63
f 140//117 134//117 136//117 142//117
f 132//77 141//77 135//77 129//77
f 134//119 102//119 103//119 136//119
usemtl Black
f 154//29 155//29 173//29 175//29
usemtl LightMetal
f 102//134 155//134 154//134 103//134
f 101//65 99//65 129//65 135//65
usemtl Black
f 153//40 154//40 175//40 174//40
f 174//35 175//35 187//35 186//35
usemtl LightMetal
f 153//61 156//61 99//61 101//61
usemtl Black
f 172//44 174//44 186//44 184//44
usemtl LightMetal
f 157//102 100//102 99//102 156//102
f 158//101 98//101 100//101 157//101
usemtl Black
f 171//39 172//39 184//39 183//39
f 170//3 171//3 183//3 181//3
usemtl LightMetal
f 95//101 158//101 157//101 97//101
usemtl Black
f 180//45 179//45 191//45 192//45
f 179//3 170//3 181//3 191//3
f 168//30 167//30 179//30 180//30
f 164//43 168//43 180//43 177//43
usemtl LightMetal
f 165//100 95//100 97//100 167//100
f 91//108 121//108 119//108 90//108
f 90//133 165//133 167//133 91//133
f 92//98 89//98 168//98 164//98
f 121//95 79//95 77//95 119//95
f 123//54 120//54 89//54 92//54
f 123//96 92//96 94//96 124//96
f 80//109 123//109 124//109 82//109
f 120//94 78//94 79//94 121//94
f 82//93 88//93 86//93 80//93
f 88//89 76//89 75//89 86//89
f 114//49 65//49 75//49 116//49
f 75//127 65//127 84//127 86//127
f 65//103 114//103 115//103 67//103
f 79//91 85//91 83//91 77//91
f 78//90 84//90 85//90 79//90
f 115//83 70//83 68//83 113//83
f 2//60 19//60 113//60 68//60
f 67//104 115//104 113//104 66//104
f 43//69 42//69 17//69 19//69 2//69
f 7//56 8//56 6//56 26//56 5//56
f 83//74 7//74 5//74 77//74
f 8//73 87//73 81//73 148//73 147//73 6//73
f 66//50 1//50 7//50 83//50
f 17//46 44//46 46//46 1//46 19//46
f 44//81 45//81 46//81
f 20//52 3//52 72//52 117//52
f 4//51 20//51 117//51 74//51
f 18//48 35//48 37//48 3//48 20//48
f 4//66 74//66 87//66 8//66
f 46//70 45//70 38//70 40//70 4//70 1//70
f 39//139 64//139 56//139 18//139
usemtl Black
f 15//7 29//7 34//7 16//7
f 60//9 56//9 21//9 51//9
usemtl LightMetal
f 18//3 56//3 60//3 35//3
usemtl Black
f 27//16 52//16 51//16 28//16
usemtl LightMetal
f 59//142 36//142 35//142 60//142
usemtl Black
f 32//18 48//18 52//18 27//18
usemtl LightMetal
f 61//144 41//144 36//144 59//144
usemtl Black
f 48//12 32//12 31//12 47//12
usemtl LightMetal
f 41//140 61//140 62//140 42//140
usemtl Black
f 31//1 16//1 22//1 47//1
usemtl LightMetal
f 55//1 17//1 42//1 62//1
usemtl Black
f 16//1 34//1 49//1 22//1
usemtl LightMetal
f 58//145 44//145 17//145 55//145
f 57//143 45//143 44//143 58//143
f 45//138 57//138 63//138 38//138
usemtl Black
f 34//19 29//19 30//19 33//19
f 63//17 54//17 53//17 64//17
f 33//15 50//15 49//15 34//15
f 54//13 30//13 29//13 53//13
f 57//8 50//8 54//8 63//8
