# split from source with materials
mtllib sniper.mtl
o island_6
v 0.486427 0.381342 0.044785
v 1.181415 0.322203 -0.044959
v 0.486427 0.381342 -0.044785
v 1.378779 0.381342 0.045011
v 1.181415 0.322203 0.044959
v 1.378779 0.381342 -0.045011
v 1.378779 0.364351 0.045011
v 0.486427 0.364351 0.044785
v 1.378779 0.322203 -0.045011
v 1.378779 0.322203 0.045011
v 0.486427 0.364351 -0.044785
v 1.378779 0.364351 -0.045011
v 0.664395 0.381342 0.044820
v 0.664395 0.322203 -0.044820
v 0.664395 0.381342 -0.044820
v 0.664395 0.364351 0.044820
v 0.486427 0.322203 -0.044785
v 0.664395 0.364351 -0.044820
v 1.181415 0.381342 0.044959
v 0.486427 0.322203 0.044785
v 1.181415 0.381342 -0.044959
v 1.181415 0.364351 0.044959
v 0.664395 0.322203 0.044820
v 1.181415 0.364351 -0.044959
vn -1.000000 0.000000 0.000000
vn 1.000000 0.000000 0.000000
vn -0.000000 1.000000 0.000000
vn 0.000000 -1.000000 0.000000
vn -0.000300 0.000000 -1.000000
vn -0.000300 -0.000000 1.000000
vn -0.000200 0.000000 -1.000000
vn -0.000200 0.000000 1.000000
usemtl DarkMetal
f 24//5 12//5 9//5 2//5
f 16//4 18//4 24//4 22//4
f 11//7 18//7 14//7 17//7
f 8//1 11//1 17//1 20//1
f 8//1 1//1 3//1 11//1
f 13//3 15//3 3//3 1//3
f 19//3 21//3 15//3 13//3
f 19//3 4//3 6//3 21//3
f 20//4 17//4 14//4 23//4
f 13//6 16//6 22//6 19//6
f 1//8 8//8 16//8 13//8
f 18//2 16//2 23//2 14//2
f 16//8 8//8 20//8 23//8
f 19//6 22//6 7//6 4//6
f 15//7 18//7 11//7 3//7
f 7//6 22//6 5//6 10//6
f 12//2 7//2 10//2 9//2
f 6//5 12//5 24//5 21//5
f 22//1 24//1 2//1 5//1
f 12//2 6//2 4//2 7//2
f 21//5 24//5 18//5 15//5
f 5//4 2//4 9//4 10//4
