# split from source with materials
mtllib sniper.mtl
o island_9
v 0.407863 -0.037977 -0.006027
v 0.407863 -0.037977 0.015702
v 0.396298 -0.078042 -0.006027
v 0.396298 -0.078042 0.015702
v 0.364483 -0.037977 -0.006027
v 0.364483 -0.037977 0.015702
v 0.358475 -0.078042 -0.006027
v 0.358475 -0.078042 0.015702
v 0.373173 -0.110336 -0.006027
v 0.373173 -0.110336 0.015702
v 0.346325 -0.111006 -0.006027
v 0.346325 -0.111006 0.015702
v 0.364465 -0.155258 -0.006027
v 0.364465 -0.155258 0.015702
v 0.341749 -0.153592 -0.006027
v 0.341749 -0.153592 0.015702
v 0.370412 -0.190898 -0.006027
v 0.370412 -0.190898 0.015702
v 0.357105 -0.208347 -0.006027
v 0.357105 -0.208347 0.015702
v 0.386067 -0.227661 -0.006027
v 0.386067 -0.227661 0.015702
v 0.379634 -0.238912 -0.006027
v 0.379634 -0.238912 0.015702
vn 0.000000 0.000000 -1.000000
vn 0.000000 0.000000 1.000000
vn -0.000000 1.000000 0.000000
vn 0.960800 -0.277300 -0.000000
vn -0.988900 0.148300 0.000000
vn -0.938300 0.345800 0.000000
vn 0.813000 -0.582200 -0.000000
vn 0.981700 -0.190300 -0.000000
vn -0.994300 0.106800 0.000000
vn -0.805000 -0.593300 -0.000000
vn 0.986400 0.164600 -0.000000
vn -0.962900 -0.270000 -0.000000
vn 0.868100 -0.496400 -0.000000
vn 0.920000 0.391800 0.000000
usemtl Grey
f 6//3 2//3 1//3 5//3
f 8//5 6//5 5//5 7//5
f 8//6 7//6 11//6 12//6
f 11//1 9//1 13//1 15//1
f 15//1 13//1 17//1 19//1
f 17//14 18//14 22//14 21//14
f 18//2 20//2 24//2 22//2
f 24//13 23//13 21//13 22//13
f 14//2 16//2 20//2 18//2
f 19//1 17//1 21//1 23//1
f 20//10 19//10 23//10 24//10
f 16//12 15//12 19//12 20//12
f 13//11 14//11 18//11 17//11
f 9//8 10//8 14//8 13//8
f 3//7 4//7 10//7 9//7
f 12//9 11//9 15//9 16//9
f 10//2 12//2 16//2 14//2
f 4//2 8//2 12//2 10//2
f 7//1 3//1 9//1 11//1
f 2//2 6//2 8//2 4//2
f 1//4 2//4 4//4 3//4
f 5//1 1//1 3//1 7//1
