# split from source with materials
mtllib sniper.mtl
o island_7
v 0.102438 0.291697 -0.063335
v 5.539346 0.291698 -0.066139
v 0.102438 0.246912 -0.044785
v 5.539346 0.244931 -0.046768
v 0.102438 0.228362 0.000000
v 5.539346 0.225559 -0.000000
v 0.102438 0.246912 0.044785
v 5.539346 0.244931 0.046767
v 0.102438 0.291697 0.063335
v 5.539346 0.291698 0.066139
v 0.102438 0.336482 0.044785
v 5.539346 0.338466 0.046767
v 0.102438 0.355032 0.000000
v 5.539346 0.357837 -0.000000
v 0.102438 0.336482 -0.044785
v 5.539346 0.338466 -0.046768
v 0.102438 0.291697 -0.041249
v 0.102438 0.262529 -0.029168
v 0.102438 0.250447 0.000000
v 0.102438 0.262529 0.029168
v 0.102438 0.291697 0.041250
v 0.102438 0.320865 0.029168
v 0.102438 0.332946 0.000000
v 0.102438 0.320865 -0.029168
v 0.072264 0.291697 -0.041249
v 0.072264 0.262529 -0.029168
v 0.072264 0.250447 0.000000
v 0.072264 0.262529 0.029168
v 0.072264 0.291697 0.041250
v 0.072264 0.320865 0.029168
v 0.072264 0.332946 0.000000
v 0.072264 0.320865 -0.029168
v 5.539346 0.256431 -0.035268
v 5.539346 0.291698 -0.049876
v 5.539346 0.241822 -0.000000
v 5.539346 0.256431 0.035267
v 5.539346 0.291698 0.049876
v 5.539346 0.326966 0.035267
v 5.539346 0.341574 -0.000000
v 5.539346 0.326966 -0.035268
v 4.463507 0.256427 -0.035267
v 4.463507 0.291694 -0.049876
v 4.463507 0.241819 0.000000
v 4.463507 0.256427 0.035268
v 4.463507 0.291694 0.049876
v 4.463507 0.326962 0.035268
v 4.463507 0.341570 0.000000
v 4.463507 0.326962 -0.035267
v 0.690517 0.291697 -0.063656
v 0.690517 0.246686 -0.045011
v 0.690517 0.228041 0.000000
v 0.690517 0.246686 0.045011
v 0.690517 0.291697 0.063656
v 0.690517 0.336708 0.045011
v 0.690517 0.355353 0.000000
v 0.690517 0.336708 -0.045011
v 1.159519 0.336836 -0.045139
v 1.159519 0.355533 0.000000
v 1.159519 0.336836 0.045139
v 1.159519 0.291697 0.063836
v 1.159519 0.246558 0.045139
v 1.159519 0.227861 0.000000
v 1.159519 0.246558 -0.045139
v 1.159519 0.291697 -0.063836
v 0.706363 0.291697 0.039003
v 0.706363 0.332402 0.022142
v 0.706363 0.250992 0.022142
v 1.143699 0.250877 0.022257
v 1.143699 0.291697 0.039166
v 1.143699 0.332518 0.022257
v 4.724099 0.338141 -0.046443
v 4.724099 0.357378 -0.000000
v 4.724099 0.338141 0.046443
v 4.724099 0.291698 0.065680
v 4.724099 0.245255 0.046443
v 4.724099 0.226018 -0.000000
v 4.724099 0.245255 -0.046443
v 4.724099 0.291698 -0.065680
v 5.525086 0.229610 -0.062088
v 5.525086 0.291698 -0.087806
v 5.525086 0.203892 -0.000000
v 5.525086 0.229610 0.062088
v 5.525086 0.291698 0.087806
v 5.525086 0.353786 0.062088
v 5.525086 0.379504 -0.000000
v 5.525086 0.353786 -0.062088
v 4.738359 0.291698 -0.087196
v 4.738359 0.353355 -0.061657
v 4.738359 0.378894 -0.000000
v 4.738359 0.353355 0.061657
v 4.738359 0.291698 0.087196
v 4.738359 0.230041 0.061657
v 4.738359 0.204502 -0.000000
v 4.738359 0.230041 -0.061657
v 4.859300 0.353421 -0.061723
v 4.839143 0.353410 -0.061712
v 4.818986 0.353399 -0.061701
v 4.798830 0.353388 -0.061690
v 4.778673 0.353377 -0.061679
v 4.758516 0.353366 -0.061668
v 4.859300 0.378988 -0.000000
v 4.839143 0.378972 -0.000000
v 4.818986 0.378957 -0.000000
v 4.798830 0.378941 -0.000000
v 4.778673 0.378925 -0.000000
v 4.758516 0.378910 -0.000000
v 4.859300 0.353421 0.061723
v 4.839143 0.353410 0.061712
v 4.818986 0.353399 0.061701
v 4.798830 0.353388 0.061690
v 4.778673 0.353377 0.061679
v 4.758516 0.353366 0.061668
v 4.859300 0.291698 0.087290
v 4.839143 0.291698 0.087274
v 4.818986 0.291698 0.087259
v 4.798830 0.291698 0.087243
v 4.778673 0.291698 0.087227
v 4.758516 0.291698 0.087212
v 4.859300 0.229975 0.061723
v 4.839143 0.229986 0.061712
v 4.818986 0.229997 0.061701
v 4.798830 0.230008 0.061690
v 4.778673 0.230019 0.061679
v 4.758516 0.230030 0.061668
v 4.859300 0.204408 -0.000000
v 4.839143 0.204424 -0.000000
v 4.818986 0.204439 -0.000000
v 4.798830 0.204455 -0.000000
v 4.778673 0.204471 -0.000000
v 4.758516 0.204486 -0.000000
v 4.859300 0.229975 -0.061723
v 4.839143 0.229986 -0.061712
v 4.818986 0.229997 -0.061701
v 4.798830 0.230008 -0.061690
v 4.778673 0.230019 -0.061679
v 4.758516 0.230030 -0.061668
v 4.758516 0.291698 -0.087212
v 4.778673 0.291698 -0.087227
v 4.798830 0.291698 -0.087243
v 4.818987 0.291698 -0.087259
v 4.839143 0.291698 -0.087274
v 4.859300 0.291698 -0.087290
v 4.856728 0.350270 -0.058573
v 4.837600 0.350260 -0.058562
v 4.818472 0.350249 -0.058552
v 4.799344 0.350239 -0.058541
v 4.780216 0.350228 -0.058531
v 4.761088 0.350218 -0.058520
v 4.856728 0.374532 -0.000000
v 4.837600 0.374517 -0.000000
v 4.818472 0.374502 -0.000000
v 4.799344 0.374487 -0.000000
v 4.780216 0.374473 -0.000000
v 4.761088 0.374458 -0.000000
v 4.856728 0.350270 0.058572
v 4.837600 0.350260 0.058562
v 4.818472 0.350249 0.058551
v 4.799344 0.350239 0.058541
v 4.780216 0.350228 0.058530
v 4.761088 0.350218 0.058520
v 4.856728 0.291698 0.082834
v 4.837600 0.291698 0.082819
v 4.818472 0.291698 0.082804
v 4.799344 0.291698 0.082789
v 4.780216 0.291698 0.082775
v 4.761088 0.291698 0.082760
v 4.856728 0.233125 0.058572
v 4.837600 0.233136 0.058562
v 4.818472 0.233146 0.058551
v 4.799344 0.233157 0.058541
v 4.780216 0.233167 0.058530
v 4.761088 0.233178 0.058520
v 4.856728 0.208864 -0.000000
v 4.837600 0.208879 -0.000000
v 4.818472 0.208894 -0.000000
v 4.799344 0.208908 -0.000000
v 4.780216 0.208923 -0.000000
v 4.761088 0.208938 -0.000000
v 4.856728 0.233125 -0.058573
v 4.837600 0.233136 -0.058562
v 4.818472 0.233146 -0.058552
v 4.799344 0.233157 -0.058541
v 4.780216 0.233167 -0.058531
v 4.761088 0.233178 -0.058520
v 4.761088 0.291698 -0.082760
v 4.780216 0.291698 -0.082775
v 4.799344 0.291698 -0.082790
v 4.818473 0.291698 -0.082804
v 4.837600 0.291698 -0.082819
v 4.856728 0.291698 -0.082834
v 0.062733 0.291697 -0.024115
v 0.062733 0.274645 -0.017052
v 0.062733 0.267582 0.000000
v 0.062733 0.274645 0.017052
v 0.062733 0.291697 0.024115
v 0.062733 0.308749 0.017052
v 0.062733 0.315812 0.000000
v 0.062733 0.308749 -0.017052
v 0.048436 0.291697 -0.006417
v 0.048436 0.287159 -0.004538
v 0.048436 0.285280 0.000000
v 0.048436 0.287159 0.004538
v 0.048436 0.291697 0.006417
v 0.048436 0.296235 0.004538
v 0.048436 0.298114 0.000000
v 0.048436 0.296235 -0.004538
vn -1.000000 0.000000 0.000000
vn 1.000000 0.000000 0.000000
vn -0.000000 0.923900 -0.382700
vn 0.000000 0.382700 0.923900
vn 0.000000 -0.923900 0.382700
vn -0.000000 -0.382700 -0.923900
vn -0.000000 0.382700 -0.923900
vn -0.000000 0.923900 0.382700
vn 0.000000 -0.382700 0.923900
vn 0.000000 -0.923900 -0.382700
vn -0.000400 0.382700 -0.923900
vn 0.814500 0.222000 0.536000
vn -0.812600 0.538500 0.223100
vn 0.814500 0.536100 -0.222000
vn -0.812600 0.538500 -0.223100
vn 0.814500 -0.536000 -0.222000
vn -0.812600 0.223100 -0.538500
vn -0.812600 -0.223100 -0.538500
vn -0.856700 0.476500 -0.197400
vn -0.000500 0.382700 -0.923900
vn -0.000500 0.923900 -0.382700
vn -0.000500 0.923900 0.382700
vn -0.000500 0.382700 0.923900
vn -0.000500 -0.382700 0.923900
vn -0.000500 -0.923900 0.382700
vn -0.000500 -0.923900 -0.382700
vn -0.000500 -0.382700 -0.923900
vn -0.000300 -0.382700 0.923900
vn -0.000400 -0.382700 -0.923900
vn -0.000400 -0.923900 -0.382700
vn -0.000400 -0.923900 0.382700
vn 0.000200 -0.982700 0.185300
vn 0.820900 -0.218500 0.527600
vn -0.000400 0.923900 0.382700
vn -0.000400 0.923900 -0.382700
vn 0.814500 -0.222000 0.536100
vn -0.000300 0.382700 0.923900
vn 0.000200 0.982700 0.185300
vn -0.821500 0.218200 0.526800
vn 0.820900 0.218500 0.527600
vn -0.821500 -0.218200 0.526800
vn -0.000700 -0.382700 -0.923900
vn -0.000700 -0.923900 -0.382700
vn -0.000700 -0.923900 0.382700
vn -0.000700 -0.382700 0.923900
vn -0.000700 0.382700 0.923900
vn -0.000700 0.923900 0.382700
vn -0.000700 0.923900 -0.382700
vn -0.812600 0.223100 0.538500
vn 0.814500 -0.536000 0.222000
vn -0.812600 -0.223100 0.538500
vn 0.814500 0.222000 -0.536000
vn 0.814500 -0.222000 -0.536000
vn -0.812600 -0.538500 0.223100
vn 0.814500 0.536000 0.222000
vn -0.812600 -0.538500 -0.223100
vn 0.992300 0.047400 0.114500
vn -0.992300 0.114400 -0.047400
vn 0.847900 -0.489800 0.202900
vn -0.936300 -0.134400 -0.324600
vn 0.992300 0.114500 -0.047400
vn -0.848100 -0.489500 -0.202800
vn 0.847900 0.202900 0.489800
vn -0.936300 -0.324600 0.134400
vn 0.936400 0.324300 0.134300
vn -0.848100 -0.202800 0.489500
vn 0.847800 0.489900 -0.202900
vn -0.992300 -0.114400 -0.047400
vn 0.936400 0.134300 -0.324300
vn -0.848100 0.489500 0.202800
vn 0.992300 -0.114500 -0.047400
vn -0.992300 -0.047500 0.114500
vn 0.936400 -0.324300 -0.134300
vn -0.936300 0.324600 0.134400
vn -0.848100 0.202800 -0.489500
vn 0.992300 -0.047400 0.114500
vn -0.992300 0.114500 0.047400
vn -0.000700 0.382700 -0.923900
vn 0.847800 -0.489900 -0.202900
vn 0.936400 -0.134300 0.324300
vn -0.936300 0.134400 -0.324600
vn -0.936300 0.324600 -0.134400
vn 0.936400 -0.324300 0.134300
vn 0.847900 -0.202900 -0.489900
vn -0.992300 0.047400 0.114500
vn 0.992300 -0.114500 0.047400
vn -0.848100 0.489500 -0.202800
vn -0.936300 0.134400 0.324600
vn 0.936400 -0.134300 -0.324300
vn -0.992300 -0.114500 0.047400
vn 0.847900 0.202900 -0.489800
vn 0.992300 -0.047500 -0.114500
vn -0.848100 0.202800 0.489500
vn 0.936400 0.324300 -0.134300
vn -0.936300 -0.134400 0.324600
vn -0.992300 -0.047400 -0.114500
vn 0.847900 0.489800 0.202900
vn -0.848100 -0.489500 0.202800
vn 0.992300 0.047400 -0.114500
vn 0.936400 0.134400 0.324300
vn -0.936300 -0.324600 -0.134400
vn 0.847900 -0.202900 0.489800
vn -0.992300 0.047400 -0.114500
vn -0.848100 -0.202800 -0.489500
vn 0.992300 0.114400 0.047400
vn -0.752800 0.608100 -0.251900
vn -0.856700 0.197400 0.476500
vn -0.856700 -0.476500 0.197400
vn -0.856700 -0.197400 -0.476500
vn -0.856700 0.197400 -0.476500
vn -0.856700 0.476500 0.197400
vn -0.856700 -0.197400 0.476500
vn -0.856700 -0.476500 -0.197400
vn -0.752800 0.251900 0.608100
vn -0.752800 -0.608100 0.251900
vn -0.752800 -0.251900 -0.608100
vn -0.752800 0.251900 -0.608100
vn -0.752800 0.608100 0.251900
vn -0.752800 -0.251900 0.608100
vn -0.752800 -0.608100 -0.251900
usemtl DarkMetal
f 56//11 57//11 64//11 49//11
f 64//27 78//27 77//27 63//27
f 63//26 77//26 76//26 62//26
f 62//25 76//25 75//25 61//25
f 61//24 75//24 74//24 60//24
f 60//23 74//23 73//23 59//23
f 59//22 73//22 72//22 58//22
f 71//15 72//15 89//15 88//15
f 89//48 106//48 100//48 88//48
f 106//97 112//97 160//97 154//97
f 112//63 118//63 166//63 160//63
f 118//102 124//102 172//102 166//102
f 93//44 130//44 124//44 92//44
f 130//79 136//79 184//79 178//79
f 185//42 186//42 183//42 184//42
f 138//88 135//88 183//88 186//88
f 99//78 98//78 139//78 138//78
f 105//64 99//64 147//64 153//64
f 111//47 110//47 104//47 105//47
f 117//60 111//60 159//60 165//60
f 123//81 117//81 165//81 171//81
f 129//44 128//44 122//44 123//44
f 122//86 128//86 176//86 170//86
f 170//45 169//45 163//45 164//45
f 127//90 121//90 169//90 175//90
f 127//44 126//44 120//44 121//44
f 114//69 120//69 168//69 162//69
f 108//89 114//89 162//89 156//89
f 156//47 155//47 149//47 150//47
f 101//87 95//87 143//87 149//87
f 144//78 143//78 190//78 189//78
f 141//80 96//80 144//80 189//80
f 97//78 96//78 141//78 140//78
f 103//58 97//58 145//58 151//58
f 109//77 103//77 151//77 157//77
f 146//78 145//78 188//78 187//78
f 187//42 188//42 181//42 182//42
f 152//48 151//48 145//48 146//48
f 158//47 157//47 151//47 152//47
f 97//103 140//103 188//103 145//103
f 140//96 133//96 181//96 188//96
f 103//48 102//48 96//48 97//48
f 140//42 141//42 132//42 133//42
f 142//104 131//104 179//104 190//104
f 131//62 125//62 173//62 179//62
f 125//98 119//98 167//98 173//98
f 119//45 82//45 83//45 113//45
f 10//12 12//12 84//12 83//12
f 10//2 8//2 36//2 37//2
f 36//3 35//3 43//3 44//3
f 41//2 42//2 48//2 47//2 46//2 45//2 44//2 43//2
f 33//4 34//4 42//4 41//4
f 4//2 2//2 34//2 33//2
f 4//16 6//16 81//16 79//16
f 2//53 4//53 79//53 80//53
f 16//52 2//52 80//52 86//52
f 14//14 16//14 86//14 85//14
f 16//2 14//2 39//2 40//2
f 2//2 16//2 40//2 34//2
f 40//5 39//5 47//5 48//5
f 39//10 38//10 46//10 47//10
f 34//9 40//9 48//9 42//9
f 6//2 4//2 33//2 35//2
f 35//8 33//8 41//8 43//8
f 38//6 37//6 45//6 46//6
f 8//2 6//2 35//2 36//2
f 37//7 36//7 44//7 45//7
f 14//2 12//2 38//2 39//2
f 12//2 10//2 37//2 38//2
f 12//55 14//55 85//55 84//55
f 8//36 10//36 83//36 82//36
f 6//50 8//50 82//50 81//50
f 113//46 83//46 84//46 107//46
f 119//66 113//66 161//66 167//66
f 125//44 81//44 82//44 119//44
f 180//43 179//43 173//43 174//43
f 131//43 79//43 81//43 125//43
f 142//42 80//42 79//42 131//42
f 132//100 141//100 189//100 180//100
f 189//42 190//42 179//42 180//42
f 95//75 142//75 190//75 143//75
f 95//78 86//78 80//78 142//78
f 101//48 85//48 86//48 95//48
f 107//47 84//47 85//47 101//47
f 96//83 102//83 150//83 144//83
f 150//48 149//48 143//48 144//48
f 107//70 101//70 149//70 155//70
f 113//93 107//93 155//93 161//93
f 109//47 108//47 102//47 103//47
f 102//73 108//73 156//73 150//73
f 162//46 161//46 155//46 156//46
f 115//46 114//46 108//46 109//46
f 168//45 167//45 161//45 162//45
f 174//44 173//44 167//44 168//44
f 120//94 126//94 174//94 168//94
f 126//65 132//65 180//65 174//65
f 133//43 132//43 126//43 127//43
f 133//68 127//68 175//68 181//68
f 121//45 120//45 114//45 115//45
f 115//85 109//85 157//85 163//85
f 121//72 115//72 163//72 169//72
f 164//46 163//46 157//46 158//46
f 176//44 175//44 169//44 170//44
f 182//43 181//43 175//43 176//43
f 116//76 122//76 170//76 164//76
f 128//71 134//71 182//71 176//71
f 129//82 123//82 171//82 177//82
f 123//45 122//45 116//45 117//45
f 110//57 116//57 164//57 158//57
f 104//105 110//105 158//105 152//105
f 117//46 116//46 110//46 111//46
f 111//101 105//101 153//101 159//101
f 98//61 104//61 152//61 146//61
f 105//48 104//48 98//48 99//48
f 139//99 98//99 146//99 187//99
f 134//92 139//92 187//92 182//92
f 135//43 134//43 128//43 129//43
f 138//42 139//42 134//42 135//42
f 148//78 147//78 186//78 185//78
f 135//74 129//74 177//74 183//74
f 99//95 138//95 186//95 147//95
f 136//84 137//84 185//84 184//84
f 87//42 137//42 136//42 94//42
f 184//43 183//43 177//43 178//43
f 94//43 136//43 130//43 93//43
f 124//59 130//59 178//59 172//59
f 178//44 177//44 171//44 172//44
f 172//45 171//45 165//45 166//45
f 92//45 124//45 118//45 91//45
f 154//48 153//48 147//48 148//48
f 160//47 159//47 153//47 154//47
f 166//46 165//46 159//46 160//46
f 91//46 118//46 112//46 90//46
f 100//67 106//67 154//67 148//67
f 137//91 100//91 148//91 185//91
f 88//78 100//78 137//78 87//78
f 90//47 112//47 106//47 89//47
f 72//13 73//13 90//13 89//13
f 54//34 59//34 58//34 55//34
f 54//40 53//40 65//40 66//40
f 65//37 69//37 70//37 66//37
f 53//33 52//33 67//33 65//33
f 5//25 51//25 52//25 7//25
f 3//26 50//26 51//26 5//26
f 1//1 3//1 18//1 17//1
f 18//10 19//10 27//10 26//10
f 26//113 27//113 193//113 192//113
f 192//120 193//120 201//120 200//120
f 199//1 200//1 201//1 202//1 203//1 204//1 205//1 206//1
f 194//119 195//119 203//119 202//119
f 28//112 29//112 195//112 194//112
f 20//9 21//9 29//9 28//9
f 9//1 11//1 22//1 21//1
f 22//8 23//8 31//8 30//8
f 30//111 31//111 197//111 196//111
f 31//19 32//19 198//19 197//19
f 32//110 25//110 191//110 198//110
f 13//1 15//1 24//1 23//1
f 23//3 24//3 32//3 31//3
f 11//1 13//1 23//1 22//1
f 21//4 22//4 30//4 29//4
f 29//107 30//107 196//107 195//107
f 196//118 197//118 205//118 204//118
f 198//117 191//117 199//117 206//117
f 195//114 196//114 204//114 203//114
f 197//106 198//106 206//106 205//106
f 191//116 192//116 200//116 199//116
f 193//115 194//115 202//115 201//115
f 25//109 26//109 192//109 191//109
f 27//108 28//108 194//108 193//108
f 19//5 20//5 28//5 27//5
f 24//7 17//7 25//7 32//7
f 17//6 18//6 26//6 25//6
f 15//1 1//1 17//1 24//1
f 5//1 7//1 20//1 19//1
f 3//1 5//1 19//1 18//1
f 7//1 9//1 21//1 20//1
f 67//28 68//28 69//28 65//28
f 7//24 52//24 53//24 9//24
f 9//23 53//23 54//23 11//23
f 11//22 54//22 55//22 13//22
f 59//32 54//32 66//32 70//32
f 60//39 59//39 70//39 69//39
f 73//49 74//49 91//49 90//49
f 61//41 60//41 69//41 68//41
f 52//38 61//38 68//38 67//38
f 74//51 75//51 92//51 91//51
f 51//31 62//31 61//31 52//31
f 75//54 76//54 93//54 92//54
f 50//30 63//30 62//30 51//30
f 76//56 77//56 94//56 93//56
f 77//18 78//18 87//18 94//18
f 78//17 71//17 88//17 87//17
f 58//21 72//21 71//21 57//21
f 57//20 71//20 78//20 64//20
f 55//35 58//35 57//35 56//35
f 49//29 64//29 63//29 50//29
f 1//27 49//27 50//27 3//27
f 13//21 55//21 56//21 15//21
f 15//20 56//20 49//20 1//20
