# split from source with materials
mtllib sniper.mtl
o trigger_guard
v 0.306854 -0.069624 -0.046773
v 0.306854 -0.069624 0.046773
v 0.150807 -0.078211 -0.053783
v 0.150807 -0.078211 0.053783
v 0.248161 -0.236408 0.016051
v 0.266306 -0.222614 0.016020
v 0.255147 -0.119331 -0.045167
v 0.255147 -0.119331 0.045166
v 0.226888 -0.197400 0.016328
v 0.212398 -0.131221 -0.045012
v 0.226888 -0.197400 -0.016328
v 0.212397 -0.131221 0.045012
v 0.243021 -0.153790 -0.028889
v 0.243020 -0.153790 0.028889
v 0.248781 -0.191142 0.016179
v 0.220272 -0.154341 -0.032478
v 0.248782 -0.191142 -0.016179
v 0.220272 -0.154341 0.032477
v 0.266306 -0.222614 -0.016021
v 0.248161 -0.236408 -0.016052
v 0.284813 -0.239406 -0.016001
v 0.284813 -0.239406 0.016000
v 0.277226 -0.260920 -0.016001
v 0.277226 -0.260920 0.016000
v 0.321193 -0.258270 -0.016001
v 0.321193 -0.258270 0.016000
v 0.323272 -0.280981 -0.016001
v 0.323272 -0.280982 0.016000
v 0.546237 -0.258270 -0.016001
v 0.546237 -0.258270 0.016000
v 0.548340 -0.280981 -0.016001
v 0.548340 -0.280982 0.016000
v 0.582442 -0.252291 -0.016001
v 0.582442 -0.252292 0.016000
v 0.595240 -0.271171 -0.016001
v 0.595240 -0.271172 0.016000
v 0.620694 -0.221692 -0.016001
v 0.620694 -0.221693 0.016000
v 0.636700 -0.237941 -0.016001
v 0.636701 -0.237942 0.016000
v 0.636423 -0.194358 -0.016001
v 0.636423 -0.194358 0.016000
v 0.659222 -0.193697 -0.016001
v 0.659223 -0.193697 0.016000
v 0.640576 -0.125146 -0.043130
v 0.640577 -0.125146 0.043130
v 0.663375 -0.125146 -0.042902
v 0.663376 -0.125146 0.042902
v 0.620209 -0.091568 -0.046433
v 0.620209 -0.091568 0.046433
v 0.667229 -0.091568 -0.046433
v 0.667229 -0.091568 0.046433
v 0.598190 -0.069549 -0.046433
v 0.598191 -0.069549 0.046433
v 0.669430 -0.069549 -0.046433
v 0.669431 -0.069549 0.046433
v 0.578374 -0.045329 -0.046433
v 0.578374 -0.045329 0.046433
v 0.669430 -0.045329 -0.046433
v 0.669431 -0.045329 0.046433
vn 0.000000 0.000000 -1.000000
vn 1.000000 0.000000 0.000000
vn 0.000000 0.000000 1.000000
vn -0.000000 1.000000 0.000000
vn 0.000000 -1.000000 0.000000
vn 0.044200 -0.096200 -0.994400
vn -0.877900 -0.478800 -0.000000
vn 0.873700 0.486500 0.000000
vn 0.132000 -0.451400 0.882500
vn 0.044200 -0.096200 0.994400
vn 0.127100 -0.317700 -0.939600
vn 0.693000 -0.720900 0.000000
vn -0.644700 -0.764400 -0.000000
vn -0.652300 -0.757900 -0.000000
vn 0.005900 -0.002900 -1.000000
vn 0.132000 -0.451400 -0.882500
vn -0.988400 -0.151900 -0.000000
vn 0.943300 -0.332000 0.000000
vn 0.988300 0.152400 0.000000
vn -0.946600 -0.322400 -0.000000
vn 0.127100 -0.317700 0.939600
vn -0.054900 0.998500 -0.000000
vn 0.005900 -0.002900 1.000000
vn -0.399400 -0.916800 -0.000000
vn 0.001400 -0.000100 1.000000
vn 0.672000 0.740600 0.000000
vn 0.001400 -0.000100 -1.000000
vn 0.460300 0.887800 0.000000
vn 0.204700 -0.978800 -0.000000
vn -0.162900 0.986600 0.000000
vn -0.624700 0.780900 0.000000
vn 0.625400 -0.780300 -0.000000
vn 0.010000 -0.365600 0.930700
vn -0.866700 0.498800 0.000000
vn 0.891200 -0.453600 -0.000000
vn 0.003300 -0.100500 -0.994900
vn 0.998200 -0.060500 -0.000000
vn 0.010000 -0.365600 -0.930700
vn -0.998200 0.059900 0.000000
vn -0.707100 -0.707100 0.000000
vn -0.855000 -0.518600 0.000000
vn 0.003300 -0.100500 0.994900
vn 0.993500 -0.114000 -0.000000
vn 0.995000 -0.099500 -0.000000
vn -0.774000 -0.633200 0.000000
usemtl Black
f 3//6 1//6 7//6 10//6
f 12//20 10//20 16//20 18//20
f 14//21 18//21 9//21 15//21
f 13//19 14//19 15//19 17//19
f 11//15 17//15 19//15 20//15
f 5//13 20//13 23//13 24//13
f 22//3 24//3 28//3 26//3
f 28//5 27//5 31//5 32//5
f 31//1 29//1 33//1 35//1
f 36//32 35//32 39//32 40//32
f 40//35 39//35 43//35 44//35
f 43//38 41//38 45//38 47//38
f 45//41 46//41 50//41 49//41
f 49//40 50//40 54//40 53//40
f 53//45 54//45 58//45 57//45
f 59//4 57//4 58//4 60//4
f 56//2 55//2 59//2 60//2
f 52//44 51//44 55//44 56//44
f 55//1 53//1 57//1 59//1
f 54//3 56//3 60//3 58//3
f 51//1 49//1 53//1 55//1
f 50//3 52//3 56//3 54//3
f 46//42 48//42 52//42 50//42
f 41//39 42//39 46//39 45//39
f 47//36 45//36 49//36 51//36
f 37//34 38//34 42//34 41//34
f 48//43 47//43 51//43 52//43
f 44//37 43//37 47//37 48//37
f 42//33 44//33 48//33 46//33
f 38//3 40//3 44//3 42//3
f 34//3 36//3 40//3 38//3
f 39//1 37//1 41//1 43//1
f 33//31 34//31 38//31 37//31
f 29//30 30//30 34//30 33//30
f 35//1 33//1 37//1 39//1
f 32//29 31//29 35//29 36//29
f 30//3 32//3 36//3 34//3
f 27//1 25//1 29//1 31//1
f 26//3 28//3 32//3 30//3
f 25//4 26//4 30//4 29//4
f 21//28 22//28 26//28 25//28
f 23//1 21//1 25//1 27//1
f 6//25 5//25 24//25 22//25
f 24//24 23//24 27//24 28//24
f 20//27 19//27 21//27 23//27
f 19//26 6//26 22//26 21//26
f 17//8 15//8 6//8 19//8
f 9//7 11//7 20//7 5//7
f 15//23 9//23 5//23 6//23
f 18//17 16//17 11//17 9//17
f 16//11 13//11 17//11 11//11
f 2//10 4//10 12//10 8//10
f 8//9 12//9 18//9 14//9
f 7//18 8//18 14//18 13//18
f 10//16 7//16 13//16 16//16
f 4//14 3//14 10//14 12//14
f 1//12 2//12 8//12 7//12
f 3//22 4//22 2//22 1//22
