# split from source with materials
mtllib sniper.mtl
o trigger_guard
v 0.311439 -0.050399 -0.046773
v 0.311439 -0.050399 0.046773
v 0.155392 -0.058986 -0.053783
v 0.155392 -0.058986 0.053783
v 0.252746 -0.217183 0.016051
v 0.270891 -0.203388 0.016020
v 0.259732 -0.100106 -0.045167
v 0.259732 -0.100106 0.045167
v 0.231473 -0.178175 0.016328
v 0.216983 -0.111996 -0.045012
v 0.231473 -0.178175 -0.016328
v 0.216982 -0.111996 0.045012
v 0.247606 -0.134565 -0.028889
v 0.247605 -0.134565 0.028889
v 0.253367 -0.171916 0.016179
v 0.224857 -0.135115 -0.032478
v 0.253367 -0.171916 -0.016179
v 0.224857 -0.135115 0.032477
v 0.270891 -0.203388 -0.016021
v 0.252746 -0.217182 -0.016052
v 0.289398 -0.220181 -0.016001
v 0.289398 -0.220181 0.016001
v 0.281811 -0.241694 -0.016001
v 0.281811 -0.241695 0.016001
v 0.325778 -0.239044 -0.016001
v 0.325778 -0.239045 0.016001
v 0.327857 -0.261756 -0.016001
v 0.327857 -0.261756 0.016001
v 0.550822 -0.239044 -0.016001
v 0.550822 -0.239045 0.016001
v 0.552925 -0.261756 -0.016001
v 0.552925 -0.261756 0.016001
v 0.587027 -0.233066 -0.016001
v 0.587028 -0.233066 0.016001
v 0.599825 -0.251946 -0.016001
v 0.599825 -0.251946 0.016001
v 0.625279 -0.202467 -0.016001
v 0.625279 -0.202467 0.016001
v 0.641286 -0.218716 -0.016001
v 0.641286 -0.218716 0.016001
v 0.641008 -0.175132 -0.016001
v 0.641008 -0.175132 0.016001
v 0.663807 -0.174471 -0.016001
v 0.663808 -0.174471 0.016001
v 0.645161 -0.105921 -0.043130
v 0.645162 -0.105921 0.043130
v 0.667960 -0.105921 -0.042902
v 0.667961 -0.105921 0.042902
v 0.624794 -0.072343 -0.046433
v 0.624795 -0.072343 0.046433
v 0.671814 -0.072343 -0.046433
v 0.671814 -0.072343 0.046433
v 0.602776 -0.050324 -0.046433
v 0.602776 -0.050324 0.046433
v 0.674016 -0.050324 -0.046433
v 0.674016 -0.050324 0.046433
v 0.582959 -0.026104 -0.046433
v 0.582959 -0.026104 0.046433
v 0.674016 -0.026104 -0.046433
v 0.674016 -0.026104 0.046433
vn 0.000000 1.000000 0.000000
vn -0.000000 0.000000 -1.000000
vn 0.000000 -0.000000 1.000000
vn 1.000000 0.000000 0.000000
vn 0.044200 -0.096200 -0.994400
vn -0.877900 -0.478800 -0.000000
vn 0.873700 0.486500 0.000000
vn 0.132000 -0.451400 0.882500
vn 0.044200 -0.096200 0.994400
vn 0.127100 -0.317700 -0.939600
vn 0.693000 -0.720900 0.000000
vn -0.644700 -0.764400 -0.000000
vn -0.652300 -0.757900 -0.000000
vn 0.005900 -0.002900 -1.000000
vn 0.132000 -0.451400 -0.882500
vn -0.988400 -0.151900 -0.000000
vn 0.943300 -0.332000 0.000000
vn 0.988300 0.152400 0.000000
vn -0.946600 -0.322400 -0.000000
vn 0.127100 -0.317700 0.939600
vn -0.054900 0.998500 -0.000000
vn 0.005900 -0.002900 1.000000
vn -0.399400 -0.916800 -0.000000
vn 0.001400 -0.000100 1.000000
vn 0.672000 0.740600 0.000000
vn 0.001400 -0.000100 -1.000000
vn 0.460300 0.887800 0.000000
vn 0.000000 -1.000000 -0.000000
vn 0.204700 -0.978800 -0.000000
vn -0.162900 0.986600 0.000000
vn -0.624700 0.780900 0.000000
vn 0.625400 -0.780300 -0.000000
vn 0.010000 -0.365600 0.930700
vn -0.866700 0.498800 0.000000
vn 0.891200 -0.453600 -0.000000
vn 0.003300 -0.100500 -0.994900
vn 0.998200 -0.060500 -0.000000
vn 0.010000 -0.365600 -0.930700
vn -0.998200 0.059900 0.000000
vn -0.707100 -0.707100 0.000000
vn -0.855000 -0.518600 0.000000
vn 0.003300 -0.100500 0.994900
vn 0.993500 -0.114000 -0.000000
vn 0.995000 -0.099500 -0.000000
vn -0.774000 -0.633200 0.000000
usemtl Black
f 3//5 1//5 7//5 10//5
f 3//21 4//21 2//21 1//21
f 2//9 4//9 12//9 8//9
f 8//8 12//8 18//8 14//8
f 14//20 18//20 9//20 15//20
f 17//7 15//7 6//7 19//7
f 20//26 19//26 21//26 23//26
f 21//27 22//27 26//27 25//27
f 26//3 28//3 32//3 30//3
f 29//30 30//30 34//30 33//30
f 33//31 34//31 38//31 37//31
f 39//2 37//2 41//2 43//2
f 41//39 42//39 46//39 45//39
f 46//42 48//42 52//42 50//42
f 52//44 51//44 55//44 56//44
f 55//2 53//2 57//2 59//2
f 53//45 54//45 58//45 57//45
f 59//1 57//1 58//1 60//1
f 56//4 55//4 59//4 60//4
f 51//2 49//2 53//2 55//2
f 54//3 56//3 60//3 58//3
f 50//3 52//3 56//3 54//3
f 48//43 47//43 51//43 52//43
f 49//40 50//40 54//40 53//40
f 45//41 46//41 50//41 49//41
f 47//36 45//36 49//36 51//36
f 42//33 44//33 48//33 46//33
f 43//38 41//38 45//38 47//38
f 44//37 43//37 47//37 48//37
f 40//35 39//35 43//35 44//35
f 36//32 35//32 39//32 40//32
f 38//3 40//3 44//3 42//3
f 37//34 38//34 42//34 41//34
f 31//2 29//2 33//2 35//2
f 35//2 33//2 37//2 39//2
f 34//3 36//3 40//3 38//3
f 32//29 31//29 35//29 36//29
f 28//28 27//28 31//28 32//28
f 30//3 32//3 36//3 34//3
f 25//1 26//1 30//1 29//1
f 22//3 24//3 28//3 26//3
f 27//2 25//2 29//2 31//2
f 23//2 21//2 25//2 27//2
f 24//23 23//23 27//23 28//23
f 5//12 20//12 23//12 24//12
f 19//25 6//25 22//25 21//25
f 6//24 5//24 24//24 22//24
f 11//14 17//14 19//14 20//14
f 16//10 13//10 17//10 11//10
f 9//6 11//6 20//6 5//6
f 15//22 9//22 5//22 6//22
f 13//18 14//18 15//18 17//18
f 18//16 16//16 11//16 9//16
f 12//19 10//19 16//19 18//19
f 7//17 8//17 14//17 13//17
f 10//15 7//15 13//15 16//15
f 4//13 3//13 10//13 12//13
f 1//11 2//11 8//11 7//11
