# split from source with materials
mtllib sniper.mtl
o mag_front
v 0.546237 -0.258270 -0.016001
v 0.546237 -0.258270 0.016000
v 0.548340 -0.280981 -0.016001
v 0.548340 -0.280982 0.016000
v 0.582442 -0.252291 -0.016001
v 0.582442 -0.252292 0.016000
v 0.595240 -0.271171 -0.016001
v 0.595240 -0.271172 0.016000
v 0.620694 -0.221692 -0.016001
v 0.620694 -0.221693 0.016000
v 0.636700 -0.237941 -0.016001
v 0.636701 -0.237942 0.016000
v 0.636423 -0.194358 -0.016001
v 0.636423 -0.194358 0.016000
v 0.659222 -0.193697 -0.016001
v 0.659223 -0.193697 0.016000
v 0.640576 -0.125146 -0.043130
v 0.640577 -0.125146 0.043130
v 0.663375 -0.125146 -0.042902
v 0.663376 -0.125146 0.042902
v 0.620209 -0.091568 -0.046433
v 0.620209 -0.091568 0.046433
v 0.667229 -0.091568 -0.046433
v 0.667229 -0.091568 0.046433
v 0.598190 -0.069549 -0.046433
v 0.598191 -0.069549 0.046433
v 0.669430 -0.069549 -0.046433
v 0.669431 -0.069549 0.046433
v 0.578374 -0.045329 -0.046433
v 0.578374 -0.045329 0.046433
v 0.669430 -0.045329 -0.046433
v 0.669431 -0.045329 0.046433
vn 0.000000 0.000000 -1.000000
vn 1.000000 0.000000 0.000000
vn 0.000000 0.000000 1.000000
vn -0.000000 1.000000 0.000000
vn 0.204700 -0.978800 -0.000000
vn -0.162900 0.986600 0.000000
vn -0.624700 0.780900 0.000000
vn 0.625400 -0.780300 -0.000000
vn 0.010000 -0.365600 0.930700
vn -0.866700 0.498800 0.000000
vn 0.891200 -0.453600 -0.000000
vn 0.003300 -0.100500 -0.994900
vn 0.998200 -0.060500 -0.000000
vn 0.010000 -0.365600 -0.930700
vn -0.998200 0.059900 0.000000
vn -0.707100 -0.707100 0.000000
vn -0.855000 -0.518600 0.000000
vn 0.003300 -0.100500 0.994900
vn 0.993500 -0.114000 -0.000000
vn 0.995000 -0.099500 -0.000000
vn -0.774000 -0.633200 0.000000
usemtl Black
f 2//3 4//3 8//3 6//3
f 7//1 5//1 9//1 11//1
f 4//5 3//5 7//5 8//5
f 3//1 1//1 5//1 7//1
f 1//6 2//6 6//6 5//6
f 11//1 9//1 13//1 15//1
f 5//7 6//7 10//7 9//7
f 6//3 8//3 12//3 10//3
f 8//8 7//8 11//8 12//8
f 14//9 16//9 20//9 18//9
f 9//10 10//10 14//10 13//10
f 10//3 12//3 16//3 14//3
f 12//11 11//11 15//11 16//11
f 19//12 17//12 21//12 23//12
f 16//13 15//13 19//13 20//13
f 15//14 13//14 17//14 19//14
f 13//15 14//15 18//15 17//15
f 21//16 22//16 26//16 25//16
f 17//17 18//17 22//17 21//17
f 18//18 20//18 24//18 22//18
f 20//19 19//19 23//19 24//19
f 26//3 28//3 32//3 30//3
f 22//3 24//3 28//3 26//3
f 24//20 23//20 27//20 28//20
f 23//1 21//1 25//1 27//1
f 31//4 29//4 30//4 32//4
f 28//2 27//2 31//2 32//2
f 27//1 25//1 29//1 31//1
f 25//21 26//21 30//21 29//21
