# split from source with materials
mtllib sniper.mtl
o magazine
v -0.222938 0.037593 -0.101725
v -0.434264 -0.500427 -0.120536
v -0.434264 -0.500427 0.120536
v -0.222938 0.037593 0.101725
v 0.225782 0.246026 -0.068723
v 0.225782 0.246026 0.068723
v -0.040530 0.094722 -0.082338
v -0.040530 0.094722 0.082338
v 1.063844 0.246026 -0.062990
v 1.063844 0.246026 0.062990
v 1.677595 0.246026 -0.062990
v 2.291346 0.246026 -0.062990
v 1.677595 0.246026 0.062990
v 2.291346 0.246026 0.062990
v -2.022263 -0.379615 0.133495
v -2.022263 -0.379615 -0.133495
v -0.493158 -0.144890 -0.123760
v -0.493158 -0.144890 0.123759
v -0.385594 -0.195719 -0.119222
v -0.385594 -0.195719 0.119222
v -1.719648 -0.358649 0.133495
v -1.719648 -0.358649 -0.133495
v 0.311343 0.246026 -0.063868
v 0.311343 0.246026 0.063868
v 0.311327 0.246026 0.019913
v 0.225759 0.246026 0.021403
v -1.975826 -0.782426 0.041333
v -2.043425 -0.685925 0.133495
v -2.039381 0.045071 0.133495
v -1.969518 0.127557 0.041333
v -2.043425 -0.685925 -0.133495
v -1.975826 -0.782426 -0.041334
v -1.969518 0.127557 -0.041334
v -2.039381 0.045071 -0.133495
v -0.496564 -0.336266 0.123759
v -0.498137 -0.424589 0.038319
v -0.443126 -0.489906 0.120983
v -0.338090 0.129190 0.030312
v -0.386736 0.043208 0.118265
v -0.271526 0.076242 0.107644
v -0.498136 -0.424589 -0.038319
v -0.496564 -0.336266 -0.123760
v -0.443126 -0.489906 -0.120983
v -0.386736 0.043209 -0.118265
v -0.338090 0.129190 -0.030312
v -0.271526 0.076242 -0.107644
v -1.696935 -0.697957 -0.133495
v -1.690918 -0.787850 -0.041334
v -1.732521 0.035048 -0.133495
v -1.735432 0.124066 -0.041333
v -1.696935 -0.697957 0.133495
v -1.690918 -0.787850 0.041333
v -1.732521 0.035048 0.133495
v -1.735432 0.124066 0.041333
v -1.705534 -0.357494 -0.123760
v -1.705534 -0.357494 0.123759
v -1.720679 0.105665 -0.038318
v -1.717886 0.020253 -0.123760
v -1.677968 -0.769307 0.038319
v -1.683742 -0.683056 0.123759
v -1.677968 -0.769307 -0.038319
v -1.683742 -0.683056 -0.123760
v -1.720679 0.105665 0.038318
v -1.717886 0.020253 0.123759
v -0.069273 -0.251033 -0.029225
v -0.098936 -0.195317 -0.086722
v -0.077961 -0.234714 -0.068394
v -0.149158 -0.494609 -0.092220
v -0.108788 -0.493785 -0.034303
v -0.120612 -0.494026 -0.073596
v -0.108788 -0.493785 0.034303
v -0.149158 -0.494609 0.092220
v -0.120613 -0.494026 0.073596
v -0.098936 -0.195317 0.086721
v -0.069272 -0.251033 0.029224
v -0.077961 -0.234714 0.068394
v 0.225876 0.010524 -0.067614
v 0.225906 -0.061585 -0.013367
v 0.225897 -0.040464 -0.051585
v 0.225906 -0.061585 0.013367
v 0.225906 0.010516 0.068160
v 0.225906 -0.040467 0.051745
v 0.032906 -0.083969 -0.079069
v 0.057587 -0.144027 -0.024062
v 0.050358 -0.126436 -0.062503
v 0.057587 -0.144027 0.024062
v 0.032906 -0.083969 0.079069
v 0.050358 -0.126436 0.062503
v 1.063844 -0.026827 -0.009082
v 1.063844 0.045284 -0.062990
v 1.063844 -0.005706 -0.047200
v 1.063844 -0.026827 0.009082
v 1.063844 0.045280 0.062990
v 1.063844 -0.005707 0.047200
v 1.677595 0.060319 -0.062990
v 1.677595 -0.011792 -0.009082
v 1.677595 0.009329 -0.047200
v 2.291346 0.085311 -0.062990
v 2.291346 0.013200 -0.009082
v 2.291346 0.034321 -0.047200
v 2.291346 0.013200 0.009082
v 2.291346 0.085307 0.062990
v 2.291346 0.034320 0.047200
v 1.677595 -0.011792 0.009082
v 1.677595 0.060315 0.062990
v 1.677595 0.009328 0.047200
v 2.960054 0.246026 -0.009082
v 2.906172 0.246026 -0.062990
v 2.944272 0.246026 -0.047200
v 2.906172 0.246026 0.062990
v 2.960054 0.246026 0.009082
v 2.944272 0.246026 0.047200
v -0.132876 -0.335663 -0.090800
v -0.094800 -0.356748 -0.032610
v -0.105952 -0.350573 -0.071983
v -0.094800 -0.356748 0.032610
v -0.132877 -0.335663 0.090800
v -0.105953 -0.350573 0.071983
v 0.311418 0.015662 -0.063523
v 0.311442 -0.056448 -0.009507
v 0.311435 -0.035328 -0.047657
v 0.311441 0.015658 0.063730
v 0.311442 -0.056448 0.009507
v 0.311442 -0.035329 0.047718
v 2.906172 0.179109 -0.062990
v 2.960054 0.168494 -0.009082
v 2.944272 0.171603 -0.047200
v 2.853341 0.099200 -0.062990
v 2.821328 0.026298 -0.009082
v 2.830705 0.047650 -0.047200
v 2.877824 0.109949 -0.062990
v 2.919422 0.069366 -0.009082
v 2.907238 0.081253 -0.047200
v 2.853332 0.099196 0.062990
v 2.821328 0.026298 0.009082
v 2.830702 0.047649 0.047200
v 2.906172 0.179109 0.062990
v 2.960054 0.168494 0.009082
v 2.944272 0.171603 0.047200
v 2.877824 0.109949 0.062990
v 2.919422 0.069366 0.009082
v 2.907238 0.081253 0.047200
v 0.311419 0.193161 0.064169
v 0.287254 0.168974 0.065794
v 0.311440 0.144787 0.064148
v 0.250093 0.168974 0.068159
v 0.225880 0.193161 0.069485
v 0.225907 0.144789 0.069402
v 0.225854 0.193161 0.021638
v 0.250067 0.168974 0.021231
v 0.287233 0.168974 0.020504
v 0.311399 0.193161 0.020005
vn 0.080200 0.001700 -0.996800
vn 0.080200 0.001700 0.996800
vn 0.043400 -0.001900 0.999100
vn 0.972100 -0.234700 0.000000
vn 0.087000 -0.002500 -0.996200
vn 0.112700 -0.001900 0.993600
vn 0.102800 -0.008500 0.994700
vn 0.018500 0.002800 0.999800
vn 0.039300 -0.999200 0.000000
vn 0.052300 -0.003100 -0.998600
vn 0.000000 1.000000 0.000000
vn -0.494000 0.869500 0.000000
vn -0.298900 0.954300 0.000000
vn 0.059900 -0.998200 0.000000
vn 0.112700 -0.001900 -0.993600
vn 0.102800 -0.008500 -0.994700
vn 0.040700 -0.999200 0.000000
vn -0.000000 0.000000 -1.000000
vn 1.000000 0.001800 -0.000500
vn 0.000000 -0.000000 1.000000
vn 1.000000 0.000000 0.000000
vn 0.925300 -0.379300 -0.000000
vn 0.001000 -0.000800 -1.000000
vn 0.024700 -0.999700 0.000000
vn 0.087000 -0.002500 0.996200
vn 0.020400 -0.999800 0.000000
vn 0.001300 0.009500 -1.000000
vn 0.994800 -0.101500 0.000000
vn 0.043400 -0.001900 -0.999100
vn 0.280400 -0.959900 0.000000
vn 0.622500 0.782600 0.000000
vn -0.764900 -0.644200 0.000000
vn 0.439900 -0.898100 0.000000
vn 0.050700 0.000200 0.998700
vn 0.054900 -0.000800 -0.998500
vn 0.024500 -0.999700 0.000000
vn 0.001400 -0.000300 1.000000
vn 0.057300 -0.006500 0.998300
vn 0.402000 -0.915600 -0.000000
vn -0.885900 -0.314300 0.341200
vn -0.154900 0.747900 0.645500
vn -0.885900 -0.314300 -0.341200
vn -0.154900 0.747900 -0.645500
vn -0.008700 0.712300 -0.701800
vn 0.199500 -0.683000 0.702700
vn -0.008700 0.712300 0.701800
vn 0.199500 -0.683000 -0.702700
vn 0.001300 0.009500 1.000000
vn -0.017000 0.999900 0.000000
vn 0.953700 -0.094000 -0.285600
vn 0.550300 -0.047900 -0.833600
vn 0.550300 -0.047900 0.833600
vn 0.953700 -0.094000 0.285700
vn 0.595500 -0.684200 -0.421100
vn 0.272700 -0.266100 -0.924600
vn 0.272700 -0.266100 0.924600
vn 0.595500 -0.684200 0.421100
vn 0.417000 -0.794900 -0.440800
vn 0.198600 -0.289500 -0.936400
vn 0.198500 -0.293000 0.935300
vn 0.417000 -0.795300 0.440000
vn 0.074400 -0.872600 -0.482700
vn 0.062500 -0.297900 -0.952500
vn 0.034700 -0.874400 0.483900
vn 0.012500 -0.297700 0.954600
vn 0.007200 -0.295800 0.955200
vn 0.021400 -0.874500 0.484500
vn 0.007200 -0.295800 -0.955200
vn 0.021400 -0.874500 -0.484500
vn 0.012000 -0.295800 -0.955200
vn 0.035600 -0.874200 -0.484300
vn 0.012000 -0.295800 0.955200
vn 0.035600 -0.874200 0.484300
vn 0.930400 -0.215400 -0.296700
vn 0.533300 -0.103800 -0.839500
vn 0.533300 -0.103800 0.839500
vn 0.930400 -0.215400 0.296700
vn 0.034700 -0.874300 -0.484200
vn 0.012300 -0.296400 -0.955000
vn 0.074600 -0.873200 0.481600
vn 0.065200 -0.302400 0.950900
vn 0.354200 -0.145200 -0.923800
vn 0.854900 -0.350400 -0.382500
vn 0.354200 -0.145200 0.923800
vn 0.854900 -0.350400 0.382500
vn 0.153900 -0.350500 -0.923800
vn 0.371400 -0.846000 -0.382500
vn 0.153900 -0.350500 0.923800
vn 0.371400 -0.846000 0.382500
vn 0.007300 -0.295800 0.955200
vn 0.021600 -0.874500 0.484500
vn 0.007300 -0.295800 -0.955200
vn 0.021600 -0.874500 -0.484500
vn 0.923900 0.000000 -0.382500
vn 0.382800 0.000000 -0.923800
vn 0.382800 0.000000 0.923800
vn 0.923900 -0.000000 0.382500
vn 0.644800 -0.764400 -0.000000
vn 0.067500 -0.000400 0.997700
vn 0.053000 -0.001700 0.998600
vn 0.706700 0.707500 -0.000400
vn -0.707400 0.706800 0.000300
vn -1.000000 -0.001400 0.000400
vn 0.014900 0.999900 0.000000
vn -0.999200 -0.040300 0.000000
vn 0.780200 0.625500 -0.000000
vn 0.565300 0.037800 0.824000
vn 0.566700 0.018500 0.823700
vn -0.819000 -0.573700 0.000000
vn -0.019500 -0.706900 -0.707000
vn 0.018200 0.728700 0.684600
vn 0.772800 -0.424200 -0.472000
vn 0.018200 0.728700 -0.684600
vn -0.019500 -0.706900 0.707000
vn 0.746500 0.486500 0.453900
vn -0.019000 -0.999800 0.000000
vn -0.763100 0.646300 0.000000
vn -0.997600 0.068900 0.000000
vn 0.772800 -0.424200 0.472000
vn 0.746500 0.486500 -0.453900
vn 0.565300 0.037800 -0.824000
vn 0.819900 -0.572600 0.000000
vn 0.566700 0.018500 -0.823700
usemtl Green
f 17//1 44//1 46//1 1//1 19//1
f 40//2 39//2 18//2 20//2 4//2
f 18//3 35//3 37//3 3//3 20//3
f 114//4 65//4 75//4 116//4
f 66//5 1//5 7//5 83//5
f 4//6 20//6 117//6 74//6
f 20//7 3//7 72//7 117//7
f 25//8 26//8 149//8 150//8 151//8 152//8
f 123//9 120//9 89//9 92//9
f 77//10 5//10 23//10 119//10
f 151//11 150//11 146//11 144//11
f 7//12 8//12 6//12 26//12 5//12
f 1//13 4//13 8//13 7//13
f 80//14 78//14 120//14 123//14
f 19//15 1//15 66//15 113//15
f 2//16 19//16 113//16 68//16
f 23//11 25//11 24//11 10//11 9//11
f 104//17 96//17 99//17 101//17
f 90//18 9//18 11//18 95//18
f 12//11 14//11 110//11 112//11 111//11 107//11 109//11 108//11
f 26//19 6//19 147//19 149//19
f 14//20 102//20 134//20 140//20 137//20 110//20
f 9//11 10//11 13//11 11//11
f 11//11 13//11 14//11 12//11
f 138//21 126//21 107//21 111//21
f 10//20 93//20 105//20 13//20
f 98//18 12//18 108//18 125//18 131//18 128//18
f 126//22 138//22 141//22 132//22
f 119//23 23//23 9//23 90//23
f 95//18 11//18 12//18 98//18
f 101//24 99//24 129//24 135//24
f 4//25 74//25 87//25 8//25
f 3//26 2//26 68//26 70//26 69//26 71//26 73//26 72//26
f 55//27 58//27 44//27 17//27
f 69//28 114//28 116//28 71//28
f 43//29 42//29 17//29 19//29 2//29
f 61//30 41//30 36//30 59//30
f 46//31 45//31 38//31 40//31 4//31 1//31
f 62//18 55//18 17//18 42//18
f 37//32 36//32 41//32 43//32 2//32 3//32
f 86//33 84//33 78//33 80//33
f 8//34 87//34 81//34 148//34 147//34 6//34
f 5//11 26//11 25//11 23//11
f 83//35 7//35 5//35 77//35
f 92//36 89//36 96//36 104//36
f 24//37 143//37 145//37 122//37 93//37 10//37
f 145//38 144//38 146//38 148//38 81//38 122//38
f 132//39 141//39 135//39 129//39
f 13//20 105//20 102//20 14//20
f 35//40 36//40 37//40
f 38//41 39//41 40//41
f 41//42 42//42 43//42
f 44//43 45//43 46//43
f 57//44 45//44 44//44 58//44
f 59//45 36//45 35//45 60//45
f 38//46 63//46 64//46 39//46
f 41//47 61//47 62//47 42//47
f 18//48 39//48 64//48 56//48
f 35//20 18//20 56//20 60//20
f 45//49 57//49 63//49 38//49
f 114//50 69//50 70//50 115//50
f 115//51 70//51 68//51 113//51
f 117//52 72//52 73//52 118//52
f 118//53 73//53 71//53 116//53
f 84//54 65//54 67//54 85//54
f 85//55 67//55 66//55 83//55
f 87//56 74//56 76//56 88//56
f 88//57 76//57 75//57 86//57
f 78//58 84//58 85//58 79//58
f 79//59 85//59 83//59 77//59
f 81//60 87//60 88//60 82//60
f 82//61 88//61 86//61 80//61
f 120//62 78//62 79//62 121//62
f 121//63 79//63 77//63 119//63
f 123//64 92//64 94//64 124//64
f 124//65 94//65 93//65 122//65
f 105//66 93//66 94//66 106//66
f 106//67 94//67 92//67 104//67
f 90//68 95//68 97//68 91//68
f 91//69 97//69 96//69 89//69
f 95//70 98//70 100//70 97//70
f 97//71 100//71 99//71 96//71
f 102//72 105//72 106//72 103//72
f 103//73 106//73 104//73 101//73
f 65//74 114//74 115//74 67//74
f 67//75 115//75 113//75 66//75
f 74//76 117//76 118//76 76//76
f 76//77 118//77 116//77 75//77
f 89//78 120//78 121//78 91//78
f 91//79 121//79 119//79 90//79
f 80//80 123//80 124//80 82//80
f 82//81 124//81 122//81 81//81
f 131//82 125//82 127//82 133//82
f 133//83 127//83 126//83 132//83
f 137//84 140//84 142//84 139//84
f 139//85 142//85 141//85 138//85
f 128//86 131//86 133//86 130//86
f 130//87 133//87 132//87 129//87
f 140//88 134//88 136//88 142//88
f 142//89 136//89 135//89 141//89
f 134//90 102//90 103//90 136//90
f 136//91 103//91 101//91 135//91
f 98//92 128//92 130//92 100//92
f 100//93 130//93 129//93 99//93
f 107//94 126//94 127//94 109//94
f 109//95 127//95 125//95 108//95
f 110//96 137//96 139//96 112//96
f 112//97 139//97 138//97 111//97
f 75//98 65//98 84//98 86//98
f 143//99 144//99 145//99
f 146//100 147//100 148//100
f 149//101 147//101 146//101 150//101
f 143//102 152//102 151//102 144//102
f 24//103 25//103 152//103 143//103
usemtl Black
f 50//104 33//104 30//104 54//104
f 15//105 29//105 34//105 16//105
f 31//18 16//18 22//18 47//18
f 57//106 50//106 54//106 63//106
f 60//107 56//107 21//107 51//107
f 56//108 64//108 53//108 21//108
f 21//20 53//20 29//20 15//20
f 51//20 21//20 15//20 28//20
f 16//18 34//18 49//18 22//18
f 27//109 28//109 31//109 32//109
f 48//110 32//110 31//110 47//110
f 54//111 30//111 29//111 53//111
f 61//112 48//112 47//112 62//112
f 33//113 50//113 49//113 34//113
f 27//114 52//114 51//114 28//114
f 63//115 54//115 53//115 64//115
f 32//116 48//116 52//116 27//116
f 34//117 29//117 30//117 33//117
f 31//118 28//118 15//118 16//118
f 52//119 59//119 60//119 51//119
f 50//120 57//120 58//120 49//120
f 47//121 22//121 55//121 62//121
f 48//122 61//122 59//122 52//122
f 22//123 49//123 58//123 55//123
