# split from source with materials
mtllib sniper.mtl
o trigger_guard
v 0.306854 -0.069624 -0.046773
v 0.306854 -0.069624 0.046773
v 0.150807 -0.078211 -0.053783
v 0.150807 -0.078211 0.053783
v 0.248161 -0.236408 0.016051
v 0.266306 -0.222614 0.016020
v 0.255147 -0.119331 -0.045167
v 0.255147 -0.119331 0.045166
v 0.226888 -0.197400 0.016328
v 0.212398 -0.131221 -0.045012
v 0.226888 -0.197400 -0.016328
v 0.212397 -0.131221 0.045012
v 0.243021 -0.153790 -0.028889
v 0.243020 -0.153790 0.028889
v 0.248781 -0.191142 0.016179
v 0.220272 -0.154341 -0.032478
v 0.248782 -0.191142 -0.016179
v 0.220272 -0.154341 0.032477
v 0.266306 -0.222614 -0.016021
v 0.248161 -0.236408 -0.016052
v 0.284813 -0.239406 -0.016001
v 0.284813 -0.239406 0.016000
v 0.277226 -0.260920 -0.016001
v 0.277226 -0.260920 0.016000
v 0.321193 -0.258270 -0.016001
v 0.321193 -0.258270 0.016000
v 0.323272 -0.280981 -0.016001
v 0.323272 -0.280982 0.016000
v 0.546237 -0.258270 -0.016001
v 0.546237 -0.258270 0.016000
v 0.548340 -0.280981 -0.016001
v 0.548340 -0.280982 0.016000
vn 0.000000 0.000000 -1.000000
vn 0.000000 0.000000 1.000000
vn -0.000000 1.000000 0.000000
vn 0.000000 -1.000000 0.000000
vn 0.044200 -0.096200 -0.994400
vn -0.877900 -0.478800 -0.000000
vn 0.873700 0.486500 0.000000
vn 0.132000 -0.451400 0.882500
vn 0.044200 -0.096200 0.994400
vn 0.127100 -0.317700 -0.939600
vn 0.693000 -0.720900 0.000000
vn -0.644700 -0.764400 -0.000000
vn -0.652300 -0.757900 -0.000000
vn 0.005900 -0.002900 -1.000000
vn 0.132000 -0.451400 -0.882500
vn -0.988400 -0.151900 -0.000000
vn 0.943300 -0.332000 0.000000
vn 0.988300 0.152400 0.000000
vn -0.946600 -0.322400 -0.000000
vn 0.127100 -0.317700 0.939600
vn -0.054900 0.998500 -0.000000
vn 0.005900 -0.002900 1.000000
vn -0.399400 -0.916800 -0.000000
vn 0.001400 -0.000100 1.000000
vn 0.672000 0.740600 0.000000
vn 0.001400 -0.000100 -1.000000
vn 0.460300 0.887800 0.000000
usemtl Black
f 3//5 1//5 7//5 10//5
f 12//19 10//19 16//19 18//19
f 14//20 18//20 9//20 15//20
f 13//18 14//18 15//18 17//18
f 11//14 17//14 19//14 20//14
f 5//12 20//12 23//12 24//12
f 22//2 24//2 28//2 26//2
f 28//4 27//4 31//4 32//4
f 27//1 25//1 29//1 31//1
f 26//2 28//2 32//2 30//2
f 25//3 26//3 30//3 29//3
f 21//27 22//27 26//27 25//27
f 23//1 21//1 25//1 27//1
f 6//24 5//24 24//24 22//24
f 24//23 23//23 27//23 28//23
f 20//26 19//26 21//26 23//26
f 19//25 6//25 22//25 21//25
f 17//7 15//7 6//7 19//7
f 9//6 11//6 20//6 5//6
f 15//22 9//22 5//22 6//22
f 18//16 16//16 11//16 9//16
f 16//10 13//10 17//10 11//10
f 2//9 4//9 12//9 8//9
f 8//8 12//8 18//8 14//8
f 7//17 8//17 14//17 13//17
f 10//15 7//15 13//15 16//15
f 4//13 3//13 10//13 12//13
f 1//11 2//11 8//11 7//11
f 3//21 4//21 2//21 1//21
