o Cylinder
v -0.289068 -0.039885 0.538152
v -0.317272 -0.028203 0.538152
v -0.317272 -0.028203 0.090136
v -0.289068 -0.039885 0.090136
v -0.289068 0.038168 -0.843047
v -0.316057 0.026989 -0.843047
v -0.316057 0.026989 -0.591839
v -0.289068 0.038168 -0.591839
v -0.260865 -0.028203 0.538152
v -0.289068 -0.039885 0.538152
v -0.289068 -0.039885 0.090136
v -0.260865 -0.028203 0.090136
v -0.332663 -0.000000 -0.874125
v -0.332663 -0.017081 -0.874125
v -0.342880 -0.017081 -0.862960
v -0.342880 -0.000000 -0.862960
v -0.222623 0.066445 -1.123581
v -0.289068 0.093968 -1.123581
v -0.289068 0.093968 -1.109287
v -0.222623 0.066445 -1.109287
v -0.222623 -0.066445 -1.123581
v -0.195101 -0.000000 -1.123581
v -0.195101 -0.000000 -1.109287
v -0.222623 -0.066445 -1.109287
v -0.355514 -0.066445 -1.123581
v -0.289068 -0.093968 -1.123581
v -0.289068 -0.093968 -1.109287
v -0.355514 -0.066445 -1.109287
v -0.217749 -0.000000 -1.109287
v -0.238638 0.050430 -1.109287
v -0.263112 0.025957 -0.874125
v -0.252360 -0.000000 -0.874125
v -0.243180 -0.045889 -0.177551
v -0.224172 -0.000000 -0.177551
v -0.231916 -0.000000 -0.175470
v -0.248655 -0.040413 -0.175470
v -0.249183 -0.000000 0.538152
v -0.249183 -0.000000 0.090136
v -0.260865 0.028203 0.090136
v -0.260865 0.028203 0.538152
v -0.224172 -0.000000 -0.177551
v -0.243180 0.045889 -0.177551
v -0.248655 0.040413 -0.175470
v -0.231916 -0.000000 -0.175470
v -0.346221 -0.000000 -0.175470
v -0.329481 0.040413 -0.175470
v -0.334957 0.045889 -0.177551
v -0.353965 -0.000000 -0.177551
v -0.332699 -0.043631 -0.439122
v -0.289068 -0.061703 -0.439122
v -0.289068 -0.064896 -0.177551
v -0.334957 -0.045889 -0.177551
v -0.289068 0.048312 -0.874125
v -0.323230 0.034161 -0.874125
v -0.323230 0.034161 -0.843047
v -0.289068 0.048312 -0.843047
v -0.245438 0.043631 -0.439122
v -0.289068 0.061703 -0.439122
v -0.289068 0.064896 -0.177551
v -0.243180 0.045889 -0.177551
v -0.289068 0.039885 0.538152
v -0.289068 0.039885 0.090136
v -0.317272 0.028203 0.090136
v -0.317272 0.028203 0.538152
v -0.329481 0.040413 -0.175470
v -0.346221 -0.000000 -0.175470
v -0.346221 -0.000000 0.068366
v -0.329481 0.040413 0.068366
v -0.195101 -0.000000 -1.123581
v -0.222623 0.066445 -1.123581
v -0.222623 0.066445 -1.109287
v -0.195101 -0.000000 -1.109287
v -0.289068 0.036708 -0.874125
v -0.263112 0.025957 -0.874125
v -0.238638 0.050430 -1.109287
v -0.289068 0.071319 -1.109287
v -0.360387 -0.000000 -1.109287
v -0.339499 0.050430 -1.109287
v -0.355514 0.066445 -1.109287
v -0.383036 -0.000000 -1.109287
v -0.222623 0.066445 -1.109287
v -0.289068 0.093968 -1.109287
v -0.289068 0.071319 -1.109287
v -0.238638 0.050430 -1.109287
v -0.332699 0.043631 -0.439122
v -0.350772 -0.000000 -0.439122
v -0.353965 -0.000000 -0.177551
v -0.334957 0.045889 -0.177551
v -0.315025 -0.025957 -0.874125
v -0.289068 -0.036708 -0.874125
v -0.289068 -0.048312 -0.874125
v -0.323230 -0.034162 -0.874125
v -0.325777 -0.000000 -0.874125
v -0.315025 0.025957 -0.874125
v -0.339499 0.050430 -1.109287
v -0.360387 -0.000000 -1.109287
v -0.262080 -0.026989 -0.843047
v -0.289068 -0.038168 -0.843047
v -0.289068 -0.048312 -0.843047
v -0.254907 -0.034162 -0.843047
v -0.217749 -0.000000 -1.109287
v -0.195101 -0.000000 -1.109287
v -0.222623 0.066445 -1.109287
v -0.238638 0.050430 -1.109287
v -0.316057 0.026989 -0.843047
v -0.327236 -0.000000 -0.843047
v -0.327236 -0.000000 -0.591839
v -0.316057 0.026989 -0.591839
v -0.332699 0.043631 -0.439122
v -0.316057 0.026989 -0.591839
v -0.327236 -0.000000 -0.591839
v -0.350772 -0.000000 -0.439122
v -0.317272 -0.028203 0.090136
v -0.329481 -0.040413 0.068366
v -0.289068 -0.057153 0.068366
v -0.289068 -0.039885 0.090136
v -0.245438 0.043631 -0.439122
v -0.227365 -0.000000 -0.439122
v -0.250901 -0.000000 -0.591839
v -0.262080 0.026989 -0.591839
v -0.231916 -0.000000 -0.175470
v -0.248655 0.040413 -0.175470
v -0.248655 0.040413 0.068366
v -0.231916 -0.000000 0.068366
v -0.289068 0.061703 -0.439122
v -0.245438 0.043631 -0.439122
v -0.262080 0.026989 -0.591839
v -0.289068 0.038168 -0.591839
v -0.289068 -0.061703 -0.439122
v -0.245438 -0.043631 -0.439122
v -0.243180 -0.045889 -0.177551
v -0.289068 -0.064896 -0.177551
v -0.332699 -0.043631 -0.439122
v -0.350772 -0.000000 -0.439122
v -0.327236 -0.000000 -0.591839
v -0.316057 -0.026989 -0.591839
v -0.289068 -0.093968 -1.109287
v -0.222623 -0.066445 -1.109287
v -0.238638 -0.050430 -1.109287
v -0.289068 -0.071319 -1.109287
v -0.383036 -0.000000 -1.123581
v -0.355514 -0.066445 -1.123581
v -0.355514 -0.066445 -1.109287
v -0.383036 -0.000000 -1.109287
v -0.360387 -0.000000 -1.109287
v -0.383036 -0.000000 -1.109287
v -0.355514 -0.066445 -1.109287
v -0.339499 -0.050430 -1.109287
v -0.323230 0.034161 -0.874125
v -0.332663 0.017081 -0.874125
v -0.332663 0.017081 -0.843047
v -0.323230 0.034161 -0.843047
v -0.328954 -0.000000 0.538152
v -0.317272 0.028203 0.538152
v -0.317272 0.028203 0.090136
v -0.328954 -0.000000 0.090136
v -0.317272 -0.028203 0.090136
v -0.317272 -0.028203 0.538152
v -0.328954 -0.000000 0.538152
v -0.328954 -0.000000 0.090136
v -0.339499 -0.050430 -1.109287
v -0.289068 -0.071319 -1.109287
v -0.289068 -0.036708 -0.874125
v -0.315025 -0.025957 -0.874125
v -0.250901 -0.000000 -0.843047
v -0.262080 -0.026989 -0.843047
v -0.254907 -0.034162 -0.843047
v -0.240757 -0.000000 -0.843047
v -0.327236 -0.000000 -0.843047
v -0.316057 -0.026989 -0.843047
v -0.316057 -0.026989 -0.591839
v -0.327236 -0.000000 -0.591839
v -0.332663 0.017081 -0.874125
v -0.332663 -0.000000 -0.874125
v -0.342880 -0.000000 -0.862960
v -0.342880 0.017081 -0.862960
v -0.346221 -0.000000 -0.175470
v -0.353965 -0.000000 -0.177551
v -0.334957 -0.045889 -0.177551
v -0.329481 -0.040413 -0.175470
v -0.289068 -0.036708 -0.874125
v -0.263112 -0.025957 -0.874125
v -0.254907 -0.034162 -0.874125
v -0.289068 -0.048312 -0.874125
v -0.289068 0.057153 -0.175470
v -0.329481 0.040413 -0.175470
v -0.329481 0.040413 0.068366
v -0.289068 0.057153 0.068366
v -0.254907 -0.034162 -0.874125
v -0.240757 -0.000000 -0.874125
v -0.240757 -0.000000 -0.843047
v -0.254907 -0.034162 -0.843047
v -0.289068 -0.057153 -0.175470
v -0.329481 -0.040413 -0.175470
v -0.334957 -0.045889 -0.177551
v -0.289068 -0.064896 -0.177551
v -0.329481 -0.040413 -0.175470
v -0.289068 -0.057153 -0.175470
v -0.289068 -0.057153 0.068366
v -0.329481 -0.040413 0.068366
v -0.323230 0.034161 -0.874125
v -0.289068 0.048312 -0.874125
v -0.289068 0.036708 -0.874125
v -0.315025 0.025957 -0.874125
v -0.289068 0.048312 -0.843047
v -0.323230 0.034161 -0.843047
v -0.316057 0.026989 -0.843047
v -0.289068 0.038168 -0.843047
v -0.332663 -0.017081 -0.874125
v -0.323230 -0.034162 -0.874125
v -0.323230 -0.034162 -0.843047
v -0.332663 -0.017081 -0.843047
v -0.289068 -0.057153 -0.175470
v -0.248655 -0.040413 -0.175470
v -0.248655 -0.040413 0.068366
v -0.289068 -0.057153 0.068366
v -0.289068 -0.071319 -1.109287
v -0.238638 -0.050430 -1.109287
v -0.263112 -0.025957 -0.874125
v -0.289068 -0.036708 -0.874125
v -0.254907 0.034161 -0.874125
v -0.289068 0.048312 -0.874125
v -0.289068 0.048312 -0.843047
v -0.254907 0.034161 -0.843047
v -0.328954 -0.000000 0.090136
v -0.317272 0.028203 0.090136
v -0.329481 0.040413 0.068366
v -0.346221 -0.000000 0.068366
v -0.289068 -0.064896 -0.177551
v -0.243180 -0.045889 -0.177551
v -0.248655 -0.040413 -0.175470
v -0.289068 -0.057153 -0.175470
v -0.327236 -0.000000 -0.843047
v -0.332663 -0.017081 -0.843047
v -0.316057 -0.026989 -0.843047
v -0.289068 0.061703 -0.439122
v -0.332699 0.043631 -0.439122
v -0.334957 0.045889 -0.177551
v -0.289068 0.064896 -0.177551
v -0.260865 -0.028203 0.538152
v -0.260865 -0.028203 0.090136
v -0.249183 -0.000000 0.090136
v -0.249183 -0.000000 0.538152
v -0.316057 0.026989 -0.843047
v -0.332663 0.017081 -0.843047
v -0.327236 -0.000000 -0.843047
v -0.262080 -0.026989 -0.843047
v -0.250901 -0.000000 -0.843047
v -0.250901 -0.000000 -0.591839
v -0.262080 -0.026989 -0.591839
v -0.316057 -0.026989 -0.591839
v -0.289068 -0.038168 -0.591839
v -0.289068 -0.061703 -0.439122
v -0.332699 -0.043631 -0.439122
v -0.346221 -0.000000 0.068366
v -0.329481 -0.040413 0.068366
v -0.317272 -0.028203 0.090136
v -0.328954 -0.000000 0.090136
v -0.332663 0.017081 -0.874125
v -0.323230 0.034161 -0.874125
v -0.315025 0.025957 -0.874125
v -0.289068 0.071319 -1.109287
v -0.339499 0.050430 -1.109287
v -0.315025 0.025957 -0.874125
v -0.289068 0.036708 -0.874125
v -0.243180 0.045889 -0.177551
v -0.289068 0.064896 -0.177551
v -0.289068 0.057153 -0.175470
v -0.248655 0.040413 -0.175470
v -0.289068 0.071319 -1.109287
v -0.289068 0.093968 -1.109287
v -0.355514 0.066445 -1.109287
v -0.339499 0.050430 -1.109287
v -0.289068 -0.093968 -1.123581
v -0.289068 0.093968 -1.123581
v -0.222623 0.066445 -1.123581
v -0.222623 -0.066445 -1.123581
v -0.360387 -0.000000 -1.109287
v -0.339499 -0.050430 -1.109287
v -0.315025 -0.025957 -0.874125
v -0.325777 -0.000000 -0.874125
v -0.248655 -0.040413 -0.175470
v -0.231916 -0.000000 -0.175470
v -0.231916 -0.000000 0.068366
v -0.248655 -0.040413 0.068366
v -0.289068 0.038168 -0.591839
v -0.316057 0.026989 -0.591839
v -0.332699 0.043631 -0.439122
v -0.289068 0.061703 -0.439122
v -0.249183 -0.000000 0.090136
v -0.260865 -0.028203 0.090136
v -0.248655 -0.040413 0.068366
v -0.231916 -0.000000 0.068366
v -0.240757 -0.000000 -0.874125
v -0.254907 0.034161 -0.874125
v -0.254907 0.034161 -0.843047
v -0.240757 -0.000000 -0.843047
v -0.260865 0.028203 0.538152
v -0.260865 0.028203 0.090136
v -0.289068 0.039885 0.090136
v -0.289068 0.039885 0.538152
v -0.323230 -0.034162 -0.874125
v -0.289068 -0.048312 -0.874125
v -0.289068 -0.048312 -0.843047
v -0.323230 -0.034162 -0.843047
v -0.332663 -0.017081 -0.874125
v -0.325777 -0.000000 -0.874125
v -0.315025 -0.025957 -0.874125
v -0.350772 -0.000000 -0.439122
v -0.332699 -0.043631 -0.439122
v -0.334957 -0.045889 -0.177551
v -0.353965 -0.000000 -0.177551
v -0.227365 -0.000000 -0.439122
v -0.245438 0.043631 -0.439122
v -0.243180 0.045889 -0.177551
v -0.224172 -0.000000 -0.177551
v -0.289068 0.039885 0.090136
v -0.260865 0.028203 0.090136
v -0.248655 0.040413 0.068366
v -0.289068 0.057153 0.068366
v -0.289068 -0.038168 -0.591839
v -0.316057 -0.026989 -0.591839
v -0.316057 -0.026989 -0.843047
v -0.289068 -0.038168 -0.843047
v -0.289068 -0.038168 -0.591839
v -0.262080 -0.026989 -0.591839
v -0.245438 -0.043631 -0.439122
v -0.289068 -0.061703 -0.439122
v -0.289068 -0.038168 -0.843047
v -0.262080 -0.026989 -0.843047
v -0.262080 -0.026989 -0.591839
v -0.289068 -0.038168 -0.591839
v -0.289068 0.038168 -0.591839
v -0.262080 0.026989 -0.591839
v -0.262080 0.026989 -0.843047
v -0.289068 0.038168 -0.843047
v -0.238638 -0.050430 -1.109287
v -0.217749 -0.000000 -1.109287
v -0.252360 -0.000000 -0.874125
v -0.263112 -0.025957 -0.874125
v -0.346221 -0.000000 0.068366
v -0.346221 -0.000000 -0.175470
v -0.329481 -0.040413 -0.175470
v -0.329481 -0.040413 0.068366
v -0.262080 -0.026989 -0.591839
v -0.250901 -0.000000 -0.591839
v -0.227365 -0.000000 -0.439122
v -0.245438 -0.043631 -0.439122
v -0.316057 -0.026989 -0.843047
v -0.323230 -0.034162 -0.843047
v -0.289068 -0.048312 -0.843047
v -0.289068 -0.038168 -0.843047
v -0.289068 0.093968 -1.123581
v -0.355514 0.066445 -1.123581
v -0.355514 0.066445 -1.109287
v -0.289068 0.093968 -1.109287
v -0.254907 0.034161 -0.874125
v -0.240757 -0.000000 -0.874125
v -0.252360 -0.000000 -0.874125
v -0.263112 0.025957 -0.874125
v -0.289068 -0.039885 0.090136
v -0.289068 -0.057153 0.068366
v -0.248655 -0.040413 0.068366
v -0.260865 -0.028203 0.090136
v -0.254907 -0.034162 -0.874125
v -0.263112 -0.025957 -0.874125
v -0.252360 -0.000000 -0.874125
v -0.240757 -0.000000 -0.874125
v -0.317272 0.028203 0.090136
v -0.289068 0.039885 0.090136
v -0.289068 0.057153 0.068366
v -0.329481 0.040413 0.068366
v -0.248655 0.040413 -0.175470
v -0.289068 0.057153 -0.175470
v -0.289068 0.057153 0.068366
v -0.248655 0.040413 0.068366
v -0.355514 0.066445 -1.123581
v -0.383036 -0.000000 -1.123581
v -0.383036 -0.000000 -1.109287
v -0.355514 0.066445 -1.109287
v -0.339499 -0.050430 -1.109287
v -0.355514 -0.066445 -1.109287
v -0.289068 -0.093968 -1.109287
v -0.289068 -0.071319 -1.109287
v -0.263112 0.025957 -0.874125
v -0.289068 0.036708 -0.874125
v -0.289068 0.048312 -0.874125
v -0.254907 0.034161 -0.874125
v -0.254907 0.034161 -0.843047
v -0.289068 0.048312 -0.843047
v -0.289068 0.038168 -0.843047
v -0.262080 0.026989 -0.843047
v -0.355514 0.066445 -1.123581
v -0.289068 0.093968 -1.123581
v -0.289068 -0.093968 -1.123581
v -0.355514 -0.066445 -1.123581
v -0.217749 -0.000000 -1.109287
v -0.238638 -0.050430 -1.109287
v -0.222623 -0.066445 -1.109287
v -0.195101 -0.000000 -1.109287
v -0.249183 -0.000000 0.090136
v -0.231916 -0.000000 0.068366
v -0.248655 0.040413 0.068366
v -0.260865 0.028203 0.090136
v -0.245438 -0.043631 -0.439122
v -0.227365 -0.000000 -0.439122
v -0.224172 -0.000000 -0.177551
v -0.243180 -0.045889 -0.177551
v -0.289068 -0.048312 -0.874125
v -0.254907 -0.034162 -0.874125
v -0.254907 -0.034162 -0.843047
v -0.289068 -0.048312 -0.843047
v -0.289068 -0.093968 -1.123581
v -0.222623 -0.066445 -1.123581
v -0.222623 -0.066445 -1.109287
v -0.289068 -0.093968 -1.109287
v -0.332663 0.017081 -0.874125
v -0.325777 -0.000000 -0.874125
v -0.332663 -0.000000 -0.874125
v -0.323230 -0.034162 -0.874125
v -0.332663 -0.017081 -0.874125
v -0.315025 -0.025957 -0.874125
v -0.332663 -0.017081 -0.874125
v -0.332663 -0.017081 -0.843047
v -0.342880 -0.017081 -0.854213
v -0.342880 -0.017081 -0.862960
v -0.323230 -0.034162 -0.843047
v -0.316057 -0.026989 -0.843047
v -0.332663 -0.017081 -0.843047
v -0.327236 -0.000000 -0.843047
v -0.332663 -0.000000 -0.843047
v -0.332663 -0.017081 -0.843047
v -0.332663 -0.000000 -0.843047
v -0.332663 0.017081 -0.843047
v -0.342880 0.017081 -0.854213
v -0.342880 -0.000000 -0.854213
v -0.332663 -0.000000 -0.843047
v -0.327236 -0.000000 -0.843047
v -0.332663 0.017081 -0.843047
v -0.316057 0.026989 -0.843047
v -0.323230 0.034161 -0.843047
v -0.332663 0.017081 -0.843047
v -0.250901 -0.000000 -0.843047
v -0.262080 0.026989 -0.843047
v -0.262080 0.026989 -0.591839
v -0.250901 -0.000000 -0.591839
v -0.332663 -0.017081 -0.874125
v -0.332663 -0.000000 -0.874125
v -0.325777 -0.000000 -0.874125
v -0.332663 0.017081 -0.843047
v -0.332663 0.017081 -0.874125
v -0.342880 0.017081 -0.862960
v -0.342880 0.017081 -0.854213
v -0.332663 -0.017081 -0.843047
v -0.332663 -0.000000 -0.843047
v -0.342880 -0.000000 -0.854213
v -0.342880 -0.017081 -0.854213
v -0.342880 0.017081 -0.862960
v -0.342880 -0.000000 -0.862960
v -0.361349 -0.000000 -0.861576
v -0.361349 0.008702 -0.861576
v -0.250901 -0.000000 -0.843047
v -0.240757 -0.000000 -0.843047
v -0.254907 0.034161 -0.843047
v -0.262080 0.026989 -0.843047
v -0.222623 0.066445 -1.123581
v -0.195101 -0.000000 -1.123581
v -0.222623 -0.066445 -1.123581
v -0.355514 -0.066445 -1.123581
v -0.383036 -0.000000 -1.123581
v -0.355514 0.066445 -1.123581
v -0.289068 0.064896 -0.177551
v -0.334957 0.045889 -0.177551
v -0.329481 0.040413 -0.175470
v -0.289068 0.057153 -0.175470
v -0.332663 0.017081 -0.874125
v -0.315025 0.025957 -0.874125
v -0.325777 -0.000000 -0.874125
v -0.342880 -0.017081 -0.862960
v -0.342880 -0.017081 -0.854213
v -0.361349 -0.008702 -0.855597
v -0.361349 -0.008702 -0.861576
v -0.372000 0.025511 -0.042093
v -0.372000 0.025511 -0.076577
v -0.379926 0.018120 -0.072330
v -0.379926 0.018120 -0.046000
v -0.376019 0.021763 -0.042093
v -0.369949 0.025511 0.034023
v -0.369949 -0.025537 0.034023
v -0.333209 -0.025537 0.034023
v -0.333209 0.025511 0.034023
v -0.369949 -0.025537 -0.089754
v -0.369949 0.025511 -0.089754
v -0.333209 0.025511 -0.089754
v -0.333209 -0.025537 -0.089754
v -0.350199 -0.025537 0.022711
v -0.372000 -0.025537 0.020846
v -0.372000 0.025511 0.020846
v -0.350199 0.025511 0.022711
v -0.379926 -0.018145 -0.080140
v -0.379926 0.018120 -0.080140
v -0.369949 0.025511 -0.089754
v -0.369949 -0.025537 -0.089754
v -0.379926 0.018120 0.024409
v -0.379926 -0.018145 0.024409
v -0.369949 -0.025537 0.034023
v -0.369949 0.025511 0.034023
v -0.350199 0.025511 0.022711
v -0.350199 0.025511 -0.078442
v -0.350199 -0.025537 -0.078442
v -0.350199 -0.025537 0.022711
v -0.350199 0.025511 -0.078442
v -0.350199 0.025511 0.022711
v -0.333209 0.025511 0.034023
v -0.333209 0.025511 -0.089754
v -0.350199 -0.025537 0.022711
v -0.350199 -0.025537 -0.078442
v -0.333209 -0.025537 -0.089754
v -0.333209 -0.025537 0.034023
v -0.372000 -0.025537 -0.076577
v -0.379926 -0.018145 -0.080140
v -0.369949 -0.025537 -0.089754
v -0.372000 0.025511 -0.076577
v -0.369949 0.025511 -0.089754
v -0.379926 0.018120 -0.080140
v -0.372000 0.025511 0.020846
v -0.379926 0.018120 0.024409
v -0.369949 0.025511 0.034023
v -0.372000 -0.025537 0.020846
v -0.369949 -0.025537 0.034023
v -0.379926 -0.018145 0.024409
v -0.372000 -0.025537 0.020846
v -0.350199 -0.025537 0.022711
v -0.333209 -0.025537 0.034023
v -0.369949 -0.025537 0.034023
v -0.372000 -0.025537 -0.009733
v -0.374068 -0.023608 -0.009733
v -0.374068 0.023582 -0.009733
v -0.372000 0.025511 -0.009733
v -0.350199 -0.025537 -0.078442
v -0.372000 -0.025537 -0.076577
v -0.369949 -0.025537 -0.089754
v -0.333209 -0.025537 -0.089754
v -0.372000 0.025511 -0.076577
v -0.350199 0.025511 -0.078442
v -0.333209 0.025511 -0.089754
v -0.369949 0.025511 -0.089754
v -0.350199 0.025511 0.022711
v -0.372000 0.025511 0.020846
v -0.369949 0.025511 0.034023
v -0.333209 0.025511 0.034023
v -0.372000 0.025511 -0.009733
v -0.372000 0.025511 0.020846
v -0.372000 -0.025537 0.020846
v -0.372000 -0.025537 -0.009733
v -0.350199 0.025511 -0.078442
v -0.372000 0.025511 -0.076577
v -0.372000 -0.025537 -0.076577
v -0.350199 -0.025537 -0.078442
v -0.379926 0.018120 -0.072330
v -0.379926 0.018120 -0.080140
v -0.386264 0.018120 -0.080140
v -0.386264 0.018120 -0.072330
v -0.379926 -0.018145 -0.080140
v -0.372000 -0.025537 -0.076577
v -0.379926 -0.018145 -0.072330
v -0.379926 0.018120 -0.080140
v -0.379926 0.018120 -0.072330
v -0.372000 0.025511 -0.076577
v -0.386264 -0.002683 -0.072330
v -0.386264 -0.002683 -0.080140
v -0.386264 -0.018145 -0.080140
v -0.386264 -0.018145 -0.072330
v -0.379926 0.018120 -0.080140
v -0.379926 -0.018145 -0.080140
v -0.386264 -0.018145 -0.080140
v -0.386264 -0.002683 -0.080140
v -0.379926 0.018120 -0.072330
v -0.386264 0.018120 -0.072330
v -0.386264 0.003092 -0.072330
v -0.379926 -0.018145 -0.080140
v -0.379926 -0.018145 -0.072330
v -0.386264 -0.018145 -0.072330
v -0.386264 -0.018145 -0.080140
v -0.386264 0.018120 -0.072330
v -0.386264 0.018120 -0.080140
v -0.386264 0.003092 -0.080140
v -0.386264 0.003092 -0.072330
v -0.386264 0.018120 -0.080140
v -0.379926 0.018120 -0.080140
v -0.386264 0.003092 -0.080140
v -0.379926 -0.018145 -0.072330
v -0.379926 0.018120 -0.072330
v -0.386264 -0.002683 -0.072330
v -0.386264 -0.018145 -0.072330
v -0.386264 -0.002683 -0.080140
v -0.386264 0.003092 -0.080140
v -0.379926 0.018120 -0.080140
v -0.386264 0.003092 -0.072330
v -0.386264 -0.002683 -0.072330
v -0.379926 0.018120 -0.072330
v -0.386264 0.003092 -0.072330
v -0.386264 0.003092 -0.080140
v -0.390730 0.003092 -0.080140
v -0.390730 0.003092 -0.072330
v -0.386264 -0.002683 -0.080140
v -0.386264 -0.002683 -0.072330
v -0.390730 -0.002683 -0.072330
v -0.390730 -0.002683 -0.080140
v -0.386264 -0.002683 -0.072330
v -0.386264 0.003092 -0.072330
v -0.390730 0.003092 -0.072330
v -0.390730 -0.002683 -0.072330
v -0.390730 -0.002683 -0.072330
v -0.390730 0.003092 -0.072330
v -0.390730 0.003092 -0.080140
v -0.390730 -0.002683 -0.080140
v -0.386264 0.003092 -0.080140
v -0.386264 -0.002683 -0.080140
v -0.390730 -0.002683 -0.080140
v -0.390730 0.003092 -0.080140
v -0.372000 0.025511 -0.076577
v -0.372000 0.025511 -0.042093
v -0.372000 -0.025537 -0.042093
v -0.372000 -0.025537 -0.076577
v -0.372000 -0.025537 -0.042093
v -0.372000 0.025511 -0.042093
v -0.376019 0.021763 -0.042093
v -0.376019 -0.021789 -0.042093
v -0.372000 0.025511 0.020846
v -0.372000 0.025511 -0.009733
v -0.374068 0.023582 -0.009733
v -0.379926 0.018120 -0.003874
v -0.379926 0.018120 0.024409
v -0.372000 -0.025537 -0.009733
v -0.372000 -0.025537 0.020846
v -0.379926 -0.018145 0.024409
v -0.379926 -0.018145 -0.003874
v -0.374068 -0.023608 -0.009733
v -0.379926 -0.018145 -0.046000
v -0.379926 0.018120 -0.046000
v -0.379926 0.018120 -0.072330
v -0.379926 -0.018145 -0.072330
v -0.379926 0.018120 -0.046000
v -0.379926 -0.018145 -0.046000
v -0.376019 -0.021789 -0.042093
v -0.376019 0.021763 -0.042093
v -0.372000 -0.025537 -0.076577
v -0.372000 -0.025537 -0.042093
v -0.376019 -0.021789 -0.042093
v -0.379926 -0.018145 -0.046000
v -0.379926 -0.018145 -0.072330
v -0.374068 0.023582 -0.009733
v -0.374068 -0.023608 -0.009733
v -0.379926 -0.018145 -0.003874
v -0.379926 0.018120 -0.003874
v -0.379926 -0.018145 0.024409
v -0.379926 0.018120 0.024409
v -0.379926 0.018120 -0.003874
v -0.379926 -0.018145 -0.003874
v -0.375056 -0.017078 -0.054862
v -0.375056 -0.014747 -0.054862
v -0.347508 -0.014747 -0.054862
v -0.347508 -0.017078 -0.054862
v -0.375056 -0.014747 -0.054862
v -0.375056 -0.014747 -0.044413
v -0.347508 -0.014747 -0.044413
v -0.347508 -0.014747 -0.054862
v -0.375056 -0.014747 -0.044413
v -0.375056 -0.017078 -0.044413
v -0.347508 -0.017078 -0.044413
v -0.347508 -0.014747 -0.044413
v -0.375056 -0.017078 -0.044413
v -0.375056 -0.017078 -0.054862
v -0.347508 -0.017078 -0.054862
v -0.347508 -0.017078 -0.044413
v -0.375056 0.016395 -0.054862
v -0.375056 0.016395 -0.044413
v -0.347508 0.016395 -0.044413
v -0.347508 0.016395 -0.054862
v -0.375056 0.014063 -0.054862
v -0.375056 0.016395 -0.054862
v -0.347508 0.016395 -0.054862
v -0.347508 0.014063 -0.054862
v -0.375056 0.016395 -0.044413
v -0.375056 0.014063 -0.044413
v -0.347508 0.014063 -0.044413
v -0.347508 0.016395 -0.044413
v -0.375056 0.014063 -0.044413
v -0.375056 0.014063 -0.054862
v -0.347508 0.014063 -0.054862
v -0.347508 0.014063 -0.044413
v -0.375056 -0.017078 -0.004959
v -0.375056 -0.014747 -0.004959
v -0.347508 -0.014747 -0.004959
v -0.347508 -0.017078 -0.004959
v -0.375056 -0.014747 -0.004959
v -0.375056 -0.014747 0.005490
v -0.347508 -0.014747 0.005490
v -0.347508 -0.014747 -0.004959
v -0.375056 -0.014747 0.005490
v -0.375056 -0.017078 0.005490
v -0.347508 -0.017078 0.005490
v -0.347508 -0.014747 0.005490
v -0.375056 -0.017078 0.005490
v -0.375056 -0.017078 -0.004959
v -0.347508 -0.017078 -0.004959
v -0.347508 -0.017078 0.005490
v -0.375056 0.016395 -0.004959
v -0.375056 0.016395 0.005490
v -0.347508 0.016395 0.005490
v -0.347508 0.016395 -0.004959
v -0.375056 0.014063 -0.004959
v -0.375056 0.016395 -0.004959
v -0.347508 0.016395 -0.004959
v -0.347508 0.014063 -0.004959
v -0.375056 0.016395 0.005490
v -0.375056 0.014063 0.005490
v -0.347508 0.014063 0.005490
v -0.347508 0.016395 0.005490
v -0.375056 0.014063 0.005490
v -0.375056 0.014063 -0.004959
v -0.347508 0.014063 -0.004959
v -0.347508 0.014063 0.005490
v -0.063582 -0.009862 -0.062404
v -0.063582 -0.009862 -0.129379
v -0.056046 -0.009034 -0.121843
v -0.056046 -0.009034 -0.069940
v -0.063582 0.009862 -0.129379
v -0.063582 0.009862 -0.062404
v -0.056046 0.009034 -0.069940
v -0.056046 0.009034 -0.121843
v -0.182112 0.011420 -0.062404
v -0.182112 -0.011420 -0.062404
v -0.063582 -0.009862 -0.062404
v -0.063582 0.009862 -0.062404
v -0.214032 -0.014295 -0.147482
v -0.214032 0.014295 -0.147482
v -0.182112 0.011420 -0.129379
v -0.182112 -0.011420 -0.129379
v -0.214032 0.014295 -0.147482
v -0.214032 0.014295 -0.044301
v -0.182112 0.011420 -0.062404
v -0.182112 0.011420 -0.129379
v -0.214032 0.014295 -0.044301
v -0.214032 -0.014295 -0.044301
v -0.182112 -0.011420 -0.062404
v -0.182112 0.011420 -0.062404
v -0.214032 -0.014295 -0.044301
v -0.214032 -0.014295 -0.147482
v -0.182112 -0.011420 -0.129379
v -0.182112 -0.011420 -0.062404
v -0.182112 -0.011420 -0.129379
v -0.182112 0.011420 -0.129379
v -0.063582 0.009862 -0.129379
v -0.063582 -0.009862 -0.129379
v -0.056046 -0.009034 -0.069940
v -0.056046 0.009034 -0.069940
v -0.063582 0.009862 -0.062404
v -0.063582 -0.009862 -0.062404
v -0.056046 0.009034 -0.121843
v -0.056046 -0.009034 -0.121843
v -0.063582 -0.009862 -0.129379
v -0.063582 0.009862 -0.129379
v -0.056046 -0.009034 -0.121843
v -0.056046 0.009034 -0.121843
v -0.056046 0.009034 -0.069940
v -0.056046 -0.009034 -0.069940
v -0.214032 -0.014295 -0.044301
v -0.214032 0.014295 -0.044301
v -0.215579 0.006119 -0.050922
v -0.215579 -0.006119 -0.050922
v -0.214032 -0.014295 -0.147482
v -0.215579 -0.006119 -0.140861
v -0.215579 0.006119 -0.140861
v -0.214032 0.014295 -0.147482
v -0.215579 -0.006119 -0.050922
v -0.215579 -0.006119 -0.140861
v -0.214032 -0.014295 -0.147482
v -0.214032 -0.014295 -0.044301
v -0.214032 0.014295 -0.044301
v -0.214032 0.014295 -0.147482
v -0.215579 0.006119 -0.140861
v -0.215579 0.006119 -0.050922
v -0.215579 0.006119 -0.050922
v -0.215579 0.006119 -0.140861
v -0.236143 0.006119 -0.140861
v -0.236143 0.006119 -0.050922
v -0.215579 -0.006119 -0.140861
v -0.215579 -0.006119 -0.050922
v -0.236143 -0.006119 -0.050922
v -0.236143 -0.006119 -0.140861
v -0.215579 -0.006119 -0.050922
v -0.215579 0.006119 -0.050922
v -0.236143 0.006119 -0.050922
v -0.236143 -0.006119 -0.050922
v -0.215579 0.006119 -0.140861
v -0.215579 -0.006119 -0.140861
v -0.236143 -0.006119 -0.140861
v -0.236143 0.006119 -0.140861
v -0.182112 -0.011420 -0.062404
v -0.182112 -0.011420 -0.129379
v -0.063582 -0.009862 -0.129379
v -0.063582 -0.009862 -0.062404
v -0.182112 0.011420 -0.129379
v -0.182112 0.011420 -0.062404
v -0.063582 0.009862 -0.062404
v -0.063582 0.009862 -0.129379
v -0.232092 -0.009106 0.111056
v -0.232092 0.009106 0.111056
v -0.219724 0.009106 0.112981
v -0.219724 -0.009106 0.112981
v -0.232092 0.009106 0.314261
v -0.219724 0.009106 0.304257
v -0.219724 0.009106 0.297141
v -0.232092 0.009106 0.314261
v -0.232092 -0.009106 0.314261
v -0.219724 -0.009106 0.304257
v -0.219724 0.009106 0.304257
v -0.232092 -0.009106 0.314261
v -0.232092 -0.009106 0.111056
v -0.219724 -0.009106 0.112981
v -0.219724 -0.009106 0.249348
v -0.219724 -0.009106 0.297141
v -0.219724 -0.009106 0.304257
v -0.219724 -0.009106 0.297141
v -0.212195 -0.009106 0.299550
v -0.212195 -0.009106 0.304257
v -0.256508 -0.015729 0.319631
v -0.256508 -0.015729 0.096857
v -0.232092 -0.009106 0.111056
v -0.232092 -0.009106 0.314261
v -0.256508 0.015729 0.319631
v -0.256508 -0.015729 0.319631
v -0.232092 -0.009106 0.314261
v -0.232092 0.009106 0.314261
v -0.256508 0.015729 0.096857
v -0.256508 0.015729 0.319631
v -0.232092 0.009106 0.314261
v -0.232092 0.009106 0.111056
v -0.256508 -0.015729 0.096857
v -0.256508 0.015729 0.096857
v -0.232092 0.009106 0.111056
v -0.232092 -0.009106 0.111056
v -0.122652 0.009607 0.226558
v -0.122652 -0.009607 0.226558
v -0.120809 -0.007229 0.220519
v -0.120809 0.007229 0.220519
v -0.120809 -0.007229 0.220519
v -0.059068 -0.007051 0.218783
v -0.059068 0.000000 0.221540
v -0.122652 -0.009607 0.153210
v -0.122652 0.009607 0.153210
v -0.120809 0.007229 0.158032
v -0.120809 -0.007229 0.158032
v -0.122652 -0.009607 0.226558
v -0.122652 -0.009607 0.153210
v -0.120809 -0.007229 0.158032
v -0.120809 -0.007229 0.220519
v -0.122652 0.009607 0.153210
v -0.122652 0.009607 0.226558
v -0.120809 0.007229 0.220519
v -0.120809 0.007229 0.158032
v -0.219724 0.009106 0.112981
v -0.219724 0.009106 0.249348
v -0.180859 0.009106 0.232267
v -0.170267 0.009106 0.147076
v -0.219724 -0.009106 0.249348
v -0.219724 -0.009106 0.112981
v -0.170267 -0.009106 0.147076
v -0.180859 -0.009106 0.232267
v -0.219724 -0.009106 0.112981
v -0.219724 0.009106 0.112981
v -0.170267 0.009106 0.147076
v -0.170267 -0.009106 0.147076
v -0.219724 0.009106 0.249348
v -0.219724 -0.009106 0.249348
v -0.180859 -0.009106 0.232267
v -0.180859 0.009106 0.232267
v -0.170267 0.009106 0.147076
v -0.180859 0.009106 0.232267
v -0.145538 0.009106 0.232598
v -0.145538 0.009106 0.148388
v -0.180859 -0.009106 0.232267
v -0.170267 -0.009106 0.147076
v -0.145538 -0.009106 0.148388
v -0.145538 -0.009106 0.232598
v -0.170267 -0.009106 0.147076
v -0.170267 0.009106 0.147076
v -0.145538 0.009106 0.148388
v -0.145538 -0.009106 0.148388
v -0.180859 0.009106 0.232267
v -0.180859 -0.009106 0.232267
v -0.145538 -0.009106 0.232598
v -0.145538 0.009106 0.232598
v -0.005483 -0.008867 0.209526
v -0.009858 -0.008867 0.147460
v -0.004394 -0.008867 0.158405
v -0.001608 -0.008867 0.197924
v -0.120809 0.007229 0.158032
v -0.120809 0.007229 0.220519
v -0.059068 0.007051 0.218783
v -0.049020 0.007493 0.152184
v -0.120809 -0.007229 0.220519
v -0.120809 -0.007229 0.158032
v -0.049020 -0.007493 0.152184
v -0.059068 -0.007051 0.218783
v -0.120809 -0.007229 0.158032
v -0.120809 0.007229 0.158032
v -0.049020 0.007493 0.152184
v -0.049020 -0.007493 0.152184
v -0.009858 0.008867 0.147460
v -0.005483 0.008867 0.209526
v -0.001608 0.008867 0.197924
v -0.004394 0.008867 0.158405
v -0.059068 0.000000 0.221540
v -0.059068 -0.007051 0.218783
v -0.016427 -0.008867 0.214991
v -0.016427 0.000000 0.217748
v -0.004394 -0.008867 0.158405
v -0.004394 0.008867 0.158405
v -0.001608 0.008867 0.197924
v -0.001608 -0.008867 0.197924
v -0.004394 0.008867 0.158405
v -0.004394 -0.008867 0.158405
v -0.009858 -0.008867 0.147460
v -0.009858 0.008867 0.147460
v -0.009858 0.008867 0.147460
v -0.009858 -0.008867 0.147460
v -0.027510 -0.008566 0.145473
v -0.027510 0.008566 0.145473
v -0.016427 0.000000 0.217748
v -0.016427 -0.008867 0.214991
v -0.005483 -0.008867 0.209526
v -0.005483 0.000000 0.212283
v -0.005483 0.000000 0.212283
v -0.005483 -0.008867 0.209526
v -0.001608 -0.008867 0.197924
v -0.049020 -0.007493 0.152184
v -0.049020 0.007493 0.152184
v -0.027510 0.008566 0.145473
v -0.027510 -0.008566 0.145473
v -0.219724 -0.009106 0.249348
v -0.219724 0.009106 0.249348
v -0.219724 0.009106 0.297141
v -0.219724 -0.009106 0.297141
v -0.219724 -0.009106 0.304257
v -0.232092 -0.009106 0.314261
v -0.219724 -0.009106 0.297141
v -0.232092 0.009106 0.111056
v -0.232092 0.009106 0.314261
v -0.219724 0.009106 0.297141
v -0.219724 0.009106 0.249348
v -0.219724 0.009106 0.112981
v -0.212195 -0.009106 0.304257
v -0.212195 -0.009106 0.299550
v -0.186629 -0.006429 0.300286
v -0.186629 -0.006429 0.305160
v -0.219724 -0.009106 0.297141
v -0.219724 0.009106 0.297141
v -0.212195 0.009106 0.299550
v -0.212195 -0.009106 0.299550
v -0.219724 0.009106 0.304257
v -0.219724 -0.009106 0.304257
v -0.212195 -0.009106 0.304257
v -0.212195 0.009106 0.304257
v -0.219724 0.009106 0.297141
v -0.219724 0.009106 0.304257
v -0.212195 0.009106 0.304257
v -0.212195 0.009106 0.299550
v -0.186629 0.006429 0.300286
v -0.186629 0.006429 0.305160
v -0.167813 0.006208 0.298137
v -0.169847 0.006208 0.294395
v -0.212195 0.009106 0.299550
v -0.212195 0.009106 0.304257
v -0.186629 0.006429 0.305160
v -0.186629 0.006429 0.300286
v -0.212195 0.009106 0.304257
v -0.212195 -0.009106 0.304257
v -0.186629 -0.006429 0.305160
v -0.186629 0.006429 0.305160
v -0.212195 -0.009106 0.299550
v -0.212195 0.009106 0.299550
v -0.186629 0.006429 0.300286
v -0.186629 -0.006429 0.300286
v -0.169847 -0.006208 0.294395
v -0.169847 0.006208 0.294395
v -0.158986 0.006654 0.277498
v -0.158986 -0.006654 0.277498
v -0.186629 0.006429 0.305160
v -0.186629 -0.006429 0.305160
v -0.167813 -0.006208 0.298137
v -0.167813 0.006208 0.298137
v -0.186629 -0.006429 0.300286
v -0.186629 0.006429 0.300286
v -0.169847 0.006208 0.294395
v -0.169847 -0.006208 0.294395
v -0.186629 -0.006429 0.305160
v -0.186629 -0.006429 0.300286
v -0.169847 -0.006208 0.294395
v -0.167813 -0.006208 0.298137
v -0.158986 0.006654 0.277498
v -0.153636 0.006654 0.278202
v -0.145136 0.006654 0.253557
v -0.149696 0.006654 0.254145
v -0.167813 -0.006208 0.298137
v -0.169847 -0.006208 0.294395
v -0.158986 -0.006654 0.277498
v -0.153636 -0.006654 0.278202
v -0.169847 0.006208 0.294395
v -0.167813 0.006208 0.298137
v -0.153636 0.006654 0.278202
v -0.158986 0.006654 0.277498
v -0.167813 0.006208 0.298137
v -0.167813 -0.006208 0.298137
v -0.153636 -0.006654 0.278202
v -0.153636 0.006654 0.278202
v -0.149696 0.006654 0.254145
v -0.145136 0.006654 0.253557
v -0.145073 0.007300 0.240711
v -0.149633 0.007300 0.241299
v -0.153636 0.006654 0.278202
v -0.153636 -0.006654 0.278202
v -0.145136 -0.006654 0.253557
v -0.145136 0.006654 0.253557
v -0.158986 -0.006654 0.277498
v -0.158986 0.006654 0.277498
v -0.149696 0.006654 0.254145
v -0.149696 -0.006654 0.254145
v -0.153636 -0.006654 0.278202
v -0.158986 -0.006654 0.277498
v -0.149696 -0.006654 0.254145
v -0.145136 -0.006654 0.253557
v -0.149633 -0.007301 0.241299
v -0.149633 0.007300 0.241299
v -0.157999 0.006691 0.230885
v -0.157999 -0.006691 0.230885
v -0.145136 0.006654 0.253557
v -0.145136 -0.006654 0.253557
v -0.145073 -0.007301 0.240711
v -0.145073 0.007300 0.240711
v -0.149696 -0.006654 0.254145
v -0.149696 0.006654 0.254145
v -0.149633 0.007300 0.241299
v -0.149633 -0.007301 0.241299
v -0.145136 -0.006654 0.253557
v -0.149696 -0.006654 0.254145
v -0.149633 -0.007301 0.241299
v -0.145073 -0.007301 0.240711
v -0.145073 -0.007301 0.240711
v -0.149633 -0.007301 0.241299
v -0.157999 -0.006691 0.230885
v -0.153912 -0.006691 0.229289
v -0.149633 0.007300 0.241299
v -0.145073 0.007300 0.240711
v -0.153912 0.006691 0.229289
v -0.157999 0.006691 0.230885
v -0.145073 0.007300 0.240711
v -0.145073 -0.007301 0.240711
v -0.153912 -0.006691 0.229289
v -0.153912 0.006691 0.229289
v -0.249967 -0.017229 0.113493
v -0.249967 -0.009106 0.113493
v -0.234637 -0.009106 0.113493
v -0.234637 -0.017229 0.113493
v -0.249967 -0.021676 0.295984
v -0.249967 -0.009106 0.295984
v -0.234637 -0.009106 0.295984
v -0.234637 -0.021676 0.295984
v -0.249967 -0.009106 0.128822
v -0.249967 -0.017229 0.128822
v -0.234637 -0.017229 0.128822
v -0.234637 -0.009106 0.128822
v -0.249967 -0.017229 0.128822
v -0.249967 -0.017229 0.113493
v -0.234637 -0.017229 0.113493
v -0.234637 -0.017229 0.128822
v -0.234637 -0.017229 0.113493
v -0.234637 -0.009106 0.113493
v -0.234637 -0.009106 0.128822
v -0.234637 -0.017229 0.128822
v -0.249967 -0.009106 0.311313
v -0.249967 -0.021676 0.311313
v -0.234637 -0.021676 0.311313
v -0.234637 -0.009106 0.311313
v -0.249967 -0.021676 0.311313
v -0.249967 -0.021676 0.295984
v -0.234637 -0.021676 0.295984
v -0.234637 -0.021676 0.311313
v -0.234637 -0.021676 0.295984
v -0.234637 -0.009106 0.295984
v -0.234637 -0.009106 0.311313
v -0.234637 -0.021676 0.311313
v -0.145538 0.009106 0.148388
v -0.145538 0.009106 0.232598
v -0.122652 0.009607 0.226558
v -0.122652 0.009607 0.153210
v -0.145538 -0.009106 0.232598
v -0.145538 -0.009106 0.148388
v -0.122652 -0.009607 0.153210
v -0.122652 -0.009607 0.226558
v -0.145538 -0.009106 0.148388
v -0.145538 0.009106 0.148388
v -0.122652 0.009607 0.153210
v -0.122652 -0.009607 0.153210
v -0.145538 0.009106 0.232598
v -0.145538 -0.009106 0.232598
v -0.122652 -0.009607 0.226558
v -0.122652 0.009607 0.226558
v -0.059068 -0.007051 0.218783
v -0.049020 -0.007493 0.152184
v -0.027510 -0.008566 0.145473
v -0.016427 -0.008867 0.214991
v -0.016427 -0.008867 0.214991
v -0.027510 -0.008566 0.145473
v -0.009858 -0.008867 0.147460
v -0.005483 -0.008867 0.209526
v -0.049020 0.007493 0.152184
v -0.059068 0.007051 0.218783
v -0.016427 0.008867 0.214991
v -0.027510 0.008566 0.145473
v -0.027510 0.008566 0.145473
v -0.016427 0.008867 0.214991
v -0.005483 0.008867 0.209526
v -0.009858 0.008867 0.147460
v -0.016427 0.008867 0.214991
v -0.016427 0.000000 0.217748
v -0.005483 0.000000 0.212283
v -0.005483 0.008867 0.209526
v -0.059068 0.007051 0.218783
v -0.059068 0.000000 0.221540
v -0.016427 0.000000 0.217748
v -0.016427 0.008867 0.214991
v -0.059068 0.007051 0.218783
v -0.120809 0.007229 0.220519
v -0.059068 0.000000 0.221540
v -0.120809 0.007229 0.220519
v -0.120809 -0.007229 0.220519
v -0.059068 0.000000 0.221540
v -0.005483 0.000000 0.212283
v -0.001608 -0.008867 0.197924
v -0.001608 0.008867 0.197924
v -0.005483 0.008867 0.209526
v -0.005483 0.000000 0.212283
v -0.001608 0.008867 0.197924
v -0.358786 -0.019763 0.448838
v -0.358786 -0.019763 0.439473
v -0.314382 -0.019763 0.438259
v -0.314382 -0.019763 0.448838
v -0.358786 0.019903 0.439473
v -0.358786 0.019903 0.448838
v -0.314382 0.021011 0.448838
v -0.314382 0.021011 0.438259
v -0.394399 -0.000284 0.446406
v -0.394399 -0.000284 0.441298
v -0.384661 -0.016441 0.441298
v -0.384661 -0.016441 0.446406
v -0.358786 0.019903 0.448838
v -0.358786 0.019903 0.439473
v -0.384661 0.014292 0.441298
v -0.384661 0.014292 0.446406
v -0.358786 -0.019763 0.439473
v -0.358786 -0.019763 0.448838
v -0.384661 -0.016441 0.446406
v -0.384661 -0.016441 0.441298
v -0.371908 -0.002152 0.445030
v -0.371775 -0.000319 0.445023
v -0.379390 -0.000319 0.445023
v -0.377897 -0.002152 0.445030
v -0.371870 -0.000319 0.442681
v -0.371908 -0.002152 0.442673
v -0.377897 -0.002152 0.442673
v -0.379390 -0.000319 0.442681
v -0.289068 0.033866 0.538152
v -0.313015 0.023947 0.538152
v -0.308278 0.019210 0.402519
v -0.289068 0.027167 0.402519
v -0.289068 0.033866 0.538152
v -0.265122 0.023947 0.538152
v -0.260865 0.028203 0.538152
v -0.289068 0.039885 0.538152
v -0.265122 0.023947 0.538152
v -0.255203 -0.000000 0.538152
v -0.249183 -0.000000 0.538152
v -0.260865 0.028203 0.538152
v -0.255203 -0.000000 0.538152
v -0.265122 -0.023947 0.538152
v -0.260865 -0.028203 0.538152
v -0.249183 -0.000000 0.538152
v -0.265122 -0.023947 0.538152
v -0.289068 -0.033866 0.538152
v -0.289068 -0.039885 0.538152
v -0.260865 -0.028203 0.538152
v -0.289068 -0.033866 0.538152
v -0.313015 -0.023947 0.538152
v -0.317272 -0.028203 0.538152
v -0.289068 -0.039885 0.538152
v -0.313015 -0.023947 0.538152
v -0.322934 -0.000000 0.538152
v -0.328954 -0.000000 0.538152
v -0.317272 -0.028203 0.538152
v -0.322934 -0.000000 0.538152
v -0.313015 0.023947 0.538152
v -0.317272 0.028203 0.538152
v -0.328954 -0.000000 0.538152
v -0.313015 0.023947 0.538152
v -0.289068 0.033866 0.538152
v -0.289068 0.039885 0.538152
v -0.317272 0.028203 0.538152
v -0.269859 0.019210 0.402519
v -0.289068 0.027167 0.402519
v -0.308278 0.019210 0.402519
v -0.316235 -0.000000 0.402519
v -0.308278 -0.019210 0.402519
v -0.289068 -0.027167 0.402519
v -0.269859 -0.019210 0.402519
v -0.261902 -0.000000 0.402519
v -0.322934 -0.000000 0.538152
v -0.313015 -0.023947 0.538152
v -0.308278 -0.019210 0.402519
v -0.316235 -0.000000 0.402519
v -0.289068 -0.033866 0.538152
v -0.265122 -0.023947 0.538152
v -0.269859 -0.019210 0.402519
v -0.289068 -0.027167 0.402519
v -0.255203 -0.000000 0.538152
v -0.265122 0.023947 0.538152
v -0.269859 0.019210 0.402519
v -0.261902 -0.000000 0.402519
v -0.313015 0.023947 0.538152
v -0.322934 -0.000000 0.538152
v -0.316235 -0.000000 0.402519
v -0.308278 0.019210 0.402519
v -0.313015 -0.023947 0.538152
v -0.289068 -0.033866 0.538152
v -0.289068 -0.027167 0.402519
v -0.308278 -0.019210 0.402519
v -0.265122 -0.023947 0.538152
v -0.255203 -0.000000 0.538152
v -0.261902 -0.000000 0.402519
v -0.269859 -0.019210 0.402519
v -0.265122 0.023947 0.538152
v -0.289068 0.033866 0.538152
v -0.289068 0.027167 0.402519
v -0.269859 0.019210 0.402519
v -0.340642 -0.014446 0.448838
v -0.345259 -0.014446 0.448838
v -0.358786 -0.019763 0.448838
v -0.314382 -0.019763 0.448838
v -0.345259 -0.014446 0.439285
v -0.340642 -0.014446 0.438447
v -0.314382 -0.019763 0.438259
v -0.358786 -0.019763 0.439473
v -0.347759 0.000530 0.439285
v -0.345259 -0.014446 0.439285
v -0.358786 -0.019763 0.439473
v -0.368525 -0.000284 0.439473
v -0.340642 0.015434 0.438447
v -0.345259 0.014827 0.439285
v -0.358786 0.019903 0.439473
v -0.314382 0.021011 0.438259
v -0.344011 0.000533 0.438447
v -0.340642 0.015434 0.438447
v -0.314382 0.021011 0.438259
v -0.322991 0.000624 0.438259
v -0.345259 0.014827 0.448838
v -0.340642 0.015434 0.448838
v -0.314382 0.021011 0.448838
v -0.358786 0.019903 0.448838
v -0.347759 0.000530 0.448838
v -0.345259 0.014827 0.448838
v -0.358786 0.019903 0.448838
v -0.368525 -0.000284 0.448838
v -0.344011 0.000533 0.448838
v -0.340642 -0.014446 0.448838
v -0.314382 -0.019763 0.448838
v -0.322991 0.000624 0.448838
v -0.340642 0.015434 0.438447
v -0.340642 0.015434 0.448838
v -0.345259 0.014827 0.448838
v -0.345259 0.014827 0.439285
v -0.347759 0.000530 0.439285
v -0.347759 0.000530 0.448838
v -0.345259 -0.014446 0.448838
v -0.345259 -0.014446 0.439285
v -0.345259 -0.014446 0.439285
v -0.345259 -0.014446 0.448838
v -0.340642 -0.014446 0.448838
v -0.340642 -0.014446 0.438447
v -0.344011 0.000533 0.438447
v -0.344011 0.000533 0.448838
v -0.340642 0.015434 0.448838
v -0.340642 0.015434 0.438447
v -0.345259 0.014827 0.439285
v -0.345259 0.014827 0.448838
v -0.347759 0.000530 0.448838
v -0.347759 0.000530 0.439285
v -0.345259 -0.014446 0.448838
v -0.347759 0.000530 0.448838
v -0.368525 -0.000284 0.448838
v -0.358786 -0.019763 0.448838
v -0.345259 0.014827 0.439285
v -0.347759 0.000530 0.439285
v -0.368525 -0.000284 0.439473
v -0.358786 0.019903 0.439473
v -0.372044 0.001341 0.442673
v -0.371870 -0.000319 0.442681
v -0.379390 -0.000319 0.442681
v -0.378033 0.001341 0.442673
v -0.371775 -0.000319 0.445023
v -0.372044 0.001341 0.445031
v -0.378033 0.001341 0.445031
v -0.379390 -0.000319 0.445023
v -0.384661 0.014292 0.446406
v -0.384661 0.014292 0.441298
v -0.394399 -0.000284 0.441298
v -0.394399 -0.000284 0.446406
v -0.340642 -0.014446 0.438447
v -0.340642 -0.014446 0.448838
v -0.344011 0.000533 0.448838
v -0.344011 0.000533 0.438447
v -0.340642 0.015434 0.448838
v -0.344011 0.000533 0.448838
v -0.322991 0.000624 0.448838
v -0.314382 0.021011 0.448838
v -0.340642 -0.014446 0.438447
v -0.344011 0.000533 0.438447
v -0.322991 0.000624 0.438259
v -0.314382 -0.019763 0.438259
v -0.361349 0.008702 -0.861576
v -0.361349 -0.000000 -0.861576
v -0.361349 -0.000000 -0.855597
v -0.361349 0.008702 -0.855597
v -0.361349 -0.000000 -0.855597
v -0.361349 -0.000000 -0.861576
v -0.361349 -0.008702 -0.861576
v -0.361349 -0.008702 -0.855597
v -0.342880 0.017081 -0.854213
v -0.342880 0.017081 -0.862960
v -0.361349 0.008702 -0.861576
v -0.361349 0.008702 -0.855597
v -0.342880 -0.017081 -0.854213
v -0.342880 -0.000000 -0.854213
v -0.361349 -0.000000 -0.855597
v -0.361349 -0.008702 -0.855597
v -0.342880 -0.000000 -0.862960
v -0.342880 -0.017081 -0.862960
v -0.361349 -0.008702 -0.861576
v -0.361349 -0.000000 -0.861576
v -0.342880 -0.000000 -0.854213
v -0.342880 0.017081 -0.854213
v -0.361349 0.008702 -0.855597
v -0.361349 -0.000000 -0.855597
v -0.371870 -0.000319 0.442681
v -0.372044 0.001341 0.442673
v -0.366647 0.013706 0.439803
v -0.358786 0.019903 0.439473
v -0.368525 -0.000284 0.439473
v -0.371775 -0.000319 0.445023
v -0.371908 -0.002152 0.445030
v -0.366393 -0.014357 0.447890
v -0.358786 -0.019763 0.448838
v -0.368525 -0.000284 0.448838
v -0.382006 0.010373 0.440934
v -0.389222 -0.000404 0.440780
v -0.394399 -0.000284 0.441298
v -0.384661 0.014292 0.441298
v -0.382006 -0.012351 0.446763
v -0.389222 -0.000404 0.446924
v -0.394399 -0.000284 0.446406
v -0.384661 -0.016441 0.446406
v -0.366647 0.013706 0.439803
v -0.382006 0.010373 0.440934
v -0.384661 0.014292 0.441298
v -0.358786 0.019903 0.439473
v -0.382006 0.010373 0.446770
v -0.366647 0.013706 0.447901
v -0.358786 0.019903 0.448838
v -0.384661 0.014292 0.446406
v -0.366393 -0.014357 0.447890
v -0.382006 -0.012351 0.446763
v -0.384661 -0.016441 0.446406
v -0.358786 -0.019763 0.448838
v -0.382006 -0.012351 0.440941
v -0.366393 -0.014357 0.439813
v -0.358786 -0.019763 0.439473
v -0.384661 -0.016441 0.441298
v -0.366393 -0.014357 0.439813
v -0.371908 -0.002152 0.442673
v -0.371870 -0.000319 0.442681
v -0.368525 -0.000284 0.439473
v -0.358786 -0.019763 0.439473
v -0.366647 0.013706 0.447901
v -0.372044 0.001341 0.445031
v -0.371775 -0.000319 0.445023
v -0.368525 -0.000284 0.448838
v -0.358786 0.019903 0.448838
v -0.389222 -0.000404 0.440780
v -0.382006 -0.012351 0.440941
v -0.384661 -0.016441 0.441298
v -0.394399 -0.000284 0.441298
v -0.389222 -0.000404 0.446924
v -0.382006 0.010373 0.446770
v -0.384661 0.014292 0.446406
v -0.394399 -0.000284 0.446406
v -0.372044 0.001341 0.445031
v -0.372044 0.001341 0.442673
v -0.378033 0.001341 0.442673
v -0.378033 0.001341 0.445031
v -0.378033 0.001341 0.445031
v -0.378033 0.001341 0.442673
v -0.379390 -0.000319 0.442681
v -0.379390 -0.000319 0.445023
v -0.379390 -0.000319 0.445023
v -0.379390 -0.000319 0.442681
v -0.377897 -0.002152 0.442673
v -0.377897 -0.002152 0.445030
v -0.377897 -0.002152 0.445030
v -0.377897 -0.002152 0.442673
v -0.371908 -0.002152 0.442673
v -0.371908 -0.002152 0.445030
v -0.371908 -0.002152 0.445030
v -0.371908 -0.002152 0.442673
v -0.366393 -0.014357 0.439813
v -0.366393 -0.014357 0.447890
v -0.366393 -0.014357 0.447890
v -0.366393 -0.014357 0.439813
v -0.382006 -0.012351 0.440941
v -0.382006 -0.012351 0.446763
v -0.382006 -0.012351 0.446763
v -0.382006 -0.012351 0.440941
v -0.389222 -0.000404 0.440780
v -0.389222 -0.000404 0.446924
v -0.389222 -0.000404 0.446924
v -0.389222 -0.000404 0.440780
v -0.382006 0.010373 0.440934
v -0.382006 0.010373 0.446770
v -0.382006 0.010373 0.446770
v -0.382006 0.010373 0.440934
v -0.366647 0.013706 0.439803
v -0.366647 0.013706 0.447901
v -0.366647 0.013706 0.447901
v -0.366647 0.013706 0.439803
v -0.372044 0.001341 0.442673
v -0.372044 0.001341 0.445031
v -0.219298 -0.002342 0.246017
v -0.219298 0.002342 0.246017
v -0.187584 0.002342 0.234084
v -0.187584 -0.002342 0.234084
v -0.219514 0.002342 0.245895
v -0.219730 0.002342 0.252152
v -0.199812 0.001838 0.252575
v -0.194906 0.001838 0.247596
v -0.219730 0.002342 0.252152
v -0.219730 -0.002342 0.252152
v -0.199812 -0.001838 0.252575
v -0.199812 0.001838 0.252575
v -0.219514 -0.002342 0.245895
v -0.219298 -0.002342 0.246017
v -0.187584 -0.002342 0.234084
v -0.194906 -0.001838 0.247596
v -0.194906 -0.001838 0.247596
v -0.194906 0.001838 0.247596
v -0.187307 0.001676 0.253487
v -0.187307 -0.001676 0.253487
v -0.187584 -0.002342 0.234084
v -0.187584 0.002342 0.234084
v -0.194906 0.001838 0.247596
v -0.194906 -0.001838 0.247596
v -0.219730 -0.002342 0.252152
v -0.219514 -0.002342 0.245895
v -0.194906 -0.001838 0.247596
v -0.199812 -0.001838 0.252575
v -0.219298 0.002342 0.246017
v -0.219514 0.002342 0.245895
v -0.194906 0.001838 0.247596
v -0.187584 0.002342 0.234084
v -0.187307 0.001676 0.253487
v -0.190819 0.001676 0.259758
v -0.185203 0.001033 0.263731
v -0.181874 0.001033 0.260807
v -0.194906 0.001838 0.247596
v -0.199812 0.001838 0.252575
v -0.190819 0.001676 0.259758
v -0.187307 0.001676 0.253487
v -0.199812 -0.001838 0.252575
v -0.194906 -0.001838 0.247596
v -0.187307 -0.001676 0.253487
v -0.190819 -0.001676 0.259758
v -0.199812 0.001838 0.252575
v -0.199812 -0.001838 0.252575
v -0.190819 -0.001676 0.259758
v -0.190819 0.001676 0.259758
v -0.181874 -0.001033 0.260807
v -0.181874 0.001033 0.260807
v -0.185203 0.001033 0.263731
v -0.185203 -0.001033 0.263731
v -0.190819 0.001676 0.259758
v -0.190819 -0.001676 0.259758
v -0.185203 -0.001033 0.263731
v -0.185203 0.001033 0.263731
v -0.187307 -0.001676 0.253487
v -0.187307 0.001676 0.253487
v -0.181874 0.001033 0.260807
v -0.181874 -0.001033 0.260807
v -0.190819 -0.001676 0.259758
v -0.187307 -0.001676 0.253487
v -0.181874 -0.001033 0.260807
v -0.185203 -0.001033 0.263731
f 1 2 3 4
f 5 6 7 8
f 9 10 11 12
f 13 14 15 16
f 17 18 19 20
f 21 22 23 24
f 25 26 27 28
f 29 30 31 32
f 33 34 35 36
f 37 38 39 40
f 41 42 43 44
f 45 46 47 48
f 49 50 51 52
f 53 54 55 56
f 57 58 59 60
f 61 62 63 64
f 65 66 67 68
f 69 70 71 72
f 73 74 75 76
f 77 78 79 80
f 81 82 83 84
f 85 86 87 88
f 89 90 91 92
f 93 94 95 96
f 97 98 99 100
f 101 102 103 104
f 105 106 107 108
f 109 110 111 112
f 113 114 115 116
f 117 118 119 120
f 121 122 123 124
f 125 126 127 128
f 129 130 131 132
f 133 134 135 136
f 137 138 139 140
f 141 142 143 144
f 145 146 147 148
f 149 150 151 152
f 153 154 155 156
f 157 158 159 160
f 161 162 163 164
f 165 166 167 168
f 169 170 171 172
f 173 174 175 176
f 177 178 179 180
f 181 182 183 184
f 185 186 187 188
f 189 190 191 192
f 193 194 195 196
f 197 198 199 200
f 201 202 203 204
f 205 206 207 208
f 209 210 211 212
f 213 214 215 216
f 217 218 219 220
f 221 222 223 224
f 225 226 227 228
f 229 230 231 232
f 233 234 235
f 236 237 238 239
f 240 241 242 243
f 244 245 246
f 247 248 249 250
f 251 252 253 254
f 255 256 257 258
f 259 260 261
f 262 263 264 265
f 266 267 268 269
f 270 271 272 273
f 274 275 276 277
f 278 279 280 281
f 282 283 284 285
f 286 287 288 289
f 290 291 292 293
f 294 295 296 297
f 298 299 300 301
f 302 303 304 305
f 306 307 308
f 309 310 311 312
f 313 314 315 316
f 317 318 319 320
f 321 322 323 324
f 325 326 327 328
f 329 330 331 332
f 333 334 335 336
f 337 338 339 340
f 341 342 343 344
f 345 346 347 348
f 349 350 351 352
f 353 354 355 356
f 357 358 359 360
f 361 362 363 364
f 365 366 367 368
f 369 370 371 372
f 373 374 375 376
f 377 378 379 380
f 381 382 383 384
f 385 386 387 388
f 389 390 391 392
f 393 394 395 396
f 397 398 399 400
f 401 402 403 404
f 405 406 407 408
f 409 410 411 412
f 413 414 415 416
f 417 418 419
f 420 421 422
f 423 424 425 426
f 427 428 429
f 430 431 432
f 433 434 435 436
f 437 438 439
f 440 441 442
f 443 444 445 446
f 447 448 449
f 450 451 452 453
f 454 455 456 457
f 458 459 460 461
f 462 463 464 465
f 466 467 468
f 469 470 471
f 472 473 474 475
f 476 477 478
f 479 480 481 482
f 483 484 485 486 487
f 488 489 490 491
f 492 493 494 495
f 496 497 498 499
f 500 501 502 503
f 504 505 506 507
f 508 509 510 511
f 512 513 514 515
f 516 517 518 519
f 520 521 522
f 523 524 525
f 526 527 528
f 529 530 531
f 532 533 534 535
f 536 537 538 539
f 540 541 542 543
f 544 545 546 547
f 548 549 550 551
f 552 553 554 555
f 556 557 558 559
f 560 561 562 563
f 564 565 566
f 567 568 569
f 570 571 572 573
f 574 575 576 577
f 578 579 580
f 581 582 583 584
f 585 586 587 588
f 589 590 591
f 592 593 594 595
f 596 597 598
f 599 600 601
f 602 603 604 605
f 606 607 608 609
f 610 611 612 613
f 614 615 616 617
f 618 619 620 621
f 622 623 624 625
f 626 627 628 629
f 630 631 632 633 634
f 635 636 637 638 639
f 640 641 642 643
f 644 645 646 647
f 648 649 650 651 652
f 653 654 655 656
f 657 658 659 660
f 661 662 663 664
f 665 666 667 668
f 669 670 671 672
f 673 674 675 676
f 677 678 679 680
f 681 682 683 684
f 685 686 687 688
f 689 690 691 692
f 693 694 695 696
f 697 698 699 700
f 701 702 703 704
f 705 706 707 708
f 709 710 711 712
f 713 714 715 716
f 717 718 719 720
f 721 722 723 724
f 725 726 727 728
f 729 730 731 732
f 733 734 735 736
f 737 738 739 740
f 741 742 743 744
f 745 746 747 748
f 749 750 751 752
f 753 754 755 756
f 757 758 759 760
f 761 762 763 764
f 765 766 767 768
f 769 770 771 772
f 773 774 775 776
f 777 778 779 780
f 781 782 783 784
f 785 786 787 788
f 789 790 791 792
f 793 794 795 796
f 797 798 799 800
f 801 802 803 804
f 805 806 807 808
f 809 810 811 812
f 813 814 815
f 816 817 818 819
f 820 821 822 823 824
f 825 826 827 828
f 829 830 831 832
f 833 834 835 836
f 837 838 839 840
f 841 842 843 844
f 845 846 847 848
f 849 850 851
f 852 853 854 855
f 856 857 858 859
f 860 861 862 863
f 864 865 866 867
f 868 869 870 871
f 872 873 874 875
f 876 877 878 879
f 880 881 882 883
f 884 885 886 887
f 888 889 890 891
f 892 893 894 895
f 896 897 898 899
f 900 901 902 903
f 904 905 906 907
f 908 909 910 911
f 912 913 914 915
f 916 917 918 919
f 920 921 922 923
f 924 925 926 927
f 928 929 930 931
f 932 933 934 935
f 936 937 938
f 939 940 941 942
f 943 944 945 946
f 947 948 949
f 950 951 952 953 954
f 955 956 957 958
f 959 960 961 962
f 963 964 965 966
f 967 968 969 970
f 971 972 973 974
f 975 976 977 978
f 979 980 981 982
f 983 984 985 986
f 987 988 989 990
f 991 992 993 994
f 995 996 997 998
f 999 1000 1001 1002
f 1003 1004 1005 1006
f 1007 1008 1009 1010
f 1011 1012 1013 1014
f 1015 1016 1017 1018
f 1019 1020 1021 1022
f 1023 1024 1025 1026
f 1027 1028 1029 1030
f 1031 1032 1033 1034
f 1035 1036 1037 1038
f 1039 1040 1041 1042
f 1043 1044 1045 1046
f 1047 1048 1049 1050
f 1051 1052 1053 1054
f 1055 1056 1057 1058
f 1059 1060 1061 1062
f 1063 1064 1065 1066
f 1067 1068 1069 1070
f 1071 1072 1073 1074
f 1075 1076 1077 1078
f 1079 1080 1081 1082
f 1083 1084 1085 1086
f 1087 1088 1089 1090
f 1091 1092 1093 1094
f 1095 1096 1097 1098
f 1099 1100 1101 1102
f 1103 1104 1105 1106
f 1107 1108 1109 1110
f 1111 1112 1113 1114
f 1115 1116 1117 1118
f 1119 1120 1121 1122
f 1123 1124 1125 1126
f 1127 1128 1129 1130
f 1131 1132 1133 1134
f 1135 1136 1137
f 1138 1139 1140
f 1141 1142 1143
f 1144 1145 1146
f 1147 1148 1149 1150
f 1151 1152 1153 1154
f 1155 1156 1157 1158
f 1159 1160 1161 1162
f 1163 1164 1165 1166
f 1167 1168 1169 1170
f 1171 1172 1173 1174
f 1175 1176 1177 1178
f 1179 1180 1181 1182
f 1183 1184 1185 1186
f 1187 1188 1189 1190
f 1191 1192 1193 1194
f 1195 1196 1197 1198
f 1199 1200 1201 1202
f 1203 1204 1205 1206
f 1207 1208 1209 1210
f 1211 1212 1213 1214 1215 1216 1217 1218
f 1219 1220 1221 1222
f 1223 1224 1225 1226
f 1227 1228 1229 1230
f 1231 1232 1233 1234
f 1235 1236 1237 1238
f 1239 1240 1241 1242
f 1243 1244 1245 1246
f 1247 1248 1249 1250
f 1251 1252 1253 1254
f 1255 1256 1257 1258
f 1259 1260 1261 1262
f 1263 1264 1265 1266
f 1267 1268 1269 1270
f 1271 1272 1273 1274
f 1275 1276 1277 1278
f 1279 1280 1281 1282
f 1283 1284 1285 1286
f 1287 1288 1289 1290
f 1291 1292 1293 1294
f 1295 1296 1297 1298
f 1299 1300 1301 1302
f 1303 1304 1305 1306
f 1307 1308 1309 1310
f 1311 1312 1313 1314
f 1315 1316 1317 1318
f 1319 1320 1321 1322
f 1323 1324 1325 1326
f 1327 1328 1329 1330
f 1331 1332 1333 1334
f 1335 1336 1337 1338
f 1339 1340 1341 1342
f 1343 1344 1345 1346
f 1347 1348 1349 1350
f 1351 1352 1353 1354
f 1355 1356 1357 1358 1359
f 1360 1361 1362 1363 1364
f 1365 1366 1367 1368
f 1369 1370 1371 1372
f 1373 1374 1375 1376
f 1377 1378 1379 1380
f 1381 1382 1383 1384
f 1385 1386 1387 1388
f 1389 1390 1391 1392 1393
f 1394 1395 1396 1397 1398
f 1399 1400 1401 1402
f 1403 1404 1405 1406
f 1407 1408 1409 1410
f 1411 1412 1413 1414
f 1415 1416 1417 1418
f 1419 1420 1421 1422
f 1423 1424 1425 1426
f 1427 1428 1429 1430
f 1431 1432 1433 1434
f 1435 1436 1437 1438
f 1439 1440 1441 1442
f 1443 1444 1445 1446
f 1447 1448 1449 1450
f 1451 1452 1453 1454
f 1455 1456 1457 1458
f 1459 1460 1461 1462
f 1463 1464 1465 1466
f 1467 1468 1469 1470
f 1471 1472 1473 1474
f 1475 1476 1477 1478
f 1479 1480 1481 1482
f 1483 1484 1485 1486
f 1487 1488 1489 1490
f 1491 1492 1493 1494
f 1495 1496 1497 1498
f 1499 1500 1501 1502
f 1503 1504 1505 1506
f 1507 1508 1509 1510
