o Cylinder_001
v 0.044899 -0.000000 -0.170964
v 0.042588 -0.000000 -0.155647
v 0.052639 -0.004729 -0.169719
v 0.054950 -0.004729 -0.177192
v 0.001613 0.061042 0.084546
v -0.000877 0.027400 -0.067425
v -0.023105 0.019329 -0.067454
v -0.041560 0.043147 0.084526
v 0.001617 0.061527 0.196875
v 0.045123 0.043506 0.196875
v 0.044791 0.043152 0.084549
v 0.001613 0.061042 0.084546
v 0.036254 0.013456 -0.155636
v 0.038227 0.014180 -0.170951
v 0.048279 0.018909 -0.177184
v 0.046305 0.018185 -0.169712
v 0.001613 -0.061042 0.084546
v -0.000877 -0.027401 -0.067425
v 0.021347 -0.019325 -0.067428
v 0.044791 -0.043152 0.084549
v 0.045123 0.043506 0.196875
v 0.063144 -0.000000 0.196875
v 0.062659 -0.000000 0.084545
v 0.044791 0.043152 0.084549
v -0.000882 0.040195 -0.170917
v -0.000881 0.038144 -0.155606
v 0.002932 0.048595 -0.169757
v 0.002931 0.050645 -0.177227
v -0.041560 0.043147 0.084526
v -0.023105 0.019329 -0.067454
v -0.032244 0.000000 -0.067476
v -0.059422 0.000000 0.084512
v 0.063144 -0.000000 0.196875
v 0.045123 -0.043506 0.196875
v 0.044791 -0.043152 0.084549
v 0.062659 -0.000000 0.084545
v 0.031556 -0.028360 -0.170939
v 0.029920 -0.026912 -0.155625
v 0.033733 -0.037362 -0.169767
v 0.035369 -0.038810 -0.177238
v 0.044791 -0.043152 0.084549
v 0.021347 -0.019325 -0.067428
v 0.030482 -0.000000 -0.067439
v 0.062659 -0.000000 0.084545
v 0.045123 -0.043506 0.196875
v 0.001617 -0.061527 0.196875
v 0.001613 -0.061042 0.084546
v 0.044791 -0.043152 0.084549
v 0.014519 -0.032528 -0.155615
v 0.015337 -0.034277 -0.170928
v 0.019150 -0.044728 -0.177233
v 0.018332 -0.042978 -0.169762
v 0.044791 0.043152 0.084549
v 0.021347 0.019325 -0.067428
v -0.000877 0.027400 -0.067425
v 0.001613 0.061042 0.084546
v 0.001617 -0.061527 0.196875
v -0.041890 -0.043506 0.196875
v -0.041560 -0.043147 0.084526
v 0.001613 -0.061042 0.084546
v -0.000882 -0.040195 -0.170917
v -0.000882 -0.026861 -0.170447
v 0.020843 -0.018977 -0.170423
v 0.031556 -0.028360 -0.170939
v 0.015337 -0.034277 -0.170928
v -0.059422 0.000000 0.084512
v -0.032244 0.000000 -0.067476
v -0.023105 -0.019329 -0.067454
v -0.041560 -0.043147 0.084526
v -0.041890 -0.043506 0.196875
v -0.059911 0.000000 0.196875
v -0.059422 0.000000 0.084512
v -0.041560 -0.043147 0.084526
v 0.062659 -0.000000 0.084545
v 0.030482 -0.000000 -0.067439
v 0.021347 0.019325 -0.067428
v 0.044791 0.043152 0.084549
v 0.015337 0.034277 -0.170928
v -0.000882 0.040195 -0.170917
v 0.002931 0.050645 -0.177227
v 0.019150 0.044728 -0.177232
v -0.059911 0.000000 0.196875
v -0.041890 0.043506 0.196875
v -0.041560 0.043147 0.084526
v -0.059422 0.000000 0.084512
v -0.044352 0.000000 -0.155653
v -0.038017 0.013456 -0.155641
v -0.048069 0.018185 -0.169716
v -0.054403 0.004729 -0.169722
v -0.041560 -0.043147 0.084526
v -0.023105 -0.019329 -0.067454
v -0.000877 -0.027401 -0.067425
v 0.001613 -0.061042 0.084546
v -0.041890 0.043506 0.196875
v 0.001617 0.061527 0.196875
v 0.001613 0.061042 0.084546
v -0.041560 0.043147 0.084526
v 0.001617 -0.061527 0.196875
v 0.045123 -0.043506 0.196875
v 0.015050 -0.013433 0.385475
v 0.001617 -0.018998 0.385475
v 0.038227 0.014180 -0.170951
v 0.031556 0.028360 -0.170939
v 0.041607 0.033089 -0.177178
v 0.048279 0.018909 -0.177184
v 0.029824 -0.000000 -0.170395
v 0.020774 -0.000000 -0.467169
v 0.014496 0.013319 -0.467153
v 0.020843 0.018977 -0.170423
v -0.046663 0.000000 -0.170963
v -0.031588 0.000000 -0.170395
v -0.022607 -0.018977 -0.170423
v -0.033320 -0.028360 -0.170939
v -0.039991 -0.014180 -0.170951
v -0.000882 0.040195 -0.170917
v -0.000882 0.026860 -0.170447
v -0.022607 0.018977 -0.170423
v -0.033320 0.028360 -0.170939
v -0.017101 0.034277 -0.170928
v 0.031556 0.028360 -0.170939
v 0.020843 0.018977 -0.170423
v -0.000882 0.026860 -0.170447
v -0.000882 0.040195 -0.170917
v 0.015337 0.034277 -0.170928
v 0.031556 -0.028360 -0.170939
v 0.020843 -0.018977 -0.170423
v 0.029824 -0.000000 -0.170395
v 0.044899 -0.000000 -0.170964
v 0.038227 -0.014180 -0.170951
v -0.033320 -0.028360 -0.170939
v -0.022607 -0.018977 -0.170423
v -0.000882 -0.026861 -0.170447
v -0.000882 -0.040195 -0.170917
v -0.017101 -0.034277 -0.170928
v -0.033320 0.028360 -0.170939
v -0.022607 0.018977 -0.170423
v -0.031588 0.000000 -0.170395
v -0.046663 0.000000 -0.170963
v -0.039991 0.014180 -0.170951
v 0.044899 -0.000000 -0.170964
v 0.029824 -0.000000 -0.170395
v 0.020843 0.018977 -0.170423
v 0.031556 0.028360 -0.170939
v 0.038227 0.014180 -0.170951
v 0.014496 0.013319 -0.467153
v 0.020774 -0.000000 -0.467169
v 0.014496 -0.013319 -0.467153
v -0.000882 -0.018922 -0.467139
v -0.016261 -0.013319 -0.467153
v -0.022539 0.000000 -0.467169
v -0.016261 0.013319 -0.467153
v -0.000882 0.018922 -0.467139
v -0.000882 -0.026861 -0.170447
v -0.000882 -0.018922 -0.467139
v 0.014496 -0.013319 -0.467153
v 0.020843 -0.018977 -0.170423
v -0.031588 0.000000 -0.170395
v -0.022539 0.000000 -0.467169
v -0.016261 -0.013319 -0.467153
v -0.022607 -0.018977 -0.170423
v -0.000882 0.026860 -0.170447
v -0.000882 0.018922 -0.467139
v -0.016261 0.013319 -0.467153
v -0.022607 0.018977 -0.170423
v 0.020843 0.018977 -0.170423
v 0.014496 0.013319 -0.467153
v -0.000882 0.018922 -0.467139
v -0.000882 0.026860 -0.170447
v 0.020843 -0.018977 -0.170423
v 0.014496 -0.013319 -0.467153
v 0.020774 -0.000000 -0.467169
v 0.029824 -0.000000 -0.170395
v -0.022607 -0.018977 -0.170423
v -0.016261 -0.013319 -0.467153
v -0.000882 -0.018922 -0.467139
v -0.000882 -0.026861 -0.170447
v -0.022607 0.018977 -0.170423
v -0.016261 0.013319 -0.467153
v -0.022539 0.000000 -0.467169
v -0.031588 0.000000 -0.170395
v -0.011817 0.013433 0.385475
v -0.017381 -0.000000 0.385475
v -0.014458 -0.000000 0.445203
v -0.009750 0.011366 0.445203
v -0.041890 -0.043506 0.196875
v 0.001617 -0.061527 0.196875
v 0.001617 -0.018998 0.385475
v -0.011817 -0.013433 0.385475
v 0.045123 0.043506 0.196875
v 0.001617 0.061527 0.196875
v 0.001617 0.018998 0.385475
v 0.015050 0.013433 0.385475
v 0.063144 -0.000000 0.196875
v 0.045123 0.043506 0.196875
v 0.015050 0.013433 0.385475
v 0.020614 -0.000000 0.385475
v -0.059911 0.000000 0.196875
v -0.041890 -0.043506 0.196875
v -0.011817 -0.013433 0.385475
v -0.017381 -0.000000 0.385475
v 0.001617 0.061527 0.196875
v -0.041890 0.043506 0.196875
v -0.011817 0.013433 0.385475
v 0.001617 0.018998 0.385475
v 0.045123 -0.043506 0.196875
v 0.063144 -0.000000 0.196875
v 0.020614 -0.000000 0.385475
v 0.015050 -0.013433 0.385475
v -0.041890 0.043506 0.196875
v -0.059911 0.000000 0.196875
v -0.017381 -0.000000 0.385475
v -0.011817 0.013433 0.385475
v 0.001616 -0.016074 0.445203
v 0.012983 -0.011366 0.445203
v 0.008533 -0.006917 0.450054
v 0.001616 -0.009782 0.450054
v -0.011817 -0.013433 0.385475
v 0.001617 -0.018998 0.385475
v 0.001616 -0.016074 0.445203
v -0.009750 -0.011366 0.445203
v 0.015050 -0.013433 0.385475
v 0.020614 -0.000000 0.385475
v 0.017691 -0.000000 0.445203
v 0.012983 -0.011366 0.445203
v 0.015050 0.013433 0.385475
v 0.001617 0.018998 0.385475
v 0.001616 0.016074 0.445203
v 0.012983 0.011366 0.445203
v 0.001617 0.018998 0.385475
v -0.011817 0.013433 0.385475
v -0.009750 0.011366 0.445203
v 0.001616 0.016074 0.445203
v -0.017381 -0.000000 0.385475
v -0.011817 -0.013433 0.385475
v -0.009750 -0.011366 0.445203
v -0.014458 -0.000000 0.445203
v 0.001617 -0.018998 0.385475
v 0.015050 -0.013433 0.385475
v 0.012983 -0.011366 0.445203
v 0.001616 -0.016074 0.445203
v 0.020614 -0.000000 0.385475
v 0.015050 0.013433 0.385475
v 0.012983 0.011366 0.445203
v 0.017691 -0.000000 0.445203
v 0.001616 0.009781 0.450054
v -0.005300 0.006917 0.450054
v -0.004395 0.006011 0.489903
v 0.001616 0.008501 0.489903
v 0.017691 -0.000000 0.445203
v 0.012983 0.011366 0.445203
v 0.008533 0.006917 0.450054
v 0.011398 -0.000000 0.450054
v -0.009750 0.011366 0.445203
v -0.014458 -0.000000 0.445203
v -0.008165 -0.000000 0.450054
v -0.005300 0.006917 0.450054
v -0.009750 -0.011366 0.445203
v 0.001616 -0.016074 0.445203
v 0.001616 -0.009782 0.450054
v -0.005300 -0.006917 0.450054
v 0.012983 -0.011366 0.445203
v 0.017691 -0.000000 0.445203
v 0.011398 -0.000000 0.450054
v 0.008533 -0.006917 0.450054
v 0.012983 0.011366 0.445203
v 0.001616 0.016074 0.445203
v 0.001616 0.009781 0.450054
v 0.008533 0.006917 0.450054
v 0.001616 0.016074 0.445203
v -0.009750 0.011366 0.445203
v -0.005300 0.006917 0.450054
v 0.001616 0.009781 0.450054
v -0.014458 -0.000000 0.445203
v -0.009750 -0.011366 0.445203
v -0.005300 -0.006917 0.450054
v -0.008165 -0.000000 0.450054
v 0.001616 0.008501 0.489903
v -0.004395 0.006011 0.489903
v -0.006885 -0.000000 0.489903
v -0.004395 -0.006011 0.489903
v 0.001616 -0.008501 0.489903
v 0.007627 -0.006011 0.489903
v 0.010117 -0.000000 0.489903
v 0.007627 0.006011 0.489903
v -0.008165 -0.000000 0.450054
v -0.005300 -0.006917 0.450054
v -0.004395 -0.006011 0.489903
v -0.006885 -0.000000 0.489903
v 0.001616 -0.009782 0.450054
v 0.008533 -0.006917 0.450054
v 0.007627 -0.006011 0.489903
v 0.001616 -0.008501 0.489903
v 0.011398 -0.000000 0.450054
v 0.008533 0.006917 0.450054
v 0.007627 0.006011 0.489903
v 0.010117 -0.000000 0.489903
v -0.005300 0.006917 0.450054
v -0.008165 -0.000000 0.450054
v -0.006885 -0.000000 0.489903
v -0.004395 0.006011 0.489903
v -0.005300 -0.006917 0.450054
v 0.001616 -0.009782 0.450054
v 0.001616 -0.008501 0.489903
v -0.004395 -0.006011 0.489903
v 0.008533 -0.006917 0.450054
v 0.011398 -0.000000 0.450054
v 0.010117 -0.000000 0.489903
v 0.007627 -0.006011 0.489903
v 0.008533 0.006917 0.450054
v 0.001616 0.009781 0.450054
v 0.001616 0.008501 0.489903
v 0.007627 0.006011 0.489903
v 0.021347 0.019325 -0.067428
v 0.029920 0.026912 -0.155625
v 0.014519 0.032528 -0.155615
v 0.030482 -0.000000 -0.067439
v 0.042588 -0.000000 -0.155647
v 0.036254 0.013456 -0.155636
v -0.000877 -0.027401 -0.067425
v -0.000881 -0.038145 -0.155606
v 0.014519 -0.032528 -0.155615
v 0.021347 -0.019325 -0.067428
v 0.029920 -0.026912 -0.155625
v 0.036254 -0.013456 -0.155636
v -0.000877 0.027400 -0.067425
v -0.000881 0.038144 -0.155606
v -0.016282 0.032528 -0.155617
v -0.032244 0.000000 -0.067476
v -0.044352 0.000000 -0.155653
v -0.038017 -0.013456 -0.155641
v -0.023105 -0.019329 -0.067454
v -0.031683 -0.026912 -0.155629
v -0.016282 -0.032528 -0.155617
v -0.023105 0.019329 -0.067454
v -0.031683 0.026912 -0.155629
v -0.038017 0.013456 -0.155641
v 0.042588 -0.000000 -0.155647
v 0.044899 -0.000000 -0.170964
v 0.038227 0.014180 -0.170951
v 0.036254 0.013456 -0.155636
v 0.029920 -0.026912 -0.155625
v 0.031556 -0.028360 -0.170939
v 0.038227 -0.014180 -0.170951
v 0.036254 -0.013456 -0.155636
v 0.029920 0.026912 -0.155625
v 0.031556 0.028360 -0.170939
v 0.015337 0.034277 -0.170928
v 0.014519 0.032528 -0.155615
v -0.000881 0.038144 -0.155606
v -0.000882 0.040195 -0.170917
v -0.017101 0.034277 -0.170928
v -0.016282 0.032528 -0.155617
v -0.000881 -0.038145 -0.155606
v -0.000882 -0.040195 -0.170917
v 0.015337 -0.034277 -0.170928
v 0.014519 -0.032528 -0.155615
v -0.031683 -0.026912 -0.155629
v -0.033320 -0.028360 -0.170939
v -0.017101 -0.034277 -0.170928
v -0.016282 -0.032528 -0.155617
v -0.044352 0.000000 -0.155653
v -0.046663 0.000000 -0.170963
v -0.039991 -0.014180 -0.170951
v -0.038017 -0.013456 -0.155641
v -0.031683 0.026912 -0.155629
v -0.033320 0.028360 -0.170939
v -0.039991 0.014180 -0.170951
v -0.038017 0.013456 -0.155641
v -0.032244 0.000000 -0.067476
v -0.023105 0.019329 -0.067454
v -0.038017 0.013456 -0.155641
v -0.044352 0.000000 -0.155653
v -0.023105 0.019329 -0.067454
v -0.000877 0.027400 -0.067425
v -0.016282 0.032528 -0.155617
v -0.031683 0.026912 -0.155629
v -0.000877 0.027400 -0.067425
v 0.021347 0.019325 -0.067428
v 0.014519 0.032528 -0.155615
v -0.000881 0.038144 -0.155606
v 0.021347 0.019325 -0.067428
v 0.030482 -0.000000 -0.067439
v 0.036254 0.013456 -0.155636
v 0.029920 0.026912 -0.155625
v 0.030482 -0.000000 -0.067439
v 0.021347 -0.019325 -0.067428
v 0.036254 -0.013456 -0.155636
v 0.042588 -0.000000 -0.155647
v 0.021347 -0.019325 -0.067428
v -0.000877 -0.027401 -0.067425
v 0.014519 -0.032528 -0.155615
v 0.029920 -0.026912 -0.155625
v -0.000877 -0.027401 -0.067425
v -0.023105 -0.019329 -0.067454
v -0.016282 -0.032528 -0.155617
v -0.000881 -0.038145 -0.155606
v -0.023105 -0.019329 -0.067454
v -0.032244 0.000000 -0.067476
v -0.038017 -0.013456 -0.155641
v -0.031683 -0.026912 -0.155629
v -0.048069 0.018185 -0.169716
v -0.050043 0.018909 -0.177185
v -0.056714 0.004729 -0.177191
v -0.054403 0.004729 -0.169722
v -0.020095 -0.042978 -0.169762
v -0.020914 -0.044728 -0.177232
v -0.004695 -0.050645 -0.177227
v -0.004694 -0.048595 -0.169757
v -0.048068 -0.018185 -0.169715
v -0.050042 -0.018909 -0.177184
v -0.043371 -0.033088 -0.177178
v -0.041734 -0.031641 -0.169709
v -0.020095 0.042979 -0.169763
v -0.020914 0.044728 -0.177233
v -0.037133 0.038810 -0.177238
v -0.035496 0.037363 -0.169769
v 0.046305 -0.018185 -0.169714
v 0.048279 -0.018909 -0.177185
v 0.054950 -0.004729 -0.177192
v 0.052639 -0.004729 -0.169719
v 0.018332 -0.042978 -0.169762
v 0.019150 -0.044728 -0.177233
v 0.035369 -0.038810 -0.177238
v 0.033733 -0.037362 -0.169767
v 0.046305 0.018185 -0.169712
v 0.048279 0.018909 -0.177184
v 0.041607 0.033089 -0.177178
v 0.039971 0.031640 -0.169707
v 0.018332 0.042978 -0.169762
v 0.019150 0.044728 -0.177232
v 0.002931 0.050645 -0.177227
v 0.002932 0.048595 -0.169757
v -0.046663 0.000000 -0.170963
v -0.044352 0.000000 -0.155653
v -0.054403 0.004729 -0.169722
v -0.056714 0.004729 -0.177191
v -0.016282 -0.032528 -0.155617
v -0.017101 -0.034277 -0.170928
v -0.020914 -0.044728 -0.177232
v -0.020095 -0.042978 -0.169762
v -0.033320 0.028360 -0.170939
v -0.031683 0.026912 -0.155629
v -0.035496 0.037363 -0.169769
v -0.037133 0.038810 -0.177238
v 0.036254 -0.013456 -0.155636
v 0.038227 -0.014180 -0.170951
v 0.048279 -0.018909 -0.177185
v 0.046305 -0.018185 -0.169714
v -0.000881 0.038144 -0.155606
v 0.014519 0.032528 -0.155615
v 0.018332 0.042978 -0.169762
v 0.002932 0.048595 -0.169757
v -0.033320 -0.028360 -0.170939
v -0.031683 -0.026912 -0.155629
v -0.041734 -0.031641 -0.169709
v -0.043371 -0.033088 -0.177178
v -0.017101 0.034277 -0.170928
v -0.033320 0.028360 -0.170939
v -0.037133 0.038810 -0.177238
v -0.020914 0.044728 -0.177233
v 0.029920 0.026912 -0.155625
v 0.036254 0.013456 -0.155636
v 0.046305 0.018185 -0.169712
v 0.039971 0.031640 -0.169707
v -0.038017 -0.013456 -0.155641
v -0.039991 -0.014180 -0.170951
v -0.050042 -0.018909 -0.177184
v -0.048068 -0.018185 -0.169715
v -0.039991 0.014180 -0.170951
v -0.046663 0.000000 -0.170963
v -0.056714 0.004729 -0.177191
v -0.050043 0.018909 -0.177185
v 0.029920 -0.026912 -0.155625
v 0.014519 -0.032528 -0.155615
v 0.018332 -0.042978 -0.169762
v 0.033733 -0.037362 -0.169767
v 0.031556 0.028360 -0.170939
v 0.029920 0.026912 -0.155625
v 0.039971 0.031640 -0.169707
v 0.041607 0.033089 -0.177178
v 0.014519 0.032528 -0.155615
v 0.015337 0.034277 -0.170928
v 0.019150 0.044728 -0.177232
v 0.018332 0.042978 -0.169762
v -0.039991 -0.014180 -0.170951
v -0.033320 -0.028360 -0.170939
v -0.043371 -0.033088 -0.177178
v -0.050042 -0.018909 -0.177184
v 0.042588 -0.000000 -0.155647
v 0.036254 -0.013456 -0.155636
v 0.046305 -0.018185 -0.169714
v 0.052639 -0.004729 -0.169719
v -0.017101 -0.034277 -0.170928
v -0.000882 -0.040195 -0.170917
v -0.004695 -0.050645 -0.177227
v -0.020914 -0.044728 -0.177232
v -0.031683 0.026912 -0.155629
v -0.016282 0.032528 -0.155617
v -0.020095 0.042979 -0.169763
v -0.035496 0.037363 -0.169769
v -0.038017 0.013456 -0.155641
v -0.039991 0.014180 -0.170951
v -0.050043 0.018909 -0.177185
v -0.048069 0.018185 -0.169716
v 0.015337 -0.034277 -0.170928
v 0.031556 -0.028360 -0.170939
v 0.035369 -0.038810 -0.177238
v 0.019150 -0.044728 -0.177233
v -0.031683 -0.026912 -0.155629
v -0.038017 -0.013456 -0.155641
v -0.048068 -0.018185 -0.169715
v -0.041734 -0.031641 -0.169709
v -0.016282 0.032528 -0.155617
v -0.017101 0.034277 -0.170928
v -0.020914 0.044728 -0.177233
v -0.020095 0.042979 -0.169763
v 0.038227 -0.014180 -0.170951
v 0.044899 -0.000000 -0.170964
v 0.054950 -0.004729 -0.177192
v 0.048279 -0.018909 -0.177185
v -0.000881 -0.038145 -0.155606
v -0.016282 -0.032528 -0.155617
v -0.020095 -0.042978 -0.169762
v -0.004694 -0.048595 -0.169757
v -0.000882 -0.040195 -0.170917
v -0.000881 -0.038145 -0.155606
v -0.004694 -0.048595 -0.169757
v -0.004695 -0.050645 -0.177227
f 1 2 3 4
f 5 6 7 8
f 9 10 11 12
f 13 14 15 16
f 17 18 19 20
f 21 22 23 24
f 25 26 27 28
f 29 30 31 32
f 33 34 35 36
f 37 38 39 40
f 41 42 43 44
f 45 46 47 48
f 49 50 51 52
f 53 54 55 56
f 57 58 59 60
f 61 62 63 64 65
f 66 67 68 69
f 70 71 72 73
f 74 75 76 77
f 78 79 80 81
f 82 83 84 85
f 86 87 88 89
f 90 91 92 93
f 94 95 96 97
f 98 99 100 101
f 102 103 104 105
f 106 107 108 109
f 110 111 112 113 114
f 115 116 117 118 119
f 120 121 122 123 124
f 125 126 127 128 129
f 130 131 132 133 134
f 135 136 137 138 139
f 140 141 142 143 144
f 145 146 147 148 149 150 151 152
f 153 154 155 156
f 157 158 159 160
f 161 162 163 164
f 165 166 167 168
f 169 170 171 172
f 173 174 175 176
f 177 178 179 180
f 181 182 183 184
f 185 186 187 188
f 189 190 191 192
f 193 194 195 196
f 197 198 199 200
f 201 202 203 204
f 205 206 207 208
f 209 210 211 212
f 213 214 215 216
f 217 218 219 220
f 221 222 223 224
f 225 226 227 228
f 229 230 231 232
f 233 234 235 236
f 237 238 239 240
f 241 242 243 244
f 245 246 247 248
f 249 250 251 252
f 253 254 255 256
f 257 258 259 260
f 261 262 263 264
f 265 266 267 268
f 269 270 271 272
f 273 274 275 276
f 277 278 279 280 281 282 283 284
f 285 286 287 288
f 289 290 291 292
f 293 294 295 296
f 297 298 299 300
f 301 302 303 304
f 305 306 307 308
f 309 310 311 312
f 313 314 315
f 316 317 318
f 319 320 321
f 322 323 324
f 325 326 327
f 328 329 330
f 331 332 333
f 334 335 336
f 337 338 339 340
f 341 342 343 344
f 345 346 347 348
f 349 350 351 352
f 353 354 355 356
f 357 358 359 360
f 361 362 363 364
f 365 366 367 368
f 369 370 371 372
f 373 374 375 376
f 377 378 379 380
f 381 382 383 384
f 385 386 387 388
f 389 390 391 392
f 393 394 395 396
f 397 398 399 400
f 401 402 403 404
f 405 406 407 408
f 409 410 411 412
f 413 414 415 416
f 417 418 419 420
f 421 422 423 424
f 425 426 427 428
f 429 430 431 432
f 433 434 435 436
f 437 438 439 440
f 441 442 443 444
f 445 446 447 448
f 449 450 451 452
f 453 454 455 456
f 457 458 459 460
f 461 462 463 464
f 465 466 467 468
f 469 470 471 472
f 473 474 475 476
f 477 478 479 480
f 481 482 483 484
f 485 486 487 488
f 489 490 491 492
f 493 494 495 496
f 497 498 499 500
f 501 502 503 504
f 505 506 507 508
f 509 510 511 512
f 513 514 515 516
f 517 518 519 520
f 521 522 523 524
f 525 526 527 528
